<svg xmlns="http://www.w3.org/2000/svg" viewBox="78.78 20.28 628.15 670.02"><path id="aq" d="M157.7 230.8c-3.5-7.8-3.5-7.8-3.5-15.6-1.8 0-2 .3-3 0-1.1-.3-1.5 7.2-4.8 5.8-.5-.8 2.4-6.2-.7-8.5-1-.7.2-5.2-.2-7.2 0 0-4 2.4-7-5.8-1.5-2.2-3.5 2-3.5 2s.9 2.4-.7 3c-2.2-1.8-3.9-.8-6.7-3.4s.6-5.4-4.8-7.5c3.5-9.8 3.5-7.9 12.2-11.8-5.2-4-5.2-4-8.7-9.8-5.2-2-7-4-12.2-7.8-7-9.9-10.5-29.5-10.5-43.2 4.4-4.6 10.5 15.7 19.2 21.6l12.2 5.9c7 3.9 8.7 7.8 14 11.7l15.6 6c7 5.8 10.5 13.6 15.7 15.6 5.7 0 6.8-3.7 8.6-3.9 10.3-.6 15.5-2 17.5-5.5 2.1-2.8 7 1.6 21-4.3l-1.7-7.9s3.7-3.4 8.7-2c-.1-3.5-.5-13 4.5-17.4-3-3.5 1.8-9 2-10.7-1.4-8.6 1.4-8.7 2-11.3.6-2.5-2.4-1.7-1.6-5.2.9-3.5 6-4.3 6.6-7.2.7-2.9-1.1-14.3-1.3-16.8 9.4-2.8 12.4-11.4 15.7-7.8C264 70 265.8 66 276.3 66c1.4-3.6-3.9-6.7-1.8-7.9 3.5-.5 6.1-.2 10.2 5.7 1.3 2 1.6-2.7 2.9-3.2s4.4-.5 4.9-2.8c.5-2.4 1.2-5.6 3-9.5 1.4-3.2 2.5 1.3 3.8 7.5 7.4.3 24 2.1 31 4.3 5.2 1.5 8.7-1.5 13.7-2.2 3.7 4.2 7.2 1 9.2 10 2.7 4.8 7.3.4 8.3 1.8 5.8 18.1 25.8 5.9 27.4 6.2 2.5 0 5.6 8 7.7 7.9 3.2-.6 2.3-3.1 5.2-2.1-.8 6.8 5.6 14.6 5.6 19.7 0 0 1.5.9 3-.6 1.4-1.6 2.7-5.4 4-5.3 3 .5 22 6 25.8 7.9 1.7 3.5 3.3 5.3 6.8 4.7 2.8 2.1.8 5 2.4 5.1 3.5-2 4.7-4 8.2-2.1 3.5 2 7 5.9 8.7 9.8 0 2-1.8 9.8 0 21.6.9 3.9 9.7 32.3 9.7 35.2 0 4-2.7 6-4.5 9.9 7 5.9 0 15.7-3.5 21.6 26.2 5.9 14 17.6 34.9 11.7-5.2 13.8-3.4 12.7 1.8 26.4-10.4 7.8-.2 10.2-7.1 20-.5.7 4.1 8.6 10.5 8.6-1.7 15.6-7 9.8-5.2 33.3-13.7-.3-8.2 17.6-17.4 15.7.5 11.2 5.2 12.2 3.4 23.5-7 2-7 2-10.4 7.9l-5.2-2c-1.8 9.8-5.3 11.8 0 21.6 0 0-6.8.2-8.8 0-.1 3.4 3 4.3 3.5 7.8-.2 1.4-9.9 7.6-17.4 7.9-2 4.8 5.2 10 4.8 12.4-8.2 1.8-11.8 13-11.8 13s4.2 2 3.5 4c-2.2-1.8-3.5-2-7-2-1.7.5-6 0-10 7.7-4.5 1.6-6.6 1-10 6-1.5-4.7-3.7.1-6.3 2-2.7 1.8-6.2 6.5-6.7 6.3.1-1.4 1.6-6.3 1.6-6.3L399 437c-.7.1-.5-5.7-2.2-5.5s-6.4 7.3-8 7.5-2.1-2.2-3.5-2-4 7.5-5 7.7c-1 .1-5-4.5-8.3-3.8-17.1 6.8-19.9-13.4-22.5-2-3.6-2.2-3-1-6.7.1-2.3.7-2.5-3.4-4.6-3.4-4.1.2-4 4.6-6.2 3.3-1.8-9.2-13-7.6-14-11.5s4.8-4 6.6-6.8c1.4-4-1.5-5.6 4.3-9.4 7.5-5.7 6.8-19.8 4.9-25.3 0 0-5.9-17.7-7-17.7-3.5-1-3.5 6.5-8.6 8.6-10.5 4-29-9.9-32.2-9.9-2.9 0-16.5 3.6-16-4-2 7.4-9.5 1.7-10 1.7-7 0-4.3 6.1-9 5.9-2.1-.8-23.6-2.3-23.6-2.3v4l-26.1-11.8c-10.5-4-5.3-13.7-22.7-7.8v-11.8h-8.7c3.5-23.6 0-11.8-1.8-33.4l-7 2c-7-10.6 9.8-8.6-5.2-15.7 0 0 .3-11.7-3.5-7.8-.7.5 1.8 5.8 1.8 5.8-14-2-17.4-5.8-17.4-21.5 0 0 11.4 1.8 10.4 0-1.6-3-3.7-22-3.4-23.4-.1-2.6 10.7-9 8.6-15.2 1.4-.6 5.3-.7 5.3-.7"/><path id="bv" d="m 484.61275,644.9594 -0.051,0.023 -0.127,-10e-4 -0.043,0.006 -0.063,0.047 -0.02,-0.02 -0.023,-0.036 -0.01,-0.094 0.028,-0.105 0.041,-0.049 0.072,-0.043 0.058,-0.025 0.056,-0.01 0.03,0.003 0.105,0.077 0.008,0.055 -0.016,0.068 -0.017,0.049 z"/><path id="tf" d="m 620.36875,609.6544 -0.205,0.036 -0.183,-0.083 -0.104,-0.221 0.231,-0.189 0.119,0.13 0.088,0.145 0.054,0.182 z m 48.693,11.118 0.226,0.024 0.138,-0.039 0.619,-0.563 0.162,-0.014 -0.016,0.431 0.159,0.194 -0.201,0.05 -0.382,-0.021 -0.087,0.247 0.385,0.316 0.192,0.043 0.156,-0.003 0.293,-0.072 0.234,-0.114 0.363,-0.264 0.218,-0.103 0.412,-0.004 0.215,-0.25 0.1,-0.077 0.241,0.011 0.219,0.098 0.131,0.227 0.069,0.276 -0.053,0.274 -0.146,0.267 -0.267,0.163 0.061,0.195 -0.071,0.099 -0.134,0.006 -0.114,-0.045 -0.168,-0.229 -0.202,-0.122 -0.484,0.008 -0.218,0.016 -0.038,0.175 -0.115,0.135 -0.12,0.074 -0.163,-0.032 -0.03,0.074 0.087,0.184 0.212,0.232 0.366,0.162 0.215,0.033 0.029,-0.309 0.26,-0.036 0.229,0.092 0.167,0.228 -0.136,0.075 -0.119,0.121 -0.025,0.156 -0.232,0.17 -0.139,0.019 -0.438,-0.084 -0.261,-0.191 -0.062,-0.136 -0.161,-0.051 -0.181,0.175 -0.194,0.038 -0.38,-0.146 -0.351,-0.234 -0.219,-0.088 -0.341,-0.056 -0.189,0.531 -0.261,0.226 -0.338,0.021 -0.162,-0.044 -0.09,-0.209 0.023,-0.223 0.055,-0.214 0.106,-0.218 0.066,-0.238 -0.028,-0.225 -0.122,-0.164 0.064,-0.295 -0.12,-0.23 0.042,-0.169 0.195,-0.116 -0.083,-0.102 -0.104,-0.026 -0.075,-0.134 -0.058,-0.162 0.076,-0.304 0.113,-0.292 -0.014,-0.329 0.191,-0.311 0.164,-0.348 0.122,-0.138 0.154,-0.021 0.067,0.097 0.033,0.189 -0.061,0.123 0.144,0.056 0.038,0.403 -0.09,0.166 -0.014,0.16 -0.187,0.341 0.054,0.274 0.379,0.12 z m 0.274,-0.216 -0.173,0.033 -0.054,-0.139 0.006,-0.184 -0.096,-0.146 -0.055,-0.162 0.048,-0.153 0.278,-0.018 0.287,0.049 0.073,0.259 -0.207,0.354 -0.107,0.107 z"/><path id="hm" d="m 681.75475,638.7484 -0.335,0.222 -0.345,-0.002 -0.147,-0.174 -0.215,-0.545 -0.143,-0.039 -0.089,-0.15 -0.007,-0.063 0.152,-0.044 0.232,0.156 0.555,0.126 0.408,0.299 0.3,0.101 -0.12,0.08 z"/><path id="gs" d="m 370.76475,643.1304 0.273,0.232 0.217,-0.158 0.225,0.019 0.123,0.078 0.126,0.03 0.158,10e-4 0.272,0.392 -0.114,0.347 0.298,-0.068 0.259,0.289 0.118,-0.023 0.059,-0.117 0.167,-0.134 0.115,0.18 0.14,0.345 0.177,0.105 0.156,0.365 0.123,0.462 0.112,0.066 0.192,0.001 0.195,-0.063 -0.074,0.4 0.023,0.354 0.322,0.255 -0.192,0.141 -0.202,0.204 -0.411,0.157 -0.107,-0.066 -0.359,-0.355 -0.167,-0.418 -0.377,-0.596 -0.074,-0.175 -0.097,-0.112 -0.341,-0.072 -0.3,-0.143 -0.25,-0.3 -0.078,-0.184 -0.096,-0.128 -0.339,0.007 -0.214,-0.141 -0.211,-0.192 -0.953,-0.554 -0.374,0.056 -0.172,-0.156 0.009,-0.277 0.197,-0.165 -0.825,-0.063 -0.293,-0.099 0.202,-0.06 1.15,-0.009 0.431,-0.046 0.038,0.119 0.381,0.245 0.362,0.024 z m 30.421,22.057 0.012,0.306 -0.436,-0.28 -0.101,-0.132 0.14,-0.171 0.274,-0.006 0.067,0.104 0.044,0.179 z"/></svg>
