<svg xmlns="http://www.w3.org/2000/svg" viewBox="12.36 -30.00 1017.64 1060.00"><path d="M 963.00 910.35 L 958.02 912.98 L 956.55 914.62 L 955.19 914.81 L 954.91 913.06 L 955.32 911.00 L 954.27 907.81 L 952.36 904.60 L 951.80 901.20 L 953.27 899.98 L 956.68 898.77 L 959.42 896.98 L 961.98 893.67 L 964.17 892.02 L 965.54 892.93 L 967.31 895.36 L 968.85 896.82 L 971.76 898.49 L 974.65 899.87 L 976.01 901.52 L 975.40 904.81 L 972.65 906.74 L 967.20 907.41 L 964.65 909.96 L 963.00 910.35 Z" fill="#000000"/><path d="M 942.61 758.82 L 940.10 758.10 L 938.69 757.01 L 939.03 755.44 L 941.71 753.25 L 940.87 752.07 L 940.81 751.30 L 941.71 749.63 L 942.39 747.48 L 942.13 745.70 L 942.16 744.19 L 943.70 742.83 L 946.20 746.32 L 947.45 747.16 L 949.67 747.48 L 949.66 747.13 L 950.51 746.38 L 951.68 745.60 L 952.68 745.20 L 953.71 745.29 L 955.89 746.06 L 957.11 746.24 L 960.71 747.66 L 968.23 753.12 L 971.71 753.25 L 970.99 752.31 L 969.71 749.63 L 974.58 752.24 L 977.01 752.88 L 978.59 752.01 L 980.88 753.89 L 983.13 754.91 L 985.75 755.33 L 989.15 755.42 L 990.12 755.88 L 991.27 757.01 L 993.18 759.44 L 994.58 760.50 L 997.45 760.50 L 998.71 761.09 L 1000.00 764.15 L 999.31 767.48 L 997.42 770.20 L 995.14 771.30 L 992.54 770.40 L 985.75 763.36 L 982.79 761.05 L 980.46 759.67 L 977.89 759.00 L 974.19 758.82 L 972.54 759.02 L 970.36 759.87 L 969.21 760.06 L 967.49 759.69 L 966.54 758.88 L 965.79 758.07 L 964.63 757.68 L 961.49 758.39 L 955.70 761.60 L 952.17 762.33 L 950.62 761.97 L 949.65 761.19 L 948.92 760.42 L 948.14 760.06 L 942.61 758.82 Z" fill="#000000"/><path d="M 868.45 975.21 L 868.72 972.05 L 867.01 969.82 L 865.41 967.99 L 865.41 966.29 L 870.44 968.87 L 873.41 967.67 L 875.92 966.71 L 877.64 965.27 L 882.20 963.80 L 883.23 960.55 L 886.46 957.47 L 887.79 954.38 L 891.00 955.17 L 893.90 953.41 L 898.16 953.37 L 899.66 953.31 L 901.14 952.54 L 902.64 951.34 L 904.79 948.07 L 906.00 946.66 L 906.54 947.38 L 907.48 950.83 L 909.80 953.81 L 912.73 957.94 L 916.51 959.83 L 925.68 962.99 L 928.90 960.84 L 932.12 959.16 L 939.43 957.20 L 942.82 952.58 L 945.79 946.09 L 952.98 933.93 L 955.19 930.70 L 958.00 928.86 L 961.15 930.25 L 962.26 933.17 L 962.10 936.99 L 959.20 954.76 L 957.98 959.39 L 948.68 971.91 L 943.98 986.49 L 940.86 988.41 L 930.00 993.34 L 923.67 992.30 L 921.81 992.91 L 920.43 993.65 L 917.60 995.80 L 916.60 995.80 L 916.60 994.57 L 917.57 993.67 L 915.41 991.87 L 912.28 991.45 L 904.68 996.12 L 899.64 995.80 L 891.00 998.00 L 884.55 995.21 L 875.20 994.33 L 873.10 994.65 L 870.73 995.96 L 870.12 997.20 L 869.27 998.68 L 868.73 1000.00 L 867.78 999.77 L 866.07 998.56 L 864.20 996.22 L 863.79 994.42 L 863.43 991.55 L 863.31 987.80 L 860.72 983.06 L 860.25 982.15 L 860.73 980.97 L 865.08 980.49 L 867.53 978.81 L 868.45 975.21 Z" fill="#000000"/><path d="M 775.47 707.54 L 774.72 712.21 L 770.54 719.07 L 765.11 725.58 L 760.61 729.21 L 761.90 722.08 L 766.15 717.33 L 771.35 713.11 L 775.47 707.54 Z" fill="#000000"/><path d="M 817.54 709.92 L 816.60 708.84 L 814.54 705.37 L 819.37 706.85 L 820.52 707.54 L 821.01 705.70 L 822.09 704.28 L 823.40 703.63 L 824.60 704.14 L 825.49 703.44 L 825.88 703.21 L 826.50 703.11 L 826.50 701.87 L 825.31 701.52 L 824.81 701.17 L 824.42 700.57 L 823.52 699.50 L 831.05 699.59 L 834.65 698.98 L 838.56 697.32 L 838.72 697.97 L 838.78 698.50 L 838.99 699.01 L 839.56 699.50 L 836.12 705.94 L 834.48 707.54 L 834.40 705.87 L 833.89 704.55 L 832.94 703.61 L 831.58 703.11 L 832.09 705.37 L 833.29 707.54 L 834.88 708.60 L 836.57 707.54 L 837.55 709.98 L 838.89 722.40 L 839.69 724.95 L 841.56 729.21 L 839.05 729.86 L 838.00 732.67 L 837.48 736.32 L 836.57 739.42 L 835.14 741.34 L 833.04 743.58 L 830.82 745.45 L 829.04 746.24 L 827.37 747.72 L 822.52 757.68 L 814.90 764.35 L 813.55 765.07 L 812.00 765.19 L 803.13 769.03 L 799.48 769.87 L 797.24 772.03 L 793.60 778.22 L 792.42 779.58 L 788.56 783.17 L 787.08 783.90 L 783.77 784.44 L 781.17 785.91 L 776.47 790.70 L 776.28 789.20 L 776.47 783.33 L 777.13 781.69 L 778.66 781.23 L 784.42 781.73 L 785.65 781.12 L 790.05 776.98 L 790.17 775.92 L 788.62 774.71 L 788.62 773.69 L 791.48 771.75 L 792.51 771.30 L 791.66 771.03 L 790.99 770.73 L 790.55 770.13 L 790.44 769.03 L 793.37 767.81 L 797.66 765.04 L 801.04 764.50 L 801.82 763.96 L 803.42 761.62 L 805.35 760.18 L 805.19 758.09 L 804.64 755.80 L 804.67 754.29 L 807.36 753.14 L 811.35 752.69 L 814.96 751.76 L 816.54 749.12 L 817.14 745.10 L 818.82 743.17 L 821.39 742.38 L 824.60 741.79 L 830.39 739.52 L 834.40 735.62 L 835.77 730.24 L 833.57 723.54 L 829.55 720.40 L 819.17 720.21 L 814.54 717.76 L 812.35 715.54 L 812.60 714.92 L 814.36 711.92 L 815.32 710.96 L 816.39 710.32 L 817.54 709.92 Z" fill="#000000"/><path d="M 775.02 697.32 L 765.52 682.47 L 766.06 681.94 L 766.30 681.39 L 766.41 680.82 L 766.60 680.21 L 768.20 680.11 L 770.64 679.22 L 771.58 679.06 L 773.33 679.59 L 777.47 682.47 L 778.93 682.88 L 782.10 683.17 L 783.54 683.61 L 787.62 687.12 L 788.07 688.54 L 788.24 691.47 L 788.62 692.69 L 789.14 692.85 L 790.92 692.60 L 791.52 692.69 L 791.83 693.18 L 792.51 695.06 L 795.37 696.10 L 800.61 696.49 L 803.67 697.32 L 802.58 695.06 L 805.82 695.90 L 814.54 699.50 L 803.67 709.92 L 803.17 708.56 L 803.10 708.20 L 801.58 707.54 L 801.71 704.80 L 799.03 705.32 L 795.24 706.55 L 784.45 703.59 L 782.95 702.27 L 780.56 699.50 L 779.75 701.45 L 778.00 703.10 L 776.27 703.99 L 775.47 703.63 L 776.32 700.03 L 776.29 698.14 L 775.02 697.32 Z" fill="#000000"/><path d="M 865.66 638.11 L 852.65 640.86 L 846.50 640.73 L 843.64 635.73 L 854.61 636.87 L 862.81 635.96 L 865.66 636.87 L 865.66 638.11 Z" fill="#000000"/><path d="M 575.45 576.62 L 580.35 577.01 L 586.63 578.88 L 592.06 581.90 L 594.39 585.70 L 589.14 583.91 L 583.00 582.61 L 577.82 580.60 L 575.45 576.62 Z" fill="#000000"/><path d="M 554.33 563.46 L 556.62 568.63 L 562.11 572.75 L 574.36 577.76 L 572.27 580.10 L 568.93 579.14 L 562.39 575.38 L 554.98 574.78 L 552.21 573.28 L 553.42 569.81 L 550.71 567.82 L 547.95 565.14 L 545.42 563.64 L 543.35 565.16 L 538.29 559.51 L 532.83 555.25 L 526.66 553.12 L 519.43 553.82 L 519.43 552.68 L 523.74 551.30 L 524.42 550.93 L 524.14 549.44 L 523.17 547.94 L 523.32 547.01 L 521.77 545.93 L 520.56 544.01 L 520.26 541.87 L 521.42 540.10 L 523.22 540.47 L 524.48 539.93 L 525.43 539.20 L 526.32 538.97 L 527.45 539.51 L 528.21 540.39 L 529.50 542.46 L 531.11 544.14 L 532.90 545.14 L 535.18 545.64 L 538.29 545.78 L 537.79 546.48 L 537.53 547.02 L 537.14 547.50 L 536.29 548.04 L 545.84 558.70 L 552.76 562.90 L 554.33 563.46 Z" fill="#000000"/><path d="M 691.46 656.27 L 693.22 657.96 L 694.48 662.23 L 695.21 667.27 L 695.41 673.78 L 695.13 675.54 L 694.26 676.28 L 692.46 675.67 L 691.61 674.51 L 690.55 668.86 L 690.01 669.25 L 688.56 669.99 L 687.61 665.66 L 683.44 657.84 L 681.92 651.05 L 680.54 648.72 L 675.61 642.38 L 674.10 640.87 L 672.27 639.93 L 655.57 636.44 L 651.94 634.04 L 650.07 632.43 L 639.64 625.49 L 637.35 624.49 L 637.78 622.87 L 638.46 621.40 L 639.37 620.04 L 640.53 618.71 L 641.43 618.71 L 642.89 621.11 L 647.00 623.23 L 648.50 625.53 L 644.74 624.97 L 643.52 624.49 L 644.52 626.42 L 646.02 628.06 L 647.77 629.02 L 649.50 628.93 L 651.28 630.17 L 654.06 632.65 L 655.39 633.46 L 657.04 633.88 L 659.40 634.10 L 660.89 633.60 L 659.92 631.82 L 651.58 622.08 L 650.50 619.28 L 651.05 614.79 L 652.28 611.56 L 653.61 608.92 L 654.39 606.23 L 654.27 602.28 L 653.31 597.82 L 651.66 593.85 L 649.50 591.36 L 648.97 592.13 L 647.41 593.65 L 647.66 589.73 L 642.14 584.82 L 642.43 581.17 L 640.46 580.64 L 638.68 579.89 L 637.76 578.65 L 638.43 576.62 L 635.47 574.15 L 634.37 571.51 L 633.45 564.04 L 630.46 556.09 L 629.05 555.31 L 628.09 555.68 L 627.06 556.50 L 625.39 557.11 L 626.38 549.11 L 625.55 546.71 L 622.49 549.27 L 623.86 547.08 L 624.47 546.35 L 625.39 545.78 L 623.56 545.17 L 622.36 546.36 L 621.19 548.14 L 619.40 549.27 L 619.40 548.04 L 620.89 546.37 L 622.03 544.43 L 622.63 542.01 L 622.49 538.97 L 623.38 539.21 L 624.11 539.69 L 624.77 540.38 L 625.39 541.23 L 633.95 556.09 L 635.94 557.40 L 638.57 560.56 L 641.01 564.34 L 642.43 567.54 L 644.20 578.78 L 645.96 581.67 L 648.51 584.64 L 657.15 602.24 L 656.93 603.96 L 658.08 605.49 L 658.46 609.10 L 658.47 616.44 L 659.66 624.45 L 662.13 629.44 L 666.27 632.49 L 678.72 637.41 L 684.08 641.80 L 693.54 652.97 L 692.92 653.82 L 692.12 655.44 L 691.46 656.27 Z" fill="#000000"/><path d="M 685.48 535.56 L 692.83 533.29 L 698.28 533.37 L 700.14 534.22 L 703.42 536.69 L 701.95 539.28 L 701.01 541.40 L 699.54 542.61 L 696.45 542.46 L 696.45 543.51 L 697.36 544.77 L 694.73 544.81 L 691.22 543.63 L 689.46 541.23 L 686.82 542.50 L 682.00 542.54 L 679.41 543.51 L 678.86 539.70 L 679.85 537.58 L 682.12 536.43 L 685.48 535.56 Z" fill="#000000"/><path d="M 477.38 491.09 L 475.18 488.73 L 472.49 482.84 L 470.10 479.03 L 468.31 474.07 L 466.80 471.39 L 466.24 469.66 L 466.24 467.26 L 469.84 469.92 L 478.29 490.06 L 477.38 491.09 Z" fill="#000000"/><path d="M 748.47 483.15 L 747.27 485.11 L 745.17 491.89 L 745.02 493.35 L 735.41 494.49 L 735.41 493.35 L 737.90 490.09 L 739.57 484.93 L 740.18 479.17 L 739.50 474.07 L 739.56 470.08 L 741.17 467.66 L 743.71 466.18 L 746.56 464.99 L 747.37 464.30 L 748.17 463.38 L 749.03 462.84 L 750.01 463.28 L 752.19 467.37 L 752.54 467.78 L 752.84 469.51 L 754.17 471.84 L 754.54 472.93 L 754.45 474.44 L 753.65 477.72 L 753.45 479.22 L 747.48 490.06 L 747.04 488.15 L 747.30 486.50 L 748.47 483.15 Z" fill="#000000"/><path d="M 250.24 455.81 L 248.34 457.24 L 240.91 461.13 L 238.28 461.48 L 237.33 460.24 L 236.58 458.04 L 236.29 455.71 L 236.70 454.16 L 238.04 454.00 L 239.86 454.52 L 241.49 454.59 L 242.18 453.01 L 243.63 452.45 L 251.65 446.72 L 252.34 446.42 L 254.72 444.97 L 256.23 444.45 L 262.21 444.45 L 261.67 446.14 L 260.79 446.97 L 258.22 447.76 L 257.02 447.78 L 256.39 447.22 L 255.66 446.93 L 254.15 447.76 L 253.14 449.33 L 251.73 453.87 L 250.24 455.81 Z" fill="#000000"/><path d="M 244.26 443.21 L 242.10 443.30 L 241.19 444.70 L 241.30 446.80 L 242.18 449.00 L 240.08 448.45 L 236.38 449.02 L 234.21 449.00 L 232.62 448.30 L 230.93 446.93 L 230.34 445.47 L 232.12 444.45 L 235.92 443.68 L 239.70 441.81 L 242.71 440.94 L 244.26 443.21 Z" fill="#000000"/><path d="M 302.18 497.90 L 303.41 500.26 L 302.52 506.55 L 303.27 509.35 L 300.78 515.27 L 298.83 516.32 L 295.20 515.13 L 295.68 517.21 L 298.33 519.49 L 299.18 521.94 L 298.97 524.17 L 298.14 526.62 L 297.09 528.71 L 296.20 529.88 L 291.61 531.55 L 288.13 529.98 L 284.95 527.52 L 281.25 526.47 L 283.76 529.67 L 283.71 531.13 L 282.33 533.29 L 281.25 533.29 L 278.82 529.75 L 274.49 528.54 L 265.20 528.86 L 270.19 526.47 L 269.45 523.63 L 272.58 523.71 L 280.25 526.47 L 281.14 523.46 L 282.62 521.33 L 284.65 519.77 L 292.49 515.88 L 294.70 514.06 L 294.70 512.18 L 292.09 511.13 L 289.52 512.68 L 287.05 514.98 L 284.69 516.16 L 276.17 521.94 L 276.74 522.40 L 277.16 522.97 L 273.67 522.54 L 270.15 517.29 L 267.19 516.16 L 276.79 512.51 L 281.64 509.46 L 282.33 505.94 L 280.24 508.29 L 277.38 509.26 L 269.64 509.35 L 267.56 509.78 L 265.78 510.58 L 264.08 511.09 L 262.21 510.59 L 261.03 509.26 L 260.14 507.27 L 258.01 496.09 L 257.82 491.89 L 258.72 490.06 L 256.58 489.29 L 256.50 487.45 L 257.13 485.18 L 257.13 483.15 L 255.47 481.22 L 253.46 479.96 L 252.30 478.87 L 253.24 477.47 L 253.24 476.34 L 250.39 474.48 L 241.28 470.67 L 242.14 469.40 L 243.17 468.28 L 245.27 469.73 L 246.09 469.27 L 246.21 468.05 L 246.17 467.26 L 246.26 465.70 L 245.84 464.94 L 245.81 464.19 L 247.08 462.71 L 248.56 461.90 L 252.51 460.52 L 254.15 459.20 L 254.73 457.80 L 255.68 453.71 L 256.23 452.41 L 261.23 452.04 L 263.12 451.26 L 264.59 449.94 L 265.10 448.90 L 265.42 447.61 L 266.29 445.59 L 268.48 443.67 L 274.51 441.04 L 276.17 438.78 L 280.25 436.41 L 281.61 438.65 L 282.68 441.31 L 283.89 443.53 L 285.68 444.45 L 286.67 445.36 L 285.27 447.33 L 276.26 455.15 L 272.68 457.21 L 268.19 458.08 L 268.19 459.20 L 270.78 459.43 L 271.87 460.66 L 271.23 462.06 L 268.64 462.71 L 268.07 463.37 L 269.59 464.86 L 273.18 467.26 L 275.50 466.20 L 276.29 468.03 L 275.92 471.03 L 273.52 475.76 L 273.03 477.91 L 272.26 479.68 L 270.19 480.87 L 272.90 481.67 L 275.22 479.51 L 279.75 469.86 L 282.80 466.24 L 284.23 463.85 L 284.82 460.58 L 284.98 456.38 L 285.51 452.45 L 287.23 450.02 L 290.12 450.49 L 292.30 453.82 L 294.07 457.99 L 295.70 460.96 L 297.56 463.32 L 298.60 465.84 L 299.08 468.77 L 299.36 474.26 L 300.11 477.77 L 300.28 479.22 L 300.11 481.13 L 299.36 484.32 L 299.18 486.04 L 299.66 486.96 L 301.71 490.11 L 302.18 491.70 L 301.71 493.66 L 300.68 494.98 L 299.66 495.81 L 299.18 496.30 L 297.68 497.03 L 294.50 497.11 L 291.65 498.34 L 291.12 502.54 L 296.23 498.74 L 299.25 497.31 L 302.18 497.90 Z" fill="#000000"/><path d="M 266.74 432.48 L 263.94 434.48 L 262.05 434.03 L 261.37 432.38 L 262.21 430.74 L 265.42 429.06 L 268.14 427.04 L 270.89 425.74 L 273.81 424.98 L 276.17 425.17 L 277.18 425.75 L 278.36 426.80 L 279.18 428.13 L 279.16 429.60 L 278.03 430.51 L 276.53 430.00 L 274.98 429.01 L 273.72 428.46 L 271.14 428.65 L 269.61 429.27 L 266.74 432.48 Z" fill="#000000"/><path d="M 624.93 450.64 L 626.06 453.10 L 628.48 462.71 L 621.85 460.42 L 618.84 460.15 L 615.42 460.44 L 608.81 461.84 L 606.50 463.16 L 603.95 465.51 L 600.34 465.87 L 596.43 463.15 L 594.76 459.74 L 597.93 458.08 L 600.07 457.48 L 603.19 455.92 L 606.06 453.74 L 607.52 451.26 L 610.34 451.34 L 611.64 446.83 L 611.01 441.41 L 607.99 438.78 L 603.72 437.80 L 600.71 435.34 L 592.91 422.07 L 591.76 417.38 L 588.95 413.06 L 588.31 410.82 L 587.43 405.53 L 584.95 401.56 L 581.17 399.24 L 576.35 398.84 L 576.92 397.10 L 577.04 395.10 L 576.82 392.99 L 576.35 391.01 L 575.57 388.97 L 574.83 388.21 L 573.82 387.70 L 567.38 381.83 L 562.67 379.37 L 561.39 378.43 L 560.41 377.01 L 560.26 375.75 L 560.93 374.40 L 563.97 370.64 L 565.18 370.11 L 567.38 370.38 L 568.34 371.12 L 572.27 375.02 L 576.07 376.55 L 577.82 377.57 L 579.43 379.55 L 580.56 390.15 L 581.43 393.28 L 582.85 395.03 L 585.20 397.26 L 587.36 399.89 L 589.12 405.08 L 593.17 412.82 L 601.37 425.17 L 603.99 427.37 L 609.70 430.61 L 612.42 433.00 L 616.04 440.90 L 616.91 442.18 L 618.53 443.32 L 624.93 450.64 Z" fill="#000000"/><path d="M 308.75 321.98 L 306.54 320.66 L 303.71 320.35 L 301.01 320.43 L 299.18 320.23 L 296.79 317.41 L 298.38 314.22 L 301.86 311.51 L 305.17 310.02 L 307.31 309.64 L 312.24 307.75 L 314.47 307.50 L 320.71 307.75 L 326.91 306.58 L 329.19 306.62 L 331.22 307.36 L 334.73 309.56 L 340.31 310.89 L 338.72 312.89 L 323.42 320.29 L 319.89 320.19 L 315.23 318.07 L 314.38 319.46 L 312.71 321.44 L 310.68 322.71 L 308.75 321.98 Z" fill="#000000"/><path d="M 181.18 377.19 L 182.75 376.17 L 183.88 374.93 L 184.14 373.39 L 183.08 371.51 L 185.00 368.64 L 187.34 368.73 L 189.31 370.94 L 190.15 374.40 L 189.98 377.26 L 189.44 379.76 L 188.50 382.00 L 187.16 384.10 L 184.60 385.97 L 184.17 386.37 L 184.46 388.01 L 185.16 389.46 L 186.23 390.07 L 190.17 387.48 L 192.33 386.83 L 193.52 385.51 L 193.15 381.83 L 195.99 383.25 L 196.01 386.24 L 195.25 389.73 L 195.69 392.66 L 198.10 394.20 L 199.48 392.11 L 199.82 388.44 L 199.13 385.24 L 200.53 385.89 L 202.05 386.83 L 203.36 387.24 L 204.12 386.37 L 204.03 383.98 L 202.95 382.33 L 201.48 381.00 L 200.21 379.55 L 200.03 378.57 L 200.36 376.05 L 200.21 375.02 L 199.32 373.78 L 197.04 371.60 L 196.14 370.38 L 195.56 368.06 L 195.16 365.44 L 194.26 363.88 L 192.15 364.70 L 193.69 366.08 L 194.24 368.67 L 194.15 375.02 L 192.77 373.25 L 191.83 370.55 L 190.69 368.06 L 188.66 366.97 L 188.41 365.72 L 188.84 362.88 L 190.15 357.89 L 192.39 355.46 L 195.58 352.72 L 197.82 349.41 L 197.22 345.31 L 198.61 344.30 L 202.42 343.52 L 203.21 342.52 L 203.65 340.42 L 205.65 336.38 L 206.10 334.06 L 207.41 333.91 L 206.90 332.61 L 205.72 330.87 L 205.11 329.41 L 205.42 328.10 L 206.20 325.78 L 207.33 323.59 L 208.64 322.61 L 209.78 320.51 L 209.46 315.84 L 208.10 308.37 L 206.52 303.11 L 203.47 296.21 L 201.51 289.86 L 203.21 286.18 L 205.67 286.32 L 210.97 287.38 L 213.18 288.35 L 214.97 290.10 L 215.97 291.95 L 217.18 293.44 L 219.61 294.04 L 221.83 293.06 L 223.99 291.24 L 226.22 290.11 L 228.73 291.25 L 230.59 292.66 L 232.64 293.79 L 234.62 295.24 L 236.19 297.54 L 234.02 300.14 L 233.65 303.06 L 234.80 305.79 L 237.20 307.75 L 235.36 314.31 L 234.78 318.40 L 235.65 320.23 L 238.32 320.66 L 240.52 322.02 L 242.42 324.50 L 251.31 347.38 L 257.76 357.41 L 260.18 360.12 L 262.67 361.30 L 264.43 362.40 L 269.83 368.00 L 271.19 370.38 L 271.34 373.37 L 271.10 377.44 L 270.52 381.27 L 269.64 383.53 L 268.80 386.70 L 269.98 390.76 L 273.18 397.82 L 273.88 403.69 L 272.55 407.95 L 269.16 410.56 L 263.66 411.44 L 261.42 412.17 L 259.89 413.85 L 258.61 415.74 L 257.13 417.11 L 252.70 417.72 L 251.55 419.15 L 253.24 422.79 L 251.50 424.64 L 246.17 428.46 L 243.53 429.29 L 238.45 429.34 L 236.70 430.17 L 230.95 434.55 L 230.21 435.89 L 230.51 437.34 L 231.00 438.69 L 231.10 439.91 L 230.21 441.05 L 228.80 441.41 L 227.41 440.90 L 226.17 439.90 L 225.23 438.78 L 223.57 434.20 L 222.64 428.52 L 221.11 423.69 L 217.71 421.65 L 213.23 419.62 L 212.24 414.71 L 213.18 403.39 L 210.55 405.53 L 208.75 407.75 L 206.52 409.49 L 202.67 410.20 L 199.75 409.40 L 181.47 398.59 L 172.73 390.19 L 169.95 386.74 L 168.13 382.96 L 170.08 382.46 L 173.11 381.02 L 175.89 379.27 L 177.11 377.81 L 177.56 375.50 L 178.63 375.71 L 179.98 376.82 L 181.18 377.19 Z" fill="#000000"/><path d="M 501.31 293.00 L 505.70 295.98 L 507.59 298.28 L 508.37 301.45 L 507.15 315.54 L 506.52 318.21 L 506.38 319.66 L 505.79 321.40 L 504.45 322.46 L 503.06 323.12 L 502.31 323.64 L 501.80 326.84 L 502.44 329.80 L 504.29 334.06 L 504.86 336.81 L 504.29 344.74 L 503.52 348.10 L 500.09 353.83 L 499.31 356.14 L 498.95 367.79 L 499.46 374.18 L 501.31 379.55 L 496.46 377.33 L 493.94 372.03 L 492.35 365.93 L 490.34 361.30 L 487.92 359.48 L 481.54 356.77 L 478.83 355.01 L 475.75 351.31 L 476.13 349.77 L 478.51 349.59 L 492.83 352.12 L 493.79 351.68 L 494.47 350.61 L 495.08 349.32 L 495.83 348.19 L 498.22 345.68 L 498.92 344.21 L 499.31 341.90 L 499.19 338.08 L 498.00 338.95 L 496.33 341.61 L 494.79 343.14 L 493.90 341.26 L 494.06 337.00 L 495.33 329.41 L 496.15 326.62 L 496.56 325.96 L 497.41 324.88 L 501.61 320.85 L 502.31 319.66 L 503.44 310.17 L 503.39 306.62 L 500.78 298.97 L 496.19 294.90 L 490.94 292.13 L 486.35 288.35 L 474.30 270.09 L 470.60 266.94 L 465.06 264.83 L 453.37 262.15 L 447.35 258.97 L 438.53 250.31 L 432.79 248.53 L 429.61 248.18 L 423.57 246.62 L 420.78 246.26 L 417.64 247.10 L 412.51 250.06 L 410.31 249.67 L 413.95 245.74 L 416.00 239.22 L 418.29 226.86 L 417.29 226.86 L 422.31 226.80 L 424.58 227.12 L 426.27 228.00 L 424.67 230.57 L 423.96 233.12 L 423.91 235.96 L 424.27 239.45 L 426.56 236.33 L 428.20 237.89 L 429.51 241.10 L 430.84 242.86 L 433.66 243.67 L 452.20 258.47 L 457.56 261.61 L 464.33 263.29 L 471.08 263.58 L 473.51 264.26 L 475.83 266.18 L 483.37 277.01 L 492.20 285.96 L 501.31 293.00 Z" fill="#000000"/><path d="M 259.21 202.93 L 257.43 202.75 L 255.58 200.52 L 253.24 196.13 L 250.27 192.72 L 249.27 190.65 L 250.24 189.31 L 252.08 189.66 L 253.51 191.34 L 258.97 201.43 L 259.21 202.93 Z" fill="#000000"/><path d="M 146.65 65.19 L 144.09 66.93 L 140.97 68.54 L 138.42 70.41 L 137.06 71.58 L 134.00 71.85 L 132.62 72.56 L 126.66 71.97 L 120.84 69.86 L 117.30 66.28 L 110.95 62.29 L 95.61 46.15 L 88.64 40.26 L 87.10 37.75 L 88.67 37.72 L 89.95 38.07 L 91.03 38.82 L 92.00 40.01 L 110.77 52.17 L 115.11 58.28 L 118.01 57.72 L 120.32 57.36 L 125.03 59.44 L 128.51 59.49 L 131.81 57.92 L 134.79 55.77 L 136.80 54.82 L 138.51 53.74 L 139.65 52.97 L 140.20 51.63 L 142.04 50.10 L 142.42 48.02 L 144.55 46.19 L 146.34 42.45 L 149.05 40.60 L 148.71 38.84 L 145.20 36.60 L 139.13 35.48 L 140.14 33.32 L 144.12 28.67 L 144.97 26.62 L 146.10 19.59 L 148.88 21.63 L 151.45 24.91 L 153.34 28.49 L 154.08 31.45 L 156.84 33.15 L 168.88 38.00 L 171.91 37.18 L 178.64 38.88 L 186.09 40.21 L 190.89 40.38 L 192.86 37.37 L 195.88 35.82 L 200.44 37.92 L 203.22 38.44 L 208.42 36.24 L 215.44 37.25 L 220.08 35.79 L 224.72 33.64 L 227.68 33.22 L 236.95 33.05 L 239.20 32.08 L 240.57 30.23 L 241.57 28.08 L 242.87 26.25 L 245.17 25.26 L 245.51 28.35 L 244.78 31.73 L 244.38 35.15 L 246.99 41.03 L 247.10 44.21 L 245.87 46.89 L 243.17 48.07 L 242.12 47.64 L 239.65 45.47 L 238.28 44.66 L 236.40 44.32 L 226.86 44.88 L 218.16 46.93 L 198.10 51.04 L 189.97 51.05 L 159.30 59.07 L 156.67 59.51 L 153.94 60.41 L 149.51 64.30 L 146.65 65.19 Z" fill="#000000"/><path d="M 260.21 3.59 L 257.54 3.16 L 245.99 4.05 L 241.36 5.80 L 238.28 5.88 L 238.71 5.23 L 239.14 4.98 L 240.19 4.74 L 245.45 1.24 L 252.07 0.00 L 265.74 0.20 L 279.20 3.32 L 286.87 4.02 L 290.22 1.33 L 298.00 5.05 L 304.18 9.79 L 330.95 36.45 L 333.99 38.56 L 337.41 39.68 L 342.24 40.01 L 341.00 41.84 L 339.03 42.46 L 334.26 42.29 L 336.40 46.78 L 339.43 50.42 L 343.22 52.84 L 352.15 54.54 L 356.17 56.57 L 363.18 61.79 L 368.54 64.81 L 370.25 66.33 L 371.57 68.50 L 372.66 71.54 L 372.68 74.23 L 370.75 75.40 L 370.28 76.56 L 370.25 83.97 L 370.75 86.68 L 372.08 88.45 L 374.03 89.52 L 376.33 90.17 L 374.45 94.03 L 374.23 95.27 L 374.56 97.07 L 375.27 98.21 L 376.00 99.02 L 376.33 99.86 L 376.49 101.21 L 376.68 101.85 L 376.43 102.51 L 375.23 103.88 L 374.06 104.88 L 372.85 105.49 L 370.25 106.05 L 370.55 105.34 L 371.25 102.85 L 366.50 103.44 L 362.00 106.05 L 358.01 109.73 L 354.75 113.53 L 353.37 117.64 L 352.08 130.34 L 352.30 133.49 L 350.77 142.85 L 351.51 156.24 L 350.98 168.23 L 345.74 173.43 L 341.89 171.34 L 338.50 166.62 L 336.09 161.43 L 335.18 157.99 L 332.83 155.83 L 322.15 153.42 L 319.22 149.38 L 321.58 149.36 L 324.23 148.43 L 326.40 146.70 L 328.04 142.58 L 329.83 142.08 L 331.96 141.83 L 333.72 140.92 L 339.07 134.66 L 342.49 131.71 L 346.23 130.08 L 345.28 128.73 L 344.70 127.35 L 344.40 125.78 L 344.33 123.79 L 343.74 122.64 L 342.51 121.66 L 341.39 120.43 L 341.16 118.63 L 342.07 116.75 L 343.43 115.34 L 344.69 113.76 L 345.23 111.32 L 345.17 106.93 L 344.76 104.79 L 342.28 102.29 L 346.91 95.27 L 346.73 93.66 L 345.45 91.67 L 345.23 79.95 L 347.38 79.91 L 348.96 78.97 L 350.19 77.38 L 351.21 75.40 L 351.37 74.57 L 351.21 71.38 L 351.61 70.23 L 352.53 69.54 L 353.57 69.08 L 354.29 68.59 L 355.77 65.99 L 356.42 62.99 L 355.37 60.54 L 350.19 59.13 L 346.78 57.51 L 333.25 55.48 L 330.69 53.83 L 329.05 51.01 L 327.29 46.93 L 327.95 45.92 L 328.12 44.57 L 327.72 43.12 L 326.06 40.91 L 325.31 39.13 L 324.79 38.32 L 324.03 38.05 L 323.34 38.68 L 322.63 39.57 L 321.76 40.01 L 318.79 39.73 L 316.49 38.78 L 315.46 37.05 L 316.32 34.45 L 313.90 28.81 L 307.25 17.47 L 303.27 12.67 L 300.80 10.84 L 297.62 9.62 L 294.37 9.52 L 291.66 11.03 L 289.13 11.95 L 285.67 11.38 L 277.08 8.49 L 274.44 8.15 L 268.64 8.14 L 266.92 7.58 L 262.80 4.77 L 260.21 3.59 Z" fill="#000000"/><path d="M 50.27 191.77 L 50.86 193.58 L 51.27 197.06 L 50.88 198.44 L 50.57 197.71 L 49.61 198.20 L 47.81 198.79 L 47.55 197.27 L 48.57 194.77 L 48.02 193.95 L 46.04 195.88 L 44.99 197.29 L 44.21 198.57 L 43.88 200.75 L 45.42 202.06 L 47.63 203.01 L 49.11 204.35 L 48.56 205.23 L 44.56 204.58 L 42.89 204.53 L 42.36 203.80 L 42.80 201.39 L 43.89 198.20 L 45.85 194.68 L 48.67 192.24 L 50.27 191.77 Z" fill="#000000"/></svg>
