<svg xmlns="http://www.w3.org/2000/svg" viewBox="2720.46 1720.78 296.96 125.29"><path d="M2982.2152,1835.4711L2982.5025,1833.1262L2981.382,1833.1272L2981.4502,1832.9781L2981.613,1832.8246L2982.0408,1832.5259L2982.395,1832.4539L2982.7949,1831.7842L2982.9807,1831.4134L2982.8593,1831.1115L2982.9156,1830.2992L2982.3593,1830.4171L2982.0516,1830.8452L2981.8456,1831.1733L2981.6071,1831.5584L2981.4116,1831.4117L2981.1518,1831.2472L2980.7284,1831.4234L2980.5224,1831.7968L2980.4338,1832.1047L2980.481,1832.4358L2980.6183,1832.4843L2980.7872,1832.5324L2980.8985,1832.5025L2980.9827,1832.3896L2981.0554,1832.2562L2981.0929,1832.4012L2981.1659,1832.7259L2980.8179,1832.9311L2980.7621,1833.1557L2980.2654,1833.153L2978.8032,1834.2029L2978.5557,1835.382L2977.1312,1835.7541L2974.4829,1835.9363L2974.1943,1835.9043L2973.3347,1835.6771L2973.0906,1835.5206L2972.9105,1835.4872L2972.8249,1835.5488L2972.5682,1835.8414L2972.3919,1835.9363L2971.6584,1836.0428L2970.8078,1836.0261L2970.0318,1835.8516L2969.5228,1835.4872L2968.6239,1835.6348L2967.6146,1834.9868L2966.6205,1834.1104L2965.7597,1833.5701L2965.186,1833.4957L2963.2715,1833.5701L2962.7734,1833.4983L2961.7725,1833.1903L2961.2376,1833.1184L2960.2011,1833.2494L2959.6447,1833.4213L2959.2612,1833.6677L2958.8644,1833.7318L2955.4689,1832.7823L2953.106,1832.4717L2951.8775,1832.5256L2949.6722,1833.1711L2948.637,1833.334L2946.7045,1833.334L2946.119,1833.4251L2944.9474,1833.8576L2944.3406,1833.9987L2940.9825,1833.7716L2937.4948,1834.0988L2936.9051,1834.4145L2936.3268,1834.3875L2935.7591,1834.24L2935.2101,1834.195L2934.7758,1834.3939L2933.8183,1835.1741L2933.2159,1835.4872L2932.5653,1835.6656L2929.1046,1835.8427L2928.4438,1835.7208L2927.1875,1835.1279L2926.5248,1834.9868L2926.1183,1835.2922L2925.9363,1835.2922L2925.7634,1835.0805L2925.4984,1835.0343L2925.2186,1835.1664L2925.0029,1835.4872L2924.3578,1835.2409L2923.5917,1835.1728L2922.8785,1835.3743L2922.3845,1835.9363L2923.1104,1835.9363L2923.0834,1836.1519L2922.6078,1836.1776L2921.8205,1836.5035L2921.3111,1836.583L2918.8336,1836.6587L2917.0877,1837.1207L2916.1164,1837.2285L2915.0063,1837.1297L2913.2994,1837.6249L2912.7815,1837.6596L2912.4305,1837.5903L2912.0939,1837.4055L2911.8356,1837.1245L2911.7022,1836.7806L2911.8079,1836.1981L2912.4353,1835.1562L2912.5039,1834.861L2912.7084,1834.7943L2913.0516,1834.7533L2913.2591,1834.6455L2913.4624,1834.4504L2913.6854,1834.1258L2913.8866,1833.9987L2913.8486,1833.6561L2914.0027,1833.4136L2914.5698,1832.9029L2915.2796,1831.9841L2915.3427,1831.8275L2915.4661,1831.5889L2916.8983,1830.303L2916.8812,1830.0285L2916.5744,1829.6293L2916.6442,1829.4381L2916.8823,1829.4561L2917.5513,1829.7141L2917.8516,1829.4304L2918.3858,1829.2482L2918.5184,1829.125L2918.616,1828.9364L2919.1884,1828.1472L2919.6976,1827.7879L2920.9265,1827.1077L2921.4536,1826.3942L2922.0083,1825.9835L2924.8676,1824.5744L2925.3921,1824.4859L2925.8192,1824.2433L2926.3833,1823.1063L2926.8128,1822.7444L2926.8925,1822.7302L2926.9872,1822.7264L2927.1592,1822.7444L2926.9608,1823.1114L2927.0979,1823.2923L2927.4389,1823.309L2927.8434,1823.1935L2928.2407,1822.9304L2928.5711,1822.539L2928.8151,1822.0693L2928.9452,1821.5598L2929.1632,1821.3788L2930.355,1820.6088L2930.6332,1819.0969L2930.8422,1818.8685L2931.0731,1818.6631L2931.5715,1817.5555L2930.9385,1816.068L2930.7134,1815.7997L2930.0662,1815.2645L2929.1672,1814.8538L2928.9136,1814.8153L2929.04,1815.1682L2928.8465,1815.3839L2928.4013,1815.0027L2928.0176,1814.7909L2927.782,1814.4713L2927.7704,1813.7679L2927.8878,1813.5549L2928.1137,1813.4316L2928.3675,1813.3431L2928.5662,1813.2288L2929.2375,1812.3663L2929.2652,1812.1533L2928.3905,1811.4678L2927.8913,1811.3472L2927.6284,1811.9376L2927.1696,1811.3485L2926.8214,1810.5591L2926.3883,1809.8659L2925.6755,1809.5681L2924.9054,1809.6426L2924.0406,1809.8621L2923.3008,1810.2009L2922.8968,1810.6438L2922.6668,1810.4666L2922.5127,1810.4705L2922.3667,1810.5616L2922.1699,1810.6438L2921.8779,1810.7259L2921.6963,1810.8081L2921.5118,1810.862L2921.2168,1810.8594L2920.7642,1810.7721L2919.4872,1810.2151L2918.3724,1810.8312L2918.1329,1810.8594L2917.7907,1810.5321L2917.6255,1810.4307L2917.4302,1810.3858L2916.6379,1810.4307L2916.4339,1810.4025L2915.9391,1810.2331L2915.7792,1810.1162L2915.6715,1810.1868L2915.3249,1810.2151L2914.0308,1810.1278L2913.5967,1809.9661L2912.9616,1809.4244L2912.4867,1809.2601L2911.5274,1809.1369L2910.9295,1809.2909L2910.4873,1809.6349L2910.1021,1809.9969L2909.6699,1810.2151L2907.934,1810.2715L2907.0632,1810.0097L2906.8659,1809.332L2906.6669,1809.332L2906.444,1809.7838L2905.723,1808.6337L2905.4285,1808.472L2904.8662,1808.341L2904.5914,1807.9983L2904.2566,1806.983L2904.0228,1806.6261L2903.5994,1806.1255L2903.1107,1805.7507L2902.6866,1805.7686L2902.3779,1805.9432L2902.3032,1805.7815L2902.3273,1805.4863L2902.3077,1805.2603L2902.0458,1804.8316L2901.9172,1804.5312L2901.8805,1804.2629L2901.7489,1803.8072L2900.0757,1802.2835L2899.7278,1802.1692L2898.7872,1802.2257L2898.4848,1802.0139L2898.2537,1801.5364L2897.9708,1800.6968L2897.6918,1800.3361L2896.8281,1799.5016L2896.5955,1799.4708L2896.4537,1799.1756L2896.4361,1798.0972L2896.6208,1796.0457L2896.531,1795.1625L2896.2454,1794.2741L2896.0851,1793.3792L2896.3806,1792.4715L2896.5803,1792.7899L2896.869,1792.8362L2897.1464,1792.6243L2897.312,1792.1698L2897.1617,1791.8463L2896.3432,1791.5266L2896.1778,1791.2981L2896.1982,1790.746L2896.0885,1789.724L2896.1147,1789.1232L2896.0735,1788.5891L2895.7064,1787.6287L2895.6562,1787.1767L2895.6403,1786.1162L2895.3709,1785.1096L2894.9502,1784.2467L2894.4829,1783.6202L2894.0948,1783.2966L2893.704,1783.1245L2892.3309,1782.8806L2892.02,1782.7637L2891.9262,1782.5288L2892.1584,1782.0935L2892.432,1782.2848L2892.7601,1782.3477L2893.4926,1782.3284L2893.6184,1782.1846L2893.5284,1781.8611L2893.2647,1781.3578L2893.1074,1781.169L2892.8659,1780.9494L2892.3658,1780.6027L2891.995,1780.4743L2891.7989,1780.5026L2891.6072,1780.631L2891.2523,1780.7992L2889.9786,1781.1151L2888.7259,1781.2499L2888.5861,1781.3077L2888.4162,1781.4502L2888.2722,1781.6235L2888.2009,1781.7789L2888.0959,1781.897L2887.887,1781.924L2887.0826,1781.8701L2886.7714,1781.7943L2886.4898,1781.7699L2886.1903,1781.897L2886.0427,1781.662L2885.5479,1781.9432L2885.0455,1782.0691L2883.8987,1782.0935L2883.3631,1782.1949L2881.861,1782.9551L2880.7251,1783.2799L2879.6593,1783.3813L2878.5991,1783.2722L2876.5678,1782.5865L2876.1713,1782.2874L2875.7501,1781.7789L2875.3843,1781.716L2873.9818,1781.9009L2873.4609,1781.897L2872.9065,1781.6929L2872.6787,1781.5234L2872.4634,1781.2499L2872.1672,1780.5L2871.9719,1780.2227L2871.8311,1780.4872L2871.7061,1780.8082L2871.4782,1781.0162L2871.2072,1781.0624L2870.9634,1780.907L2870.7478,1780.6515L2870.6073,1780.5604L2869.5199,1780.2098L2869.3737,1780.1366L2869.1902,1779.9376L2869.074,1779.6435L2868.999,1779.2879L2868.8568,1778.9874L2868.5345,1778.8615L2866.6682,1778.8076L2864.9619,1778.2337L2864.2792,1778.2452L2863.9082,1778.7537L2863.6499,1779.3045L2863.2105,1779.2288L2862.6714,1778.8885L2862.111,1778.6458L2862.1416,1778.4301L2862.719,1778.1951L2862.7468,1777.9986L2862.3505,1777.8934L2862.3143,1777.5402L2862.4036,1777.0934L2862.3863,1776.7069L2861.884,1777.0741L2861.3929,1777.2333L2860.8761,1777.2398L2860.3016,1777.1358L2859.7919,1776.9174L2859.4954,1776.8391L2859.2468,1776.902L2859.1438,1777.1255L2859.2817,1777.3399L2859.5219,1777.4953L2859.7314,1777.5479L2859.3495,1777.9409L2858.8946,1777.6789L2858.524,1777.1126L2858.4007,1776.599L2858.4379,1775.921L2858.3402,1775.3277L2858.0841,1774.9065L2857.6536,1774.7473L2857.1235,1774.6433L2856.1013,1774.1849L2855.0177,1773.9152L2854.3407,1773.1883L2853.0256,1772.6978L2852.3197,1771.9196L2849.9231,1768.4792L2849.8913,1768.3405L2849.915,1768.1774L2849.9211,1768.0015L2849.8357,1767.832L2849.7223,1767.8101L2849.3941,1767.8641L2849.292,1767.832L2849.0455,1767.5456L2848.9959,1767.3452L2849.0547,1766.9703L2849.4181,1767.0524L2849.8831,1767.0293L2850.3614,1766.8701L2850.7644,1766.5387L2850.3399,1766.6543L2850.1762,1766.7339L2850.324,1766.4591L2850.5095,1766.192L2850.6572,1765.9326L2850.6903,1765.6757L2850.4931,1765.5781L2850.16,1765.6731L2849.9226,1765.659L2850.0139,1765.2468L2849.4913,1765.2442L2849.1902,1765.0156L2849.2146,1764.6264L2849.6639,1764.1487L2849.0951,1763.7159L2848.8843,1763.4462L2848.7343,1763.0712L2848.506,1763.3935L2848.1636,1763.5078L2847.7779,1763.4539L2847.4232,1763.269L2847.1815,1763.9419L2847.369,1764.3709L2848.0746,1765.0117L2848.377,1765.6012L2848.6206,1766.3204L2848.673,1767.0884L2848.4032,1767.832L2847.3335,1767.3542L2844.0243,1767.4583L2840.7985,1767.204L2836.908,1767.6766L2834.6437,1767.4197L2834.1549,1767.222L2833.242,1766.6569L2832.2354,1766.4232L2831.8786,1766.1059L2831.6821,1765.6218L2831.2352,1764.0254L2831.1877,1763.7184L2831.2442,1763.2176L2831.6414,1761.8768L2831.5328,1761.7869L2831.0098,1760.5847L2830.6927,1760.3304L2830.3495,1760.2456L2830.0356,1760.3561L2829.8117,1760.681L2829.76,1761.0741L2829.931,1762.4264L2829.3862,1766.2523L2829.0358,1767.2297L2828.491,1767.186L2828.9695,1766.4976L2829.0044,1765.5036L2828.7582,1764.5892L2828.5443,1764.3645L2827.7594,1764.6637L2827.5749,1764.796L2827.4523,1765.0644L2827.3971,1765.6526L2827.2483,1765.894L2826.9121,1766.0533L2826.7179,1765.9364L2826.5673,1765.7438L2826.3594,1765.6757L2826.1451,1765.8273L2826.0809,1766.0443L2825.9768,1766.2382L2825.6387,1766.323L2824.7491,1765.8452L2824.4754,1763.7441L2823.5396,1763.269L2822.265,1763.269L2821.9775,1763.1713L2821.5287,1762.7578L2821.2594,1762.6615L2821.0403,1762.7578L2820.5908,1763.1713L2820.2658,1763.269L2820.1914,1763.3049L2820.1288,1763.3858L2820.0359,1763.4667L2819.871,1763.5027L2819.7962,1763.4475L2819.7723,1763.1713L2819.6707,1763.0712L2818.6306,1762.6615L2818.5095,1762.569L2818.2202,1762.4187L2817.9054,1762.411L2817.7116,1762.7578L2817.4338,1762.8862L2816.8454,1762.9196L2816.2374,1762.8464L2815.9004,1762.6615L2815.7343,1762.6615L2815.6079,1763.0481L2815.4216,1763.1482L2814.9337,1763.0712L2814.9949,1763.197L2815.0265,1763.2818L2815.0659,1763.5027L2814.7739,1763.5014L2813.5624,1763.3306L2813.2089,1763.1701L2812.6628,1762.3468L2812.4877,1761.9076L2812.4607,1761.4452L2812.0807,1760.9135L2808.5764,1759.2438L2808.229,1759.0011L2807.8829,1758.6351L2807.6681,1758.4861L2807.1494,1758.4231L2806.9423,1758.3307L2806.8385,1758.1534L2806.6216,1757.5742L2806.6146,1757.4483L2806.2529,1757.4521L2805.7767,1757.3866L2805.365,1757.1426L2805.1958,1756.6057L2805.4183,1756.1115L2805.7819,1755.8068L2806.2122,1755.6193L2806.5603,1755.5025L2809.5916,1755.6185L2810.6288,1755.3353L2811.315,1755.4587L2812.1318,1755.3877L2812.6354,1755.2903L2813.314,1755.4773L2813.9078,1755.5363L2815.3077,1755.2977L2816.4302,1754.8024L2816.7186,1754.8628L2817.0166,1754.7009L2817.5402,1754.7022L2817.8391,1754.6277L2818.2388,1754.4997L2818.6469,1754.1098L2818.9338,1753.8497L2819.1996,1753.7348L2819.2663,1753.0733L2819.4177,1752.773L2819.4251,1752.2823L2819.7882,1751.3947L2819.8235,1751.0545L2819.4632,1750.9118L2819.0693,1750.8984L2818.4486,1750.2066L2818.0175,1749.7613L2817.2195,1748.9931L2816.35,1748.6124L2814.1337,1747.6769L2813.2035,1747.7146L2811.0497,1747.9304L2808.1563,1748.4601L2807.3667,1748.0512L2805.656,1747.4861L2803.6437,1747.491L2802.4998,1747.6376L2801.9112,1747.7108L2801.3701,1747.6427L2800.5669,1747.4026L2798.7869,1747.6562L2797.451,1747.2804L2797.1305,1747.3472L2796.5725,1747.6427L2796.3014,1747.7108L2795.1161,1747.4156L2794.1378,1747.6625L2791.4724,1746.836L2790.9028,1746.8489L2790.3046,1747.1597L2789.9553,1747.6722L2789.7706,1748.285L2789.6677,1748.9054L2789.4186,1749.4757L2788.9834,1749.7699L2788.0373,1750.1013L2786.2179,1751.5964L2785.8659,1751.8263L2785.2564,1751.8803L2784.8262,1752.0228L2782.9061,1753.0427L2781.9417,1753.6837L2781.0877,1754.525L2779.0868,1757.7296L2778.355,1758.4154L2777.4778,1758.5272L2776.648,1758.2497L2776.2934,1758.2138L2775.8973,1758.3307L2775.8735,1758.409L2775.8181,1758.8508L2775.7557,1758.9703L2775.6536,1758.9613L2775.5391,1758.9202L2775.3362,1758.9998L2775.2227,1758.9587L2775.1232,1758.9472L2775.0607,1759.0743L2775.0062,1759.5174L2774.9802,1759.6035L2773.9177,1760.288L2773.5346,1760.681L2773.3519,1760.9469L2773.3062,1761.0985L2773.3045,1761.2089L2773.2522,1761.3476L2773.0082,1761.8048L2772.8482,1762.0065L2772.5779,1762.2107L2772.5075,1762.1131L2772.4817,1762.0129L2772.4105,1762.3828L2772.19,1762.5998L2772.0906,1762.2788L2771.8862,1762.1773L2771.6483,1762.2115L2771.5493,1762.7307L2771.0325,1763.259L2769.6922,1763.3858L2768.3532,1763.1919L2767.2627,1762.6615L2767.523,1762.3956L2767.5017,1762.0745L2767.3605,1761.7201L2767.2651,1761.3476L2767.084,1761.3476L2766.5804,1762.1914L2765.8078,1762.9543L2764.9488,1763.5053L2764.1907,1763.7184L2764.2625,1763.608L2764.3539,1763.3897L2764.424,1763.269L2761.4187,1763.7441L2761.2792,1763.7184L2761.1944,1763.5952L2761.1554,1763.3768L2761.1551,1763.1662L2761.1965,1763.0712L2760.8778,1763.1739L2760.4955,1763.617L2760.0951,1763.7184L2758.0565,1763.5875L2757.4478,1763.7184L2756.1804,1764.9038L2756.1115,1765.144L2755.7766,1766.0135L2755.6034,1766.323L2755.7112,1766.5297L2755.7235,1766.7185L2755.6699,1767.186L2755.4114,1766.906L2755.1093,1766.978L2754.8779,1767.3157L2754.831,1767.832L2754.9684,1768.2493L2755.2051,1768.4035L2755.5242,1768.3187L2755.9047,1768.0284L2755.6503,1768.7117L2754.6196,1769.4642L2754.306,1770.105L2754.3793,1770.2553L2754.5311,1770.4363L2754.603,1770.6675L2754.4401,1770.968L2754.1491,1771.2377L2753.8261,1771.4843L2753.4887,1771.6615L2753.1545,1771.7308L2752.6764,1771.596L2751.7636,1771.0027L2751.1948,1770.8678L2750.5964,1771.0155L2749.4685,1771.7116L2748.9432,1771.9466L2748.6711,1771.9697L2748.1276,1771.9247L2747.8578,1771.9466L2747.544,1772.0814L2746.8783,1772.5026L2746.0082,1772.7774L2742.4381,1775.6873L2741.1958,1776.3769L2740.0594,1776.4911L2739.8088,1775.8684L2741.2449,1773.3874L2741.6392,1772.1431L2741.1787,1771.2223L2740.152,1771.0207L2738.9417,1771.2184L2736.731,1771.908L2735.6214,1772.4512L2732.6431,1774.4314L2731.5329,1774.7216L2730.3824,1774.7011L2729.3271,1774.3158L2729.013,1773.9897L2728.8654,1773.5402L2728.8816,1773.0214L2729.057,1772.4923L2729.1757,1772.2869L2729.3514,1772.0326L2729.5516,1771.8233L2729.7404,1771.745L2729.8548,1771.8233L2729.9154,1771.9851L2729.9583,1772.1713L2730.0176,1772.3203L2730.1839,1772.4898L2730.3861,1772.5861L2730.6143,1772.6182L2730.8565,1772.5938L2731.3418,1772.3819L2731.7081,1772.0236L2731.7831,1771.6229L2731.4005,1771.2801L2731.8942,1771.0065L2732.2964,1771.0078L2732.5013,1771.3135L2732.4028,1771.9466L2734.7714,1770.6534L2736.7934,1770.0203L2739.2215,1768.8953L2740.8419,1767.7331L2741.0592,1767.6162L2741.4167,1767.5854L2741.7301,1767.6381L2741.8743,1767.7819L2741.7202,1768.0284L2742.4908,1768.4368L2743.1382,1768.2442L2743.8008,1767.8384L2744.6123,1767.6162L2744.9776,1767.7459L2745.3802,1768.0567L2745.696,1768.4484L2745.7975,1768.8029L2745.8978,1768.9878L2746.705,1768.4099L2747.099,1768.4792L2747.7419,1766.7339L2747.3642,1767.1321L2747.0002,1767.6817L2746.6558,1767.9745L2746.3403,1767.6162L2746.2755,1767.0139L2746.3798,1766.549L2746.3444,1766.1869L2745.8638,1765.894L2746.2126,1765.2198L2746.3749,1765.0117L2745.8925,1764.9501L2745.3893,1764.7356L2744.9506,1764.4454L2744.6638,1764.1487L2744.5175,1763.703L2744.4233,1763.1778L2744.2417,1762.7655L2743.8232,1762.6615L2744.1293,1762.3879L2744.5019,1761.8999L2744.8318,1761.3245L2745.0148,1760.8005L2745.1764,1760.0658L2745.3952,1759.3877L2745.9891,1757.998L2746.0666,1757.9222L2746.578,1757.1169L2746.7265,1757.0347L2747.0169,1757.0039L2747.1605,1756.9114L2747.2986,1756.7085L2747.4659,1756.3103L2747.5563,1756.1575L2748.2631,1755.2404L2748.7302,1754.751L2749.255,1754.4312L2749.2915,1754.1962L2748.7484,1754.1962L2749.2693,1753.7838L2750.4386,1753.5539L2750.9835,1753.2367L2751.3735,1752.7589L2751.8164,1752.0511L2752.0456,1751.3678L2751.798,1750.9645L2751.8349,1750.7281L2752.098,1750.8232L2752.3411,1750.9645L2752.7677,1750.6459L2753.135,1750.5842L2753.4156,1750.7615L2753.5755,1751.1597L2753.9944,1749.978L2754.1843,1749.6722L2754.4634,1749.5541L2755.159,1749.4873L2755.3222,1749.3383L2755.3911,1749.021L2755.5591,1748.4828L2755.8079,1748.1039L2756.1218,1748.2593L2756.437,1748.5111L2756.7401,1748.3492L2757.0493,1748.0037L2757.3827,1747.7108L2757.2387,1747.3498L2757.0007,1747.1289L2756.6611,1747.0415L2756.2169,1747.0852L2756.3749,1746.8399L2756.6024,1746.6176L2756.8661,1746.4609L2757.1288,1746.3993L2757.5284,1746.5714L2757.6944,1746.9568L2757.8088,1747.3408L2758.0392,1747.5142L2758.4055,1747.4449L2758.749,1747.2727L2760.5604,1745.9856L2760.8576,1746.3993L2761.2144,1745.7287L2761.6645,1745.4333L2762.8313,1745.3408L2763.2856,1745.2457L2765.2698,1744.2232L2766.2422,1743.8584L2766.6834,1743.8121L2766.9707,1743.8687L2767.2776,1744.0408L2767.565,1744.0485L2767.7588,1743.9804L2768.1648,1743.7184L2768.3734,1743.6169L2768.4104,1743.3805L2768.2054,1743.4794L2767.9943,1743.6169L2767.978,1743.5013L2767.9968,1743.4293L2767.9796,1743.3946L2767.8504,1743.3805L2768.4764,1742.9861L2769.0878,1742.7947L2770.4172,1742.7356L2770.5587,1742.5468L2771.0444,1741.5486L2771.2281,1741.4484L2772.3264,1741.4407L2772.2244,1741.6591L2772.1694,1741.7491L2772.078,1741.8724L2772.5783,1741.9777L2772.9395,1741.6514L2773.2287,1741.1659L2773.5131,1740.7933L2773.9364,1740.6135L2774.2191,1740.7471L2774.4961,1741.013L2774.9065,1741.2249L2774.6682,1741.5512L2774.9722,1741.4523L2775.4399,1741.1607L2775.694,1740.9128L2775.9348,1740.3925L2776.4359,1739.7091L2777.0271,1739.1104L2777.544,1738.8548L2777.9209,1738.7237L2779.4409,1737.7564L2780.016,1737.5071L2780.5109,1737.4814L2780.912,1737.6485L2781.2091,1737.9915L2781.1783,1738.188L2780.9041,1738.3923L2780.7426,1738.77L2780.7238,1739.2132L2780.8654,1739.6088L2781.1628,1739.772L2781.4642,1739.5793L2781.7421,1739.262L2781.9639,1739.0487L2781.5493,1738.6094L2781.6449,1738.1983L2782.0901,1737.8373L2782.7211,1737.5611L2783.8604,1737.3247L2784.0852,1737.2091L2784.4696,1736.947L2784.6327,1736.8956L2784.8987,1736.9496L2785.2199,1737.2284L2785.4835,1737.3247L2785.6346,1737.2399L2785.821,1737.0601L2786.0317,1736.9586L2786.2575,1737.1115L2786.3723,1737.4365L2786.1846,1737.5354L2785.9124,1737.5829L2785.7776,1737.7564L2785.8351,1738.084L2785.9797,1738.1919L2786.2034,1738.0827L2786.4999,1737.7564L2786.3473,1738.3807L2786.8027,1738.4218L2787.3871,1738.0364L2787.4448,1737.9979L2787.8501,1737.2168L2788.3305,1736.5411L2789.1915,1736.5205L2790.1123,1736.6888L2790.7667,1736.5719L2791.3852,1736.3407L2793.7617,1736.464L2796.2699,1736.1094L2796.9494,1735.8178L2797.4852,1735.8602L2798.7473,1735.1317L2799.3624,1734.9352L2799.5244,1734.835L2799.8569,1734.3879L2800.0038,1734.2877L2800.3376,1734.2453L2800.6061,1734.1387L2801.0646,1733.856L2801.9545,1733.1815L2802.4058,1732.9104L2803.4857,1732.7344L2804.7948,1732.1524L2806.697,1731.8158L2807.5962,1731.433L2809.3463,1731.9173L2809.9358,1731.8492L2810.7171,1731.6411L2811.0439,1731.5537L2811.6689,1731.4857L2811.9465,1731.4163L2812.2543,1731.2916L2812.5493,1731.2351L2812.7851,1731.379L2813.6586,1732.1524L2814.4057,1732.3991L2816.0709,1732.5815L2816.8228,1732.7974L2817.4456,1732.5841L2821.5711,1732.6111L2822.2537,1732.6149L2822.6801,1732.5507L2823.0643,1732.349L2823.3381,1732.5263L2823.6291,1732.5507L2823.9446,1732.5353L2824.2922,1732.5841L2824.4555,1732.7036L2824.8537,1733.1198L2825.3595,1733.4809L2825.3531,1734.1143L2825.1559,1734.8401L2824.9425,1735.3861L2824.745,1735.6341L2824.5628,1735.7548L2824.5438,1735.8499L2824.8428,1736.0323L2825.1375,1736.076L2825.445,1735.9938L2825.8682,1735.8178L2825.9965,1735.6559L2826.2798,1734.8863L2826.4143,1734.6217L2826.6684,1734.3982L2826.8753,1734.3262L2827.1165,1734.3185L2829.4067,1733.892L2829.7259,1733.7481L2830.0627,1733.4063L2830.7498,1733.2008L2832.0264,1732.9952L2832.4437,1732.8436L2833.5084,1732.3105L2834.2383,1731.7644L2835.5253,1731.0039L2835.9822,1730.86L2836.4398,1731.0732L2836.0101,1731.4317L2835.2267,1731.767L2833.9713,1732.1139L2832.3853,1733.0826L2831.9571,1733.4449L2831.9266,1733.6427L2833.0482,1733.9755L2834.2577,1735.9218L2835.1195,1736.464L2835.6428,1736.4768L2835.8916,1736.3355L2836.1274,1736.0118L2836.6089,1735.4825L2836.7758,1735.2229L2837.1743,1734.4496L2837.3326,1734.2877L2837.6384,1734.2517L2838.2045,1734.0975L2838.3763,1734.0718L2839.4418,1734.2877L2839.626,1734.28L2839.738,1734.2234L2839.7688,1734.3378L2839.704,1734.8375L2839.7957,1735.5313L2840.256,1735.7022L2840.8733,1735.5788L2841.4419,1735.3861L2845.73,1734.5035L2846.383,1734.4842L2847.5728,1734.7682L2848.2381,1734.7386L2848.8311,1734.4778L2849.3991,1733.9999L2849.6352,1733.4063L2849.241,1732.7974L2849.6128,1732.6175L2849.9793,1732.5713L2850.3016,1732.6381L2850.5365,1732.7974L2850.5062,1732.9952L2850.2449,1733.2265L2849.3207,1734.7386L2849.9644,1735.3514L2849.9876,1735.4182L2850.6562,1737.3324L2851.1354,1737.7564L2851.5501,1737.7898L2852.5875,1738.0184L2852.9676,1738.188L2853.178,1738.4475L2853.3955,1738.8162L2853.6954,1739.1464L2854.1554,1739.2864L2855.648,1739.2826L2855.9606,1739.3943L2856.3005,1739.781L2856.685,1740.0508L2857.0985,1740.2281L2857.5333,1740.3437L2858.3996,1740.3745L2859.2486,1740.1844L2860.9288,1739.5009L2860.8443,1738.7481L2861.2925,1738.7314L2862.5805,1739.5061L2863.1717,1739.7194L2863.7178,1739.6101L2863.9328,1738.8548L2864.1905,1739.0231L2864.446,1739.2492L2864.629,1739.5215L2864.6738,1739.8247L2865.0928,1741.0194L2865.1201,1741.2249L2866.0243,1741.8724L2866.1648,1741.8981L2866.6402,1741.8724L2866.8125,1741.9443L2866.8648,1742.0985L2866.8568,1742.2526L2866.844,1742.3233L2867.4209,1742.1383L2868.4182,1741.2378L2870.1187,1740.7316L2870.342,1740.7933L2870.3058,1741.0348L2870.0194,1741.2866L2869.4731,1741.6566L2868.9143,1741.3328L2868.5819,1741.5898L2868.0648,1742.7356L2868.2789,1743.2264L2868.4137,1743.4345L2868.6384,1743.6169L2868.9079,1743.7017L2869.9812,1743.8121L2870.4225,1743.9868L2871.7952,1745.2123L2871.857,1745.3613L2871.9369,1745.4975L2872.0865,1745.5566L2872.2436,1745.4847L2872.4261,1745.3292L2872.5664,1745.1751L2872.6058,1745.1057L2873.2215,1745.0209L2873.4249,1745.1815L2873.6048,1748.3787L2873.6172,1748.3967L2873.9922,1748.5419L2874.2863,1748.7243L2874.5353,1748.9786L2874.7806,1749.3383L2875.009,1749.8418L2875.2285,1750.8167L2875.4063,1751.2779L2875.9545,1752.1153L2876.0834,1752.2579L2876.4655,1752.3414L2877.229,1752.3594L2877.5193,1752.4519L2878.0493,1753.6593L2878.1321,1754.0215L2878.3144,1754.2193L2880.0263,1756.092L2880.7432,1756.4978L2881.4664,1756.372L2881.6915,1756.6699L2882.1318,1757.0668L2882.5867,1757.2518L2882.8528,1756.9114L2883.1429,1756.8729L2884.4819,1757.2055L2884.9787,1757.2132L2885.2995,1756.9859L2885.3857,1756.7855L2885.473,1756.6442L2885.8073,1756.6057L2886.0653,1756.6776L2886.4364,1756.9577L2886.7336,1757.0193L2887.3159,1756.9281L2888.3705,1756.5081L2888.899,1756.372L2889.504,1756.3617L2890.942,1756.5466L2893.5039,1756.8755L2894.7549,1756.8035L2894.8449,1757.1208L2895.0855,1758.9587L2895.1929,1758.8791L2895.4615,1758.743L2895.6679,1759.1514L2895.9499,1758.8996L2896.5036,1757.8991L2896.2416,1757.3687L2896.0898,1757.1657L2895.891,1757.0193L2895.9222,1756.8035L2896.6921,1756.9204L2897.4022,1757.8644L2900.1332,1758.9998L2900.4635,1759.2901L2900.632,1759.6934L2901.0878,1760.1917L2901.6307,1760.6464L2902.0557,1760.9161L2902.6583,1761.128L2904.2098,1761.4298L2904.7089,1761.3476L2904.6668,1761.5595L2904.63,1761.9988L2904.5858,1762.2107L2904.8798,1762.0617L2904.9967,1761.9757L2905.1308,1762.2903L2905.2928,1762.8939L2905.4455,1763.1701L2905.6563,1763.3704L2906.0919,1763.644L2906.2705,1763.8366L2906.4586,1763.9625L2906.7188,1763.9676L2907.0004,1763.9368L2907.249,1763.9548L2908.0967,1764.3645L2908.4907,1764.4916L2909.7889,1764.5995L2910.0006,1764.7343L2910.0081,1765.0464L2909.979,1765.4047L2910.0809,1765.6757L2910.2911,1765.7373L2910.9718,1765.7284L2910.8778,1765.7759L2910.7737,1765.894L2911.0111,1766.183L2911.3203,1766.323L2911.651,1766.4103L2911.9171,1766.5195L2911.9672,1766.5387L2912.3801,1766.3872L2912.589,1766.6877L2912.8237,1767.5173L2913.2537,1768.049L2913.3681,1768.2635L2913.4618,1768.8401L2913.8076,1769.7737L2913.9774,1770.0781L2914.2741,1770.2013L2914.5585,1770.4505L2915.5825,1771.8387L2915.6367,1772.0994L2915.9587,1773.0163L2916.1121,1773.2397L2916.4378,1773.1871L2916.6329,1772.8712L2917.0883,1770.5134L2917.2776,1770.2013L2917.5883,1770.0627L2918.2823,1770.1911L2918.7081,1770.2013L2918.4271,1770.5288L2917.5554,1770.6983L2917.3343,1770.968L2917.2925,1771.5305L2917.339,1771.9543L2917.4617,1772.2894L2917.6491,1772.5938L2917.9092,1772.911L2918.1233,1773.0317L2918.7761,1773.024L2919.0328,1773.2346L2919.1656,1773.7225L2919.2056,1774.2657L2919.1926,1774.6394L2919.2362,1775.0247L2919.4454,1775.2982L2919.7689,1775.487L2920.4831,1775.754L2920.6279,1775.7836L2921.0465,1775.5743L2921.2537,1775.7066L2921.437,1775.9261L2921.6481,1776.0391L2923.2979,1775.7682L2923.7529,1775.826L2924.1656,1776.0571L2925.2341,1776.902L2925.3094,1776.4654L2925.5469,1776.2459L2926.2586,1776.0391L2926.2575,1776.3525L2926.3909,1776.5117L2926.6288,1776.5476L2926.9377,1776.4911L2926.899,1776.373L2926.8621,1776.147L2926.8187,1776.0391L2927.1734,1776.1752L2927.4839,1776.4988L2927.9336,1777.1358L2927.5448,1777.1922L2927.3059,1777.015L2927.1416,1777.0009L2926.9735,1777.5479L2926.9555,1778.1258L2927.2088,1779.1107L2927.2314,1779.614L2927.3285,1779.9376L2927.6517,1780.0609L2928.4394,1780.1738L2929.0207,1780.5488L2929.1882,1780.6027L2929.4519,1780.5373L2929.6049,1780.3896L2929.6976,1780.2406L2929.7834,1780.1738L2929.7973,1780.0018L2929.6903,1779.6243L2929.4894,1779.2468L2928.8472,1778.9001L2928.62,1778.4789L2928.4209,1777.5479L2928.3728,1776.8147L2928.2806,1776.599L2928.115,1776.477L2927.6245,1776.2382L2927.5291,1776.147L2927.5392,1775.8157L2927.4639,1775.3842L2927.2218,1775.1518L2926.7238,1775.4138L2926.4073,1774.963L2925.9968,1775.3329L2925.6574,1775.0709L2925.0799,1774.0821L2924.2146,1773.1318L2924.0018,1772.6439L2923.828,1772.5899L2923.4337,1772.7877L2923.7341,1772.2483L2924.2349,1771.6807L2924.7701,1771.316L2925.1744,1771.388L2925.977,1772.2509L2926.0404,1772.509L2926.0992,1773.3065L2926.1699,1773.4734L2928.6724,1775.7451L2929.1726,1776.0391L2930.4584,1776.5066L2930.7962,1776.8045L2931.1141,1777.232L2931.9002,1778.0475L2932.2361,1778.1951L2933.6186,1779.5062L2933.9801,1779.7283L2934.3315,1779.858L2934.7263,1779.8605L2935.2202,1779.7219L2934.9327,1780.3177L2935.0242,1780.699L2935.2543,1780.9751L2935.3745,1781.2499L2935.1963,1781.8765L2934.4542,1782.6405L2934.2048,1783.1888L2933.9947,1783.018L2933.6132,1782.4492L2933.499,1782.3284L2931.9121,1781.4476L2931.4995,1781.3064L2931.0095,1781.2499L2931.0159,1781.3064L2930.9342,1781.4219L2930.8319,1781.5311L2930.7854,1781.5632L2930.7126,1781.6775L2930.5852,1781.63L2930.4442,1781.5234L2930.2241,1781.404L2929.9755,1781.1138L2929.7578,1781.0162L2929.139,1781.0727L2928.8826,1781.3847L2928.9227,1781.7314L2929.2013,1781.897L2929.498,1781.9779L2929.693,1782.1628L2929.8676,1782.3785L2930.0915,1782.5416L2930.3457,1782.6097L2931.0989,1782.5416L2931.5876,1782.783L2931.6523,1783.3069L2931.3888,1783.8308L2930.891,1784.0696L2930.7812,1784.3289L2930.8726,1784.8965L2931.0293,1785.4447L2931.1193,1785.6566L2931.4107,1785.722L2932.0194,1785.6129L2932.4333,1785.6668L2932.1462,1786.2241L2932.4181,1786.1457L2933.1293,1785.7747L2933.1592,1785.7375L2933.4327,1785.5757L2933.6883,1785.5384L2933.9863,1785.0608L2934.541,1783.3839L2935.4038,1781.9702L2935.6638,1781.662L2936.1807,1781.5606L2936.6229,1781.8893L2938.9438,1785.7747L2939.3071,1786.2035L2939.3534,1786.2446L2939.7069,1786.5541L2940.5988,1787.0689L2942.0187,1787.4168L2942.3244,1787.7135L2942.085,1788.1449L2942.6294,1788.1449L2942.3865,1788.7958L2942.1325,1789.1193L2941.7949,1789.2285L2940.845,1789.2952L2940.443,1789.466L2940.1368,1789.7677L2939.9778,1790.2119L2940.2431,1790.99L2941.706,1790.1978L2941.5231,1790.9835L2941.8068,1790.7768L2941.968,1790.452L2942.0842,1790.0681L2942.2406,1789.6907L2942.0591,1789.6907L2942.5133,1789.0744L2942.666,1788.7573L2942.762,1788.3798L2944.3092,1789.0051L2944.4627,1788.9961L2944.6887,1788.8574L2944.7994,1788.9101L2945.2012,1789.2413L2945.8935,1789.4352L2946.1769,1789.457L2946.5593,1789.6586L2946.8609,1790.1015L2946.9579,1790.5483L2946.7367,1790.7486L2946.2913,1790.8564L2944.7029,1791.6114L2944.8686,1791.1389L2944.6617,1790.8603L2944.4,1790.8462L2944.3975,1791.18L2944.2025,1791.6781L2944.5294,1791.8835L2945.052,1791.9837L2945.4507,1792.1698L2945.8044,1792.5152L2946.2218,1792.7399L2946.7078,1792.8631L2947.2665,1792.9029L2947.2925,1792.7078L2946.7445,1792.4818L2946.5897,1792.338L2946.4709,1792.062L2946.353,1791.6088L2946.3928,1791.4072L2946.9352,1791.18L2947.4018,1791.1646L2948.0055,1791.3854L2948.5411,1791.777L2948.816,1792.2764L2948.9824,1792.2764L2949.0709,1791.6114L2949.2502,1791.6114L2948.9893,1792.8747L2948.6297,1793.2881L2947.2063,1793.3561L2947.1778,1793.5705L2947.7214,1793.5705L2947.4417,1793.74L2947.3307,1793.7862L2947.4908,1794.1919L2947.7533,1794.1765L2948.0703,1794.0186L2948.3905,1793.9993L2948.5892,1794.2124L2948.7833,1794.7619L2949.0164,1794.862L2949.1601,1794.7966L2949.3632,1794.6425L2949.5456,1794.4641L2949.6338,1794.3126L2949.711,1794.2111L2949.861,1794.2047L2950.0308,1794.2278L2950.1751,1794.215L2951.024,1793.7041L2951.3475,1793.5705L2950.9582,1793.4101L2950.1079,1793.2791L2949.7894,1793.1392L2949.5246,1792.7168L2949.503,1792.2122L2949.7409,1791.7885L2950.2485,1791.6114L2953.414,1791.7166L2954.0352,1791.9452L2954.3671,1792.2931L2955.1744,1792.6667L2955.2436,1792.7399L2955.7856,1793.3138L2956.132,1793.5872L2958.7944,1794.7824L2959.5577,1795.4115L2959.5768,1796.1536L2959.6339,1796.4103L2959.5257,1797.0856L2959.5861,1797.4656L2959.8026,1797.8007L2959.9894,1797.7775L2960.2962,1797.4656L2960.7568,1797.1999L2961.0631,1797.1228L2961.4315,1797.2307L2961.678,1797.4117L2961.8365,1797.6376L2961.8985,1797.9316L2961.8476,1798.3283L2962.0141,1798.3283L2962.0869,1798.1768L2962.1917,1798.0202L2962.2687,1797.8777L2962.3868,1798.363L2962.5998,1798.4695L2962.7907,1798.2243L2962.8416,1797.662L2963.0598,1797.7044L2963.7675,1797.7224L2964.1094,1797.662L2964.292,1797.5388L2964.7602,1797.1241L2964.9997,1797.0368L2965.3282,1797.0535L2965.6511,1797.1293L2965.8864,1797.2885L2966.0349,1797.8392L2966.2524,1797.8867L2966.4096,1797.7506L2966.3118,1797.4656L2967.8256,1796.3692L2967.9664,1796.4078L2968.339,1796.608L2968.409,1796.6928L2968.4891,1796.9316L2968.7457,1796.9444L2969.2283,1796.7993L2970.146,1796.798L2970.8794,1796.9341L2971.3371,1797.4348L2971.4331,1798.5234L2972.5134,1798.2782L2973.061,1798.7134L2973.7804,1800.2655L2973.0691,1801.5595L2972.8839,1801.779L2972.5512,1802.0524L2972.4207,1802.2257L2972.3458,1802.4285L2972.2255,1802.8996L2972.1442,1803.0858L2971.8705,1803.4465L2971.4483,1803.8611L2970.9746,1804.1551L2970.5404,1804.1435L2970.4476,1803.8406L2970.4098,1803.3631L2970.286,1803.0575L2969.926,1803.2835L2969.7284,1803.1307L2969.5567,1803.1038L2969.3931,1803.1654L2969.2178,1803.2835L2969.4294,1803.3194L2969.5786,1803.3862L2969.6656,1803.5158L2969.6864,1803.7315L2968.926,1803.7931L2968.8924,1804.1782L2969.1665,1804.7186L2969.3259,1805.2603L2969.4892,1805.2603L2969.8508,1804.7623L2970.5816,1804.5286L2971.3827,1804.4876L2971.9521,1804.5749L2972.9729,1805.2039L2973.1229,1805.3579L2973.0958,1805.7956L2973.1612,1806.1281L2973.3594,1806.3193L2973.7262,1806.3181L2973.4188,1807.0702L2973.0446,1807.0702L2972.6612,1806.7545L2972.3261,1806.5517L2972.137,1806.4747L2972.0746,1806.2872L2972.043,1806.0613L2971.9513,1805.8662L2971.7794,1805.6891L2971.7017,1805.6377L2970.2138,1805.8893L2969.673,1806.0921L2967.9611,1805.8662L2968.0541,1806.2269L2967.9664,1806.6312L2967.599,1807.3937L2967.5948,1807.5863L2967.52,1807.9842L2967.3986,1808.3564L2967.235,1808.6876L2967.446,1808.9649L2967.667,1809.6464L2968.6086,1810.2934L2969.0051,1810.4487L2969.2293,1810.1162L2969.6092,1809.4295L2971.034,1808.2358L2971.3814,1807.6094L2971.7537,1807.9868L2971.9454,1808.4745L2971.9302,1809.0162L2971.6758,1809.5681L2972.3737,1809.4732L2972.609,1809.5694L2972.4499,1809.9006L2972.3664,1810.2074L2972.6115,1810.423L2973.1729,1810.6438L2973.1134,1809.9481L2974.6273,1810.3588L2975.1138,1809.7838L2975.2782,1809.7838L2975.3836,1809.9584L2975.5356,1810.1316L2975.7238,1810.2934L2975.9388,1810.4307L2976.2192,1809.7838L2975.8054,1809.5848L2975.578,1809.5451L2975.3057,1809.5681L2975.6994,1809.0765L2976.3617,1808.8699L2977.0582,1808.8532L2977.5653,1808.9225L2978.0052,1809.1369L2978.5022,1809.5232L2978.6369,1809.8839L2977.9871,1810.0174L2978.167,1810.423L2978.2435,1810.8594L2978.423,1810.8594L2978.4728,1810.7234L2978.6593,1810.4307L2978.8003,1811.1084L2979.4296,1811.2638L2980.955,1811.0751L2980.5355,1810.7324L2979.6012,1810.1689L2979.0937,1810.0174L2979.4828,1809.6118L2980.1559,1809.4218L2980.8565,1809.4154L2981.3282,1809.5681L2981.1765,1809.332L2981.5784,1809.3692L2982.7834,1809.658L2983.0861,1809.8634L2983.1482,1810.0816L2982.6975,1810.2151L2982.6701,1810.4307L2983.3851,1810.6438L2983.4419,1810.5796L2983.4551,1810.536L2983.4844,1810.4923L2983.5777,1810.4307L2983.8559,1810.6848L2984.3318,1810.5488L2984.7666,1810.5745L2984.919,1811.31L2984.9933,1811.1418L2985.1496,1810.8556L2985.2002,1810.6438L2985.42,1810.8556L2985.6441,1810.9827L2985.8675,1810.9955L2986.0805,1810.8594L2985.7573,1810.4307L2987.933,1810.1278L2988.4264,1810.3229L2988.6626,1810.482L2988.9232,1810.5514L2989.1214,1810.6695L2989.1692,1810.9672L2989.3356,1811.1482L2989.7614,1811.1598L2990.4266,1811.0751L2990.821,1811.4293L2991.1457,1811.8568L2991.5896,1812.2149L2993.6566,1812.4921L2994.1804,1812.6885L2994.5551,1813.0132L2994.2645,1813.1814L2994.1482,1813.2288L2994.4334,1813.9823L2994.4074,1814.3275L2994.4592,1814.4148L2994.5691,1814.4277L2994.727,1814.5406L2994.8876,1814.6921L2995.0142,1814.8127L2995.9359,1815.1682L2995.9765,1815.5879L2996.432,1816.0474L2997.5342,1816.9099L2997.71,1817.1923L2997.9144,1817.8545L2998.5954,1819.1585L2998.7795,1819.2971L2998.8417,1819.5025L2999.9549,1821.0285L3000.1836,1821.1658L3000.541,1821.2171L3001.0974,1821.4096L3001.7514,1821.8986L3002.2657,1822.539L3002.4017,1823.1935L3002.5987,1823.1935L3003.0092,1822.7521L3003.548,1822.7546L3004.1188,1822.9189L3004.6269,1822.96L3005.0989,1822.7392L3005.6032,1822.4145L3006.1425,1822.1488L3006.7137,1822.0988L3007.0289,1822.2207L3007.2683,1822.4222L3007.7316,1822.96L3008.5584,1823.6068L3008.8259,1824.0559L3008.971,1824.5873L3009.0208,1825.1712L3009.0052,1825.7782L3008.6792,1826.4712L3008.0752,1826.851L3007.4819,1827.1L3007.0563,1827.535L3006.4747,1827.8828L3006.2867,1827.9508L3006.1275,1828.1202L3005.8402,1829.2444L3004.902,1830.0759L3003.9182,1830.0438L3002.8377,1829.7205L3001.6088,1829.6743L2999.8859,1830.0644L2998.7446,1830.1606L2996.4899,1830.7276L2995.5003,1830.5107L2994.6134,1830.9003L2992.9752,1830.5964L2990.9234,1830.9854L2990.2614,1831.055L2989.5536,1831.3964L2989.045,1831.8275L2988.5707,1832.3241L2988.0649,1832.7322L2987.4527,1832.9029L2986.8256,1832.9169L2986.449,1832.9885L2986.1999,1833.2451L2985.959,1833.9011L2985.4329,1834.6572L2984.5313,1835.0189L2983.5686,1835.1439L2983.4709,1834.7727L2983.2931,1834.6594L2983.1471,1834.7023L2983.0432,1834.9305L2983.0079,1835.2303L2982.3007,1835.474ZM2898.6782,1814.737L2898.7845,1815.353L2898.6668,1815.7882L2898.3708,1815.8921L2897.9352,1815.5007L2897.65,1815.3081L2897.2708,1815.1798L2896.9564,1814.995L2896.7186,1814.1376L2896.288,1813.7589L2895.4112,1813.2288L2895.8335,1812.8977L2896.2369,1813.0055L2896.5809,1813.3341L2896.8236,1813.6601L2897.1383,1814.2531L2897.3515,1814.4995L2897.7704,1814.737L2897.9086,1814.2454L2898.1664,1814.144L2898.4527,1814.3365ZM2896.6523,1809.332L2896.2472,1809.7851L2894.9643,1810.1124L2894.4948,1810.4307L2894.1038,1810.174L2893.6572,1810.0174L2894.0175,1809.7479L2894.9742,1809.5155L2895.4074,1809.1369L2895.5418,1809.1998L2895.542,1809.2306L2895.5804,1809.332L2895.8835,1809.1677L2896.1541,1809.1497ZM2886.389,1808.472L2886.925,1808.3462L2887.4505,1808.6067L2888.2872,1809.332L2887.7719,1809.7658L2887.1585,1809.5232L2886.6352,1808.97ZM2974.5211,1807.1781L2974.7268,1807.4207L2975.0067,1808.2255L2975.1755,1808.5798L2975.2211,1808.9597L2974.7253,1808.9546L2973.8758,1808.6876L2973.4147,1808.6054L2973.0286,1808.3603L2972.8086,1807.9585L2972.8615,1807.3937L2974.2061,1807.1293ZM2883.9806,1806.7494L2885.295,1806.7057L2885.7342,1807.0112L2885.9289,1807.8443L2885.7309,1807.8443L2885.3283,1807.4746L2883.4967,1807.2294L2882.9841,1806.5517L2883.3815,1806.0074L2883.6791,1805.7481L2883.9293,1805.7686L2884.0195,1806.0151L2884.0275,1806.3424ZM2881.674,1804.2629L2881.9657,1804.4015L2882.5805,1804.485L2883.0541,1804.6775L2882.917,1805.1422L2882.6245,1805.5889L2882.4376,1805.7648L2882.39,1805.5633L2882.3151,1805.4452L2881.7074,1805.2603L2880.5022,1804.2848L2880.2681,1803.9279L2880.6156,1803.8688L2881.0951,1803.9048L2881.516,1804.0396ZM2880.5205,1803.2835L2880.3899,1803.2655L2879.9767,1803.2835L2880.0263,1803.4606L2880.0713,1803.9279L2879.3754,1803.5004L2878.9419,1802.9882L2878.1823,1801.7944L2878.2141,1801.5595L2878.6499,1801.7584L2878.9428,1802.1179L2879.1892,1802.5261L2879.4876,1802.8701L2879.225,1802.2373L2878.7477,1801.4195L2878.164,1800.7815L2877.5896,1800.6968L2877.5577,1800.9317L2877.6311,1801.0434L2877.6466,1801.105L2877.6533,1801.1833L2877.7007,1801.3438L2877.4117,1801.2424L2877.1753,1801.0729L2876.9987,1800.829L2876.8894,1800.503L2878.0229,1800.4349L2879.0949,1801.2347L2879.9718,1802.3592ZM2873.0257,1796.7993L2873.8832,1796.662L2874.4964,1797.1164L2875.3739,1798.3283L2874.9396,1798.517L2874.4922,1798.5324L2874.0883,1798.3873L2873.7728,1798.0934L2873.9489,1798.11L2874.498,1798.0934L2874.4289,1797.7532L2874.2627,1797.5375L2874.0495,1797.4926L2873.8318,1797.662L2873.2153,1797.0959ZM2822.9617,1778.4301L2822.8388,1778.5033L2821.5907,1779.6127L2819.2661,1781.1728L2818.3861,1781.5709L2817.4984,1781.662L2817.5834,1781.0496L2817.8565,1780.8852L2818.5772,1781.0162L2818.9045,1780.7825L2819.2214,1780.3138L2819.5257,1779.9556L2819.8125,1780.0557L2820.1342,1780.2355L2820.5371,1780.1212L2820.8874,1779.8631L2821.0529,1779.614L2821.2928,1779.0734L2821.7306,1778.6882L2822.6472,1778.0962L2822.881,1778.0025L2823.0216,1778.1348L2823.0539,1778.3299ZM2790.9239,1780.6027L2790.6793,1780.9764L2790.8346,1781.377L2791.1701,1781.7121L2791.4584,1781.897L2791.1194,1782.3785L2790.48,1783.0257L2789.7821,1783.5919L2789.2672,1783.8359L2788.7541,1783.9412L2785.0886,1785.8389L2782.9429,1786.6555L2781.0338,1786.884L2780.7372,1786.7543L2780.5384,1786.4578L2778.8091,1786.4218L2778.5654,1786.3306L2778.0829,1786.0764L2777.7844,1785.9904L2776.8278,1786.0109L2776.6068,1785.8825L2775.9273,1784.6037L2775.6462,1784.266L2774.9806,1783.7152L2774.7577,1783.3569L2774.5994,1782.7573L2774.5442,1781.897L2774.3588,1781.1163L2774.3449,1780.7992L2774.5242,1780.7992L2774.7715,1781.1215L2775.9474,1782.209L2776.0579,1782.6482L2776.4196,1783.0244L2776.8928,1783.2876L2777.3236,1783.3839L2778.4207,1783.3839L2778.528,1783.2555L2779.3753,1782.5416L2779.8361,1782.2334L2780.0697,1782.0319L2780.1942,1781.7789L2780.2728,1781.8097L2780.3825,1781.9972L2780.3647,1782.3182L2780.051,1782.7573L2780.2035,1782.9551L2780.8264,1781.9741L2780.7448,1781.6094L2779.9756,1781.4656L2779.7125,1781.1317L2778.0901,1776.6889L2777.9539,1775.4356L2778.4308,1774.0821L2779.7002,1773.0985L2779.9066,1772.6901L2780.1853,1772.3614L2780.7816,1771.9427L2781.4379,1771.5998L2781.8936,1771.4958L2781.6252,1771.3417L2781.3442,1771.2801L2781.0377,1771.2801L2780.743,1771.1003L2780.7382,1771.0386L2780.9202,1770.968L2781.1972,1770.76L2784.5878,1771.2261L2786.6608,1771.8194L2788.0785,1772.2856L2788.5138,1772.5155L2788.8218,1772.8622L2788.8932,1773.3566L2788.7141,1773.9409L2788.5179,1774.3261L2788.4897,1774.6857L2788.8026,1775.198L2789.8352,1776.2767L2790.1946,1776.2548L2790.436,1776.4038L2790.5615,1776.7544L2790.6376,1777.1473L2790.7349,1777.4401L2790.7058,1777.6828L2790.5094,1778.05L2790.1231,1778.6458L2789.9256,1778.6458L2790.0291,1778.9116L2790.0306,1779.1813L2789.9398,1779.4548L2789.768,1779.7219L2790.3053,1780.1443L2790.5981,1780.3125L2790.958,1780.369ZM2923.6561,1767.4197L2923.8038,1767.805L2923.8076,1768.1941L2923.6766,1768.6218L2922.9052,1770.0434L2922.9447,1770.3478L2923.1743,1770.8678L2922.762,1770.8845L2922.4278,1771.022L2921.8029,1771.4958L2922.0068,1770.9308L2921.8721,1770.6739L2921.5737,1770.7716L2921.2892,1771.2801L2921.3468,1771.3777L2921.4311,1771.5857L2921.4194,1771.8092L2921.1963,1771.9466L2921.049,1771.9042L2920.9707,1771.7539L2920.9112,1771.5613L2920.6547,1771.0643L2920.5687,1770.7677L2920.4456,1770.4826L2920.1559,1770.2013L2919.7503,1770.4017L2919.1995,1770.2668L2918.674,1769.9663L2918.3473,1769.6646L2918.3189,1769.3897L2918.4703,1769.0559L2918.6751,1768.7027L2918.7993,1768.3714L2918.7049,1768.1441L2918.4393,1767.9925L2917.9548,1767.832L2918.0506,1768.1029L2918.0641,1768.3752L2917.9839,1768.6475L2917.8035,1768.9107L2917.713,1768.2635L2917.5491,1768.2635L2917.2172,1768.7142L2916.7658,1768.8414L2916.3877,1768.6526L2916.2808,1768.1466L2916.1039,1767.7703L2915.7042,1767.3607L2915.4428,1766.8341L2915.68,1766.1072L2915.5138,1765.894L2916.0228,1765.9095L2916.3547,1766.1715L2916.6421,1766.5053L2917.023,1766.7339L2917.455,1766.7455L2917.7774,1766.5773L2918.0663,1766.3333L2918.3936,1766.1072L2918.8695,1765.9595L2919.2362,1765.9903L2919.5375,1766.1329L2919.8117,1766.323L2919.8932,1766.4566L2920.0796,1766.8803L2920.1802,1766.9703L2920.4172,1766.9035L2920.8407,1766.6068L2921.0487,1766.5387L2921.3175,1766.6826L2922.0817,1767.3016L2922.3725,1767.4197L2922.7447,1767.2117L2923,1766.9446L2923.2619,1766.915ZM2918.9308,1760.9161L2919.1894,1760.4922L2918.9625,1760.0171L2918.5495,1759.6086L2918.2575,1759.3877L2918.9252,1759.2708L2919.4309,1759.7935L2919.7383,1760.5744L2919.8827,1761.9294L2920.2209,1762.4573L2920.6322,1762.9428L2920.9326,1763.5027L2920.2939,1763.5207L2919.7315,1762.7385ZM2914.4449,1764.4813L2914.3302,1764.0113L2913.5794,1763.3434L2913.3919,1762.8554L2913.8486,1762.6769L2914.2503,1762.2698L2914.5502,1761.7522L2914.707,1761.2397L2914.9077,1760.0941L2914.8658,1759.737L2914.6521,1759.1938L2915.0433,1759.2631L2915.432,1759.4172L2915.7165,1759.6985L2915.7848,1760.1429L2915.5925,1760.4332L2915.2607,1760.7504L2915.0215,1761.1434L2915.1065,1761.661L2915.3237,1761.7714L2915.9919,1761.6674L2916.2919,1761.7791L2916.4352,1762.0617L2916.5104,1762.3828L2916.6667,1762.6191L2917.0543,1762.6615L2916.7415,1762.4264L2916.8755,1762.2261L2917.0176,1762.0527L2917.1742,1761.9063L2917.3443,1761.7791L2917.4884,1762.1619L2917.7255,1762.3532L2917.9921,1762.3057L2918.2372,1761.9757L2918.372,1762.5164L2918.051,1762.7501L2917.5521,1762.8695L2917.1613,1763.0712L2917.4546,1763.1624L2917.656,1763.3473L2917.8196,1763.5554L2917.9906,1763.7184L2918.2561,1763.8238L2918.784,1763.9496L2919.032,1764.1487L2918.2492,1765.4702L2917.7786,1766.0019L2917.5333,1765.6757L2917.4038,1765.7373L2917.0856,1765.8298L2916.96,1765.894L2916.9091,1765.6513L2916.8576,1765.519L2916.6889,1765.2468L2916.6652,1764.6123L2916.1367,1764.3914L2915.6554,1764.6457L2915.7736,1765.4432L2915.4557,1765.2737L2914.6111,1764.656ZM2909.9819,1758.743L2910.5986,1758.3499L2910.4214,1757.8259L2909.9276,1757.5177L2909.5923,1757.7822L2909.5167,1758.0764L2909.3675,1758.4039L2909.1636,1758.6081L2908.9283,1758.5272L2908.8103,1758.192L2908.8538,1757.7976L2909.011,1757.5511L2909.2308,1757.6641L2909.3161,1757.1144L2908.9856,1756.4876L2908.408,1756.187L2907.7551,1756.6057L2907.6437,1756.4426L2907.5295,1756.4054L2907.4014,1756.4118L2907.2465,1756.372L2907.6871,1755.8633L2908.2317,1755.7041L2909.164,1755.7259L2910.0691,1755.3521L2910.4416,1755.3329L2910.5953,1755.7259L2911.17,1755.4009L2911.8192,1755.5936L2912.4165,1756.0727L2912.8359,1756.6057L2913.0342,1756.9975L2913.1981,1757.4637L2913.299,1757.9569L2913.2528,1759.005L2913.3278,1759.3337L2913.7927,1760.035L2914.0171,1760.0415L2914.3623,1760.1994L2914.6827,1760.2508L2914.1716,1760.7363L2913.5655,1760.541L2912.4075,1759.6035L2911.8474,1759.4789L2911.2071,1759.4789L2910.5607,1759.3248ZM2904.5035,1754.5314L2903.9508,1754.7844L2903.2175,1754.8923L2902.0223,1754.8628L2901.4479,1754.6611L2900.804,1754.0985L2899.7429,1753.8725L2899.0169,1753.6027L2898.6022,1753.2521L2899.0341,1752.904L2898.6993,1752.4043L2898.094,1752.8552L2897.6266,1753.1134L2897.7132,1752.0421L2897.7977,1752.1282L2898.0266,1752.2579L2898.208,1751.6324L2898.4591,1751.5656L2898.719,1751.712L2898.9261,1751.7184L2899.2225,1751.6658L2900.3579,1751.9342L2900.9363,1752.3889L2901.6724,1752.4544L2902.4351,1752.3889L2903.093,1752.4519L2903.7447,1752.4082L2904.2192,1752.0331L2904.6449,1751.6015L2905.1457,1751.3947L2905.737,1751.4628L2906.343,1751.6606L2906.8338,1751.992L2907.0711,1752.4519L2906.9805,1752.4082L2906.7544,1752.2579L2906.8114,1752.6831L2908.293,1754.6932L2908.3522,1754.9707L2908.2276,1755.2828L2908.0374,1755.2789L2907.8182,1755.1466L2907.6135,1755.0786L2904.2043,1755.9198L2904.2322,1755.7259L2904.3021,1755.6296L2904.3804,1755.5499L2904.4506,1755.4215L2904.5084,1755.1775L2904.6031,1755.0593L2904.7754,1755.0747L2904.9514,1755.1171L2905.0659,1755.0786L2905.1313,1754.7819L2905.0825,1754.4774L2904.8854,1754.3349ZM2890.5308,1749.0043L2890.4447,1748.5701L2890.0814,1748.4032L2888.5115,1748.2888L2888.2603,1748.1655L2887.9614,1747.9266L2888.4176,1747.8572L2890.8761,1748.0306L2891.2531,1748.2953L2891.1934,1748.6434ZM2880.647,1749.0043L2880.421,1748.9516L2880.1955,1748.8296L2879.8799,1748.574L2879.543,1748.1848L2878.8166,1747.0852L2878.3106,1747.2804L2877.8343,1747.2162L2877.418,1746.9722L2876.8923,1746.4558L2876.7307,1746.3839L2876.6464,1746.2477L2876.662,1745.888L2876.5898,1745.7647L2876.2196,1745.414L2876.1023,1745.3408L2875.9127,1745.1378L2875.843,1744.6934L2875.6794,1744.2502L2875.2097,1744.0485L2874.3695,1744.412L2874.0207,1744.3902L2874.0625,1743.8121L2874.8522,1743.5565L2875.3963,1743.5257L2875.8011,1743.7505L2876.9218,1745.4718L2877.4179,1745.9908L2878.5753,1746.4083L2879.4308,1747.31L2880.4459,1747.7737L2880.8869,1748.3852L2881.2137,1749.0994L2881.3621,1749.6722L2880.8494,1749.0788ZM2867.9233,1738.8548L2868.1443,1738.8381L2868.0612,1739.262L2867.7327,1739.5639L2867.2293,1739.1669L2866.9641,1739.2556L2866.6227,1739.6859L2866.3401,1739.826L2866.2524,1739.0487L2866.672,1738.7931L2867.1142,1738.6299L2867.5441,1738.6274ZM2856.8057,1737.9915L2858.1991,1737.2913L2858.7954,1737.2207L2859.2185,1737.5611L2859.0682,1737.651L2858.7734,1737.899L2858.6292,1737.9915L2858.8515,1738.1161L2858.9938,1738.2998L2859.0501,1738.5464L2859.0229,1738.8548L2856.4358,1738.3447L2856.0846,1737.9915L2856.2676,1737.8489L2856.4359,1737.7756L2856.6104,1737.8103ZM2860.7332,1733.6427L2860.8372,1734.0487L2861.0721,1734.4007L2861.3878,1734.6461L2861.7397,1734.7386L2862.1622,1734.7553L2862.2934,1734.8195L2862.1982,1734.9506L2861.9454,1735.1703L2861.375,1735.4401L2860.8553,1735.3257L2859.8273,1734.7386L2859.9377,1734.4162L2860.1118,1734.1836L2860.3213,1733.9524L2860.5363,1733.6427ZM2844.3049,1731.9173L2844.5018,1731.9173L2844.687,1732.3785L2844.821,1732.5918L2844.7975,1732.7383L2844.5148,1732.9952L2844.0317,1733.283L2843.7203,1733.2509L2843.4651,1733.0903L2843.1526,1732.9952L2842.2847,1733.0903L2841.6019,1733.3395L2840.1809,1734.0718L2840.5335,1733.7095L2842.3165,1732.5404L2842.8064,1732.4261L2843.3167,1732.4454L2843.857,1732.5841L2843.7802,1732.412L2843.6823,1732.0831L2843.598,1731.9173L2843.809,1731.7208L2843.8916,1731.9392L2844.2386,1732.349ZM2853.2658,1731.4857L2853.4148,1731.4471L2853.6134,1731.3662L2853.771,1731.3764L2853.8053,1731.6025L2853.7107,1731.8338L2853.5348,1731.9636L2853.309,1732.0753L2853.0595,1732.2501L2852.8004,1732.2064L2852.3673,1731.9854L2851.8611,1731.8133L2851.3932,1731.9173L2851.3183,1731.7323L2851.2039,1731.7208L2850.852,1731.9173L2851.015,1731.4857L2851.2286,1731.2223L2851.5328,1731.0912L2851.9699,1731.054L2852.0682,1731.1143L2852.2351,1731.3944L2852.3632,1731.4857L2852.5886,1731.5101ZM2892.5141,1811.3626L2892.583,1811.4871L2892.5499,1811.7784L2892.3329,1811.9299L2892.1092,1811.953L2891.933,1811.8786L2891.812,1811.722L2891.6824,1811.6142L2891.6561,1811.4781L2891.7834,1811.3908L2891.9055,1811.4653L2892.5288,1811.6026L2892.5223,1811.4961L2892.514,1811.4447ZM2890.6718,1811.2573L2890.8746,1811.31L2891.225,1811.4499L2891.1633,1811.6295L2890.753,1811.6565L2890.5215,1811.4601L2890.5826,1811.2933ZM2806.545,1780.2483L2806.7097,1780.4974L2806.6516,1781.0547L2806.138,1781.4772L2805.024,1781.9086L2804.1883,1782.3413L2804.0023,1782.3952L2803.8503,1782.498L2803.7282,1782.6328L2803.3373,1782.7599L2802.7596,1782.783L2802.6603,1782.6931L2802.9999,1782.5622L2803.6013,1782.0704L2803.9062,1781.9779L2804.1792,1781.8071L2804.4091,1781.5619L2804.5939,1781.4194L2805.3992,1781.092L2805.7167,1781.0766L2806.0379,1780.916L2806.3152,1780.6567L2806.4405,1780.4332L2806.4929,1780.2945ZM2810.0308,1779.7501L2810.4013,1779.6667L2810.4102,1779.8285L2809.965,1780.1816L2809.4542,1780.5103L2808.5162,1781.2627L2808.0512,1781.2678L2807.7523,1780.857L2807.7251,1780.4332L2807.7929,1780.4872L2808.0261,1780.83L2808.4731,1780.7774L2808.8753,1780.4602L2809.0095,1780.2715L2808.9076,1780.2599L2808.9942,1780.1983L2809.8446,1779.8131ZM2790.3552,1770.5674L2791.2736,1771.0669L2791.6564,1771.447L2791.3236,1771.596L2790.5961,1771.6345L2789.9134,1771.2762L2789.7224,1770.7382ZM2766.3216,1770.3516L2766.3879,1770.3478L2766.5206,1770.3555L2766.3706,1770.4132L2765.8509,1770.4325L2765.2616,1770.3914L2764.8884,1770.1898L2765.1786,1770.0241L2765.9399,1770.1988ZM2819.743,1767.0499L2819.8901,1767.2887L2819.8885,1767.7254L2819.6766,1767.7434L2819.4255,1767.5584L2819.1477,1767.5841L2818.9931,1767.5353L2818.9032,1767.3401L2818.8715,1767.1012L2818.9103,1766.838L2819.0967,1766.7147L2819.3764,1766.793L2819.6283,1766.9497ZM2896.6472,1751.8225L2896.7195,1751.7326L2896.8938,1751.8379L2896.85,1752.0357L2896.6042,1752.3851L2896.5075,1752.5829L2895.9983,1752.7653L2895.7613,1752.7576L2895.7402,1752.5546L2895.8091,1752.0357L2895.975,1751.9766L2896.3264,1752.0948L2896.5809,1752.0562ZM2797.0078,1749.3999L2797.047,1749.7776L2797.0174,1750.5072L2796.7774,1751.0634L2796.6071,1751.2753L2796.4684,1751.4782L2796.3667,1751.3472L2796.7271,1749.3614L2796.7009,1749.0968L2796.7135,1748.9298L2796.8165,1748.9041L2796.9234,1749.0364L2796.9883,1749.2741ZM2884.178,1748.9401L2884.426,1748.836L2885.4625,1748.7834L2885.0738,1749.1045L2884.5865,1749.4231L2884.4055,1749.4231L2884.4373,1749.2137L2884.378,1749.0377ZM2873.1477,1742.0034L2873.476,1742.2347L2873.5908,1742.4543L2873.3098,1742.7356L2872.8885,1742.8166L2872.7316,1742.6123L2872.7667,1742.3914L2872.706,1742.286L2872.6121,1742.2231L2872.4632,1742.2462L2872.2872,1742.1923L2871.8354,1741.7927L2871.6432,1741.487L2871.7195,1741.171L2872.0672,1741.0708L2872.0423,1740.8704L2872.1024,1740.598L2872.2599,1740.4952L2872.3853,1740.8447L2872.2327,1741.3534L2872.4086,1741.4228L2872.9005,1741.5461L2873.0224,1741.8184ZM2869.7772,1738.6813L2869.9348,1739.0076L2869.9389,1739.2312L2869.7558,1739.3828L2869.4227,1739.4932L2869.2014,1739.7194L2869.2943,1739.8966L2869.5158,1739.9416L2869.5323,1740.1189L2869.2974,1740.3501L2868.9847,1740.3963L2868.7112,1740.1882L2868.5828,1739.903L2868.6909,1739.7142L2868.8771,1739.5639L2868.9628,1739.4085L2868.7322,1739.3673L2868.5093,1739.217L2868.847,1738.7468L2869.4694,1738.5734ZM2863.9634,1735.9938L2864.0283,1736.2263L2864.0717,1736.6438L2863.9875,1736.7235L2863.8751,1736.4845L2863.7746,1736.3381L2863.6632,1736.3484L2863.4828,1736.3882L2863.2746,1736.3561L2863.1414,1736.2122L2863.0728,1736.04L2863.0926,1735.9655L2863.1797,1735.9874L2863.248,1735.8139L2863.3536,1735.4362L2863.6526,1735.3591L2863.9176,1735.7343ZM2859.3915,1734.1721L2859.443,1734.2723L2859.5175,1734.483L2859.4523,1734.6924L2859.2871,1734.8735L2859.1344,1734.8863L2858.9771,1734.7463L2858.8852,1734.5292L2858.814,1734.2902L2858.6162,1734.2106L2858.2631,1733.9639L2858.1534,1733.9074L2858.1301,1733.7635L2858.0955,1733.6941L2857.9415,1733.5747L2857.9073,1733.319L2858.193,1733.1314L2858.3962,1733.0903L2858.5959,1733.0723L2858.8141,1733.1443L2858.7841,1733.3203L2858.9364,1733.5425L2859.2655,1733.9254ZM2855.4733,1732.6843L2855.7751,1732.6882L2856.1265,1732.7614L2856.0597,1732.9027L2855.8366,1732.9618L2855.6318,1732.9426L2854.9371,1733.0389L2854.6486,1733.265L2854.2193,1733.4552L2853.8412,1733.5631L2853.8049,1733.5053L2853.7721,1733.2972L2853.8829,1733.2342L2854.1149,1733.265L2854.1146,1732.985L2854.2726,1732.8102L2854.6606,1732.7499L2854.8554,1732.7422ZM2848.6895,1730.8651L2848.7446,1730.9615L2848.7661,1731.2069L2848.667,1731.4253L2848.5523,1731.415L2848.4647,1731.4394L2848.404,1731.6668L2848.2614,1731.7054L2847.9682,1731.6385L2847.7506,1731.7593L2847.6654,1731.9713L2847.5902,1731.8724L2847.6337,1731.4702L2847.9521,1731.1272L2848.4401,1730.9268ZM2845.8467,1731.0424L2847.4678,1731.2544L2847.4925,1731.3456L2847.4388,1731.5409L2847.2748,1731.6L2847.0975,1731.4792L2846.9106,1731.4702L2846.7606,1731.6694L2846.6421,1731.7477L2846.1237,1731.4664L2845.8293,1731.3584L2845.6517,1731.3238L2845.1544,1731.3816L2844.8718,1731.3584L2844.1666,1731.054L2843.9192,1730.9833L2843.7694,1730.6917L2843.6284,1730.6081L2843.7636,1730.436L2844.2668,1730.5079L2844.9586,1730.815ZM2843.3165,1729.6587L2843.432,1729.7049L2843.4752,1729.976L2843.2327,1730.2369L2842.9357,1730.1816L2842.6582,1730.0763L2842.3504,1730.0287L2842.0727,1729.89L2841.9758,1729.6677L2841.8828,1729.5315L2841.6598,1729.4428L2841.8691,1729.2578L2842.4856,1729.1808L2843.134,1729.6703Z" fill="#000000"/></svg>
