<svg xmlns="http://www.w3.org/2000/svg" viewBox="0 0 1000.00 640.53"><g transform="translate(30.00 30.00) scale(0.470000) translate(0.00 -382.42)"><path d="M2000,635.14L1995.46,640.98L1988.74,654.97L1984.17,659.59L1972.66,664.47L1968.12,667.97L1965.24,673.99L1965.52,677.71L1967.12,680.46L1967.84,683.62L1965.57,688.62L1963.87,689.87L1957.59,690.79L1951.75,693.79L1948.3,696.77L1941.49,706.62L1933.24,714.49L1922.76,719.56L1911.63,721.64L1901.45,720.39L1879.3,709.77L1870.4,712.23L1866.3,729.61L1863.06,732.96L1859.25,734.71L1855.05,735.25L1841.44,733.71L1837.73,734.21L1832.6,736.3L1827.29,739.53L1824.09,743.1L1818.02,753.08L1815.86,755.44L1811.03,759.25L1808.97,762.03L1808,765.31L1807.29,773.34L1806.52,777.13L1799.61,787.82L1798.83,790.73L1798.74,793.96L1798.4,796.82L1798.34,797.29L1796.91,800.63L1794.65,802.47L1793.04,803.78L1778.77,807.94L1760.99,822.35L1752.62,832.19L1747.38,843.04L1748.59,856.59L1751.69,871.59L1752.57,886.11L1747.06,898.39L1734.05,902.72L1728.85,906.15L1723.68,912.4L1712.79,929.46L1711.15,934.61L1708.26,950.32L1706.82,954.33L1703.6,960.9L1702.53,965.77L1702.6,970.83L1703.42,974.75L1703.64,978.76L1702,984.19L1699.63,987.77L1693.27,994.25L1690.58,998.5L1689.39,1002.49L1688.15,1010.23L1686.28,1014.13L1680.45,1020.24L1666.12,1030.45L1659.68,1036.94L1648.48,1051.24L1648.95,1052.65L1649.72,1054.96L1652.31,1056.13L1655.18,1056.61L1657.29,1058.23L1660.11,1063.25L1660.3,1063.69L1659.18,1064.15L1654.15,1085.85L1651.72,1089.09L1638.45,1100.68L1637.14,1101.21L1636.8,1102.39L1636.49,1107.54L1636.91,1112.84L1638.06,1117.47L1638.29,1122.18L1635.95,1127.81L1632.94,1130.59L1622.15,1133.83L1616.09,1139.86L1612.46,1147.06L1606.55,1164.81L1605.28,1166.92L1604.32,1169.27L1603.71,1171.84L1603.5,1174.47L1604.18,1175.68L1604.98,1176.68L1605.9,1177.49L1614.1,1182.8L1613.32,1191.43L1608.1,1199.71L1602.2,1203.27L1594.07,1204.93L1590.99,1210.13L1590.45,1211.79L1588.59,1217.51L1582.58,1225.89L1576.21,1229.5L1565.17,1228.93L1558.81,1230.73L1554.37,1236.38L1552.86,1244.66L1552.09,1261.39L1548.57,1269.46L1543.55,1276.15L1539.5,1283.17L1538.97,1292.16L1548.15,1308.74L1550.27,1318.26L1543.45,1323.76L1530.72,1324.61L1524.9,1326.84L1519.97,1332.91L1517.14,1342.43L1516.34,1361.85L1513.95,1370.34L1510.64,1377.04L1507.8,1379.38L1498.98,1379.5L1497.08,1380.56L1483.06,1398.42L1477.69,1400.6L1471.69,1395.61L1469.55,1393.13L1467.16,1391.99L1464.57,1392.04L1461.86,1393.29L1455.91,1393.64L1444.57,1388.98L1439.16,1387.93L1437.12,1388.63L1432.74,1391.19L1429.76,1391.52L1427.28,1390.37L1421.77,1385.83L1418.94,1384.44L1412.89,1384.28L1406.61,1386.18L1403.24,1388.08L1400.59,1389.58L1388.96,1399.63L1387.69,1402.08L1387.91,1406.18L1390.89,1415.81L1390.92,1419.31L1388.53,1421.78L1385.65,1421.38L1382.83,1420.44L1380.56,1421.31L1379.12,1424.58L1378.92,1429.87L1378.88,1430.82L1377.33,1435.15L1372.8,1440.37L1366.95,1443.48L1349.96,1447.36L1347.71,1447.33L1344.04,1445.99L1341.01,1443.98L1332.08,1436.01L1320.06,1431.16L1307.7,1428.52L1300.49,1440.49L1251.91,1442.45L1239.88,1458.15L1223.3,1444.25L1217.85,1442.07L1210.3,1445.82L1208.08,1446.11L1205.76,1444.87L1202.63,1440.6L1201,1439.31L1196.05,1438.16L1193.09,1438.55L1185.51,1442.47L1176.93,1443.55L1164.24,1436.49L1144.91,1434.83L1132.78,1437.59L1128.18,1439.54L1103.11,1450.11L1097.82,1449.06L1079.32,1437.31L1072.72,1433.11L1066.44,1431.08L1059.95,1430.77L1042.42,1434.27L1035.99,1434.08L1030.41,1435.09L1022.96,1438.48L1015.94,1443.2L1011.58,1448.16L1012.12,1451.74L1014.37,1455.73L1015.16,1459.33L1007.2,1463.67L1005.07,1466.6L1003.55,1469.86L1001.39,1472.89L996.3,1477.06L993.71,1478.14L990.36,1478.66L986.58,1480.44L984.11,1484.23L981.86,1488.6L978.76,1492.02L973.7,1493.78L962.5,1493.84L956.99,1495.07L954.37,1497.04L950.91,1499.64L948.66,1505.02L947.24,1510.34L943.79,1514.77L935.36,1516.38L908.82,1513.54L902.1,1509.58L902.1,1509.51L897.65,1500.91L890.84,1498.32L883.85,1501.27L879.06,1509.49L878.66,1522.42L873.3,1523.89L865.63,1522.75L858.4,1527.85L857.46,1529.42L857.13,1531.02L857.47,1532.64L859.77,1536.37L860.45,1538.22L860.07,1539.61L858.34,1540.46L852.56,1537.77L833.95,1536.25L829.46,1536.56L826.43,1540.03L823.04,1541.9L816.94,1543.66L811.75,1547.21L809.96,1547.26L808.55,1547.3L804.65,1543.71L801.58,1548.31L800.2,1552.28L798.83,1555.31L795.65,1557.07L791.95,1556.54L780.02,1550.14L765.05,1544.81L759.36,1545.97L752.43,1552.73L751.28,1554.93L750.33,1560.17L749.48,1562.84L749.04,1562.95L744.51,1568.02L737.73,1580.93L734.04,1585.35L720.79,1596.47L712.84,1599.36L706.06,1596.06L701.06,1599.36L690.35,1612.34L684.51,1616.82L682.27,1617.4L680.19,1617.58L678.12,1617.35L676.11,1616.76L676.02,1616.72L671.04,1610.12L666.17,1609.97L661.19,1612.69L655.92,1614.67L650.73,1612.62L645.55,1606.85L638.64,1606.66L629.41,1599.5L623.78,1597.61L598.77,1597.23L596.09,1598.04L590.78,1601.79L587.46,1602.99L583.94,1602.94L552.14,1593.49L531.13,1593.1L526.13,1593.01L523.27,1594.53L521.76,1597.93L519.98,1601.03L516.32,1601.72L516.32,1599.92L510.52,1589.44L501.82,1582.83L465.05,1570.64L458.19,1570.04L455.74,1568.34L455.24,1565.41L454.85,1563.11L454.62,1558.11L453.19,1551.59L452.92,1548.04L450.79,1543.85L436.77,1528.32L425.74,1523.02L412.96,1520.04L387.16,1518.2L384.55,1519.75L383.67,1521.17L382.48,1522.5L380.81,1523.74L379.02,1516.59L375.86,1515.14L368.56,1517.72L362.5,1518.02L361.56,1516.71L362.13,1512.85L360.57,1505.35L357.18,1510.76L354,1509.91L351.05,1507.16L350.52,1506.66L346.11,1504.97L346.19,1502L348.27,1501.53L352.07,1499.9L354.34,1499.51L351.71,1495.63L346.79,1494.82L342.11,1492.92L340.21,1485.59L339.61,1481.18L336.2,1467.11L334.66,1462.97L323,1446.81L319.65,1444.71L295.17,1443.16L290.71,1440.82L276.46,1429.38L273.05,1425.47L271.69,1420.72L269.29,1417.38L253.63,1403.78L250.88,1399.82L243.9,1385.63L233.04,1372.01L230.93,1370.05L228.95,1367.42L226.24,1358.66L224.18,1351.99L225.39,1345.2L222.73,1338.01L220.99,1335.5L218.42,1331.8L214.69,1327.83L213.1,1327.76L212.39,1329.73L211.53,1331.16L209.6,1329.31L208.35,1327.58L207.12,1326.21L205.82,1325.15L204.5,1324.52L196.46,1322.43L194.36,1320.95L191.92,1327.08L189.87,1327.01L186.46,1319.16L177.5,1313.16L172.1,1305.58L167.54,1297.11L162.32,1290.16L155.99,1285.46L148.08,1283.61L145.44,1281.78L143.1,1281.29L141.19,1282.71L139.75,1286.55L137.92,1286.48L134.06,1282.3L121.4,1273.72L119.71,1272.27L116.06,1253.34L106.29,1244.3L95.89,1226.59L85.46,1219.81L80.18,1215.22L79.06,1212.01L78.04,1209.07L80.95,1204.87L86.74,1202.36L88.59,1200.7L91.03,1198.49L89.71,1190.2L85.34,1187.03L79.8,1186.48L78.27,1185.75L78.02,1185.63L75.73,1184.54L75.92,1177.21L71.76,1177.77L69.11,1174.36L66.74,1169.24L63.52,1164.73L59.91,1152.04L59.29,1150.39L59.75,1148.79L60.69,1145.55L63.52,1141.08L64.73,1139.17L66.99,1134.34L68.89,1129.1L69.72,1125.23L68.48,1122.98L64.12,1122.56L61.55,1121.06L60.28,1119.35L55.99,1113.55L53.02,1111.67L25.37,1112.95L12.18,1113.55L10.67,1113.12L0,1110.02L4.86,1107.98L8.83,1104.46L20.24,1090.12L23.83,1086.68L31.62,1081.43L37.93,1079.02L40.06,1077.51L42.18,1074.42L42.44,1071.78L42.29,1069.35L43.17,1066.72L46.28,1064.25L49.26,1063.72L51.73,1061.82L53.29,1055.26L56.3,1050.56L60.38,1050.17L71.37,1052.84L83.52,1051.84L89.78,1052.86L94.76,1056.93L96.32,1058.18L97.83,1058.67L99.29,1058.36L100.63,1057.22L100.63,1057.17L105.61,1056.44L113.35,1056.64L119.02,1055.48L117.87,1050.72L113.75,1046.62L109.57,1045.04L101.11,1043.67L104.95,1040.46L118.43,1035.54L121.86,1033.51L123.14,1031.17L122.18,1028.87L118.75,1026.96L112.85,1024.74L110.85,1018.9L113.02,1012.61L119.42,1008.95L126.52,1000.23L128.12,995.18L124.7,989.76L119.85,989.1L109.66,993.55L105.78,990.76L105.96,988.36L108.66,981.02L108.71,977.19L106.83,974.3L104.36,973.97L101.99,974.08L100.28,972.48L99.51,965.25L104.43,955.88L103.74,948.24L103.74,948.2L113.13,943.56L117.46,939.86L119.63,934.1L118.7,926.9L110.44,907.68L109.68,906.79L108.39,906.23L107.07,905.46L106.31,903.76L106.59,901.19L107.92,900.07L109.41,899.36L110.1,898.1L110,881.37L113.19,875.96L116.92,875.09L120.75,877.98L124.07,883.88L156.28,870.51L167.66,862.23L171.87,859.16L171.3,841.57L174.77,838.05L183.48,834.72L186.8,829.27L187.37,822.57L185.28,817.03L181.35,812.73L176.47,809.75L178.4,801.36L176.22,792.47L171.34,785.38L165.04,782.2L155.3,783.52L136.27,774.89L128.07,776.41L111.88,769.12L106.7,765.84L109.4,762.68L114.13,755.6L116.36,753.49L117.98,755.71L119.38,757.13L120.74,757.46L122.72,756.33L126.32,753.31L138.25,747.54L140.82,745.22L142.57,741.53L142.26,735.77L144.17,731.62L155.1,727.13L167.33,729.12L190.47,739.12L194.08,741.85L195.52,745.82L196.45,750.45L198.54,755.03L201.69,758.55L204.78,760.6L221.21,763.76L223.81,763.23L227.16,760.13L233.22,751.12L237.21,747.94L241.11,759.5L252.17,761.9L275.6,756.79L297.06,754.56L303.17,751.93L299.9,749.73L297.51,746.34L296.19,741.9L296.07,727.66L294.37,718.77L294.21,711.26L298.74,706.49L296.92,703.68L294.35,695.45L292.11,693.65L286.06,690.61L284.27,688.6L284.33,683.84L288.04,682.03L298.23,680.07L303.15,676.41L306.18,672.09L308.04,666.43L309.48,658.71L308.9,657.83L307.37,657.29L305.95,656.37L305.71,654.46L306.53,653.25L309.3,651.47L309.89,650.76L310.82,647.04L312.32,644.36L312.52,641.66L309.55,637.99L328.29,623.14L339.11,616.98L349.56,619.55L361.54,623.27L364.54,624.2L383.48,627.59L392.47,635.46L421.41,676.48L424.22,679.21L427.21,680.54L434.51,682.28L437.19,684.14L446.72,699.25L450.2,703.02L453.22,702.97L456.19,701.6L459.5,701.18L463.8,703.46L469.78,707.97L475.08,713.27L477.28,717.8L480.26,721.29L492.58,728.32L499.17,732.08L523.56,739.28L540.52,738.51L607.73,735.36L643.8,739.67L654.69,738.79L676.73,730.15L736.78,723.86L749.91,724.95L760.52,729.78L769.25,731.57L777.8,730.75L784.98,726.38L794.76,715.35L799.87,711.6L806.51,709.9L813.73,707.39L814.18,707.24L803,698.92L794.51,690.45L792.67,682.27L793.47,673.1L796.55,655.12L795.62,650.08L793.61,648.32L793.24,646.7L797.07,642.04L799.74,640.5L805.42,639.58L808.21,637.19L816.14,620.98L821.26,616.85L849.02,610.78L863.09,607.69L867.37,605.7L873.93,606.05L879.66,606.35L897.1,603.86L933.22,608.39L936.41,607.74L953.83,596.57L993.14,597.42L1008.71,586.3L1009.16,584.04L1009.31,581.74L1009.16,579.38L1008.7,576.99L1008.61,576.7L1008.55,576.43L1008.61,576.23L1008.7,576.02L1012.15,569.13L1014.86,552.25L1018.03,545.9L1023.04,542.98L1049.74,535.78L1052.83,535.87L1055.75,536.72L1059.06,539.52L1065.39,547.33L1068.31,548.83L1081.7,546.16L1088.52,547.26L1093.71,553.52L1093.89,557.8L1092.25,561.57L1091.55,565.25L1094.31,569.37L1097.07,569.72L1107.54,565.64L1114.71,567.89L1125.84,577.87L1131.9,580.15L1138.74,577.58L1151.81,565.15L1158.48,560.94L1169.51,557.38L1170.47,556.78L1181.97,549.57L1187.45,547.39L1189.83,545.46L1191.93,541.54L1193.44,533.69L1194.55,530.62L1198.14,526.26L1200.63,525.74L1203.61,526.81L1208.71,527.3L1213.55,525.09L1222.23,516.89L1225.48,515.41L1231.3,518.27L1234.61,521.85L1238.14,523.31L1244.73,519.76L1253.05,511.15L1260.16,499.93L1266.06,487.28L1276.86,452.53L1280.11,445.72L1284.37,439.93L1293.03,430.48L1293.67,429.77L1297.47,423.9L1297.69,422.36L1297.79,420.81L1297.73,419.26L1297.53,417.73L1296.86,410.19L1296.9,406.56L1297.18,403.26L1305.45,399.79L1323.33,398.31L1384.14,383.13L1388.81,382.97L1393.33,385.25L1402.04,392.93L1406.23,393.94L1415.32,394.73L1431.23,404.06L1441.55,404.78L1448.75,404.06L1457.29,405.41L1465.43,408.9L1471.38,414.54L1478.73,416.08L1500.84,404.85L1510.36,402.44L1515.64,404.61L1519.29,407.56L1522.61,408.92L1526.82,406.4L1530.07,401.44L1531.59,396.76L1533.91,392.63L1539.46,389.15L1544.27,388.03L1554.1,387.57L1568.94,382.42L1573.18,383.59L1583.02,389.14L1588.3,391.06L1590.83,393.26L1592.85,396.94L1595.71,405.32L1597.73,408.33L1602.39,410.32L1613.04,409.87L1617.99,410.85L1620.64,415.73L1624.93,433.61L1627.42,438.21L1644.36,462.71L1651.46,470.52L1659.29,475.97L1668.46,478.81L1677.23,477.77L1691.99,469.61L1704.4,467.34L1713.06,461.99L1717.23,460.19L1732.3,458.9L1737.56,456.87L1742.79,456.36L1760.16,457.47L1765.49,455.71L1770.4,451.51L1775.62,444.29L1782.51,445.24L1783.01,445.15L1783.31,445.09L1786.07,441.85L1795.4,437.75L1805.31,438.64L1815.84,443.41L1812.03,456.74L1812.23,463.69L1820.2,462.91L1822.22,463.19L1824.51,466.78L1824.67,471.06L1824.2,476.1L1824.7,482.11L1828.15,490.84L1843.2,512.34L1845.16,514.18L1847.28,514.67L1849.51,513.94L1851.71,512.03L1852.86,511.42L1854.02,511.2L1855.26,511.33L1861.05,513.45L1865.67,514.24L1870.15,513.66L1875.65,510.62L1876.87,510.41L1878.08,510.61L1879.27,511.15L1902,538.78L1906.18,547.62L1910.87,561.26L1916.26,571.38L1917.9,573.09L1918.65,573.15L1922.38,570.84L1943.33,569.96L1948.6,567.96L1953.39,564.57L1958.32,562.98L1963.2,565.83L1964.31,567.85L1975,573.3L1983.96,580.99L1988.06,585.78L1991.37,591.63L1993.73,599.78L1992.88,604.34L1991.13,608.45L1990.89,615.29L1986.2,621.7L1988.88,626.88Z" fill="#000000"/></g></svg>
