<svg xmlns="http://www.w3.org/2000/svg" viewBox="-30.00 -30.00 1060.00 1060.00"><path d="M 681.75 71.00 L 745.13 170.91 L 947.07 332.06 L 941.50 434.09 L 961.35 477.04 L 984.68 540.82 L 1000.00 570.15 L 962.74 625.00 L 945.68 692.60 L 941.16 779.34 L 941.50 894.98 L 930.53 1000.00 L 902.16 998.73 L 864.21 954.08 L 824.86 927.30 L 693.25 923.04 L 620.47 871.17 L 521.06 709.18 L 483.98 668.37 L 445.33 641.58 L 415.74 641.58 L 381.09 701.11 L 348.19 797.20 L 313.72 927.30 L 277.51 907.74 L 223.88 814.20 L 179.32 784.44 L 167.13 800.59 L 79.74 860.12 L 35.86 862.24 L 66.50 637.75 L 37.60 402.63 L 0.00 199.40 L 3.83 71.00 L 54.14 42.09 L 114.73 71.00 L 195.68 142.43 L 253.65 135.63 L 298.05 112.67 L 339.31 69.30 L 386.49 0.00 L 420.26 53.99 L 513.58 91.41 L 561.98 142.43 L 591.05 92.26 L 618.04 76.96 L 681.75 71.00 Z" fill="#000000"/></svg>
