<svg xmlns="http://www.w3.org/2000/svg" viewBox="0 0 600.10 1000.00"><g transform="translate(30.00 30.00) scale(137.668424) translate(-5210.53 -975.25)"><path d="M5211.8448,975.3895L5211.8472,975.3909L5211.8488,975.3908L5211.8499,975.3908L5211.8504,975.3908L5211.851,975.3908L5211.8525,975.3908L5211.8529,975.3908L5211.8559,975.3905L5211.859,975.391L5211.8608,975.3921L5211.8623,975.3939L5211.8633,975.3941L5211.8658,975.3935L5211.869,975.3912L5211.8727,975.3894L5211.874,975.3879L5211.8737,975.384L5211.8753,975.3834L5211.8771,975.3843L5211.8795,975.3855L5211.8816,975.3863L5211.8835,975.3868L5211.8857,975.386L5211.8908,975.3891L5211.8924,975.3899L5211.8947,975.3899L5211.899,975.3921L5211.9027,975.3936L5211.9038,975.3943L5211.9061,975.3998L5211.9089,975.4018L5211.9114,975.4054L5211.9145,975.4087L5211.9165,975.4101L5211.918,975.4119L5211.9204,975.414L5211.9219,975.4149L5211.9224,975.4148L5211.9246,975.4141L5211.927,975.4178L5211.9272,975.4203L5211.9246,975.4252L5211.924,975.4276L5211.9255,975.4311L5211.9265,975.4341L5211.9285,975.4385L5211.9295,975.4405L5211.931,975.4427L5211.9322,975.4439L5211.935,975.4472L5211.9357,975.449L5211.9361,975.451L5211.9392,975.4664L5211.9384,975.4696L5211.9382,975.474L5211.9395,975.4769L5211.9406,975.4785L5211.9417,975.4859L5211.9414,975.4874L5211.9389,975.4904L5211.9368,975.4914L5211.9349,975.4921L5211.9295,975.4969L5211.9266,975.4991L5211.9255,975.4995L5211.9243,975.5006L5211.9231,975.5027L5211.9226,975.5044L5211.9208,975.5085L5211.9182,975.5129L5211.9181,975.5149L5211.9239,975.5176L5211.9262,975.5182L5211.9272,975.519L5211.9265,975.521L5211.9259,975.5229L5211.9265,975.5248L5211.9238,975.5281L5211.9234,975.5285L5211.9225,975.5295L5211.9456,975.5468L5211.952,975.5513L5211.9597,975.5566L5211.9609,975.5575L5211.9686,975.5624L5211.9751,975.5663L5212.0076,975.5852L5212.0107,975.5872L5212.0125,975.5887L5212.0148,975.5909L5212.0166,975.593L5212.0182,975.5952L5212.0197,975.5979L5212.0225,975.6036L5212.0241,975.6065L5212.0261,975.6093L5212.0275,975.6109L5212.029,975.6124L5212.0305,975.6137L5212.0324,975.6151L5212.0345,975.6165L5212.0369,975.6178L5212.0545,975.6265L5212.0642,975.6313L5212.0672,975.6327L5212.0703,975.634L5212.0734,975.6351L5212.0762,975.636L5212.0794,975.6368L5212.0823,975.6375L5212.0893,975.6389L5212.0922,975.6395L5212.0983,975.641L5212.1012,975.6419L5212.1036,975.6427L5212.1064,975.6437L5212.1315,975.6531L5212.1346,975.6544L5212.1372,975.6556L5212.1398,975.6569L5212.1423,975.6584L5212.1446,975.6598L5212.147,975.6614L5212.1493,975.6631L5212.1515,975.6649L5212.1536,975.6668L5212.1723,975.6835L5212.1748,975.6857L5212.1796,975.6894L5212.1822,975.6913L5212.1854,975.6934L5212.1885,975.6953L5212.192,975.6972L5212.2058,975.7046L5212.2087,975.7063L5212.2115,975.708L5212.2145,975.7101L5212.2178,975.7126L5212.2203,975.7146L5212.2228,975.7167L5212.2254,975.7192L5212.228,975.7218L5212.2304,975.7244L5212.2325,975.7268L5212.2399,975.7363L5212.2446,975.7426L5212.2463,975.7447L5212.2491,975.748L5212.2517,975.7507L5212.2542,975.7532L5212.257,975.7558L5212.26,975.7583L5212.2618,975.7597L5212.2867,975.7799L5212.2898,975.782L5212.2915,975.7829L5212.2935,975.7837L5212.2963,975.7846L5212.2999,975.7852L5212.307,975.7859L5212.3101,975.7863L5212.3135,975.7873L5212.3163,975.7886L5212.319,975.7902L5212.3213,975.7921L5212.3235,975.7944L5212.3299,975.8024L5212.3314,975.8043L5212.3447,975.8211L5212.3598,975.84L5212.3621,975.8426L5212.3645,975.8446L5212.367,975.8463L5212.3692,975.8477L5212.371,975.8486L5212.3724,975.8492L5212.3754,975.8503L5212.379,975.8512L5212.3817,975.8517L5212.3872,975.8524L5212.3954,975.8535L5212.3998,975.8542L5212.4035,975.8552L5212.407,975.8565L5212.4103,975.8581L5212.4119,975.859L5212.4135,975.86L5212.4166,975.8623L5212.4186,975.8639L5212.4204,975.8657L5212.4215,975.867L5212.424,975.8703L5212.4258,975.873L5212.4329,975.8835L5212.4366,975.8888L5212.4435,975.899L5212.4453,975.9014L5212.4475,975.9036L5212.4501,975.9055L5212.4526,975.907L5212.4629,975.9126L5212.4642,975.9135L5212.4654,975.9145L5212.4661,975.9154L5212.467,975.917L5212.4674,975.9183L5212.4675,975.9202L5212.4673,975.9215L5212.4671,975.9225L5212.4642,975.9299L5212.4639,975.9308L5212.4685,975.9324L5212.4704,975.9331L5212.48,975.9471L5212.4838,975.9528L5212.493,975.9663L5212.5226,976.0005L5212.5251,976.0033L5212.5271,976.0057L5212.543,976.0247L5212.5433,976.025L5212.5612,976.0465L5212.5743,976.062L5212.586,976.0754L5212.5871,976.0773L5212.6026,976.0959L5212.6161,976.1279L5212.6217,976.1573L5212.6185,976.1636L5212.6145,976.1682L5212.6088,976.1774L5212.6071,976.1812L5212.6062,976.1827L5212.6039,976.1831L5212.6009,976.1869L5212.5997,976.19L5212.5956,976.1956L5212.5916,976.2004L5212.5853,976.2075L5212.5854,976.2091L5212.5829,976.2118L5212.579,976.2161L5212.5737,976.2213L5212.5709,976.2234L5212.5689,976.2267L5212.5663,976.2289L5212.5659,976.2308L5212.5643,976.2339L5212.5621,976.2354L5212.5601,976.2375L5212.5584,976.2383L5212.5585,976.2406L5212.5565,976.2436L5212.5505,976.2509L5212.5482,976.254L5212.5455,976.2571L5212.5438,976.2555L5212.5437,976.2579L5212.5417,976.2607L5212.5393,976.2633L5212.5358,976.2685L5212.5345,976.27L5212.5301,976.2736L5212.5286,976.2763L5212.525,976.2797L5212.5241,976.2785L5212.52,976.2801L5212.519,976.2833L5212.5174,976.2852L5212.515,976.2868L5212.5133,976.2899L5212.5094,976.2953L5212.507,976.3013L5212.499,976.3067L5212.4977,976.3095L5212.4945,976.3142L5212.4933,976.3151L5212.4926,976.3179L5212.4889,976.3216L5212.4828,976.3288L5212.4806,976.3307L5212.4784,976.3313L5212.4787,976.3323L5212.4708,976.3401L5212.4674,976.3411L5212.4663,976.3445L5212.4565,976.3532L5212.453,976.3575L5212.4494,976.3591L5212.4467,976.3635L5212.4436,976.3648L5212.4425,976.3673L5212.4406,976.371L5212.4339,976.3792L5212.4268,976.3856L5212.4289,976.3897L5212.4239,976.3924L5212.4201,976.3963L5212.4156,976.4005L5212.4147,976.403L5212.4119,976.4082L5212.4104,976.4106L5212.4065,976.4113L5212.4104,976.4144L5212.4081,976.4163L5212.4065,976.42L5212.4049,976.4212L5212.4043,976.4262L5212.398,976.4332L5212.3979,976.4369L5212.3953,976.4443L5212.397,976.4465L5212.3973,976.4481L5212.3947,976.4534L5212.3914,976.4587L5212.3884,976.4611L5212.3879,976.4644L5212.3859,976.4691L5212.3846,976.4709L5212.3796,976.4737L5212.3768,976.4775L5212.3758,976.478L5212.3738,976.4814L5212.3725,976.4841L5212.3687,976.4876L5212.3698,976.4891L5212.3726,976.4917L5212.3724,976.4922L5212.3677,976.4951L5212.3669,976.4948L5212.3656,976.4988L5212.3636,976.5008L5212.3613,976.5046L5212.359,976.5128L5212.3608,976.5137L5212.3593,976.5169L5212.3553,976.5196L5212.3513,976.5233L5212.3493,976.5246L5212.3479,976.5277L5212.3491,976.5297L5212.3473,976.5331L5212.3459,976.5368L5212.3437,976.5468L5212.3431,976.5488L5212.3363,976.557L5212.3331,976.5605L5212.33,976.5651L5212.3263,976.5695L5212.325,976.5708L5212.3268,976.5729L5212.3241,976.575L5212.3262,976.5772L5212.3255,976.5778L5212.3228,976.5792L5212.3205,976.5871L5212.3218,976.5879L5212.3326,976.5953L5212.3316,976.5976L5212.3302,976.6005L5212.3261,976.6035L5212.3212,976.6065L5212.3165,976.611L5212.3155,976.6119L5212.3098,976.6179L5212.3051,976.6232L5212.3028,976.6254L5212.3008,976.6294L5212.3003,976.632L5212.2982,976.6365L5212.2946,976.6428L5212.2913,976.6452L5212.2902,976.646L5212.2867,976.6472L5212.2812,976.6467L5212.2857,976.6514L5212.2881,976.6542L5212.2871,976.6565L5212.2819,976.6611L5212.2806,976.6617L5212.279,976.6668L5212.2779,976.6692L5212.2757,976.6774L5212.2658,976.6847L5212.2732,976.6872L5212.29,976.6854L5212.3025,976.684L5212.3087,976.6832L5212.3122,976.6828L5212.3185,976.6796L5212.3244,976.6756L5212.3272,976.6738L5212.3314,976.6782L5212.3341,976.6802L5212.3493,976.6835L5212.3543,976.6835L5212.3544,976.6875L5212.3553,976.7229L5212.3642,976.721L5212.3666,976.72L5212.3707,976.7152L5212.3743,976.7143L5212.391,976.7061L5212.3983,976.7021L5212.4033,976.7017L5212.4064,976.7006L5212.4082,976.6992L5212.4095,976.6983L5212.4114,976.6961L5212.4135,976.6937L5212.4149,976.6862L5212.421,976.6838L5212.4255,976.6796L5212.427,976.6761L5212.4278,976.6743L5212.429,976.6735L5212.4337,976.6779L5212.4361,976.6811L5212.4432,976.6846L5212.4463,976.6847L5212.4533,976.6853L5212.4558,976.6848L5212.4577,976.6847L5212.461,976.6862L5212.4647,976.6859L5212.4675,976.6868L5212.471,976.6873L5212.4736,976.6886L5212.4772,976.691L5212.4813,976.6938L5212.4875,976.697L5212.4922,976.6997L5212.4941,976.7014L5212.4951,976.702L5212.4964,976.7023L5212.4991,976.702L5212.5006,976.7028L5212.503,976.7056L5212.5061,976.7061L5212.5099,976.7078L5212.5118,976.709L5212.5135,976.7111L5212.517,976.714L5212.5199,976.7176L5212.5215,976.7189L5212.5252,976.7225L5212.5276,976.724L5212.5339,976.7315L5212.5366,976.7325L5212.54,976.7348L5212.5428,976.7384L5212.545,976.7399L5212.5441,976.7433L5212.5447,976.7478L5212.5506,976.7576L5212.5577,976.7656L5212.5588,976.7648L5212.5601,976.7658L5212.5592,976.768L5212.5602,976.7682L5212.5618,976.7697L5212.5645,976.7747L5212.5687,976.7786L5212.5699,976.7805L5212.5707,976.7805L5212.5721,976.7795L5212.5822,976.7764L5212.5847,976.7772L5212.5869,976.7782L5212.5903,976.7789L5212.5968,976.7812L5212.5998,976.7829L5212.6042,976.7842L5212.6088,976.7857L5212.6126,976.7865L5212.6187,976.7875L5212.6211,976.7865L5212.6237,976.7867L5212.6326,976.7894L5212.6348,976.7907L5212.6377,976.7918L5212.6398,976.794L5212.6427,976.7956L5212.6439,976.7968L5212.6452,976.8L5212.6471,976.8012L5212.6491,976.8011L5212.6518,976.799L5212.6548,976.8L5212.6605,976.7992L5212.6617,976.7996L5212.664,976.8009L5212.6662,976.8016L5212.6685,976.8026L5212.671,976.8034L5212.6735,976.8057L5212.6762,976.8065L5212.6787,976.8084L5212.6798,976.81L5212.687,976.8162L5212.6893,976.8203L5212.6902,976.8206L5212.6912,976.8203L5212.6938,976.8193L5212.7084,976.8381L5212.7171,976.8483L5212.7211,976.8532L5212.7248,976.8575L5212.7367,976.8727L5212.742,976.8794L5212.7514,976.8915L5212.7718,976.915L5212.7774,976.9197L5212.789,976.93L5212.8018,976.9449L5212.8057,976.9489L5212.8077,976.9515L5212.8103,976.9538L5212.8149,976.9583L5212.8285,976.9683L5212.8301,976.9698L5212.8406,976.979L5212.8555,976.9934L5212.8687,977.0117L5212.8984,977.0584L5212.9042,977.0686L5212.9047,977.0866L5212.9153,977.1134L5212.9183,977.1202L5212.921,977.1233L5212.9257,977.1367L5212.9297,977.1412L5212.939,977.1461L5212.9479,977.1511L5212.9516,977.1541L5212.9575,977.1572L5212.9614,977.1598L5212.9635,977.163L5212.9741,977.17L5212.9818,977.1782L5212.9922,977.1852L5213.0024,977.1936L5213.0089,977.2002L5213.0168,977.2079L5213.0318,977.2205L5213.043,977.2276L5213.0477,977.2297L5213.053,977.2317L5213.0631,977.2345L5213.0648,977.2365L5213.0712,977.2412L5213.0849,977.2491L5213.0891,977.2504L5213.0892,977.2632L5213.0887,977.2676L5213.088,977.2742L5213.0862,977.2754L5213.0682,977.2931L5213.0601,977.2994L5213.0531,977.3078L5213.0518,977.3135L5213.0493,977.3245L5213.0447,977.3336L5213.0395,977.3462L5213.0356,977.3643L5213.0204,977.383L5213.0175,977.3874L5213.0059,977.4144L5213.0014,977.4299L5212.9939,977.4561L5212.9923,977.462L5212.9933,977.4865L5212.9936,977.4891L5212.9913,977.5013L5212.9912,977.5072L5212.9935,977.5357L5212.9907,977.5444L5212.9625,977.5469L5212.9596,977.5619L5212.9597,977.568L5212.9532,977.582L5212.9528,977.5842L5212.9506,977.5864L5212.9436,977.5902L5212.9404,977.5932L5212.9338,977.5964L5212.9323,977.5983L5212.929,977.6005L5212.9266,977.6022L5212.9235,977.6033L5212.9204,977.6062L5212.9179,977.6095L5212.9169,977.6143L5212.915,977.6174L5212.9061,977.628L5212.9018,977.6338L5212.8893,977.6407L5212.8863,977.6433L5212.8859,977.6457L5212.8798,977.6503L5212.8736,977.6548L5212.8663,977.6607L5212.8636,977.6638L5212.8612,977.6657L5212.8586,977.6698L5212.8572,977.6704L5212.8541,977.6734L5212.8488,977.6763L5212.8408,977.682L5212.8367,977.6838L5212.8327,977.6872L5212.8304,977.6882L5212.8297,977.6898L5212.8276,977.6906L5212.8253,977.6931L5212.82,977.6929L5212.8104,977.6976L5212.8262,977.7888L5212.8292,977.8074L5212.8322,977.8171L5212.8361,977.832L5212.8391,977.8461L5212.8397,977.8546L5212.8399,977.8638L5212.8405,977.874L5212.8391,977.8953L5212.8384,977.915L5212.8437,977.9256L5212.8445,977.937L5212.8469,977.9717L5212.8482,977.9927L5212.8496,978.0136L5212.8492,978.0274L5212.8488,978.0469L5212.8482,978.0667L5212.8676,978.0876L5212.8655,978.089L5212.8647,978.089L5212.8636,978.0891L5212.8586,978.0919L5212.8586,978.0927L5212.8596,978.0933L5212.8597,978.0943L5212.8581,978.0966L5212.8572,978.0996L5212.8566,978.1L5212.8558,978.0999L5212.8536,978.1011L5212.8509,978.1046L5212.8504,978.1058L5212.849,978.1076L5212.8489,978.1086L5212.848,978.1102L5212.8458,978.1141L5212.8484,978.1174L5212.848,978.119L5212.8488,978.1207L5212.8466,978.1231L5212.8446,978.1235L5212.8443,978.1243L5212.8447,978.1247L5212.8459,978.1307L5212.846,978.132L5212.8496,978.1352L5212.8508,978.1365L5212.8511,978.1379L5212.8505,978.1388L5212.8498,978.1392L5212.8482,978.1412L5212.8472,978.1415L5212.8447,978.1449L5212.841,978.1458L5212.8411,978.148L5212.8418,978.1485L5212.8435,978.1516L5212.8429,978.1542L5212.8436,978.1523L5212.8433,978.1567L5212.8429,978.1579L5212.8418,978.1579L5212.8417,978.1596L5212.8427,978.1614L5212.8427,978.1624L5212.842,978.1628L5212.8427,978.1638L5212.8427,978.1647L5212.8412,978.1657L5212.8389,978.1656L5212.8379,978.1661L5212.8365,978.1663L5212.8353,978.1669L5212.8334,978.167L5212.8319,978.1673L5212.8308,978.1678L5212.8299,978.1707L5212.8287,978.1718L5212.8245,978.1724L5212.8231,978.1731L5212.8231,978.1741L5212.8216,978.1749L5212.8204,978.1762L5212.8195,978.176L5212.8156,978.179L5212.8142,978.1794L5212.811,978.1796L5212.8104,978.1785L5212.8094,978.1796L5212.8077,978.1805L5212.8065,978.1816L5212.8057,978.1845L5212.8059,978.1864L5212.8034,978.1878L5212.8032,978.1886L5212.8,978.1894L5212.799,978.1891L5212.7985,978.1896L5212.798,978.1909L5212.7973,978.191L5212.7964,978.1908L5212.7951,978.1923L5212.7896,978.1928L5212.7889,978.1936L5212.7882,978.1938L5212.7881,978.1945L5212.786,978.1941L5212.7851,978.1944L5212.7843,978.195L5212.7825,978.1951L5212.7801,978.1955L5212.7793,978.1961L5212.7782,978.1975L5212.7752,978.1992L5212.7717,978.2004L5212.7686,978.2021L5212.7664,978.2029L5212.7611,978.2027L5212.7572,978.2046L5212.7505,978.2116L5212.7464,978.2138L5212.7458,978.215L5212.7399,978.217L5212.7376,978.2171L5212.7358,978.2181L5212.7286,978.2229L5212.7256,978.2235L5212.723,978.2249L5212.7155,978.2323L5212.7137,978.2334L5212.7041,978.2385L5212.7007,978.2423L5212.6997,978.2443L5212.6983,978.2457L5212.6945,978.2475L5212.694,978.2486L5212.6919,978.2497L5212.691,978.2515L5212.6891,978.2545L5212.6898,978.2577L5212.6898,978.2594L5212.6884,978.2616L5212.6861,978.2637L5212.6862,978.2651L5212.6851,978.2668L5212.6848,978.2688L5212.6842,978.2695L5212.6848,978.2706L5212.6842,978.2719L5212.6839,978.2742L5212.6828,978.2751L5212.68,978.2784L5212.6797,978.2811L5212.6791,978.282L5212.678,978.2829L5212.6779,978.2841L5212.6775,978.2876L5212.6758,978.2901L5212.6737,978.2919L5212.6721,978.2956L5212.6712,978.2985L5212.6698,978.3004L5212.6686,978.3013L5212.667,978.3011L5212.6654,978.3015L5212.6631,978.3032L5212.6644,978.3052L5212.664,978.3078L5212.6647,978.3103L5212.6641,978.3119L5212.6623,978.3136L5212.6603,978.3142L5212.6579,978.3161L5212.6556,978.3174L5212.6537,978.3195L5212.6539,978.3209L5212.6523,978.3234L5212.6476,978.3271L5212.644,978.3291L5212.6484,978.3281L5212.6509,978.3276L5212.6537,978.3273L5212.6558,978.328L5212.656,978.3271L5212.6593,978.3262L5212.6612,978.3264L5212.6625,978.3286L5212.6652,978.3305L5212.6683,978.3336L5212.6701,978.3345L5212.6725,978.3349L5212.6734,978.3358L5212.6743,978.3355L5212.6764,978.3366L5212.6797,978.3374L5212.6808,978.3385L5212.6821,978.3407L5212.6854,978.3417L5212.6888,978.3417L5212.6915,978.3425L5212.696,978.342L5212.697,978.3429L5212.6986,978.3431L5212.7008,978.3411L5212.7041,978.3411L5212.7059,978.342L5212.7093,978.3424L5212.7111,978.3434L5212.7124,978.3437L5212.7146,978.3435L5212.7177,978.3414L5212.7193,978.3413L5212.72,978.3408L5212.7214,978.341L5212.7222,978.3399L5212.7249,978.3411L5212.726,978.343L5212.7287,978.343L5212.735,978.3445L5212.7378,978.3443L5212.7395,978.3456L5212.741,978.346L5212.7419,978.3471L5212.7432,978.3471L5212.7453,978.349L5212.7467,978.3496L5212.747,978.3492L5212.748,978.3492L5212.7483,978.3486L5212.7486,978.3478L5212.7494,978.3465L5212.7504,978.3458L5212.7511,978.3444L5212.7529,978.3428L5212.7558,978.3425L5212.7571,978.3409L5212.7583,978.3405L5212.7599,978.341L5212.7642,978.3409L5212.7665,978.3392L5212.7675,978.337L5212.7708,978.3371L5212.7731,978.3373L5212.7752,978.339L5212.7767,978.341L5212.7834,978.3429L5212.784,978.3453L5212.7866,978.3453L5212.7903,978.344L5212.7929,978.3444L5212.7959,978.3425L5212.7963,978.3428L5212.7966,978.3427L5212.8073,978.3522L5212.8146,978.352L5212.8176,978.3505L5212.8183,978.3484L5212.8206,978.347L5212.8241,978.3485L5212.831,978.3487L5212.8343,978.3492L5212.8348,978.349L5212.8386,978.3498L5212.8393,978.3506L5212.8413,978.3507L5212.8445,978.3492L5212.8504,978.3481L5212.8538,978.3481L5212.8553,978.3477L5212.8567,978.3481L5212.8628,978.3473L5212.866,978.3481L5212.8704,978.3462L5212.873,978.3474L5212.8781,978.3454L5212.8807,978.3458L5212.8812,978.3463L5212.8928,978.3439L5212.8935,978.3428L5212.8955,978.3421L5212.8969,978.3425L5212.8986,978.3414L5212.9,978.3415L5212.9028,978.3395L5212.9052,978.3382L5212.91,978.3363L5212.9105,978.3349L5212.9131,978.3342L5212.9164,978.3339L5212.9172,978.3332L5212.921,978.3324L5212.9231,978.3304L5212.9255,978.33L5212.9259,978.3291L5212.9287,978.328L5212.9312,978.3272L5212.9314,978.3266L5212.9344,978.3265L5212.9354,978.3247L5212.9379,978.3224L5212.9442,978.3187L5212.95,978.317L5212.9527,978.3152L5212.9702,978.3092L5212.9747,978.3088L5212.9877,978.3043L5212.9902,978.3044L5212.9929,978.3044L5212.9957,978.3027L5212.9982,978.3026L5213.0011,978.3016L5213.0751,978.3526L5213.1257,978.3856L5213.1903,978.4327L5213.2046,978.4427L5213.2463,978.4718L5213.2864,978.4999L5213.2986,978.5035L5213.3031,978.5046L5213.3172,978.5108L5213.3826,978.5379L5213.4297,978.5552L5213.436,978.5655L5213.4551,978.597L5213.4866,978.6276L5213.5281,978.669L5213.528,978.6714L5213.5307,978.6737L5213.5318,978.6745L5213.532,978.6762L5213.5352,978.6803L5213.5349,978.6822L5213.5367,978.6848L5213.536,978.6859L5213.5348,978.6893L5213.5356,978.6911L5213.5349,978.6921L5213.5336,978.6931L5213.5321,978.6971L5213.531,978.7048L5213.5335,978.7126L5213.5345,978.7137L5213.5353,978.7174L5213.5346,978.719L5213.5344,978.7253L5213.5334,978.7257L5213.5327,978.7268L5213.5318,978.7274L5213.5315,978.728L5213.5296,978.7298L5213.5291,978.7311L5213.5273,978.7319L5213.5267,978.733L5213.5258,978.7336L5213.5251,978.7349L5213.5256,978.737L5213.5255,978.7382L5213.5248,978.7392L5213.5228,978.7394L5213.5203,978.7426L5213.5202,978.7433L5213.5245,978.7451L5213.5257,978.7452L5213.5276,978.7466L5213.5306,978.7514L5213.5319,978.7521L5213.5335,978.7521L5213.5356,978.7551L5213.537,978.7583L5213.5417,978.7626L5213.5443,978.7661L5213.5474,978.7659L5213.5472,978.7696L5213.5466,978.7714L5213.5473,978.7723L5213.5519,978.7728L5213.5592,978.7754L5213.5609,978.7764L5213.5647,978.78L5213.5645,978.7816L5213.5666,978.7858L5213.5687,978.7874L5213.5686,978.788L5213.5709,978.7904L5213.571,978.7914L5213.5702,978.7923L5213.5695,978.7961L5213.5714,978.8017L5213.5738,978.8051L5213.5742,978.8068L5213.5756,978.8086L5213.5772,978.8116L5213.581,978.8163L5213.5855,978.8209L5213.5875,978.8233L5213.5877,978.8243L5213.5888,978.8256L5213.5901,978.8284L5213.5898,978.8304L5213.5916,978.8343L5213.5919,978.8403L5213.5926,978.8417L5213.5923,978.8443L5213.5931,978.8464L5213.5938,978.8471L5213.594,978.8484L5213.5945,978.8508L5213.5943,978.8522L5213.5964,978.854L5213.5981,978.8606L5213.5978,978.8628L5213.5963,978.8657L5213.599,978.8702L5213.6023,978.8712L5213.6014,978.8757L5213.6012,978.879L5213.6018,978.8829L5213.5994,978.8875L5213.5967,978.8891L5213.5931,978.8931L5213.5912,978.8938L5213.5906,978.8946L5213.5901,978.8964L5213.5906,978.8977L5213.5903,978.8985L5213.5909,978.902L5213.5917,978.9026L5213.5932,978.9035L5213.5935,978.9046L5213.5944,978.9047L5213.5959,978.9062L5213.5973,978.9075L5213.5974,978.9097L5213.6008,978.9134L5213.6059,978.9155L5213.6066,978.919L5213.608,978.9199L5213.6086,978.9214L5213.613,978.9232L5213.6149,978.9256L5213.6174,978.9268L5213.6159,978.9276L5213.6152,978.9285L5213.6151,978.9297L5213.616,978.9318L5213.6206,978.9349L5213.6225,978.9349L5213.6226,978.9362L5213.6231,978.9369L5213.6268,978.94L5213.629,978.9407L5213.63,978.9426L5213.6332,978.9428L5213.6344,978.9432L5213.6352,978.9441L5213.6372,978.9439L5213.6406,978.9461L5213.6425,978.9489L5213.6431,978.9508L5213.6463,978.9554L5213.6483,978.9571L5213.65,978.9721L5213.651,978.9727L5213.6528,978.9757L5213.6543,978.9767L5213.657,978.9769L5213.6622,978.9795L5213.6631,978.9816L5213.6666,978.9837L5213.6682,978.9842L5213.6707,978.9837L5213.6723,978.9843L5213.6746,978.987L5213.6761,978.988L5213.6803,978.9895L5213.6813,978.9891L5213.6835,978.9905L5213.6882,978.9922L5213.6938,978.9989L5213.6953,979L5213.7027,979.0027L5213.705,979.003L5213.7072,979.0044L5213.7107,979.0049L5213.7139,979.004L5213.7181,979.0049L5213.7206,979.0049L5213.7241,979.0078L5213.726,979.012L5213.7304,979.0143L5213.7327,979.0165L5213.7337,979.0169L5213.7353,979.0189L5213.7375,979.02L5213.7392,979.0197L5213.74,979.0203L5213.7452,979.0202L5213.7483,979.0196L5213.7501,979.0211L5213.7531,979.0212L5213.7537,979.0216L5213.7545,979.0214L5213.756,979.0234L5213.7576,979.0246L5213.7586,979.0251L5213.7609,979.0257L5213.7616,979.0263L5213.7627,979.0261L5213.7646,979.0272L5213.7669,979.0261L5213.7683,979.0264L5213.7699,979.0278L5213.7716,979.0281L5213.7747,979.0277L5213.7765,979.0257L5213.7777,979.0263L5213.7786,979.0272L5213.7803,979.0271L5213.7818,979.0265L5213.7825,979.0246L5213.7831,979.0242L5213.785,979.0256L5213.7864,979.0259L5213.7874,979.0254L5213.7896,979.0267L5213.7914,979.0271L5213.7918,979.0285L5213.7934,979.0292L5213.7943,979.0302L5213.7968,979.0311L5213.7987,979.0315L5213.8007,979.0313L5213.8033,979.0319L5213.8067,979.0314L5213.8087,979.0304L5213.8126,979.0309L5213.8172,979.0302L5213.8179,979.0296L5213.819,979.0273L5213.8207,979.027L5213.8231,979.0278L5213.8269,979.0271L5213.8315,979.0277L5213.8351,979.0263L5213.8374,979.0291L5213.8384,979.0298L5213.8407,979.0303L5213.8424,979.0307L5213.8452,979.0307L5213.8481,979.0298L5213.8491,979.029L5213.8503,979.0293L5213.8524,979.0291L5213.8582,979.0268L5213.8601,979.0266L5213.8629,979.0273L5213.8651,979.0272L5213.8693,979.025L5213.8724,979.0244L5213.8743,979.0237L5213.877,979.0221L5213.8787,979.02L5213.8798,979.0196L5213.8818,979.0202L5213.8834,979.0202L5213.8888,979.0174L5213.8926,979.0143L5213.9023,979.0083L5213.9105,979.0039L5213.9125,979.0025L5213.9154,978.9985L5213.9248,978.9932L5213.9273,978.9915L5213.9296,978.9893L5213.9326,978.9835L5213.939,978.9811L5213.942,978.9791L5213.9453,978.9741L5213.9536,978.9704L5213.9635,978.9652L5213.9656,978.9646L5213.967,978.9636L5213.9674,978.9624L5213.9722,978.9609L5213.9765,978.9589L5213.978,978.9567L5213.978,978.9546L5213.979,978.9546L5213.9799,978.9535L5213.9803,978.9511L5213.9789,978.9474L5213.9778,978.9453L5213.9771,978.9441L5213.977,978.9431L5213.978,978.9407L5213.9911,978.9304L5213.9935,978.9295L5213.9943,978.9275L5213.9936,978.9254L5213.994,978.9239L5213.9959,978.9227L5213.9978,978.9225L5213.9984,978.9204L5213.9982,978.9187L5214.0028,978.9146L5214.0064,978.9099L5214.0172,978.9041L5214.019,978.9009L5214.0222,978.901L5214.0257,978.9037L5214.029,978.9046L5214.0304,978.9044L5214.0318,978.9041L5214.0327,978.9033L5214.0334,978.9037L5214.035,978.906L5214.037,978.9067L5214.0371,978.9079L5214.0379,978.909L5214.0401,978.9093L5214.041,978.9091L5214.0418,978.9085L5214.0444,978.9097L5214.046,978.91L5214.0473,978.9116L5214.0474,978.913L5214.0492,978.9154L5214.0487,978.9178L5214.0471,978.9213L5214.0426,978.9311L5214.0415,978.9357L5214.041,978.9386L5214.041,978.9401L5214.0416,978.9416L5214.0428,978.943L5214.043,978.9448L5214.0438,978.9457L5214.0457,978.9499L5214.0476,978.9525L5214.0488,978.9557L5214.0516,978.9581L5214.0534,978.9588L5214.0565,978.9624L5214.0545,978.9688L5214.055,978.9712L5214.056,978.973L5214.0605,978.9773L5214.0638,978.9795L5214.0658,978.9815L5214.0669,978.982L5214.0687,978.9864L5214.0725,978.9874L5214.0744,978.9895L5214.072,978.9922L5214.0718,978.9936L5214.0726,978.995L5214.0714,978.9979L5214.0715,979.0005L5214.0741,979.0047L5214.0763,979.007L5214.0789,979.0087L5214.0801,979.0113L5214.082,979.0117L5214.0826,979.0121L5214.0825,979.0144L5214.0829,979.0151L5214.0843,979.0159L5214.0836,979.0175L5214.0837,979.0189L5214.0848,979.0205L5214.0871,979.0214L5214.088,979.0233L5214.0881,979.0247L5214.0873,979.0274L5214.0875,979.0289L5214.0877,979.0306L5214.0886,979.0319L5214.0898,979.0328L5214.0899,979.034L5214.0895,979.0357L5214.0899,979.0372L5214.09,979.0393L5214.091,979.0405L5214.0938,979.0418L5214.0983,979.0417L5214.0996,979.0433L5214.1033,979.044L5214.1053,979.0463L5214.106,979.0462L5214.1083,979.0481L5214.1091,979.0484L5214.1071,979.0541L5214.1077,979.057L5214.1086,979.0591L5214.1099,979.0604L5214.1109,979.0607L5214.111,979.0619L5214.1121,979.063L5214.1146,979.0639L5214.1191,979.0681L5214.1219,979.0703L5214.1244,979.0714L5214.128,979.0723L5214.1285,979.0734L5214.1305,979.0746L5214.1324,979.0747L5214.1403,979.074L5214.1436,979.0753L5214.144,979.0769L5214.1451,979.0774L5214.1484,979.0778L5214.1506,979.0777L5214.154,979.0778L5214.1463,979.0956L5214.1296,979.1327L5214.1204,979.1531L5214.1053,979.1726L5214.1002,979.1787L5214.0979,979.1851L5214.0998,979.1978L5214.0917,979.2045L5214.0896,979.2071L5214.0819,979.2156L5214.0816,979.2226L5214.0905,979.2348L5214.0961,979.2421L5214.0988,979.2458L5214.1017,979.2507L5214.1049,979.258L5214.1057,979.2623L5214.1068,979.2644L5214.1071,979.2668L5214.1115,979.2709L5214.1119,979.272L5214.1131,979.281L5214.1156,979.2845L5214.1268,979.2942L5214.1358,979.302L5214.1433,979.3059L5214.1414,979.3074L5214.1408,979.3103L5214.1402,979.3128L5214.1407,979.3158L5214.1402,979.319L5214.1408,979.3224L5214.1435,979.3276L5214.1437,979.3298L5214.1448,979.3332L5214.1444,979.3383L5214.1419,979.3436L5214.1404,979.3504L5214.1401,979.3581L5214.1393,979.36L5214.1384,979.3607L5214.1398,979.3621L5214.1413,979.3629L5214.142,979.3652L5214.1407,979.3686L5214.138,979.3703L5214.1375,979.3713L5214.1368,979.3742L5214.1366,979.381L5214.1334,979.3855L5214.1341,979.3894L5214.1325,979.3955L5214.1315,979.4004L5214.1317,979.4027L5214.1322,979.404L5214.1309,979.4081L5214.1293,979.409L5214.1315,979.4137L5214.1308,979.4164L5214.1332,979.4197L5214.1375,979.4295L5214.1432,979.4361L5214.1394,979.4485L5214.1416,979.4544L5214.1458,979.4578L5214.1467,979.4603L5214.1483,979.4617L5214.1474,979.4669L5214.1441,979.4714L5214.1441,979.4728L5214.1437,979.4854L5214.1561,979.4973L5214.1659,979.5067L5214.1692,979.509L5214.1813,979.517L5214.1855,979.5198L5214.1924,979.5221L5214.2038,979.5238L5214.207,979.5257L5214.2127,979.5299L5214.2173,979.5346L5214.2213,979.5376L5214.2235,979.5382L5214.2247,979.5392L5214.2256,979.5388L5214.2262,979.5396L5214.2278,979.54L5214.2287,979.5413L5214.2306,979.5424L5214.2326,979.5435L5214.2354,979.5441L5214.2362,979.5451L5214.2427,979.5459L5214.2531,979.5428L5214.2549,979.5455L5214.2567,979.5467L5214.2632,979.5475L5214.2672,979.5503L5214.2709,979.5516L5214.2749,979.5524L5214.2756,979.553L5214.2754,979.5558L5214.2763,979.5574L5214.2784,979.5585L5214.2803,979.559L5214.2806,979.5599L5214.2841,979.5643L5214.2855,979.5643L5214.2863,979.5651L5214.288,979.5683L5214.29,979.5693L5214.2957,979.5732L5214.2982,979.5778L5214.302,979.5795L5214.3032,979.5823L5214.3101,979.589L5214.3155,979.5924L5214.3186,979.593L5214.3202,979.5954L5214.3296,979.6024L5214.3308,979.6023L5214.335,979.6043L5214.3357,979.6054L5214.3366,979.6059L5214.3384,979.6062L5214.3397,979.6068L5214.3417,979.6075L5214.342,979.6098L5214.3426,979.6105L5214.3436,979.611L5214.3455,979.6125L5214.3469,979.6131L5214.3475,979.6145L5214.3508,979.616L5214.3527,979.6178L5214.3552,979.6186L5214.3595,979.619L5214.361,979.6207L5214.3622,979.6213L5214.3651,979.6222L5214.3666,979.624L5214.3689,979.6257L5214.374,979.6275L5214.3789,979.627L5214.3808,979.6252L5214.3832,979.6243L5214.3848,979.623L5214.39,979.6216L5214.3913,979.6218L5214.3932,979.623L5214.3956,979.6237L5214.3977,979.625L5214.3975,979.6267L5214.3957,979.6289L5214.3919,979.6312L5214.3889,979.6349L5214.3833,979.6379L5214.3804,979.6407L5214.3771,979.6462L5214.3765,979.6493L5214.3727,979.6539L5214.3719,979.6561L5214.3686,979.6593L5214.367,979.6651L5214.3693,979.668L5214.3698,979.67L5214.3686,979.6737L5214.3663,979.6758L5214.3662,979.677L5214.365,979.678L5214.3645,979.6806L5214.3653,979.6822L5214.3652,979.6849L5214.3628,979.687L5214.3633,979.6881L5214.3626,979.6898L5214.3617,979.6906L5214.3627,979.6921L5214.3619,979.6952L5214.3604,979.6961L5214.3604,979.6968L5214.3595,979.6972L5214.3581,979.6988L5214.3574,979.7001L5214.3578,979.7007L5214.3561,979.7012L5214.3553,979.7028L5214.3537,979.7056L5214.3544,979.7062L5214.3537,979.7081L5214.3544,979.7087L5214.3522,979.7138L5214.3497,979.7158L5214.3506,979.717L5214.3498,979.7193L5214.3482,979.7217L5214.3452,979.7234L5214.3446,979.726L5214.3439,979.7272L5214.3427,979.7273L5214.3405,979.7287L5214.3377,979.7301L5214.3356,979.7299L5214.3347,979.7316L5214.3283,979.7369L5214.3253,979.7438L5214.324,979.745L5214.3248,979.7468L5214.323,979.7476L5214.323,979.7493L5214.3222,979.7497L5214.3206,979.7502L5214.3201,979.7508L5214.3187,979.7517L5214.3179,979.7525L5214.3164,979.7529L5214.3132,979.7578L5214.3117,979.7591L5214.3115,979.7603L5214.3099,979.7613L5214.3092,979.7642L5214.3074,979.7647L5214.3064,979.7657L5214.306,979.7673L5214.3064,979.768L5214.306,979.7692L5214.3043,979.7706L5214.3025,979.771L5214.3026,979.7717L5214.3011,979.7735L5214.2994,979.7734L5214.2992,979.7741L5214.2984,979.7744L5214.2976,979.7741L5214.2962,979.7753L5214.2949,979.7789L5214.2943,979.7794L5214.2947,979.7814L5214.2942,979.7818L5214.2931,979.7817L5214.2906,979.7829L5214.2904,979.7844L5214.2883,979.7864L5214.2866,979.7869L5214.2854,979.7887L5214.2837,979.79L5214.2807,979.7904L5214.2782,979.7918L5214.2769,979.793L5214.2752,979.796L5214.273,979.7969L5214.2709,979.7995L5214.2694,979.7999L5214.2667,979.8016L5214.2635,979.8084L5214.2613,979.8101L5214.26,979.81L5214.2565,979.8129L5214.2548,979.8153L5214.253,979.816L5214.2509,979.8185L5214.2484,979.82L5214.2473,979.8217L5214.2451,979.8223L5214.2442,979.8232L5214.2424,979.8261L5214.2421,979.8332L5214.2406,979.8333L5214.2389,979.8347L5214.2365,979.8358L5214.2358,979.8372L5214.2346,979.8383L5214.2349,979.8401L5214.2339,979.8419L5214.2317,979.8432L5214.2311,979.8447L5214.2296,979.8457L5214.2271,979.8487L5214.2245,979.8501L5214.2226,979.8535L5214.2189,979.8554L5214.2177,979.8575L5214.2157,979.8583L5214.214,979.8593L5214.2122,979.8608L5214.212,979.8635L5214.2113,979.8642L5214.2107,979.8659L5214.2096,979.8671L5214.2079,979.8676L5214.2073,979.869L5214.206,979.87L5214.2056,979.8741L5214.2046,979.8747L5214.2029,979.878L5214.2,979.8791L5214.1985,979.8785L5214.1974,979.8789L5214.1969,979.8803L5214.1962,979.8805L5214.1953,979.8803L5214.1947,979.8807L5214.1942,979.8825L5214.1925,979.8842L5214.1909,979.8878L5214.1896,979.8888L5214.1847,979.8894L5214.1799,979.8905L5214.1788,979.8929L5214.1773,979.8938L5214.1763,979.8939L5214.1755,979.8973L5214.1737,979.8985L5214.1721,979.9004L5214.1715,979.9018L5214.1727,979.9039L5214.1713,979.9054L5214.1708,979.9075L5214.1691,979.9093L5214.1672,979.9102L5214.1666,979.9112L5214.168,979.913L5214.1709,979.9148L5214.1712,979.9158L5214.1711,979.9166L5214.1709,979.9175L5214.1697,979.9176L5214.1693,979.919L5214.1672,979.9206L5214.1668,979.9228L5214.1671,979.9233L5214.1678,979.9235L5214.1651,979.9292L5214.165,979.9308L5214.1656,979.9313L5214.1649,979.9326L5214.1633,979.9333L5214.1626,979.935L5214.1631,979.9375L5214.1635,979.938L5214.1614,979.947L5214.1629,979.9519L5214.163,979.9559L5214.1626,979.9586L5214.1633,979.9611L5214.1629,979.9666L5214.162,979.9681L5214.1623,979.9694L5214.1634,979.9708L5214.1638,979.9734L5214.1625,979.9794L5214.1619,979.989L5214.1637,979.992L5214.1603,979.9993L5214.1578,980.0019L5214.1578,980.003L5214.1585,980.0037L5214.1606,980.0042L5214.1613,980.0058L5214.1632,980.0074L5214.1642,980.0096L5214.1648,980.0136L5214.1629,980.0237L5214.1619,980.0259L5214.161,980.0337L5214.1619,980.0348L5214.1652,980.0367L5214.1652,980.0383L5214.1647,980.0408L5214.1616,980.0474L5214.16,980.0488L5214.1558,980.0556L5214.1517,980.0609L5214.1508,980.0638L5214.1504,980.0667L5214.1515,980.0696L5214.1517,980.073L5214.1506,980.0746L5214.1506,980.0765L5214.1489,980.0791L5214.1488,980.0806L5214.1447,980.0835L5214.1431,980.0842L5214.143,980.0862L5214.1412,980.0888L5214.1425,980.0915L5214.1415,980.093L5214.1414,980.0951L5214.138,980.0982L5214.1368,980.0985L5214.1359,980.0976L5214.1347,980.0974L5214.1333,980.0981L5214.1332,980.0988L5214.1315,980.1004L5214.1315,980.1012L5214.13,980.1025L5214.1283,980.1023L5214.1279,980.1045L5214.128,980.1071L5214.1267,980.1081L5214.1256,980.1074L5214.1244,980.1078L5214.1237,980.1092L5214.1224,980.1099L5214.1214,980.1102L5214.12,980.1119L5214.1193,980.112L5214.1189,980.1125L5214.1192,980.1141L5214.1186,980.1154L5214.1171,980.1171L5214.1167,980.1192L5214.1163,980.12L5214.1099,980.1247L5214.1061,980.1279L5214.1042,980.1284L5214.1034,980.1311L5214.1002,980.1357L5214.0982,980.1369L5214.0965,980.1374L5214.0958,980.1404L5214.0944,980.1438L5214.0935,980.1451L5214.0921,980.1464L5214.0901,980.1531L5214.088,980.1562L5214.0874,980.1584L5214.0871,980.1595L5214.0861,980.1606L5214.0828,980.162L5214.0793,980.162L5214.0777,980.1643L5214.0822,980.1718L5214.0852,980.1793L5214.0875,980.1833L5214.0914,980.1923L5214.0938,980.1961L5214.0958,980.2041L5214.0964,980.2052L5214.0967,980.2067L5214.0987,980.2078L5214.1005,980.2118L5214.103,980.2144L5214.1028,980.2152L5214.1036,980.2168L5214.1036,980.2176L5214.1045,980.2183L5214.1059,980.22L5214.1064,980.2226L5214.1081,980.2245L5214.1105,980.2241L5214.1115,980.2242L5214.1139,980.226L5214.1144,980.227L5214.1132,980.2279L5214.1143,980.2291L5214.1158,980.2296L5214.1159,980.2301L5214.1153,980.2318L5214.1162,980.2331L5214.1175,980.2336L5214.1216,980.2342L5214.1224,980.2347L5214.1231,980.2348L5214.1264,980.236L5214.127,980.2367L5214.1264,980.239L5214.1297,980.2404L5214.1332,980.243L5214.138,980.2438L5214.1395,980.2443L5214.1428,980.2456L5214.147,980.246L5214.1484,980.2468L5214.1491,980.2468L5214.1494,980.2457L5214.1504,980.2455L5214.1538,980.2462L5214.1598,980.2481L5214.1614,980.2493L5214.1626,980.2497L5214.163,980.2502L5214.1658,980.2508L5214.1663,980.2515L5214.1678,980.2518L5214.169,980.2527L5214.1721,980.2538L5214.1746,980.2543L5214.1768,980.2537L5214.1777,980.2542L5214.1805,980.2544L5214.1816,980.2551L5214.1827,980.2553L5214.1838,980.2546L5214.1859,980.2551L5214.1874,980.2549L5214.188,980.2553L5214.1891,980.2553L5214.1928,980.2564L5214.1984,980.2569L5214.1995,980.2578L5214.202,980.2582L5214.2037,980.2592L5214.2059,980.2587L5214.2062,980.2576L5214.2099,980.2574L5214.2143,980.258L5214.2158,980.2572L5214.2195,980.2569L5214.2221,980.2566L5214.2231,980.256L5214.225,980.2564L5214.2277,980.2563L5214.2316,980.2575L5214.2373,980.2546L5214.245,980.2564L5214.2485,980.2559L5214.2509,980.2562L5214.2537,980.2554L5214.2626,980.2553L5214.2665,980.2564L5214.2682,980.2579L5214.2658,980.2837L5214.2656,980.2861L5214.2655,980.2872L5214.2647,980.2967L5214.2645,980.2993L5214.2629,980.32L5214.2642,980.3211L5214.2657,980.3214L5214.2671,980.3226L5214.2691,980.3228L5214.2699,980.3241L5214.2763,980.3253L5214.2795,980.3281L5214.2885,980.3309L5214.2913,980.3329L5214.2917,980.3344L5214.293,980.3349L5214.3004,980.3397L5214.3037,980.3406L5214.3068,980.3404L5214.3106,980.3427L5214.3135,980.3468L5214.3196,980.3518L5214.3209,980.3554L5214.3224,980.357L5214.3242,980.3575L5214.3245,980.359L5214.3259,980.3605L5214.3286,980.3625L5214.3312,980.3661L5214.3326,980.3668L5214.3337,980.3684L5214.3364,980.3695L5214.3363,980.3709L5214.3384,980.3736L5214.3403,980.3742L5214.3417,980.3776L5214.3422,980.3801L5214.3448,980.3811L5214.346,980.3831L5214.3473,980.3837L5214.3487,980.3858L5214.3503,980.3881L5214.3526,980.39L5214.3551,980.3931L5214.36,980.3964L5214.3617,980.3991L5214.361,980.4012L5214.3612,980.402L5214.3629,980.4033L5214.3662,980.405L5214.3682,980.4051L5214.3695,980.4069L5214.3766,980.4114L5214.3804,980.4132L5214.383,980.4135L5214.3842,980.4163L5214.3864,980.4172L5214.3873,980.4185L5214.3868,980.4208L5214.3872,980.4253L5214.3887,980.4285L5214.3934,980.4339L5214.3952,980.4383L5214.3961,980.4392L5214.3968,980.4415L5214.3976,980.4419L5214.3998,980.4453L5214.4019,980.4456L5214.4027,980.4466L5214.404,980.4469L5214.4056,980.449L5214.4058,980.4492L5214.4086,980.4499L5214.4135,980.4505L5214.4141,980.4508L5214.4168,980.4525L5214.4221,980.4722L5214.4286,980.4975L5214.4362,980.5281L5214.4439,980.5584L5214.451,980.5871L5214.4555,980.6041L5214.4554,980.6131L5214.4553,980.6242L5214.455,980.6442L5214.4557,980.6542L5214.4556,980.6927L5214.4549,980.7048L5214.4538,980.724L5214.454,980.7464L5214.4544,980.7764L5214.4446,980.8029L5214.4255,980.8563L5214.4075,980.9116L5214.4088,980.9366L5214.4159,980.9756L5214.419,980.9979L5214.407,981.0048L5214.385,981.0066L5214.3655,981.0082L5214.3329,981.011L5214.3054,981.0138L5214.2729,981.0176L5214.2379,981.0206L5214.2131,981.0227L5214.1788,981.0256L5214.1621,981.0454L5214.149,981.0611L5214.1343,981.0783L5214.1188,981.0966L5214.1166,981.1033L5214.116,981.1054L5214.1153,981.1064L5214.1154,981.1078L5214.1137,981.1109L5214.1109,981.1155L5214.1107,981.1173L5214.1124,981.1206L5214.1122,981.1217L5214.1116,981.1225L5214.1098,981.1239L5214.1068,981.1257L5214.1062,981.127L5214.1047,981.1281L5214.1033,981.1308L5214.1015,981.1325L5214.0987,981.1336L5214.0957,981.1335L5214.0938,981.1344L5214.0917,981.139L5214.0867,981.1426L5214.0856,981.1441L5214.0786,981.1492L5214.0692,981.1587L5214.0669,981.1605L5214.0651,981.1589L5214.064,981.1586L5214.0625,981.1574L5214.0579,981.1559L5214.0566,981.1546L5214.0536,981.1532L5214.0517,981.1532L5214.0485,981.152L5214.047,981.1536L5214.0433,981.152L5214.0409,981.1515L5214.0404,981.1507L5214.0377,981.1508L5214.037,981.1498L5214.0362,981.1499L5214.0343,981.1478L5214.033,981.1475L5214.0309,981.1479L5214.0302,981.1472L5214.0264,981.1474L5214.0238,981.1463L5214.0163,981.1466L5214.0143,981.1456L5214.0117,981.1444L5214.0084,981.144L5214.0075,981.1436L5214.0056,981.1437L5214.0039,981.1432L5214.0014,981.1433L5213.9899,981.14L5213.9881,981.1401L5213.9823,981.1394L5213.9805,981.1399L5213.98,981.1392L5213.9788,981.1391L5213.9772,981.1394L5213.9746,981.1395L5213.9731,981.1399L5213.9678,981.139L5213.9647,981.1406L5213.9637,981.1409L5213.9583,981.1425L5213.9574,981.1436L5213.9555,981.1437L5213.9549,981.1445L5213.953,981.145L5213.9502,981.1436L5213.945,981.1433L5213.9405,981.1436L5213.9376,981.1428L5213.931,981.141L5213.9286,981.1397L5213.9275,981.1372L5213.9246,981.1335L5213.9199,981.1318L5213.9174,981.1316L5213.9152,981.1308L5213.9128,981.1296L5213.9097,981.1287L5213.9071,981.1275L5213.9064,981.1264L5213.9059,981.1261L5213.9048,981.1256L5213.9038,981.1246L5213.8989,981.122L5213.8937,981.12L5213.8923,981.1216L5213.8917,981.1234L5213.8915,981.1248L5213.8948,981.1335L5213.8933,981.1355L5213.8929,981.137L5213.8904,981.1414L5213.8886,981.1433L5213.8889,981.1444L5213.8898,981.1452L5213.8897,981.1474L5213.8913,981.1485L5213.8932,981.1529L5213.8935,981.1579L5213.8942,981.1602L5213.8945,981.1659L5213.8932,981.1668L5213.8928,981.1691L5213.889,981.1749L5213.8868,981.1849L5213.8877,981.1887L5213.8864,981.1897L5213.8878,981.191L5213.8887,981.1942L5213.888,981.1961L5213.8888,981.1966L5213.8887,981.1984L5213.89,981.1992L5213.8899,981.2006L5213.892,981.2048L5213.8924,981.2081L5213.8914,981.2132L5213.8899,981.216L5213.8877,981.219L5213.8852,981.2284L5213.8847,981.2316L5213.8815,981.2416L5213.8802,981.2445L5213.879,981.2454L5213.8751,981.2475L5213.8733,981.2495L5213.873,981.2514L5213.8758,981.2554L5213.884,981.2604L5213.8882,981.263L5213.8928,981.2674L5213.8978,981.2758L5213.9007,981.2837L5213.9055,981.288L5213.9049,981.29L5213.9064,981.2936L5213.9101,981.2962L5213.9125,981.2971L5213.9136,981.3023L5213.9135,981.3079L5213.9168,981.3137L5213.9198,981.3158L5213.92,981.317L5213.9227,981.3203L5213.9219,981.3219L5213.9222,981.3249L5213.9243,981.3316L5213.9273,981.3358L5213.9321,981.3447L5213.9351,981.348L5213.9368,981.3515L5213.9366,981.3537L5213.9383,981.3541L5213.9402,981.3555L5213.9419,981.3581L5213.9434,981.3642L5213.9466,981.3678L5213.9477,981.3713L5213.9484,981.3801L5213.9513,981.4266L5213.9391,981.4523L5213.9349,981.4609L5213.9354,981.4756L5213.9316,981.4775L5213.9307,981.4797L5213.9307,981.4805L5213.9303,981.4813L5213.9283,981.4824L5213.9222,981.4898L5213.922,981.4911L5213.9219,981.4918L5213.9208,981.493L5213.9206,981.4941L5213.9185,981.4952L5213.9154,981.4955L5213.906,981.5031L5213.8993,981.5077L5213.9012,981.5117L5213.9032,981.5159L5213.9035,981.519L5213.9028,981.5207L5213.9038,981.5222L5213.9045,981.5252L5213.9035,981.5277L5213.9036,981.5292L5213.9031,981.5318L5213.9038,981.5331L5213.9041,981.5347L5213.9038,981.5351L5213.9029,981.5365L5213.9039,981.5388L5213.903,981.5406L5213.903,981.5416L5213.9018,981.5457L5213.9029,981.5468L5213.9031,981.5483L5213.9032,981.5502L5213.9049,981.5526L5213.9073,981.5533L5213.9096,981.5547L5213.912,981.5588L5213.9122,981.5593L5213.9122,981.5611L5213.9132,981.564L5213.9149,981.565L5213.9176,981.5691L5213.9172,981.5719L5213.9177,981.575L5213.9152,981.58L5213.9113,981.5843L5213.9006,981.5917L5213.8972,981.5929L5213.8974,981.5952L5213.8969,981.5958L5213.8973,981.5968L5213.8955,981.6008L5213.8955,981.6023L5213.8947,981.6034L5213.894,981.6053L5213.895,981.6074L5213.8945,981.6101L5213.8949,981.6111L5213.8929,981.6137L5213.8912,981.6148L5213.8895,981.6176L5213.8862,981.6198L5213.8786,981.6237L5213.8774,981.6241L5213.8761,981.6237L5213.8743,981.6245L5213.8722,981.6275L5213.8728,981.629L5213.872,981.6299L5213.8705,981.6299L5213.8672,981.6328L5213.8649,981.6336L5213.863,981.6353L5213.8621,981.6435L5213.8594,981.6459L5213.8562,981.6498L5213.8559,981.6517L5213.854,981.6541L5213.8486,981.6608L5213.8475,981.6614L5213.8454,981.6621L5213.8448,981.6627L5213.8436,981.6638L5213.8376,981.6692L5213.8264,981.6768L5213.817,981.6848L5213.8145,981.6889L5213.8079,981.6944L5213.8056,981.6945L5213.7991,981.6949L5213.7818,981.6875L5213.76,981.6808L5213.7553,981.6751L5213.7513,981.6726L5213.741,981.6706L5213.7319,981.667L5213.72,981.6636L5213.7091,981.6697L5213.6998,981.673L5213.6895,981.6819L5213.6746,981.6891L5213.6631,981.7055L5213.6615,981.7222L5213.6555,981.7273L5213.6496,981.7323L5213.6339,981.7498L5213.5986,981.7528L5213.5888,981.7514L5213.5778,981.7581L5213.5568,981.7641L5213.5366,981.7737L5213.5293,981.7805L5213.5172,981.7865L5213.5127,981.7888L5213.5089,981.7907L5213.5049,981.7933L5213.4917,981.8021L5213.4862,981.8036L5213.4751,981.8036L5213.4633,981.8035L5213.4527,981.8045L5213.4411,981.8056L5213.4356,981.8114L5213.4256,981.8166L5213.4062,981.8352L5213.382,981.8496L5213.3748,981.8624L5213.3564,981.8765L5213.3504,981.8778L5213.3315,981.8794L5213.2957,981.8933L5213.2727,981.9022L5213.2517,981.9091L5213.2453,981.9122L5213.2166,981.9388L5213.2164,981.9425L5213.2124,981.9421L5213.2077,981.9398L5213.2023,981.9414L5213.1922,981.9415L5213.1664,981.9366L5213.148,981.9388L5213.1364,981.9306L5213.1268,981.928L5213.1172,981.9309L5213.112,981.9293L5213.0997,981.9255L5213.0876,981.9265L5213.0671,981.925L5213.057,981.9308L5213.0494,981.9337L5213.0472,981.9345L5213.0101,981.9442L5212.9929,981.9407L5212.9738,981.9609L5212.9714,981.9616L5212.964,981.9613L5212.9506,981.9581L5212.9375,981.9588L5212.9331,981.9658L5212.9093,981.9689L5212.8889,981.9699L5212.8549,981.9826L5212.8303,981.9884L5212.8107,981.9982L5212.7937,981.9998L5212.7823,982.0119L5212.7774,982.0132L5212.7611,982.0301L5212.7515,982.0373L5212.7421,982.0425L5212.72,982.0451L5212.7126,982.0475L5212.7075,982.0507L5212.6994,982.0589L5212.6808,982.0695L5212.6605,982.0739L5212.6241,982.0719L5212.6116,982.0713L5212.5976,982.0535L5212.5823,982.034L5212.579,982.0258L5212.5758,982.0221L5212.5668,982.0162L5212.5521,982.0176L5212.5478,982.01L5212.5472,981.9944L5212.5407,981.9794L5212.5356,981.975L5212.5342,981.9649L5212.5289,981.9541L5212.5237,981.9335L5212.5229,981.9306L5212.5246,981.9281L5212.5236,981.9205L5212.518,981.8784L5212.5175,981.8717L5212.5127,981.8109L5212.507,981.7982L5212.496,981.7879L5212.4921,981.7842L5212.4902,981.7811L5212.4822,981.7679L5212.4746,981.7631L5212.4704,981.7537L5212.4536,981.7461L5212.4422,981.7388L5212.4367,981.7334L5212.4287,981.7204L5212.4107,981.7009L5212.4017,981.687L5212.3948,981.6831L5212.3894,981.6799L5212.3821,981.6775L5212.3697,981.6694L5212.3552,981.6672L5212.3212,981.6543L5212.3077,981.6476L5212.3039,981.6465L5212.2987,981.645L5212.2911,981.6374L5212.2878,981.6342L5212.2867,981.6281L5212.2843,981.6254L5212.2816,981.6224L5212.2609,981.6051L5212.2285,981.5925L5212.2182,981.5856L5212.2017,981.5802L5212.1807,981.5651L5212.1757,981.5599L5212.17,981.5643L5212.1481,981.5716L5212.1209,981.5766L5212.0983,981.5867L5212.0912,981.5886L5212.0677,981.5883L5212.0512,981.5989L5212.0412,981.6008L5212.0285,981.6083L5212.0175,981.6177L5211.9961,981.6275L5211.9752,981.6235L5211.9617,981.6257L5211.9571,981.6245L5211.935,981.6305L5211.6209,981.7154L5211.5946,981.7635L5211.5664,981.8L5211.5171,981.816L5211.2929,981.8342L5211.2623,981.8202L5211.241,981.8163L5211.2248,981.8065L5211.2193,981.8429L5211.2118,981.8777L5211.2173,981.8979L5211.1655,981.8977L5211.0643,981.8253L5211.0424,981.8279L5211.0159,981.8334L5211.0037,981.8522L5210.9943,981.8735L5210.9886,981.8948L5210.9481,981.9422L5210.8905,982.0536L5210.8571,982.0484L5210.814,981.9712L5210.7929,981.9475L5210.7865,981.9201L5210.7879,981.8817L5210.7977,981.8375L5210.7683,981.8389L5210.7458,981.86L5210.7384,981.8597L5210.7142,981.8517L5210.6695,981.8841L5210.656,981.9193L5210.6709,981.9604L5210.6681,981.9658L5210.6628,981.9672L5210.6464,981.9718L5210.6454,981.9693L5210.555,981.7247L5210.5373,981.6715L5210.5341,981.6347L5210.5325,981.6164L5210.536,981.589L5210.5474,981.5636L5210.5655,981.5415L5210.587,981.5217L5210.6106,981.5039L5210.6911,981.4625L5210.9071,981.3516L5210.9895,981.3088L5211.0172,981.2925L5211.4982,980.9451L5211.5161,980.93L5211.5366,980.9081L5211.552,980.8859L5211.5634,980.8618L5211.6308,980.6486L5211.6421,980.5942L5211.6464,980.5395L5211.645,980.4843L5211.6387,980.4291L5211.6198,980.3191L5211.6077,980.2648L5211.5488,980.0246L5211.4983,979.8291L5211.4946,979.8138L5211.4323,979.5568L5211.4122,979.4906L5211.3177,979.2364L5211.2919,979.1855L5211.2569,979.1389L5211.1763,979.0472L5211.1388,979.0045L5211.1019,978.9584L5210.9908,978.7562L5210.9807,978.738L5210.9346,978.6551L5210.8819,978.5526L5210.8646,978.5057L5210.8269,978.3705L5210.7313,978.0132L5210.7268,977.985L5210.7278,977.9569L5210.7455,977.8365L5210.765,977.716L5210.7907,977.576L5210.8025,977.5224L5210.8186,977.4779L5210.8215,977.4701L5210.9338,977.2503L5210.9541,977.2084L5211.0223,977.0657L5211.0268,977.0413L5211.0512,976.8506L5211.0598,976.7947L5211.1005,976.6923L5211.1259,976.6426L5211.2158,976.4995L5211.255,976.4375L5211.4293,976.1657L5211.4566,976.1177L5211.484,976.0638L5211.5772,975.8068L5211.6879,975.5141L5211.6939,975.4944L5211.6964,975.4677L5211.6952,975.4289L5211.6912,975.3011L5211.6914,975.2799L5211.6914,975.2736L5211.699,975.2459L5211.7118,975.2589L5211.7141,975.2612L5211.7273,975.2745L5211.7282,975.2754L5211.729,975.2763L5211.7326,975.2801L5211.7436,975.292L5211.7469,975.2963L5211.7495,975.2993L5211.7519,975.302L5211.755,975.3049L5211.7621,975.3117L5211.7656,975.316L5211.7677,975.319L5211.7701,975.3215L5211.7781,975.3305L5211.7894,975.3373L5211.796,975.3431L5211.8008,975.3472L5211.8172,975.3614L5211.8197,975.3635L5211.8268,975.371L5211.8293,975.3733L5211.8311,975.3764L5211.8334,975.3795L5211.8364,975.3812L5211.8417,975.3878L5211.8441,975.3887Z" fill="#000000"/></g></svg>
