<svg xmlns="http://www.w3.org/2000/svg" viewBox="-30.00 -30.00 1060.00 1060.00"><path d="M 77.87 939.97 L 70.37 930.32 L 60.26 924.60 L 45.55 922.78 L 38.99 919.80 L 20.61 906.01 L 16.80 901.51 L 20.10 858.31 L 16.80 845.16 L 11.73 839.26 L 6.21 836.22 L 1.83 832.77 L 0.00 825.52 L 1.78 818.10 L 10.33 809.33 L 8.60 802.43 L 3.61 792.20 L 1.78 780.98 L 0.79 768.88 L 4.48 754.03 L 11.40 747.19 L 24.63 741.93 L 34.92 738.48 L 43.44 732.70 L 50.44 724.51 L 56.14 714.29 L 59.86 705.87 L 61.54 699.79 L 62.12 694.88 L 67.19 689.44 L 71.36 687.75 L 85.53 688.27 L 107.45 681.61 L 124.40 666.24 L 136.71 644.20 L 144.45 617.43 L 147.30 593.82 L 146.28 573.47 L 133.20 484.69 L 132.13 463.99 L 134.58 443.77 L 143.84 418.87 L 162.22 385.10 L 174.84 361.94 L 185.22 339.31 L 191.17 329.32 L 214.94 306.70 L 219.93 299.28 L 233.42 267.36 L 239.12 258.94 L 246.86 255.20 L 284.50 253.45 L 285.72 253.10 L 286.81 252.28 L 287.83 251.05 L 289.49 248.05 L 298.98 230.89 L 315.93 210.60 L 335.57 194.35 L 354.91 186.46 L 374.71 187.69 L 385.05 186.81 L 394.21 183.95 L 404.36 177.40 L 411.97 171.09 L 420.22 166.18 L 432.18 163.72 L 438.03 165.24 L 448.52 172.55 L 451.93 173.95 L 456.00 171.21 L 458.95 160.04 L 463.40 153.96 L 467.96 150.69 L 472.23 149.23 L 476.61 149.98 L 476.66 149.99 L 482.06 153.14 L 495.90 176.23 L 498.09 188.10 L 499.26 211.36 L 504.05 223.35 L 512.50 232.41 L 522.12 235.56 L 532.47 234.28 L 543.29 229.66 L 576.73 208.38 L 581.82 207.15 L 586.30 194.82 L 592.71 187.22 L 595.27 185.65 L 609.81 176.70 L 629.92 167.70 L 635.26 161.97 L 637.81 153.38 L 640.81 131.46 L 644.32 123.74 L 648.19 121.11 L 652.11 120.35 L 656.03 120.00 L 659.67 118.77 L 667.28 113.57 L 689.19 89.67 L 695.63 80.20 L 700.92 69.97 L 701.86 66.23 L 702.96 58.10 L 704.38 54.71 L 706.06 53.12 L 707.84 51.44 L 716.09 47.17 L 719.09 44.31 L 721.64 35.71 L 724.82 12.33 L 728.97 4.27 L 736.50 1.17 L 744.64 2.57 L 753.04 5.38 L 761.34 6.61 L 769.07 4.38 L 775.54 1.05 L 782.23 0.00 L 789.72 2.68 L 795.12 4.61 L 791.22 9.29 L 787.42 15.49 L 785.87 21.86 L 787.50 27.94 L 794.68 33.61 L 796.30 41.33 L 795.26 44.66 L 793.40 47.87 L 792.08 51.26 L 792.89 54.65 L 797.22 57.98 L 801.14 57.28 L 804.35 55.30 L 806.38 54.65 L 812.44 59.68 L 814.53 63.19 L 816.46 77.80 L 819.46 86.04 L 828.42 103.11 L 831.32 114.62 L 835.90 121.46 L 836.90 126.08 L 836.41 127.84 L 835.29 130.29 L 834.12 133.62 L 833.61 137.83 L 836.26 146.89 L 842.62 152.38 L 857.13 159.28 L 862.32 163.49 L 869.70 171.56 L 874.23 174.71 L 906.75 188.57 L 916.43 190.15 L 925.99 196.81 L 928.79 211.60 L 927.88 226.33 L 926.35 232.99 L 923.73 236.26 L 926.66 243.63 L 934.80 256.14 L 940.91 263.62 L 943.10 267.94 L 947.88 288.29 L 952.61 301.03 L 960.32 307.98 L 972.03 302.84 L 975.62 314.82 L 975.21 329.38 L 968.85 373.98 L 968.70 380.06 L 969.82 382.98 L 974.19 390.69 L 975.42 395.90 L 969.77 411.44 L 971.50 417.41 L 975.42 440.09 L 972.72 449.67 L 967.71 458.15 L 964.93 466.86 L 968.70 476.97 L 960.71 484.16 L 957.70 487.84 L 955.26 492.40 L 970.02 495.09 L 971.50 510.05 L 965.01 542.96 L 974.22 540.68 L 983.10 545.77 L 990.61 554.42 L 995.88 562.60 L 1000.00 579.03 L 983.05 641.98 L 978.78 666.88 L 980.86 705.58 L 978.78 717.09 L 973.69 727.67 L 967.27 732.99 L 959.00 737.20 L 951.39 742.23 L 944.52 744.15 L 940.96 746.49 L 936.48 747.90 L 932.46 746.78 L 906.75 732.23 L 901.46 730.30 L 895.10 731.30 L 889.45 736.38 L 882.42 751.58 L 876.90 756.90 L 866.60 757.54 L 855.91 754.03 L 845.42 752.51 L 835.90 758.94 L 819.72 758.24 L 803.33 749.42 L 776.58 724.22 L 773.76 719.78 L 771.21 711.83 L 768.87 708.73 L 767.19 709.43 L 751.62 705.17 L 749.22 703.76 L 741.31 706.45 L 736.50 711.60 L 734.46 714.67 L 732.20 718.09 L 725.86 724.81 L 718.79 728.96 L 709.52 732.41 L 700.11 734.63 L 692.17 735.04 L 686.06 733.46 L 670.69 724.87 L 664.96 724.22 L 663.21 728.02 L 662.95 733.34 L 661.93 737.32 L 639.69 769.35 L 631.29 776.01 L 620.30 776.42 L 609.00 771.39 L 598.72 763.56 L 590.62 755.44 L 575.35 734.69 L 569.35 729.37 L 563.72 727.09 L 558.99 726.91 L 554.84 727.38 L 551.03 726.74 L 542.35 718.17 L 541.49 717.32 L 538.12 713.99 L 534.18 711.42 L 529.14 711.60 L 527.71 714.75 L 527.76 720.01 L 524.56 748.95 L 528.10 792.44 L 517.43 835.16 L 515.37 893.16 L 515.14 899.46 L 512.50 911.91 L 507.81 924.25 L 501.81 935.94 L 495.24 946.17 L 485.16 957.91 L 475.90 964.17 L 465.95 966.33 L 453.71 965.92 L 442.71 962.12 L 437.06 962.18 L 433.40 967.44 L 431.77 979.31 L 429.63 984.57 L 424.85 987.90 L 413.83 989.48 L 404.54 987.84 L 384.05 980.08 L 378.79 978.08 L 375.27 977.85 L 360.61 983.93 L 356.95 986.50 L 353.03 988.25 L 347.94 988.02 L 337.15 989.65 L 327.94 996.38 L 318.57 1000.00 L 307.12 992.58 L 289.30 988.76 L 279.79 986.73 L 270.96 987.90 L 249.71 998.48 L 237.59 999.77 L 233.24 989.01 L 232.66 981.94 L 228.08 970.19 L 226.96 963.64 L 228.64 957.74 L 235.46 948.15 L 236.52 941.72 L 233.52 934.71 L 222.83 923.19 L 222.72 922.67 L 221.03 915.01 L 221.66 908.35 L 221.31 905.72 L 215.30 900.57 L 206.29 894.67 L 195.88 891.81 L 175.09 888.82 L 164.10 884.97 L 134.19 870.00 L 126.18 868.66 L 97.52 870.82 L 86.35 883.39 L 77.87 939.97 Z" fill="#000000"/></svg>
