<svg xmlns="http://www.w3.org/2000/svg" viewBox="0 0 586.27 1000.00"><g transform="translate(30.00 30.00) scale(1.867319) translate(-5342.91 -1723.52)"><path d="M5360.1121,2050.227L5353.8097,2040.3801L5347.5085,2030.5321L5347.3017,2029.529L5347.0921,2028.5267L5346.8851,2027.5237L5346.6755,2026.523L5346.4686,2025.5199L5346.2617,2024.5192L5346.0547,2023.5144L5345.8449,2022.5129L5345.6379,2021.5106L5345.4309,2020.5074L5345.2211,2019.5075L5345.0141,2018.5035L5344.807,2017.5027L5344.5972,2016.4995L5344.3873,2015.4971L5344.1829,2014.4938L5343.88,2013.0491L5343.4803,2011.4475L5342.9325,2009.262L5342.9119,2007.4083L5343.77,2006.0065L5344.4496,2005.617L5345.4112,2005.1577L5346.4978,2005.0552L5347.1318,2004.9152L5347.5657,2004.8194L5348.4541,2003.9567L5348.6532,2003.3851L5348.6743,2002.7988L5348.4828,2001.5962L5348.391,2001.41L5348.0975,2001.1141L5348.0533,2000.9506L5348.1478,2000.788L5348.6711,2000.3644L5349.511,1999.2675L5349.775,1999.0349L5350.3111,1998.8926L5350.8238,1998.8422L5351.2277,1998.5958L5351.4543,1997.8582L5351.4105,1997.2175L5351.011,1995.8749L5350.8923,1995.2325L5350.9145,1994.5633L5351.0489,1993.9607L5351.4323,1992.9824L5352.2734,1990.838L5352.9385,1989.1375L5353.6972,1987.8957L5354.4773,1986.6164L5355.2543,1985.3323L5356.0368,1984.0505L5356.8136,1982.7671L5357.593,1981.4862L5358.3723,1980.2036L5359.1486,1978.9209L5359.9275,1977.6399L5360.7063,1976.3597L5361.485,1975.077L5362.2607,1973.7943L5363.0417,1972.5132L5363.8171,1971.2313L5364.5923,1969.9469L5365.373,1968.6657L5366.1478,1967.3821L5366.8904,1966.157L5368.3208,1964.3723L5369.8564,1962.454L5370.869,1961.185L5372.339,1959.3513L5373.8113,1957.5111L5375.2804,1955.6757L5376.7492,1953.8386L5378.2148,1952.0015L5379.6799,1950.1627L5381.1475,1948.3272L5382.6146,1946.49L5384.0814,1944.6543L5385.545,1942.817L5387.0108,1940.978L5388.4764,1939.1423L5389.9415,1937.3048L5391.4062,1935.469L5392.8704,1933.6282L5394.3315,1931.7939L5395.2182,1930.6806L5395.5573,1930.0995L5395.63,1929.7773L5395.7141,1929.4045L5395.7552,1928.6069L5395.8353,1927.1697L5395.9126,1925.734L5395.9869,1924.2967L5396.0639,1922.8594L5396.1409,1921.4236L5396.2177,1919.9862L5396.2944,1918.5488L5396.371,1917.1097L5396.4503,1915.6739L5396.5267,1914.2364L5396.603,1912.8005L5396.6791,1911.3613L5396.7553,1909.9254L5396.8313,1908.4878L5396.9072,1907.0501L5396.9802,1905.6109L5397.0559,1904.1732L5397.1342,1902.7355L5397.2097,1901.2994L5397.285,1899.86L5397.3604,1898.4238L5397.4355,1896.986L5397.5106,1895.5482L5397.5248,1895.2762L5397.5856,1894.1103L5397.6604,1892.6732L5397.7352,1891.2361L5397.8126,1889.7982L5397.8872,1888.361L5397.9589,1886.9238L5398.0333,1885.4858L5398.1075,1884.0478L5398.1816,1882.6089L5398.2557,1881.1724L5398.3296,1879.7335L5398.4035,1878.2969L5398.4799,1876.8579L5398.5536,1875.4206L5398.6271,1873.9823L5398.7005,1872.5449L5398.7738,1871.1066L5398.847,1869.6674L5398.9174,1868.2307L5398.9903,1866.7916L5399.0633,1865.3556L5399.1388,1863.9156L5399.2115,1862.4787L5399.284,1861.0394L5399.3565,1859.6026L5399.4289,1858.1632L5399.5012,1856.7247L5399.5733,1855.2877L5399.6453,1853.8483L5399.7173,1852.4105L5399.7919,1850.9718L5399.8609,1849.534L5399.9325,1848.0953L5400.004,1846.6557L5400.0754,1845.2186L5400.1467,1843.779L5400.218,1842.3426L5400.289,1840.9021L5400.3628,1839.4649L5400.4336,1838.0244L5400.5044,1836.5871L5400.5672,1835.272L5401.3349,1832.7965L5401.7155,1831.9768L5402.724,1829.8019L5403.732,1827.627L5404.7423,1825.4512L5405.752,1823.2745L5406.2671,1822.1622L5406.448,1821.6227L5406.3765,1821.1027L5405.9817,1820.4165L5405.3314,1819.6358L5403.7302,1817.7157L5402.132,1815.7955L5400.5311,1813.8737L5398.9305,1811.9535L5398.1673,1811.039L5395.9543,1809.117L5395.4631,1808.5139L5395.0687,1807.8275L5394.7317,1807.0288L5394.4772,1805.6072L5394.6583,1804.1482L5395.2824,1802.9303L5396.335,1802.244L5395.8754,1801.4826L5395.4126,1800.7082L5394.9445,1799.9371L5394.479,1799.1643L5394.0136,1798.3915L5393.5483,1797.6187L5393.0802,1796.8459L5392.6176,1796.073L5392.1523,1795.3002L5391.6842,1794.529L5391.2216,1793.7529L5390.7537,1792.9817L5390.2884,1792.2088L5389.8232,1791.436L5389.358,1790.6631L5388.8901,1789.8919L5388.4277,1789.1174L5387.7674,1788.0249L5386.8207,1786.784L5386.3025,1786.3861L5385.0294,1785.654L5384.6,1785.1892L5384.4768,1784.6821L5384.4465,1783.8554L5384.4216,1783.2324L5384.3529,1781.5887L5384.2548,1779.2633L5384.1446,1776.5986L5384.0341,1773.9322L5383.9354,1771.6081L5383.8686,1769.9642L5383.8407,1769.3412L5383.6059,1768.069L5383.3528,1766.7283L5383.0996,1765.3876L5382.7249,1763.4092L5382.3528,1761.4323L5381.9806,1759.4554L5381.6056,1757.4768L5381.2333,1755.4998L5380.8581,1753.5211L5380.4885,1751.5456L5380.1131,1749.5669L5379.7405,1747.5881L5379.3678,1745.6108L5378.9923,1743.6344L5378.6222,1741.6562L5378.2493,1739.6781L5377.8741,1737.7027L5378.3311,1737.4453L5379.836,1736.6197L5381.3379,1735.7942L5382.8341,1734.9686L5384.3384,1734.1446L5385.8397,1733.3206L5387.3408,1732.4959L5388.8416,1731.6695L5390.3422,1730.8438L5391.8426,1730.0182L5393.3456,1729.1926L5394.8456,1728.3669L5396.3454,1727.5405L5397.8423,1726.7156L5399.3416,1725.89L5400.8408,1725.0643L5402.3398,1724.2403L5403.4947,1723.603L5404.0331,1723.5239L5406.4833,1724.9476L5409.81,1726.8715L5413.132,1728.7969L5416.4603,1730.7231L5419.7865,1732.6492L5423.1136,1734.577L5426.4413,1736.5031L5429.7724,1738.4267L5433.0988,1740.3519L5436.4315,1742.2778L5439.762,1744.2021L5443.0906,1746.128L5446.4254,1748.0546L5449.7581,1749.9796L5453.0915,1751.9061L5456.4256,1753.831L5459.7604,1755.7543L5463.0959,1757.6807L5466.4348,1759.6055L5469.7689,1761.5302L5473.1092,1763.4565L5476.4475,1765.3827L5479.7863,1767.3057L5483.1259,1769.2319L5486.4688,1771.1564L5489.807,1773.0808L5490.3941,1773.419L5493.1485,1775.0053L5496.4907,1776.9313L5499.8336,1778.8572L5503.1798,1780.7815L5506.5211,1782.7057L5509.8687,1784.6316L5513.214,1786.5541L5516.5601,1788.4798L5519.9067,1790.4038L5523.2566,1792.3262L5526.6019,1794.2535L5529.9532,1796.179L5533.3022,1798.1013L5536.6492,1800.0267L5540.0023,1801.9505L5543.3504,1803.8726L5546.7047,1805.7979L5550.0568,1807.7216L5553.4095,1809.6452L5556.7629,1811.572L5560.1195,1813.4955L5563.4712,1815.4174L5566.829,1817.3424L5570.1846,1819.2658L5573.5407,1821.1891L5576.8974,1823.1116L5580.2547,1825.0364L5583.6126,1826.9604L5586.9711,1828.8852L5590.33,1830.8075L5593.6895,1832.7313L5597.0523,1834.6535L5600.4102,1836.5789L5603.774,1838.5002L5607.1357,1840.4238L5610.4979,1842.3491L5613.8606,1844.2719L5617.2238,1846.1938L5620.5876,1848.1189L5620.87,1855.4425L5621.149,1862.7654L5621.4244,1870.0869L5621.6964,1877.4077L5621.9622,1884.7269L5622.2273,1892.0471L5622.4918,1899.3666L5622.7473,1906.6854L5623.0021,1914.0036L5623.2535,1921.3211L5623.5014,1928.6362L5623.7461,1935.954L5623.9844,1943.2694L5624.2222,1950.5842L5624.4593,1957.8983L5624.6875,1965.2118L5624.743,1967.0289L5624.7437,1967.0535L5624.4566,1968.0003L5623.7294,1967.9645L5620.5689,1966.7427L5617.2929,1966.1814L5614.2138,1966.1766L5612.4671,1966.6126L5608.9913,1968.0865L5606.9802,1968.3078L5602.8268,1967.3121L5601.5575,1967.4922L5600.9004,1967.5855L5600.2154,1968.1386L5598.5687,1970.5082L5596.497,1972.0032L5596.0101,1972.7125L5595.8443,1973.6951L5596.0671,1974.6012L5596.5396,1975.4146L5597.1337,1976.1214L5597.7359,1977.012L5598.0301,1977.9937L5598.1128,1979.0462L5597.8755,1982.707L5597.69,1983.408L5596.5597,1985.9243L5596.3597,1986.2114L5595.4611,1986.6164L5594.8588,1987.0003L5594.3428,1987.4996L5592.0036,1990.3899L5591.708,1991.0437L5591.5876,1991.8106L5591.5787,1992.4002L5591.4404,1992.9198L5590.923,1993.485L5589.9613,1994.242L5589.7581,1994.7291L5589.7801,1995.5407L5590.0461,1997.2679L5590.2108,1997.8192L5590.6431,1998.8243L5590.6978,1999.104L5590.5792,1999.5431L5590.3105,1999.7708L5584.9587,2001.4214L5583.8291,2002.0573L5582.7686,2003.0005L5582.2928,2004.1201L5582.9369,2005.2845L5583.7827,2005.9902L5584.0022,2006.4204L5584.4708,2009.8035L5584.5646,2009.9921L5584.7022,2010.1588L5584.8042,2010.3426L5584.7824,2010.5759L5584.6505,2010.7336L5584.2917,2010.9271L5584.1785,2011.0596L5583.9536,2011.5962L5583.9322,2011.8434L5584.0196,2012.2166L5584.2816,2012.8971L5584.6157,2013.3613L5585.0699,2013.6353L5586.5942,2013.9402L5587.0806,2014.2808L5587.3381,2014.893L5587.5475,2015.9044L5587.5351,2016.8271L5587.1489,2017.3645L5586.5312,2017.6474L5585.8159,2017.8076L5585.2147,2018.1986L5584.2448,2019.2677L5583.7355,2019.6717L5579.527,2021.9959L5578.7667,2022.5877L5578.1381,2023.3372L5577.8828,2023.7223L5575.7729,2026.9042L5575.1473,2028.1341L5575.1209,2028.4162L5575.7656,2029.0958L5576.2062,2029.7225L5576.3091,2030.1833L5576.2682,2030.6702L5576.2854,2031.3726L5576.7931,2032.591L5578.5525,2034.4215L5578.9768,2035.6399L5579.0372,2037.45L5579.1713,2038.0539L5579.5397,2038.8049L5580.5223,2040.1241L5580.8621,2040.8434L5580.6683,2042.1568L5579.7515,2043.5888L5577.3393,2046.5934L5576.9027,2046.9502L5574.044,2048.2692L5573.5755,2048.5724L5572.6757,2049.5866L5571.9254,2050.8195L5569.8243,2055.645L5569.2014,2057.9918L5568.7922,2058.971L5568.7326,2059.1693L5568.8547,2059.5268L5569.61,2060.5759L5570.7185,2062.8608L5571.289,2063.4849L5572.247,2064.0163L5573.3628,2064.2585L5574.5068,2064.2715L5575.5551,2064.1057L5576.8144,2063.675L5577.8292,2063.0185L5578.6731,2062.0678L5579.414,2060.7514L5582.8452,2063.3273L5585.6271,2064.5104L5585.9925,2064.9118L5584.7329,2068.5275L5584.1355,2069.5643L5584.1998,2069.9495L5585.1265,2071.5566L5587.2616,2078.5714L5587.3394,2078.9468L5587.3674,2079.3302L5587.3507,2079.7137L5586.7328,2083.1697L5586.9037,2083.0901L5587.0631,2082.991L5587.3527,2082.7343L5589.0905,2082.1006L5590.1383,2081.8829L5590.5032,2082.138L5590.7215,2081.683L5590.8614,2081.8374L5590.9027,2082.3264L5590.8341,2082.8805L5590.3927,2084.4744L5589.0965,2094.1593L5589.2537,2095.6653L5589.8252,2097.142L5590.6779,2098.4734L5591.6643,2099.5366L5592.6032,2100.0638L5594.7916,2100.9118L5595.5011,2101.659L5595.5823,2101.9425L5595.6105,2102.8896L5595.8808,2103.0244L5598.4408,2102.7117L5599.0738,2102.7304L5599.4692,2103.1122L5599.8809,2105.3425L5600.6123,2107.6752L5600.6442,2108.087L5600.715,2108.9999L5600.6067,2109.5579L5600.1751,2110.6633L5600.0194,2111.2277L5599.943,2111.8499L5599.942,2112.4842L5599.8737,2112.8261L5599.4582,2113.3662L5599.2946,2113.6805L5598.3272,2118.1042L5596.8378,2117.9361L5595.1835,2117.3295L5594.4901,2116.6741L5593.4804,2116.376L5593.2234,2116.3468L5592.2844,2116.376L5592.0099,2116.3135L5591.4884,2116.0276L5591.2638,2115.9464L5590.6242,2116.0308L5590.0538,2116.2241L5589.4841,2116.1754L5588.858,2115.5371L5588.6181,2115.8091L5588.2913,2115.7783L5587.898,2115.6272L5587.4696,2115.5371L5587.1116,2115.6175L5586.8593,2115.8286L5586.376,2116.4832L5586.0517,2116.7244L5585.6447,2116.8674L5584.9149,2117.0024L5584.8197,2117.02L5584.2378,2117.206L5583.6854,2117.4691L5583.3438,2117.6827L5582.8494,2118.2049L5582.564,2118.438L5582.3462,2118.4234L5581.9269,2118.2252L5581.5842,2118.5208L5581.3027,2118.9586L5580.5418,2119.6911L5580.2681,2120.677L5579.9184,2121.3397L5579.1511,2120.8825L5578.7258,2120.9523L5576.4593,2120.6868L5575.9484,2120.9458L5575.6586,2121.5386L5575.4842,2122.1859L5575.3167,2122.6187L5575.5914,2123.2774L5575.3081,2123.6322L5573.6773,2124.104L5573.2108,2124.3598L5572.3978,2125.0176L5571.7914,2125.6965L5571.6918,2125.7396L5571.5684,2126.0002L5571.2743,2125.9304L5570.7331,2125.6226L5570.4549,2125.66L5569.9447,2125.82L5569.7251,2125.8573L5569.4425,2125.9564L5569.2821,2126.1781L5569.1635,2126.4014L5569.0092,2126.5013L5568.6055,2126.5411L5568.1508,2126.684L5567.7826,2126.9812L5567.6356,2127.4749L5567.5884,2128.0913L5567.3574,2129.0211L5567.31,2129.6309L5567.3804,2130.2716L5567.6507,2131.4759L5567.7187,2131.9907L5567.8216,2132.283L5568.3073,2132.9115L5568.4798,2133.1917L5568.4892,2133.4012L5568.4483,2133.6107L5568.4745,2133.8242L5568.6795,2134.0492L5567.8828,2135.652L5567.7971,2136.3122L5567.8283,2136.6524L5567.9538,2137.1177L5567.9836,2137.3751L5567.8745,2137.669L5567.6084,2137.7665L5567.2993,2137.8014L5567.0725,2137.9118L5566.76,2138.5322L5566.5536,2139.1598L5566.2219,2139.6478L5565.5334,2139.8435L5565.39,2139.9361L5564.5362,2140.2487L5564.4346,2140.1837L5564.1552,2140.3201L5563.8136,2140.2503L5563.482,2140.1196L5563.2246,2140.0774L5562.3788,2140.6896L5561.6483,2141.8271L5560.3066,2145.5434L5559.6141,2146.8157L5558.7525,2147.8354L5557.8191,2148.2503L5557.4548,2148.161L5556.3412,2147.6633L5555.9626,2147.3913L5555.5808,2147.7526L5554.228,2149.6037L5554.04,2150.0389L5553.9673,2150.5317L5553.7479,2150.5999L5552.2736,2151.722L5552.0064,2152.2724L5551.6208,2153.418L5551.6003,2153.53L5551.6298,2153.9644L5551.59,2154.091L5551.4922,2154.0845L5551.3688,2154.0488L5551.2633,2154.0813L5550.9233,2154.4499L5550.7333,2154.6058L5550.5367,2154.7048L5550.4381,2154.6512L5550.1819,2154.3468L5550.0579,2154.2753L5549.9049,2154.3094L5549.8364,2154.3825L5549.8098,2154.4637L5549.7771,2154.5108L5549.6305,2154.5944L5549.4515,2154.7438L5549.3008,2154.911L5549.2332,2155.0474L5549.1593,2155.6482L5548.7908,2156.499L5548.7121,2156.9772L5548.7071,2158.0415L5548.5489,2158.4401L5548.1688,2158.5862L5548.1722,2158.7998L5548.2916,2158.9329L5548.3379,2159.032L5548.3809,2159.4436L5547.9586,2159.226L5547.8153,2159.3413L5547.7723,2159.6181L5547.6539,2159.8917L5547.0739,2160.2797L5546.8292,2160.5144L5546.7312,2160.848L5546.5069,2161.3083L5545.4893,2162.6226L5545.2116,2162.8962L5544.6133,2163.1909L5544.4315,2163.8801L5544.3994,2164.6724L5544.2329,2165.2748L5544.0747,2165.3333L5543.9012,2165.2508L5543.8834,2165.2423L5543.7054,2165.11L5543.5759,2165.0402L5543.4764,2165.1084L5543.3219,2165.4031L5543.2141,2165.4696L5542.8978,2165.5979L5542.7546,2165.9039L5542.6402,2166.2652L5542.4103,2166.5615L5542.2056,2166.3285L5541.9495,2166.5615L5540.7388,2166.9909L5539.643,2167.6347L5540.0147,2168.9213L5538.6297,2168.9213L5538.4423,2168.897L5537.9845,2168.7265L5537.9678,2168.7314L5537.4618,2168.6973L5537.4288,2168.7265L5536.8449,2168.3482L5536.5986,2168.3052L5536.5055,2168.6096L5536.4865,2169.0098L5536.3934,2169.3102L5536.2008,2169.4993L5535.8723,2169.5659L5535.3887,2169.8995L5535.5758,2170.6366L5535.8663,2171.3761L5535.715,2171.7097L5535.0321,2171.98L5534.6592,2172.6246L5534.3414,2173.4047L5533.804,2174.0703L5533.4748,2173.9096L5533.1877,2173.9469L5532.9332,2174.106L5532.4395,2174.5273L5532.2764,2174.6377L5531.767,2174.7522L5529.5335,2174.6166L5528.9993,2174.7522L5528.382,2174.1823L5528.0686,2173.9501L5527.7879,2173.8552L5527.3934,2173.9956L5526.6345,2174.6117L5526.2316,2174.7522L5525.7711,2174.5825L5525.4444,2174.2066L5525.207,2173.8308L5525.0006,2173.6603L5524.7703,2173.7578L5524.7344,2173.9745L5524.7627,2174.1953L5524.7336,2174.3032L5524.496,2174.2903L5524.1248,2174.1141L5523.9007,2174.0703L5523.6818,2174.1888L5522.8998,2174.947L5522.827,2175.1247L5522.8714,2175.3L5522.8849,2175.4608L5522.7248,2175.5899L5522.5511,2175.5493L5522.4491,2175.0687L5522.2434,2174.947L5522.1381,2175.0005L5522.0479,2175.1329L5521.9862,2175.3114L5521.9665,2175.4933L5521.8809,2175.7522L5521.6777,2175.796L5521.4343,2175.7652L5521.2338,2175.8058L5520.5489,2176.3399L5520.2441,2176.42L5520.1538,2176.4438L5519.7653,2176.2335L5519.4409,2176.7823L5519.0998,2176.9527L5516.8297,2176.8034L5516.2666,2176.8781L5515.5602,2177.0907L5515.2477,2177.1118L5515.0139,2177.1727L5514.3649,2177.4941L5514.2329,2177.6378L5513.9917,2177.7628L5512.8127,2177.7417L5512.3747,2177.9698L5511.6518,2177.4146L5510.8306,2177.6135L5510.0427,2177.9909L5509.4224,2177.9698L5509.1677,2178.1322L5509.0194,2178.1127L5508.9092,2178.0234L5508.7688,2177.9698L5506.7024,2178.0055L5506.4518,2177.8619L5505.4218,2178.3091L5505.0655,2178.3976L5504.6011,2178.3448L5504.088,2178.2036L5503.6243,2177.9974L5503.3108,2177.7547L5503.0645,2178.111L5502.8004,2178.0072L5502.5115,2177.719L5502.1848,2177.5218L5501.9196,2177.5315L5501.3662,2177.7092L5500.2639,2177.7758L5499.9309,2177.93L5499.799,2178.2912L5499.6433,2178.34L5498.9198,2178.137L5498.6914,2178.1841L5498.5043,2178.1841L5497.7941,2177.93L5496.7208,2178.2783L5495.6816,2178.874L5495.0821,2179.3635L5494.6912,2179.7783L5494.5237,2179.9974L5494.4571,2180.232L5494.3498,2180.3505L5493.8161,2180.5462L5493.398,2180.8173L5493.1864,2180.87L5493.0343,2180.9788L5492.98,2181.3043L5492.9028,2181.5884L5492.712,2181.732L5492.4635,2181.7402L5492.2272,2181.616L5491.6186,2182.6785L5491.6275,2183.1403L5492.0858,2183.5664L5492.5262,2183.2848L5492.7117,2183.5827L5492.7943,2184.1143L5492.9311,2184.5307L5493.2532,2184.801L5496.5068,2186.3992L5496.7594,2186.9008L5497.1879,2187.1889L5498.0186,2187.895L5498.5759,2188.6166L5497.7022,2189.3146L5497.4433,2189.8057L5497.1915,2189.9738L5496.8977,2190.1701L5495.827,2192.6845L5493.1708,2196.2483L5492.9047,2196.8497L5492.6685,2197.6142L5492.3011,2198.1693L5491.4331,2199.1481L5490.3262,2201.1389L5489.744,2201.7371L5489.2751,2202.0122L5487.6954,2202.6387L5486.5548,2203.3034L5485.6468,2204.2415L5485.1223,2205.4661L5485.1211,2206.9902L5484.3628,2208.3171L5482.1778,2208.8576L5470.3412,2209.2179L5467.8278,2209.9093L5465.6916,2210.8426L5464.6375,2211.0633L5463.5131,2211.0114L5459.787,2210.2859L5459.3003,2210.2518L5458.7081,2210.2907L5458.1903,2210.4887L5457.6413,2211.3798L5457.1248,2211.6865L5456.5594,2211.8715L5455.5878,2211.9884L5455.0444,2212.1377L5454.604,2212.5078L5454.3714,2213.2187L5454.0498,2213.4605L5452.7673,2213.0174L5452.4176,2213.4946L5451.874,2213.8889L5448.2419,2215.3854L5447.8068,2215.7375L5447.7841,2215.7632L5447.4339,2216.1595L5447.27,2216.5166L5447.184,2217.0976L5447.0093,2217.2388L5446.788,2217.1966L5446.5787,2217.229L5446.095,2217.75L5445.1613,2219.0825L5444.6473,2219.6554L5444.2617,2219.9426L5444.0882,2219.9264L5443.9437,2219.7511L5443.6397,2219.5596L5443.1035,2219.3519L5442.7355,2219.7235L5442.6156,2220.0124L5442.6463,2220.2786L5442.5639,2220.4214L5441.7318,2220.2591L5441.4413,2220.2883L5441.2112,2220.4749L5441.025,2220.8531L5440.5043,2220.7914L5439.3405,2220.9992L5438.29,2221.3513L5437.8817,2221.6159L5437.5979,2222.0232L5437.3974,2222.648L5437.4248,2222.8639L5437.5436,2223.0034L5437.6375,2223.156L5437.5869,2223.4043L5437.4923,2223.4546L5437.201,2223.4059L5437.1227,2223.4043L5436.5425,2223.9681L5436.4831,2224.0259L5436.2858,2224.1525L5435.6603,2224.232L5435.2855,2223.9463L5434.6811,2222.8055L5433.6697,2221.512L5433.0432,2220.9456L5432.3992,2220.5804L5431.3499,2220.2266L5431.0667,2219.8842L5430.9422,2219.1928L5430.9914,2218.8066L5431.1056,2218.4933L5431.1554,2218.1655L5431.0139,2217.7289L5430.7985,2217.4465L5430.5596,2217.3232L5430.2988,2217.2469L5430.015,2217.1138L5429.5722,2216.7389L5429.2738,2216.2683L5429.1476,2215.6937L5429.2831,2214.7361L5429.2941,2214.4473L5429.2743,2214.1649L5429.2325,2213.9036L5428.1684,2214.272L5427.6989,2214.556L5427.2699,2214.978L5427.1026,2215.2912L5426.7812,2216.1141L5426.6131,2216.351L5426.248,2216.4679L5425.973,2216.3705L5425.7256,2216.2325L5425.4348,2216.226L5425.0278,2216.6172L5424.8947,2217.2761L5424.9192,2219.4103L5424.8118,2219.8501L5424.4844,2220.1065L5422.1061,2220.496L5421.5439,2220.7541L5420.6154,2221.5802L5420.0767,2221.9583L5419.4932,2222.0459L5418.8723,2222.0346L5417.9588,2222.3997L5416.2417,2222.6594L5415.6427,2222.8882L5415.1953,2223.1722L5414.8195,2223.6299L5414.236,2224.6004L5413.8432,2225.0467L5412.9684,2225.6715L5412.4868,2225.8954L5408.9415,2226.8432L5407.9803,2226.9194L5406.9389,2226.5089L5405.5323,2225.0126L5404.3484,2224.9038L5402.3799,2225.2138L5401.3949,2225.1408L5400.4577,2224.7935L5401.5495,2223.1349L5402.263,2221.4163L5402.6031,2219.5515L5402.5917,2216.3397L5401.9921,2216.2017L5401.14,2215.9761L5400.5582,2215.9469L5399.2729,2214.8644L5398.3224,2212.2838L5396.601,2205.5498L5392.8692,2196.5718L5392.1206,2194.7712L5391.7036,2194.16L5390.1232,2192.3842L5388.9608,2190.2253L5388.5045,2189.5995L5387.9408,2189.1296L5387.2509,2188.882L5386.2405,2188.7083L5385.876,2188.5809L5385.776,2188.3731L5385.773,2188.0817L5385.7048,2187.6994L5385.4534,2186.9024L5385.2966,2186.6086L5385.1019,2186.4178L5384.9027,2186.335L5384.7223,2186.1865L5384.5814,2185.7969L5384.338,2185.499L5383.2613,2184.5883L5382.8844,2184.3473L5382.6323,2184.284L5382.3948,2184.2791L5382.1579,2184.3278L5381.9074,2184.4219L5381.4728,2184.2645L5375.4101,2178.6926L5369.348,2173.1206L5368.8403,2172.1197L5368.5608,2170.7705L5360.7562,2160.5403L5358.332,2158.3727L5358.2823,2157.9051L5359.8941,2155.183L5362.0776,2152.9723L5362.9085,2151.6408L5364.1864,2148.6327L5364.2442,2148.3153L5364.2547,2148.0083L5364.3162,2147.7753L5364.5356,2147.6763L5364.9306,2147.6458L5371.5173,2147.138L5379.4274,2149.3845L5380.511,2149.4495L5383.8874,2148.2325L5385.1299,2148.2844L5386.7091,2148.7171L5387.536,2148.7862L5388.2955,2148.5856L5388.5748,2148.3745L5389.0487,2147.8646L5389.3503,2147.6535L5389.5893,2147.5707L5390.8265,2147.414L5392.4321,2147.4903L5396.9906,2149.184L5398.5138,2149.1369L5404.5513,2147.427L5405.0209,2147.2646L5403.8363,2146.0492L5402.8832,2145.7025L5401.0677,2144.4602L5399.8103,2143.2164L5399.8226,2143.0799L5399.4342,2142.8193L5398.409,2141.1694L5394.6396,2137.194L5394.3398,2136.6524L5394.1616,2136.0142L5394.0957,2135.2192L5393.9846,2134.6005L5393.7203,2134.2213L5393.3617,2133.8851L5392.9648,2133.3866L5392.5733,2132.2164L5392.3265,2131.6797L5391.7789,2131.3882L5391.6459,2131.2404L5391.4627,2131.0934L5391.1774,2131.0268L5390.8701,2130.9927L5390.5705,2130.9018L5390.3205,2130.7653L5390.151,2130.5972L5389.9676,2129.9988L5389.9744,2129.2225L5390.1291,2128.4591L5390.3925,2127.9045L5390.4252,2127.4084L5390.209,2126.6515L5388.0885,2122.0657L5387.9977,2120.8825L5388.3175,2119.5392L5388.3993,2118.7645L5388.2219,2118.2106L5387.9397,2117.7412L5387.177,2115.732L5386.9698,2113.0417L5386.7216,2109.8251L5386.8848,2107.8783L5387.0147,2107.382L5387.622,2106.3399L5387.796,2105.8209L5387.7694,2105.5033L5387.6472,2105.336L5387.5032,2105.1963L5387.4164,2104.9616L5387.4114,2104.6018L5387.5358,2104.1185L5387.6832,2102.4827L5387.8476,2101.8719L5388.0851,2101.3138L5389.3088,2099.7445L5389.6561,2098.877L5389.3242,2097.8601L5388.5508,2096.7602L5388.2588,2096.203L5387.8126,2094.7912L5387.7258,2094.1674L5387.7645,2093.5549L5387.9667,2092.8839L5388.0665,2092.8482L5388.2422,2092.8612L5388.4229,2092.8384L5388.5322,2092.689L5388.4959,2092.4859L5388.2045,2092.1739L5388.1553,2092.044L5388.3015,2091.7466L5388.7321,2091.2723L5388.8779,2090.9522L5388.189,2089.1423L5388.0087,2088.8043L5387.5481,2088.7329L5387.2269,2088.4778L5387.036,2087.9839L5386.9661,2087.1959L5387.0963,2086.9505L5387.3516,2086.6906L5387.5314,2086.4128L5387.4185,2086.1138L5387.3128,2085.9351L5387.1744,2085.6085L5387.1086,2085.2965L5387.2208,2085.1568L5387.9902,2085.0171L5387.8681,2084.6661L5387.3993,2084.2112L5387.1169,2083.7514L5387.1586,2083.3647L5387.2219,2083.1242L5387.2024,2082.9309L5387.001,2082.6774L5386.8574,2082.3768L5386.8602,2082.0015L5386.9555,2081.6619L5387.0836,2081.4669L5386.5637,2080.9535L5386.0589,2080.7114L5385.5753,2080.7715L5385.1216,2081.1663L5384.7993,2081.2199L5384.4156,2080.8771L5383.811,2080.0825L5383.1125,2079.5398L5382.9729,2079.3221L5382.8799,2078.8639L5383.0143,2078.7258L5383.2168,2078.6722L5383.3251,2078.4626L5383.2814,2078.1408L5383.1649,2077.9751L5383.0292,2077.837L5382.9478,2077.603L5382.9423,2077.226L5383.071,2076.6979L5383.1127,2076.3161L5383.1195,2074.1289L5383.1682,2073.8478L5382.6736,2071.4656L5382.2919,2070.6937L5382.2732,2070.5556L5382.3123,2070.1948L5382.2826,2070.0697L5382.1446,2069.9641L5381.9683,2069.8958L5381.86,2069.9137L5381.9152,2070.0697L5381.6862,2069.8341L5381.5662,2069.8146L5381.5264,2069.7561L5381.5379,2069.4067L5381.5849,2069.2003L5381.7948,2068.7161L5381.8925,2068.547L5380.944,2064.6859L5380.6225,2064.0391L5379.7384,2064.278L5379.2699,2064.2146L5379.0619,2063.7076L5378.9851,2063.4102L5378.8022,2063.0916L5378.5618,2062.8332L5378.3126,2062.7308L5378.1722,2062.8316L5377.7748,2063.6084L5377.4553,2063.09L5377.835,2062.058L5377.6436,2061.5412L5377.2124,2061.369L5376.4203,2061.6127L5375.9763,2061.3251L5375.8011,2061.1431L5375.3256,2060.7977L5375.2282,2060.61L5375.2142,2060.415L5375.1589,2060.2533L5374.9487,2060.1541L5374.7714,2060.2029L5374.2634,2060.6571L5374.0053,2060.7026L5373.8803,2060.5304L5373.8398,2060.2403L5373.8352,2059.9323L5373.603,2060.0323L5373.444,2060.0111L5373.3417,2059.8641L5373.2818,2059.5845L5373.264,2058.3973L5372.7714,2057.8301L5371.9371,2057.1109L5371.6521,2056.6551L5371.66,2056.2545L5372.0556,2054.8161L5372.0876,2054.1757L5371.9991,2053.6548L5371.7667,2053.1892L5371.3785,2052.717L5371.348,2052.6639L5370.0871,2050.4692L5369.6174,2050.1278Z" fill="#000000"/></g></svg>
