<svg xmlns="http://www.w3.org/2000/svg" viewBox="-3.78 351.30 1042.76 142.24"><path d="m 25.797748,464.0314 -0.019,0 -0.043,-0.016 -0.005,-0.034 0.031,-0.016 0.046,0.001 0.023,0.028 -0.01,0.031 z" fill="#000000"/><path d="m 990.00875,462.3014 -0.015,0.02 -0.017,-0.011 z" fill="#000000"/><path d="m 989.51775,460.7044 -0.014,0.014 -0.02,-0.009 10e-4,-0.041 0.028,-0.001 z" fill="#000000"/><path d="m 1009.4647,415.5964 -0.042,0.018 0,-0.016 z" fill="#000000"/><path d="m 987.39275,380.9274 -0.014,0.007 -0.007,-0.011 0.022,-0.085 0.04,-0.023 0.036,0.004 -0.01,0.052 z" fill="#000000"/><path d="m 942.62175,408.1084 -0.045,0.01 -0.082,-0.052 -0.014,-0.029 0.053,-0.052 0.064,0.021 0.024,0.017 0.009,0.041 z" fill="#000000"/></svg>
