<svg xmlns="http://www.w3.org/2000/svg" viewBox="787.83 342.84 94.66 86.03"><path d="M879.39,356.05L879.34,356.46L879.77,357.32L879.81,357.82L879.56,358.15L878.95,358.37L878.51,358.62L878.44,359L878.43,359.18L878.49,359.6L878.6,359.97L878.34,360.49L876.35,361.85L875.57,363.5L876,365.42L875.4,367.43L873.73,369.53L873.12,371.8L873.55,374.24L872.78,376.28L870.8,377.92L870.16,378.9L870.17,378.97L870.22,379.66L870.46,380.2L869.83,381.27L868.14,382.43L867.26,383.52L867.19,384.53L866.8,385.04L866.05,385.31L865.68,386.83L865.52,390.35L864.69,392.4L863.2,392.99L862.43,393.82L862.38,394.9L861.55,396.2L859.92,397.7L859.43,399.08L860.08,400.31L860,400.83L859.5,401.28L857.68,401.98L857.38,402.3L857.21,402.64L857.62,403.27L857.89,404.23L857.71,405.89L857.3,406.6L856.9,407.28L855.4,408.51L855.02,409.43L855.74,410.02L855.73,410.71L854.99,411.49L855.26,412.29L855.47,412.82L856.21,413.28L856.54,414.64L856.12,416.43L856.29,417.87L857.22,419.02L857.44,419.52L856.79,423.52L856.87,424.07L853.19,424.28L849.81,424.45L846.44,424.62L843.06,424.78L839.69,424.93L836.31,425.08L832.93,425.22L829.56,425.36L826.18,425.48L822.8,425.61L819.43,425.72L816.05,425.83L812.67,425.93L809.3,426.02L805.92,426.11L802.54,426.19L802.45,423.17L802.35,420.14L802.26,417.12L802.17,414.09L801.19,413.6L799.46,413.38L798.59,413.57L797.53,413.45L796.84,413.96L796.37,414.06L795.99,413.96L795.75,413.52L794.97,413.22L793.98,412.15L793.99,409.73L794,407.31L794.01,404.88L794.02,402.46L794.03,400.04L794.04,397.62L794.06,395.19L794.07,392.77L794.08,390.35L794.09,387.93L794.1,385.51L794.11,383.09L794.12,380.67L794.13,378.25L794.14,375.83L794.15,373.41L793.69,370.32L793.23,367.23L792.77,364.14L792.32,361.05L791.86,357.96L791.41,354.87L790.96,351.78L790.51,348.69L795.5,348.61L800.5,348.51L805.5,348.4L810.5,348.27L815.5,348.12L820.5,347.96L825.49,347.79L830.49,347.6L835.48,347.39L840.48,347.17L845.47,346.93L850.47,346.68L855.46,346.41L860.45,346.13L865.44,345.83L870.43,345.52L871.34,347.2L872.19,348.28L872.38,349.1L872.28,349.95L871.07,351.83L869.92,352.74L869.32,353.68L868.47,354.59L867.21,357.04L870.17,356.81L873.13,356.57L876.09,356.32z" fill="#000000"/></svg>
