<svg xmlns="http://www.w3.org/2000/svg" viewBox="407.46 301.66 130.64 148.81"><path d="M533.89,321.1L532.76,328.9L531.63,336.7L530.5,344.5L529.37,352.31L528.24,360.12L527.11,367.93L525.98,375.74L524.85,383.56L523.72,391.38L522.58,399.2L521.45,407.03L520.32,414.87L519.18,422.7L518.05,430.54L516.91,438.39L515.77,446.26L511.45,445.64L504.73,444.66L498.01,443.64L491.3,442.6L484.59,441.54L477.88,440.45L469.46,435.65L461.08,430.82L452.73,425.95L444.44,421.04L436.18,416.09L427.97,411.1L419.8,406.08L411.67,401.01L412.82,399.96L414.68,396.92L414.79,396.73L414.79,396.73L417.4,397.04L418.79,396.46L419.82,395.1L420.29,393.59L420.21,391.95L419.35,390.56L417.72,389.42L417.13,387.07L417.59,383.49L418.31,381.66L419.29,381.57L420.36,380.9L421.51,379.64L422.46,378.2L423.22,376.57L423.75,374.43L424.03,371.78L426.34,368.9L428.36,367.25L431.87,365.43L432.7,364.84L432.83,364.25L432.85,364.18L432.4,363.22L430.05,360.98L429.16,359.53L429.28,358.39L429.25,358.36L429.12,357.22L427.17,352.16L426.72,349.5L427.11,347.68L427.14,347.54L429.09,339.87L428.62,336.97L428.7,335.41L429.39,333.62L429.54,332.44L429.27,331.34L429.53,329.49L429.94,327.22L429.44,325.6L429.42,324.92L430.2,323.46L431.19,322.83L432.65,322.55L434.24,322.68L435.96,323.21L437.13,324.18L437.77,325.58L438.51,326.38L439.37,326.59L440.71,325.81L442.16,323.87L442.52,323.79L444.44,314.41L446.17,305.87L451.63,306.97L457.09,308.04L462.55,309.09L468.02,310.13L473.49,311.15L478.97,312.15L484.44,313.13L489.92,314.09L495.41,315.03L500.9,315.95L506.39,316.86L511.88,317.74L517.38,318.61L522.88,319.46L528.38,320.29z" fill="#000000"/></svg>
