<svg xmlns="http://www.w3.org/2000/svg" viewBox="115.78 469.95 440.38 296.46"><path d="M456.18,521.82l-0.1,4.96l-0.1,4.94l-0.1,4.92l-0.1,4.9l-0.1,4.88l-0.1,4.86l-0.1,4.84l-0.1,4.82l-0.1,4.8l-0.1,4.78l-0.1,4.77l-0.09,4.75l-0.1,4.73l-0.09,4.71l-0.09,4.7l-0.09,4.68l-0.09,4.66l-0.09,4.65l-0.09,4.64l-0.09,4.62l-0.09,4.61l-0.09,4.59l-0.09,4.58l-0.09,4.56l-0.09,4.55l-0.09,4.54l-0.09,4.53l-0.09,4.51l-0.09,4.5l-0.09,4.49l-0.09,4.48l-0.09,4.47l1.8,0.66l1.79,0.65l0.57,-1.23l1.93,0.97l1.69,0.85l1.09,-1.06l1.18,-1.14l1.58,-0.07l1.77,-0.09l1.18,-0.06l0,0.98l-0.44,1.63l-0.37,1.36l0.98,1.25l0.1,0.13l1.34,0.72l1.25,0.67l0.57,1.87l1.38,1.43l1.05,1.09l1.01,1.04l1.45,1.48l1.02,1.04l1.37,1.38l0.82,0.82l0.41,1.61l0.5,1.93l-0.27,1.15l0.65,0.17l1.23,-1.31l1.16,-0.82l1.43,-1.02l0.96,-0.69l1.82,-0.08l0.81,-1.96l-0.08,-2.71l0.92,0.02l0.53,-0.38l0.21,-0.8l-0.61,-1.07l1.71,-0.57l1.24,-0.41l1.74,-1.07l1.7,-1.05l0.86,0.73l0.85,0.7l1.69,1.69l0.13,0.42l-0.07,0.83l-0.12,0.83l1.09,2.27l0.3,0.25l0.83,0.28l1.01,0.72l0.46,0.64l1.46,0.99l0.26,0.43l0.17,0.7l0.26,0.6l0.29,0.42l0.29,0.61l0.65,0.7l1.21,0.75l0.84,0.52l1.18,0.73l1.25,1.55l1.09,1.35l1.23,1.32l-0.1,1.12l1.27,1.64l1.37,2.09l1.07,1.86l0.75,1.03l0.92,1.5l1.13,1.83l1.29,2.08l0.97,1.32l1.28,1.86l0.65,1.11l-0.32,0.82l-0.4,1.01l1.5,0.35l1.04,0.24l-0.17,1.11l-0.22,1.46l1.2,0.47l0.81,0.32l-0.1,0.77l0.5,0.81l0.19,1.4l1.4,-0.21l0.62,-0.09l0.9,0.55l1.18,0.72l1.18,0.67l1.01,0.57l1.29,0.27l1.6,0.42l0.87,1.07l1.46,0.35l0.68,1.54l1.69,0.42l0.92,-0.48l0.41,0.61l0.35,0.72l0.17,0.93l0,0.92l-0.33,0.81l-0.23,0.86l-0.12,0.91l0.02,0.96l0.15,1.01l0.25,0.87l0.67,1.59l0.27,0.99l0.09,0.67l-0.9,2.47l-0.28,1.16l0.09,0.5l-0.71,1.25l-1.37,1.78l-0.6,1.01l-0.37,-0.28l-2,-0.06l-0.91,-2.02l-0.53,-1.59l-0.7,-1.36l-0.01,-0.32l0.43,-0.99l1.88,-0.96l-0.01,-0.31l-0.75,-0.14l-0.21,-0.32l-0.34,-1.51l-0.07,-1.35l-0.13,-0.89l-0.49,-1.79l-0.59,-1.07l-1.44,-2.07l-0.15,-0.54l0.49,-0.74l0.28,-0.67l-2,1.3l-2.77,1.42l-1.17,0.92l-0.23,0.35l-0.07,0.28l0.29,0.75l-0.01,0.25l-0.21,0.48l-0.19,1.32l-0.52,1.42l-0.3,0.31l-1.17,-0.42l-0.34,-0.42l-0.7,-1.74l0.1,-0.49l0.38,-0.43l0.49,-0.91l0.6,-1.39l1.06,-3.5l0.87,-0.09l1.48,-0.8l-2.44,-0.14l-0.37,-0.15l-0.36,-0.44l-0.35,-0.73l-0.55,-0.79l-0.94,-0.22l-0.42,-0.28l-0.68,-0.97l-0.44,-0.42l-0.26,-0.55l-0.09,-0.67l-0.2,-0.32l-0.64,-0.07l-0.36,-0.21l-0.22,-1.72l-1.27,-0.35l-0.54,-0.35l-0.89,-1.02l-0.26,-0.51l-0.1,-0.43l0.11,-1.21l-0.1,-0.22l-0.71,0.17l-4.59,-1.56l0.08,-2.47l-1.02,-3.19l-0.96,-1.26l0.14,-0.52l0.17,-0.28l0.39,-0.03l1.76,0.85l1.67,1.03l0.2,-0.18l-2.71,-2.23l-0.68,-0.68l-0.21,-0.85l-0.04,-0.46l0.19,-0.26l2.4,0.06l0.13,-0.19l-2.46,-0.55l-0.49,0.03l-0.47,1.04l-0.24,0.25l-0.52,-0.02l-0.18,-0.14l-0.69,-1.19l-0.63,-0.82l-1.15,-1.12l-0.25,-0.83l-0.12,-1.24l0.08,-1.18l0.73,-2.73l0.33,-0.49l0.08,-0.3l-0.27,0.06l-0.24,0.27l-0.66,1.29l-0.64,2.08l-0.58,0.73l-0.39,-0.15l-0.63,-0.8l-1.27,-0.95l-1.42,-0.19l-0.94,-1l-1.45,-2.83l-0.24,-1.44l-0.18,-0.35l-0.73,-0.44l-0.46,-0.68l-0.82,-3.5l-0.98,-2.42l-0.27,-1.29l0.02,-1.29l-0.12,-0.14l-0.26,1.02l-0.06,0.53l-0.55,0.17l0.56,1l0.15,0.5l-0.26,-0.03l-0.53,0.15l0.97,1.7l0.52,2.67l0.69,1.96l0.46,1.59l0.23,1.21l0.31,1.16l0.82,2.54l0.12,0.51l-0.07,0.42l-0.21,0.51l-0.4,0.21l-1.29,-0.28l-0.51,-0.62l-0.73,-1.14l-0.98,-0.5l-2.37,0.36l-0.19,-0.08l-0.02,-0.96l0.21,-1.71l-0.24,-0.68l-1.31,-2.46l0,-0.49l1.65,-1.21l-0.83,-0.06l-0.65,0.47l-0.27,-0.28l-0.45,-1.6l-0.28,-0.59l-0.13,-0.12l-0.02,1.53l0.31,0.79l0.06,0.46l-0.02,0.65l-0.16,0.47l-0.3,0.29l-0.31,0.08l-0.58,-0.31l-0.65,-0.59l-0.56,-0.27l-0.21,-0.24l-0.28,-0.67l-0.44,-0.5l-2.08,-0.59l-1.25,-0.73l-0.1,0.2l0.4,0.81l0.05,0.48l-0.31,0.15l-0.54,0.79l0.16,0.1l0.58,-0.27l0.66,0.01l1.1,0.44l1,0.59l0.37,0.33l0.16,0.51l0.13,0.18l0.99,0.57l0.06,0.31l-0.6,0.95l1.28,-0.14l0.76,0.31l1,1.41l0.35,0.79l0.08,1.03l-0.19,0.31l-0.37,0.22l-2.62,0.42l-0.91,1.27l-0.2,0.02l-0.73,-0.32l-1.34,-0.96l-1.66,-0.9l-3.78,-2.72l-0.1,-0.13l-0.07,-0.54l-0.26,-0.27l-0.51,-0.23l-0.71,-0.7l-0.91,-1.17l-0.56,-0.92l-0.22,-0.66l-0.53,-0.76l-1.68,-1.57l-0.88,-0.6l-0.77,-0.34l-0.67,-0.07l-0.18,-0.21l0.31,-0.35l0.04,-0.21l-1.47,-0.32l-1.4,-0.74l-3.54,-2.1l-1.82,-1.32l-1.06,-0.63l-0.45,-0.36l-0.2,-0.29l0.26,-0.3l0.71,-0.31l0.48,-0.35l0.76,-1.33l0.06,-0.43l-0.4,-0.97l-0.18,-0.88l0.01,-0.49l0.09,-0.48l0.12,-0.32l0.32,-0.31l0.22,-0.15l0.28,0.11l0.88,1.22l0.12,0.44l-0.04,1.66l0.25,1.94l0.08,-0.14l0.08,-0.64l0.05,-1.23l0.1,-0.59l0.19,-0.57l0.32,-0.3l1,0.18l0.46,-0.1l-1.95,-0.88l-1.22,-1.65l-0.22,-0.17l-0.67,-0.08l-0.71,0.66l-1.84,2.16l-0.51,0.38l-2.31,1.18l-1.56,0.22l-1.75,-0.22l-1.49,-0.42l-3.7,-1.98l-0.57,-0.46l0.9,-1.15l0.04,-0.37l-0.27,-1.21l-0.24,-0.35l-0.35,-0.2l-0.1,0.13l-0.01,0.36l0.08,0.66l-0.29,0.34l-0.64,0.36l-1.08,0.35l-3.28,-1.07l-3.36,-0.92l-3.01,-0.28l-4.29,0.45l-2.31,0.53l-1.33,-0.01l-1.27,-0.18l-0.08,-0.45l0.6,-0.23l-0.02,-0.33l-0.68,-1.05l-1.08,-0.68l-1.48,-0.3l-0.84,-0.35l-0.19,-0.39l-0.51,-0.39l-0.82,-0.39l-0.33,-0.63l0.41,-1.87l0.36,-1.12l0.33,-0.76l0.8,-1.25l-0.26,0.08l-1.1,0.88l-0.97,0.92l-0.93,1.22l-0.54,0.55l-0.68,0.49l-1,-0.2l-1.31,-0.89l-1.14,-0.49l-0.97,-0.1l-0.38,-0.17l0.72,-0.66l0.42,-0.54l0.59,-0.88l0.15,-0.44l-3.54,-0.41l-0.09,-0.49l0.02,-0.36l-0.09,-0.3l-0.5,-0.26l-0.73,0.11l-1.21,0.48l-0.47,-0.47l0.2,-0.23l0.4,-0.15l0.84,-0.76l-1.01,-0.51l-0.49,-0.53l-0.23,-0.42l0.14,-1.46l0.35,-0.91l2.4,-0.72l-0.71,-0.41l-1.48,0l-1.05,0.69l-1.27,1.01l-0.82,0.35l-0.38,-0.32l-0.52,-0.14l-0.67,0.03l-0.47,0.24l-0.27,0.46l-0.29,0.3l-0.31,0.14l-0.21,-0.07l-0.27,-0.52l-0.64,-0.37l-0.29,-0.41l-0.21,0.22l-0.29,0.69l-0.27,0.34l-1.17,0.26l-0.61,-0.13l-0.65,-0.96l-0.08,-0.32l0.33,-0.75l1.92,-2.9l-0.16,0l-0.57,0.43l-1.17,1.12l-0.5,0.32l-0.81,-0.03l-0.36,-0.17l-0.46,0.05l-0.57,0.27l-0.38,0.32l-0.2,0.37l0.1,0.08l0.85,-0.36l0.47,-0.07l0.11,0.23l-0.77,1.32l-0.51,1.28l-0.4,0.29l-0.57,-0.11l-0.65,0.06l-0.05,0.37l1.08,1.17l0.41,0.19l0.51,0.43l0.05,0.38l-0.31,0.99l-0.2,0.38l-0.27,0.18l-0.97,-0.13l-0.32,0.07l-0.72,0.56l-0.38,0.49l0.11,0.06l0.61,-0.37l0.84,-0.15l1.08,0.08l0.82,-0.15l0.57,-0.38l0.5,0.17l0.44,0.72l0.09,0.6l-0.25,0.48l-0.45,0.32l-0.65,0.15l-0.43,0.28l-0.21,0.41l-0.16,0.63l-0.11,0.84l0.01,1.53l-0.14,0.19l-0.25,0.09l-0.35,-0.01l-0.35,0.32l-0.94,1.94l-0.28,0.19l-0.29,-0.25l-0.28,-0.01l-0.27,0.24l-0.55,0.15l-0.83,0.05l-0.69,-0.13l-1.18,-0.57l-0.47,-0.36l-0.33,-0.55l-1.16,0.41l-0.26,-0.26l-0.53,-1.47l-0.16,0.07l-0.3,1.49l-0.27,0.5l-0.8,1.01l-0.59,1.83l-0.12,0.04l-0.1,-0.28l-0.22,-1.72l-0.18,-0.39l-0.73,0.89l-0.11,0.34l0.02,1.26l-0.17,0.17l-1.17,-0.82l-0.3,-0.07l-0.09,0.1l0.31,1.02l-0.09,0.34l-1.99,1.65l-0.45,-0.12l-0.27,-0.22l-0.32,-0.01l-1.21,0.55l-0.31,-0.07l-0.37,-0.46l-0.2,-0.01l-0.16,0.41l-0.12,0.83l-0.52,0.74l-1.51,1.11l-0.43,0.54l-0.38,0.77l-0.21,0.05l-0.72,-0.62l-0.87,-0.46l-0.15,0.15l0.21,0.53l-0.1,0.29l-0.41,0.06l-0.5,-0.11l-0.58,-0.28l-0.88,0.11l-1.18,0.5l-0.91,-0.15l-1.12,-1.25l-0.34,-0.13l-0.07,-0.32l0.37,-0.83l0.45,-0.6l0.31,-0.26l1.32,-0.67l1.42,-0.12l0.93,-0.39l1.19,-0.9l0.66,-0.71l1.36,-1.88l-0.06,-0.17l-0.23,-0.14l-2.65,1.59l-0.38,0.13l-0.47,-0.08l-1.81,-1l-0.36,-0.37l-0.15,-0.96l0.82,-2.02l0.51,-0.96l1.14,-1.44l1.44,-1.51l0.56,-1.03l1.02,-2.82l0.14,-1.33l-0.06,-1.65l0.12,-0.96l0.3,-0.27l2.93,-1.13l1.44,-0.95l2.71,-1.34l0.68,0.1l0.43,0.63l0.53,0.53l0.62,0.42l0.86,0.07l1.1,-0.29l1.64,0.35l3.29,1.48l0.72,0.14l0.04,-0.14l-0.44,-0.82l-2.3,-0.71l-0.94,-0.56l-2.55,-2.28l-0.54,-0.83l0.3,-0.32l0.71,-0.21l0.27,-0.25l0.16,-0.48l0.47,-0.62l0.78,-0.78l1.13,-0.71l2.1,-1.01l-0.76,-0.14l-1.43,0.07l-0.54,0.17l-1.04,0.77l-0.44,0.57l-0.67,1.14l-0.25,0.2l-1,0.06l-2.69,-0.21l-0.37,-0.67l-0.24,-0.13l-0.34,0.04l-2.65,1.26l-0.98,0.69l-0.75,0.83l-1.06,0.54l-1.37,0.25l-1.06,0.39l-1.18,0.9l-0.46,0.75l-0.07,0.37l0.09,1.22l-0.29,0.19l-0.62,0.01l-1.08,0.65l-2.38,2.04l-0.39,0.81l-0.03,0.29l0.24,0.71l-0.3,0.39l-0.68,0.59l-1.45,0.88l-0.91,0.28l-0.55,-0.06l-0.51,-0.23l-0.84,-0.83l-0.75,-0.16l-0.06,0.09l0.92,0.9l0.91,1.11l0.54,0.89l0.17,0.66l-0.08,0.65l-0.34,0.63l-0.92,1.04l-0.79,0.23l-1.94,0.06l-0.65,0.18l-0.22,0.18l1.22,0.68l0.08,0.27l-0.33,0.93l-0.39,0.26l-1.17,0.41l-1,0.01l-0.13,-0.13l0.3,-0.73l-0.02,-0.19l-0.34,-0.21l-0.56,0.21l-1.47,0.9l-0.17,0.16l0.42,0.37l-0.14,0.23l-0.83,0.68l-0.38,0.48l-0.56,0.47l-2.36,1.31l0.09,0.43l-0.78,1.35l-0.51,1.21l0.28,0.59l1.66,0.91l0.83,0.29l0.94,0.6l1.65,1.47l0.49,0.86l0.04,0.38l-0.12,0.38l-0.3,0.5l-0.74,0.91l-1.63,1.27l-0.7,0.32l-1.01,0.18l-0.35,0.19l-1.46,1.21l-0.46,0.71l-0.06,0.67l-0.31,0.43l-1.74,0.65l0.03,0.17l0.56,0.17l-0.35,0.77l-0.28,1.1l-0.31,0.14l-0.99,-0.17l-1.34,0.22l-0.11,0.11l-0.16,0.8l-3.41,0.01l-0.99,1.39l-0.46,0.4l-1.5,0.87l-0.88,0.3l-0.96,0.1l-0.54,0.29l-0.13,0.47l-0.33,0.37l-0.92,0.54l-0.54,0.79l-0.31,0.08l-1.51,-0.07l-0.34,0.21l-0.36,1.13l-0.28,-0.02l-0.47,-0.37l-0.72,0.08l-1.78,1.02l-0.43,0.41l-0.01,0.26l0.19,0.3l0.21,0.85l-0.12,0.52l-0.87,1.34l-0.25,0.18l-0.79,0.22l-0.45,0.75l-0.65,-0.22l-0.57,0.05l-0.46,0.47l-0.44,0.24l-0.43,0l-0.6,0.32l-0.78,0.65l-0.68,0.38l-0.57,0.1l-0.53,-0.05l-0.48,-0.21l-0.47,0l-0.46,0.2l-0.48,0.37l-0.57,1.2l-0.51,0.48l-0.27,0.05l-0.5,-0.19l-0.72,-0.43l-0.81,-0.07l-1.43,0.5l-0.53,0.5l0.78,0.3l0.36,0.25l-0.04,0.16l-0.45,0.07l-0.71,-0.16l-0.46,0.04l-0.59,0.22l-1.39,0.08l-0.55,0.15l-1.3,1.24l-0.19,0.3l0.11,0.1l0.59,-0.03l0.6,0.38l0.27,0.38l0.14,0.43l0.05,0.77l0.1,0.13l-1.52,0.96l-0.47,0.44l-0.27,0.14l-0.12,-0.18l0.14,-1.4l-0.05,-0.25l-0.29,-0.09l-0.38,0.37l-0.98,1.48l-0.87,0.66l-5.65,0.93l-0.87,0.3l-0.35,0.85l-0.39,0.72l-0.48,0.53l-0.49,0.29l-0.02,-0.29l0.53,-2.15l-0.01,-0.45l-0.46,-0.4l-0.24,-0.01l-0.34,0.05l-0.63,0.35l-0.34,0.04l-0.39,-0.13l-0.78,0.3l-1.95,1.09l-1.14,0.12l-0.35,0.24l-0.64,0.7l-0.37,0.22l-0.45,-0.08l-0.53,-0.38l-0.51,0.06l-0.5,0.5l-0.42,0.14l-0.92,-0.68l-0.52,0.19l-0.77,0.61l-0.73,0.35l-0.7,0.08l-1.72,-0.16l-0.63,-0.33l-0.08,-0.25l0.27,-0.95l0.44,-0.63l0.33,-0.26l0.4,-0.21l0.49,0.09l0.85,0.44l-0.04,-0.26l-0.26,-0.36l-0.71,-0.68l-0.76,-0.45l-0.51,0.04l-0.75,0.2l-0.56,0.31l-0.36,0.42l-0.69,1.49l-0.28,0.38l-2.64,2.25l-0.98,0.65l-0.74,-0.26L274.9,725l-0.69,0.55l-0.56,0.2l-0.43,-0.14l-0.31,-0.22l-0.18,-0.29l0.1,-0.2l0.38,-0.12l0.03,-0.58l-0.32,-1.04l-0.25,-0.59l-0.71,-0.25l-0.22,0.38l-0.31,2.15l-0.16,0.46l-0.61,0.47l-1.36,0.35l-0.35,-0.16l-0.72,-1.59l-0.94,-0.53l-0.18,0.41l-0.01,0.93l-0.47,0.74l-0.94,0.56l-0.66,0.21l-0.38,-0.13l0.12,-0.53l0.62,-0.94l0.32,-0.84l0.02,-0.73l0.16,-0.52l0.3,-0.31l1.61,-0.66l0.6,0l0.23,0.33l0.36,0.14l0.5,-0.05l0.37,-0.25l0.25,-0.46l0.74,-0.47l1.23,-0.49l1.55,-1.1l1.87,-1.72l2.01,-1.38l2.16,-1.04l2.23,-0.7l4.28,-0.67l0.27,0.17l-0.49,0.44l0.16,0.39l0.37,0.14l1.49,0.09l0.65,-0.21l0.09,0.37l-0.3,0.37l-0.96,0.22l-0.06,0.36l0.84,1.96l0.33,0.35l0.33,0.05l0.19,-0.18l0.18,-1.22l0.48,-0.13l0.88,0.15l0.52,0.29l0.17,0.43l0.42,0.42l0.67,0.41l0.47,0.03l0.27,-0.35l-0.2,-0.54l-1.14,-1.35l-0.28,-0.52l0.05,-0.62l0.38,-0.71l0.7,-1.02l1.03,-1.34l0.85,-0.9l1.5,-0.9l0.96,-0.39l2.51,-1.32l4.43,-0.93l1.25,-0.96l1.63,-1.01l0.65,-0.19l-0.11,0.5l0.08,0.49l0.83,0.5l0.56,0.23l0.29,-0.03l0.18,-0.46l0.07,-0.9l0.15,-0.83l0.23,-0.76l0.26,-0.58l0.83,-0.96l1.15,-1.05l1.52,-1.18l0.9,-0.49l0.79,-0.19l0.83,-0.48l1.5,-1.24l0.43,-0.17l0.92,-0.12l0.29,0.19l0.11,0.41l0.18,0.28l0.83,0.39l0.65,-0.21l-0.06,-0.19l-0.45,-0.21l-0.26,-0.28l-0.1,-0.95l-0.46,-0.66l0,-0.63l0.3,-0.92l0.95,-2.12l0.55,-2.27l0.7,-1.22l0.97,-0.29l2,0.07l-1.01,-0.82l-0.42,-0.09l-0.68,-0.43l0.01,-1.49l0.22,-1.04l0.73,-1.1l2.2,-1.67l2.24,-1.02l-0.24,-0.17l-0.16,-0.47l1.46,-2.65l1.37,-2.36l-1.6,1.92l-1.7,1.38l-4.4,1.09l-3.07,1.03l-1.38,0.11l-0.77,-0.59l-0.34,-1.67l-0.26,-0.63l-0.27,-1.1l0.49,-1.25l0.58,-0.82l0.88,0.03l0.86,0.64l0.82,0.21l-0.88,-1.11l-1.37,-1.1l-0.75,0.1l-0.81,1.14l-0.9,0.71l-0.56,-0.44l-0.3,-0.43l0.03,1.11l-0.83,1.5l-0.42,1.07l0.04,3.07l-0.38,1.14l-1.37,0.26l-0.8,-1.18l-1.28,-4.17l-0.5,-1.22l-1.25,-2.11l-0.6,0.12l-0.89,0.7l-0.73,0.08l-1.47,-1.68l-0.59,-1.16l-0.5,-1.35l-1.34,0.36l-1.22,0.52l-1.51,0.93l-0.81,-0.21l-2.47,0.5l-0.24,-0.04l-0.45,0.49l-0.37,0.18l-0.52,1.02l-3.21,0.08l-2.84,-1.23l1.19,-0.33l1.28,-0.17l1.29,-0.87l-0.04,-1.62l0.12,-0.79l0.26,-0.97l1.43,-1.09l-1.13,-0.28l-0.85,0.3l-0.42,-1.2l0.2,-2.1l1.08,-1l0.59,-0.83l0.63,-1.19l0.3,-1.08l-0.12,-2l-0.7,-4.35l-0.01,-3.13l-0.91,-1.9l1.64,-2.3l1.69,-2.05l1.67,-0.69l-0.07,-0.18l-0.77,-0.19l-0.54,0.01l-0.65,0.64l-0.62,0.46l-2.26,2.58l-1.34,1.19l-0.73,0.25l0.86,0.82l0.03,0.51l-0.09,1.12l-0.6,1.23l-0.45,0.65l-1.18,-0.37l-1.35,0.76l-2.83,0.46l-3.58,-0.29l-1.65,-0.54l-1.37,-1.81l0.23,-0.76l0.26,-0.64l-1.84,-2.98l-0.75,-2.67l-0.99,-0.34l-0.7,-0.86l-0.75,-1.24l0.31,-0.73l0.32,-0.49l-0.52,-0.56l-0.82,-0.2l-0.86,-0.54l3.3,-2.2l1.41,-1.72l0.76,-0.08l0.79,0.56l1,1.13l0.93,0.63l0.27,0.47l0.19,0.8l-0.73,1.04l-0.6,0.7l0.52,-0.09l1.64,-0.89l1.26,-0.83l0.43,0.24l0.24,0.28l0.22,1.28l0.34,1.34l1.76,-0.7l1.16,-1.16l-0.49,-0.78l-0.7,-0.58l-1.92,-1.04l0.61,-0.25l1.3,0.41l0.6,-0.24l-0.38,-0.67l-0.52,-0.65l-2.2,1.06l-3.2,-0.99l-1.98,-1.55l-2.28,-0.49l-0.3,-0.28l-0.29,-0.61l1.59,-0.78l1.07,-0.38l0.15,-0.36l-0.5,-0.2l-1.06,0.02l-0.28,-0.66l0.34,-0.9l-0.18,0.04l-0.53,0.39l-0.47,-0.41l-0.34,-0.55l0.37,-0.37l0.66,-0.47l-0.19,-0.15l-0.46,0l-0.65,0.67l-0.1,0.67l-0.28,0.92l-0.76,-0.04l-0.58,-0.29l-0.16,-1.06l0.14,-2.12l-1.06,-0.9l0,-1.1l1.16,-1.06l-0.14,-0.77l-0.75,-0.46l-1.13,0.37l-0.24,-0.71l0.12,-0.66l0.25,-0.92l0.29,-0.02l0.16,0.25l2.02,0.06l0.25,-0.19l-1.25,-1.22l-0.17,-0.94l0.75,-0.27l1.11,0.3l1.69,-0.02l-0.39,-1.06l0.01,-0.51l0.1,-0.82l0.65,-1.24l2.71,-2.49l2.5,-2.01l0.72,-0.43l0.89,-0.08l0.67,0.46l0.62,0.77l0.22,-0.19l-0.2,-0.3l-0.03,-1.14l1.2,-0.1l0.97,-0.99l0.14,-0.33l-0.83,0.29l-0.95,0.6l0.05,-0.86l0.35,-1.91l0.82,-1.67l0.47,-0.72l0.81,-0.58l1.79,0.19l0.26,0.24l0.16,-0.34l-0.71,-1.4l0.67,-0.75l0.5,-0.35l2.25,-0.12l1.06,0.53l1.18,1.21l0.54,1.25l-0.26,0.49l-0.29,0.25l-0.52,0.22l-0.23,0.22l0.02,0.23l0.78,-0.44l1.2,-0.47l0.47,0.47l0.28,0.71l0.49,0.12l1.68,-0.08l0.93,-0.32l1.33,-1.13l1.51,-0.56l2.53,-2.37l0.83,-1.03l0.66,-0.02l0.52,0.25l0.14,1.06l0.49,0.42l3.25,0.58l1.74,-0.03l1.36,-0.65l1.56,-1.28l0.94,-0.89l0.66,-1.3l0.01,-1.88l-0.07,-1.58l0.27,-3.53l-1,-2.62l-0.94,-0.94l-0.72,-0.08l0.86,-1.3l1.44,0.52l1.03,-0.04l0.95,-0.5l0.38,-0.46l0.64,-0.98l0.15,-1.17l-0.06,-0.67l-0.37,-0.81l-0.39,-1.16l-0.36,-0.44l-0.38,-0.07l-2.34,1.54l-1.12,-0.24l-0.73,-0.58l-1.01,0.96l-2.26,0.48l-1.33,0.73l-2.65,1.97l-0.8,0.99l-0.65,-0.12l0.12,-2.31l-1.6,-2.67l-0.84,0.53l0.18,0.75l0.36,0.6l0.75,0.42l-0.52,0.54l-0.49,0.77l-0.6,-1.01l-1.14,-1.54l-1.34,-1l-3.91,-1.02l-2.89,0.44l-0.16,-0.31l-0.22,-0.17l-0.51,0.16l-0.32,0.42l-0.37,0.22l-0.55,-0.05l-1,-0.48l-1.81,-1.33l-4.25,-2.44l-0.99,-1.02l-0.54,-1.87l0.35,-1.05l0.59,-0.31l0.43,-1.53l-0.75,-0.68l-1.1,-2.74l-0.36,-1.14l0.17,-0.06l0.24,0.35l0.55,0.38l1.58,0.16l0.95,-1.26l1.23,-0.06l0.96,0.51l-0.11,-0.46l-0.17,-0.38l-2.42,-1.54l-0.43,0.11l-4.31,-2.78l-2.98,-3.43l-0.16,-0.53l-0.02,-1.06l0.81,-0.78l0.65,-0.28l-0.15,0.53l-0.09,0.53l2.5,-0.5l1.6,-1.2l2.17,0.39l0.62,-0.28l0.91,-0.63l1.37,-1.14l1.54,-0.35l1.1,-0.4l1.28,-0.04l0.78,0.97l0.28,0.18l1.75,0.68l0.68,-0.11l0.32,-0.14l0.29,-0.29l-1.39,-1.74l0.38,-0.62l0.37,-0.41l2.47,-0.8l1.71,0l0.83,0.28l2.97,-1.12l1.48,-0.14l2.61,0.36l2.09,0.49l0.38,0.81l-1.07,-0.45l-0.52,-0.02l0.29,0.32l0.26,0.59l-0.28,0.57l-1.18,1.6l-0.34,1.45l-0.58,0.34l-0.62,0.53l1.57,2.65l3.29,1.04l1.91,0.11l0.88,0.9l0.82,0.37l2.46,0.3l1.67,0.9l0.79,0.02l2.43,-2.68l0.77,-0.33l0.57,0.71l0.81,0.67l0.66,-0.17l0.28,0.92l0.19,-1.72l-0.17,-0.71l-2.4,-1.82l-1.94,0.12l-0.4,-0.79l0.51,-1.23l-1.09,-3.65l-0.63,-0.85l-0.93,-0.27l-0.19,-1.22l-0.02,-1.52l0.95,-0.37l0.79,-0.07l0.55,0.63l0.28,2.05l0.64,0.46l-0.68,1.79l0.45,1.93l1.61,2.09l1.76,-0.18l1.13,0.3l0.6,0.5l1.32,1.83l0.81,0.38l2.83,-0.11l0.36,-1.39l0.02,-1.07l-0.47,-0.78l-1.81,-0.31l-1.13,-1.38l-1.25,0l-2.58,1.06l-0.94,-0.9l-0.47,-1.03l-0.88,-1.15l0.28,-1.68l1.4,-1.65l0.91,-0.73l-0.44,-0.81l-1.41,-0.85l-2.77,-0.21l0.04,-0.67l0.19,-0.69l-1.43,1.07l-1.03,-0.58l-1.53,-0.25l-2.95,-2.08l-0.76,-1.79l-0.15,-1.33l0.04,-3.52l-0.53,-2.36l-5.56,-9.18l-2.89,-2.78l-1.04,-2.45l-0.87,-0.79l-0.91,-0.5l-1.05,-1.02l1.08,-0.51l0.66,-0.08l-0.85,0.62l0.39,0.35l0.87,-0.24l0.56,-0.44l1.3,-2.19l1.69,-3.41l0.28,-1.47l3.98,1.52l2.78,0.56l0.99,-0.06l3.58,0.43l1,-0.15l1.99,-0.76l2.53,-1.64l2.43,-2.41l0.47,-0.7l0.05,0.23l0.18,-0.08l0.47,-1.04l0.91,-2.51l1.46,-2.21l4.89,-4.65l2.15,-1.8l0.78,-0.87l0.73,-0.6l0.21,0.8l0.13,0.25l0.02,0.36l-0.36,0.07l-0.71,0.58l-0.86,0.29l-0.24,0.2l0.45,0.06l1.43,-0.19l0.89,-0.45l3.91,-0.27l2.43,-1.46l0.18,-0.41l3.48,-1.74l0.38,0.19l0.39,0.4l-1.18,1.42l0.47,0.55l-0.95,1.8l1.05,0.28l0.03,0.94l0.23,-0.75l0.24,-1.09l0.33,-1.05l0.33,-0.7l0.66,0.5l1.85,-0.42l-2,-0.56l-0.8,-2.02l-0.67,-0.17l2.83,-2.04l2.39,-1.09l0.45,0.13l0.16,0.34l-0.06,0.48l-0.51,0.21l-0.56,0.45l0.09,0.53l0.28,0.14l1.07,-0.18l0.55,-0.4l2.08,0.5l0.69,-0.22l0.23,-0.32l2.72,0.5l0.55,-0.15l1.98,-1.03l1.9,-1.36l0.9,-0.77l1.69,-2.1l1.35,-1.32l2.02,-1.19l0.38,0.27l-0.62,0.2l-0.51,0.57l0.37,0.96l3.31,2.46l0.9,0.27l0.17,1.13l-0.49,0.96l-1.15,0.96l-2.13,0.8l0.5,0.55l0.19,1.1l0.54,0.23l0.99,-0.22l0.84,-0.5l1.86,-1.8l0.67,-1.07l0.4,-0.23l1.19,0.5l0.6,0.72l0.62,1.19l-0.47,0.96l-0.43,0.52l0.91,0.97l1.13,0.36l1,0.82l1.77,-1.05l1.26,-0.08l1.14,0.23l1.6,-0.48l2.37,1.36l0.68,-0.16l0.99,0.32l0.99,0.74l0.29,0.68l-1.35,1.15l-0.39,1.34l0.32,0.63l0.72,0.21l-0.02,0.81l0.43,0.26l2.31,0.27l-0.23,0.35l-0.18,0.44l-0.86,0.91l4.04,1.14l0.63,-0.49l0.88,-0.11l1.91,-0.54l0.64,0.42l0.7,0.89l0.72,0.26l0.71,-0.08l1.75,-0.94l1.87,0.16l0.72,0.46l0.83,-0.07l2.3,1.56l0.88,0.25l1.03,1.81l0.62,0.11l0.78,-0.64l0.61,0.08l0.53,0.74l0.96,0.31l0.35,1.12l0.46,0.44l3.65,1.14l1.88,-0.21l2.68,0.31l1.26,0.61l1.37,0.04l2.1,2.03l1.17,0.37l0.2,0.45l3.35,0.67l1.24,-0.9l2.08,-0.14l1.9,-0.72l1.05,0.06l1.21,0.26l0.47,-0.08l0.35,-0.34l2.92,1.54l1.61,1.68l0.69,1.21l3.47,1.81l1,0.98l0.67,1.06l0.41,0.12l0.3,-0.3l1.24,0.12L456.18,521.82zM293.12,552.84l-0.27,0.01l0.09,-0.23l0.91,-0.41l1.55,-0.38l-0.1,0.16l-0.89,0.39L293.12,552.84zM245.5,580.41l-0.03,0.4l0.71,0.2l0.91,0.51l0.94,0.74l1.1,0.26l1.73,-0.63l0.9,0l0.86,0.13l0.77,0.58l0.64,0.89l0.2,0.46l0.05,0.7l-0.09,0.8l0.07,0.62l1.36,1.21l0.93,0.62l0.12,0.44l0.05,0.57l0.72,0.67l0.93,0.17l0.45,0.3l1.5,0.53l1.69,1.18l-0.79,1.34l-0.82,0.43l-1.65,-0.79l-1.78,-0.38l-0.97,0.49l-0.92,0.73l-0.4,0.88l-0.49,0.3l-0.42,0.06l-0.12,-0.6l0.15,-1.67l-0.13,-0.52l-0.21,-0.37l-0.67,-0.78l-0.74,-0.61l-0.48,-0.21l-0.17,-0.66l0.08,-0.84l-0.2,-0.52l-0.47,-0.8l-0.52,-0.69l-1.78,-1.73l-0.65,-0.38l-0.75,-0.16l-0.92,0.16l-0.98,0.38l-0.93,0.21l-0.82,-0.18l-0.64,-0.56l-0.46,-0.9l-0.18,-0.58l0.1,-0.84l0.3,-0.77l0.38,-0.71l1.05,-1.67l0.79,-0.11L245.5,580.41zM401.55,660.75l-0.96,0.03l-0.41,-0.24l-0.04,-0.22l0.26,-0.75l0.02,-0.33l0.49,-0.08l0.51,0.42l0.12,0.39L401.55,660.75zM219.3,623.28l1.16,1.52l1.01,0.28l0.48,1.08l0.08,0.76l-1,-0.9l-1.7,-0.62l-1.53,-2.79l-0.64,-0.75l0.6,-1l1.08,-0.21l-0.11,1.62L219.3,623.28zM370.14,664.16l-0.37,0l0.59,-0.68l0.54,-1.41l0.42,0.27l0.05,0.28l-0.96,1.39L370.14,664.16zM403.05,666.67l-0.04,0.4l-0.27,0.36l0.16,0.73l-0.51,1.17l-0.22,0.76l-0.26,0.46l-0.23,0.17l-0.2,-0.13l-0.02,-0.27l0.16,-0.41l-0.5,-0.03l-0.05,-1.07l0.31,-0.31l0.14,-0.44l0.06,-0.3l0.45,-1.32l0.13,-0.08l0.01,0.32l0.1,0.1l0.19,-0.11l0.31,-0.58l0.11,-0.06L403.05,666.67zM412.56,667.51l0.13,0.43l1.45,0.01l0.41,0.11l0.15,0.21l-0.22,0.27l-0.59,0.33l-1.69,0.53l-1.4,0.75l-0.17,-0.09l-0.17,-0.96l-0.21,-0.4l-0.11,-0.54l0.02,-0.2l0.27,-0.35l0.53,-0.5l0.36,-0.17L412.56,667.51zM422.05,669.92l-0.27,0.36l-0.65,-0.17l-0.34,-0.26l1.24,-0.9l0.18,0.21L422.05,669.92zM266.1,640.66l0.44,0.93l0.34,0.15l1.18,0.12l0.36,0.28l0.3,0.43l0.1,0.55l-0.21,0.85l-0.41,0.69l-0.26,1.07l-0.18,0.44l0.42,0.78l-0.06,0.87l-0.16,0.9l-1.39,-0.1l-1.31,-0.35l-1.3,0.25l-0.36,0.36l-0.02,0.7l-0.36,0.07l-0.24,-0.23l-0.36,-0.76l-0.51,-0.47l-1.94,-1.08l-2.06,-2.55l-1,-0.71l-0.73,-1.63l-0.51,-1.94l0.75,-0.05l0.71,0.08l2.93,1.19l0.74,-1.04l0.48,-0.17l1.06,-0.03l1.09,-0.37l0.39,0.14l0.33,0.37l0.96,-0.13l0.47,0.05L266.1,640.66zM401.55,676.29l-0.86,0.14l-0.16,-0.47l0.55,-1.07l0.41,-0.6l0.28,-0.13l1.08,-1.17l1.15,-0.82l1.1,-1.25l1.16,-1.83l0.25,-0.7l0.47,-0.03l0.71,0.54l0.41,0.7l-0.26,0.51l-2.75,2.5l-0.24,0.34l-0.31,0.9l-0.24,0.3l-0.35,0.12l-0.28,0.38l-0.21,0.65l-0.34,0.32l-0.47,-0.02l-0.34,0.15l-0.21,0.32L401.55,676.29zM399.74,672.26l-0.44,0.43l-1.47,-0.43l0.4,-0.88l1.2,-0.46l1.16,1.02L399.74,672.26zM425.76,678.07l-0.37,0.07l0.61,-0.96l0.8,-1.06l0.73,-0.65l0.92,-0.24l-0.13,0.5l-1.23,0.86L425.76,678.07zM297.65,677.72l-0.62,0.1l-0.57,-0.26l-0.11,-1.56l0.37,0.04l0.98,-0.77l1.84,-0.37l0.43,0.01L297.65,677.72zM362.51,691.8l-0.24,0.06l-0.5,-0.54l-0.3,-0.54l0.3,-0.33l1.22,-0.61l0.53,0.06l0.2,0.16l0.05,0.25l-0.09,0.35l-0.3,0.41L362.51,691.8zM362.77,693.73l0.27,0.16l0.42,-0.84l0.21,0l0.82,0.88l0.59,-0.08l0.23,0.97l0.32,0.13l0.32,-0.07l0.17,0.09l-0.2,0.96l-0.82,0.89l-0.35,0.2l-0.41,-0.32l-0.15,-0.12l-0.23,-0.48l-0.14,-0.58l-0.13,-0.03l-0.61,0.57l-0.03,0.32l0.15,0.51l-0.08,0.29l-0.58,0.06l-0.54,-0.16l-0.74,0.32l-0.12,-0.29l0.01,-0.75l-0.22,0.05l-0.45,0.85l-0.43,0.52l-0.71,0.38l-0.17,0.21l-0.47,-0.04l-0.73,0.19l-0.42,-0.11l-2.39,-1.37l-0.54,-0.45l2.43,-1.92l1.23,-0.7l0.62,0.14l0.59,0.37l0.34,0.01l0.18,-0.99l-0.48,-0.83l0.07,-0.31l1.38,-0.31l0.47,0.14l0.5,0.34l0.45,0.5L362.77,693.73zM502.66,703.44l2.03,0.24l1.47,-0.16l1.47,2.16l0.94,1.76l0.56,1.24l0.35,1.2l0.44,1.16l-0.02,0.17l-0.83,-0.75l-0.66,-1.58l-0.32,-0.61l-0.3,-0.27l-0.33,-0.58l-0.66,-1.51l-0.05,-0.43l-0.28,-0.39l-0.31,-0.15l-0.33,0.09l-0.11,0.16l0.11,1.06l0.33,1.17l1.61,2.5l1.06,1.41l0.22,0.47l0.21,1.33l-0.39,0.63l0.59,1.2l0,0.24l-0.1,0.24l-1.38,0.63l-1.17,2.35l-1.35,1.41l-0.64,0.25l-0.33,-0.21l-0.32,-0.5l-0.21,-0.68l-0.1,-0.85l0.33,-0.56l0.56,-2.84l-0.03,-0.92l-0.93,-1.24l-0.57,-1.02l-0.35,-1.45l-0.66,-3.85l-0.28,-1.23l-0.36,-1.02l-0.43,-0.81l-0.34,-0.9l-0.25,-0.98l0.06,-0.39l0.71,0.49l0.89,1.39L502.66,703.44zM505.52,702.28l-0.04,0.38l-1.08,0.02l-1.12,-0.49l-0.57,-0.69l0.09,-0.33l1,-0.35l0.99,0.63L505.52,702.28zM494.29,702.56l1.19,1.42l0.02,0.34l-0.19,1.01l-0.61,0.31l0.19,0.39l0.47,0.28l0.32,-0.26l1.14,-1.46l0.36,-0.31l0.22,-0.04l1.48,0.36l1.31,0.61l0.4,0.52l0.26,0.93l-0.25,2.04l-1.04,0.4l-0.5,-0.01l-0.54,-0.27l-0.83,0.74l0.73,0.51l2.17,0.03l0.71,1.11l0.23,0.87l-0.39,1.63l-1.25,-0.39l-1.13,-0.89l-2.28,-1.23l-0.53,-0.04l-0.35,0.25l-0.07,0.81l0.09,1.74l-0.56,0.92l-1.78,-0.33l-0.74,-1.29l-0.71,-2.07l-2.49,-2.39l-0.67,-0.48l-0.91,-1.46l0.31,-1.19l0.08,-0.68l0.45,-0.19l0.66,-0.54l0.34,-1.15l0.63,0.9l0.84,0.86l-0.02,-0.83l0.36,-0.68l0.79,0l0.37,-0.15l0.5,-0.64l0.74,-0.35L494.29,702.56zM357.81,701.13l-0.07,0.82l0.34,-0.05l1.34,-0.65l0.67,-0.15l0.83,0.08l0.6,0.48l0.09,0.31l-0.11,0.34l-0.63,0.63l-0.05,0.46l0.44,0.93l1.32,0.66l0.13,0.28l-0.05,0.3l-1.16,1.26l-0.4,0.28l-0.26,0.04l-1.7,-0.51l-1.52,-0.7l-0.63,-0.18l-0.25,0.11l-0.52,0.36l0.3,0.18l1.38,0.32l0.4,0.7l0.15,0.49l0.03,0.52l-0.31,0.17l-0.62,0.06l-0.72,-0.11l-0.98,0.44l-0.59,0.58l-1.81,-0.11l-1.49,0.66l-0.55,0.35l-0.25,0.49l-0.57,0.29l-1.22,0.19l0.64,0.45l0.06,0.3l-0.05,0.39l-0.15,0.32l-1.16,1.36l-1.94,0.95l-0.43,-0.13l-0.16,-0.18l-0.12,-0.26l0.03,-0.24l2.64,-2.11l-0.07,-0.14l-0.59,-0.18l-0.85,-0.84l-0.75,0.33l-0.15,-0.04l0.28,-0.55l0.56,-0.62l-0.04,-0.21l-0.21,-0.21l-0.54,-0.2l-0.87,-0.18l-0.67,0.06l-0.48,0.29l-0.06,0.15l0.9,0.11l0.21,0.23l0.18,0.39l0.08,0.42l-0.02,0.46l-0.29,0.58l-0.55,0.69l-0.6,-0.24l-0.99,-1.91l-0.14,-2.58l-0.76,-2.09l0.03,-0.46l0.51,-1.12l1.38,-1.48l1.25,-0.26l0.95,-0.56l0.84,-0.08l0.5,0.1l0.63,0.42l0.17,0.69l-0.21,0.27l0.04,0.17l0.42,0.46l0.3,1.43l0.41,1.29l0.33,0.55l0.48,0.38l-0.4,-1l-0.14,-1.18l0.2,-2.27l-0.06,-0.62l0.33,-0.11l0.85,0.23l0.03,-0.34l-0.79,-0.91l-0.46,-0.72l-0.13,-0.53l0.08,-0.43l0.6,-0.55l0.31,-0.13l0.3,-0.03l0.56,0.23l0.23,0.24l0.51,1.55l0.28,0.5l0.29,0.05l0.31,-0.19l0.32,-0.44l0.3,-0.25l0.28,-0.05l0.79,0.34l0.29,-0.03l0.19,-0.34l0.09,-0.64l0.24,-0.2l0.12,-0.46l-0.34,-0.77l0.55,-0.13l1.63,0.79l0.64,0.69L357.81,701.13zM355.16,700.32l-0.28,0.38l-0.19,-0.14l-0.36,-0.55l-0.79,-0.84l-0.33,-0.55l0.01,-0.21l0.34,-0.18l0.97,0.73l0.37,0.59L355.16,700.32zM500.93,715.66l0.76,1.6l0.56,1.24l0.52,1.5l0.9,3.11l0.41,1.17l0.14,0.65l0.17,1.7l-0.09,0.37l-0.21,0.35l-0.02,0.49l0.27,1.29l0.11,1.97l-0.14,1.12l-0.22,0.18l-0.58,-0.34l-0.49,-0.58l-0.37,-0.61l-0.93,-1.94l-0.29,-0.91l-0.05,-0.66l0.11,-0.49l0.26,-0.31l0.44,-0.82l-0.07,-0.13l-0.35,0.2l-0.73,0.14l-0.68,-0.61l-0.52,-0.31l0.05,-1.15l-0.15,-0.32l-0.98,0.4l-0.39,-0.3l-0.1,-0.43l-0.01,-0.64l0.17,-0.57l0.88,-1.46l-0.11,-0.26l-0.46,-0.04l-0.62,-0.46l-0.34,-1.58l-0.68,-0.88l-0.38,0.1l-0.76,2.6l-0.41,0.58l-1.21,0.41l0.22,-0.72l0.09,-0.64l-0.5,-1.92l-0.04,-0.75l0.27,-0.56l0.85,-0.26l0.44,-0.34l0.33,-0.55l0.07,-0.52l0.61,-1.4l0.3,-0.28l0.82,-0.02l1.8,1.44l0.54,0.2L500.93,715.66zM221.06,676.61l-1.02,0.38l-0.63,-0.5l-0.04,-0.56l0.07,-0.21l2.25,0.19L221.06,676.61zM355.36,711.31l-1.09,0.32l-0.18,-0.05l-0.78,0.86l-0.55,0.34l-0.52,-0.86l0.35,-1.15l0.68,-0.7l2.76,0.69l0.18,0.25l-0.02,0.19l-0.23,0.12L355.36,711.31zM514.17,720.12l0.57,0.43l0.26,-0.51l0.55,-0.01l1.04,0.37l0.65,0.61l0.39,0.72l0.06,0.44l-0.03,1.01l0.15,1.03l-0.01,0.54l-0.11,0.45l-0.21,0.37l-0.25,0.06l-0.86,-0.87l-1.02,-1.61l-0.72,-0.46l-0.02,0.17l0.22,0.47l0.62,0.86l0.14,0.53l0.44,0.63l0.21,0.49l0.15,0.65l0.03,0.57l-0.08,0.5l-0.16,0.33l-0.25,0.16l-1.4,-0.05l-0.81,0.38l-0.98,-0.12l-0.25,-0.28l-0.18,-0.48l-0.15,-1.17l-0.35,-1.67l-0.02,-1.3l-0.69,-1.14l-0.58,-0.68l-0.8,-0.59l-0.54,-0.6l0.11,-0.51l0.76,-0.42l1.29,0.01L514.17,720.12zM509.25,722.78l0.59,1l0.76,-0.13l0.48,0.75l0.39,1.14l-0.19,0.76l-0.35,-0.15l-0.35,0.45l-0.15,1.45l0.19,1.43l-0.03,1.43l-0.36,1.48l-0.04,0.98l-0.16,0.3l-0.19,0.11l-0.26,-0.25l-0.37,-0.19l-0.41,0.85l-0.55,0.04l-0.56,-1.84l0.24,-3.13l0.88,-0.68l-0.59,-0.82l-1.2,-0.92l0.07,-0.56l-0.95,-1.54l-0.07,-0.38l0.07,-1.33l0.74,-1.22l1.05,-0.27l0.77,0.46l0.44,0.41L509.25,722.78zM519.69,726.87l-0.07,0.22l-1.04,0.05l-0.39,-0.15l-0.18,-0.62l0.06,-0.59l0.21,-0.47l0.23,-0.89l0.13,-1.47l1.64,1.52l0.52,0.69l0.32,0.87l-0.52,0.37l-0.64,0.21L519.69,726.87zM221.45,685.41l0.92,0.63l0.63,0.02l0.45,0.32l-0.03,0.36l-1.12,0.42l-0.34,-0.17l-0.73,-1.23L221.45,685.41zM344.25,718.72l-0.4,-0.03l-0.54,-0.49l0.16,-0.45l0.95,-0.42l0.84,0.23l0.01,0.32l-0.1,0.34l-0.1,0.19l-0.31,0.17L344.25,718.72zM340.22,719.23l-0.61,0.25l-0.16,-0.15l0.02,-0.29l0.21,-0.43l0.33,-0.41l1,-0.72l0.96,-0.43l0.43,0.11l0.09,0.39l-0.66,0.67L340.22,719.23zM525.36,732.63l0.02,2.46l-0.34,-0.11l-0.31,0.02l-0.61,0.4l-0.68,-0.1l-0.33,-0.25l-0.14,-0.31l0.07,-0.74l-0.4,-0.38l-1.26,-0.06l-0.48,-0.14l-0.31,-0.75l-0.13,-1l0.17,-0.39l0.61,-0.31l0.4,-1.26l0.26,-0.18l0.85,-2.5l0.53,0.13l1.02,1.4l1.3,2.04L525.36,732.63zM519.71,731l-0.42,0.08l-0.51,-0.19l-1.26,-1.12l-0.05,-0.35l0.14,-0.41l0.62,-0.78l0.26,-0.2l1.61,-0.03l0.53,0.16l0.14,0.33l0,0.35l-0.14,0.37l-0.01,0.37l0.12,0.38l-0.16,0.4L519.71,731zM513.16,730.07l1.58,0.22l1.43,-0.12l0.53,0.58l0.37,0.62l0.23,0.59l0.09,0.56l-0.01,0.4l-0.15,0.44l0.05,0.14l2.9,1.21l1.43,1.38l0.59,0.74l0.35,0.63l0.68,1.59l1.32,1.81l0.66,0.53l0.39,0.54l-0.2,0.04l-0.86,-0.35l-1.89,-1.14l-0.14,0.06l-0.11,0.7l-0.23,0.62l-0.38,0.46l0.34,0.1l1.43,-0.38l1.31,1.15l0.49,0.19l0.53,0.85l0.04,0.34l-0.22,0.68l-0.18,0.28l0.08,0.18l0.35,0.07l1.33,-0.29l0.27,0.3l0,2.58l0.27,0.93l0.03,0.43l-0.11,0.58l0.03,0.48l0.16,0.48l0.05,0.44l-0.25,1.17l-0.35,0.22l-0.59,0.05l-0.49,-0.29l-0.73,-0.94l-0.75,-1.49l-0.26,-0.2l-0.85,-0.17l-0.16,-0.17l-0.53,0.01l-0.42,-0.6l-0.02,-0.83l-0.38,-0.82l0.01,-0.38l-0.37,-0.13l-0.29,0.26l0.22,0.82l-0.13,0.66l-0.68,-0.22l-1.24,-1.98l-1.35,-1.57l-0.51,-0.36l0.1,-0.49l0.59,-0.3l0.5,-0.01l0.08,-0.29l-1.14,-1.53l0,-0.46l0.32,-0.83l-0.49,-0.31l-1.27,0.34l-0.46,-0.14l-0.41,-0.62l-0.25,-0.55l-1.12,-0.03l-0.42,0.1l-0.78,-0.8l-0.36,-0.52l0.11,-0.28l0.64,-0.52l0.39,0.04l0.78,0.47l0.29,-0.04l0.7,-0.73l0.07,-0.62l0.52,-0.54l-0.12,-0.53l-0.37,-0.89l-0.69,-0.21l-1.35,0.63l-1.15,0.91l-0.5,-0.3l-0.14,-0.51l1.21,-1.47l0.52,-0.8l-0.14,-0.45l-0.45,-0.56l-0.13,-1.47L513.16,730.07zM535.53,740.97l-0.15,1.64l-0.43,1.7l-0.8,0.96l-0.64,-0.14l-0.52,-0.67l-0.42,0.08l-0.46,-0.11l-0.3,-0.57l0.17,-0.79l-0.26,-0.58l-0.18,0.54l-0.36,0.51l-0.95,0.7l-0.59,1.24l-0.26,0.8l-0.47,-0.81l-0.42,-1.97l-0.1,-0.84l0.62,-1.33l0.83,-1.29l-0.11,-3.64l2.79,-2.07l0.28,0.07l1.08,1.27l1.19,1.81l0.34,0.83l0.14,1.49L535.53,740.97zM331.44,726.91l-0.4,0.4l-0.61,-0.15l-0.32,-0.21l-0.04,-0.42l1.18,-1.04l0.25,-0.12l0.16,0.08l-0.02,0.51L331.44,726.91zM516.06,741.67l0.21,0.4l0.03,0.26l-1.15,1.05l-0.01,0.2l-0.25,0.62l-0.24,0.24l-0.41,0.68l-0.82,0.76l0,-2.13l-0.93,-1.18l0.82,-0.67l0.57,0.14l0.94,0.01l0.88,-0.6L516.06,741.67zM288.05,725.36l0.12,0.04l0.28,-0.05l0.72,-0.68l0.18,0l-0.06,0.25l-0.44,0.74l0.17,1.17l0.27,0.61l-0.08,0.17l-1.08,0.13l-0.7,-0.45l-0.42,0l-0.45,0.28l-0.15,-0.47l0.31,-2.01l0.14,-0.33l0.58,-0.58l0.61,-0.18l0.21,0.15l0.13,0.32l-0.02,0.3L288.05,725.36zM291.03,725.72l-0.38,1.1l-0.95,-0.99l-0.21,-0.43l0.26,-0.22l1.08,0.19L291.03,725.72zM520.42,750.96l0.22,0.18l0.2,-0.15l0.31,-0.55l0.61,0.06l0.45,0.14l0.28,0.2l-0.09,0.77l-0.02,1.24l-0.22,0.46l-0.2,0.63l-0.89,-0.3l-0.75,-0.74l-1.1,-1.28l-0.63,-0.94l-0.07,-0.41l-0.38,-0.28l-0.8,-1.64l-0.48,-1.3l-0.63,-0.11l-0.81,-0.32l-0.35,-0.71l0.17,-0.65l1.09,-0.39l1.78,1.54l0.3,0.68l0.66,0.78l0.19,1.13l0.34,0.43L520.42,750.96zM294.07,729.59l-0.57,0.2l-0.25,0.36l-0.42,0.08l-0.4,0.25L291,731.7l-0.54,0.16l0.82,-1.13l0.18,-0.38l0.07,-0.26l0.06,-0.99l0.3,0.12l0.31,-0.14l0.72,-0.72l0.49,0.03l0.73,-0.88l0.29,-0.02l0.1,0.17l-0.36,0.55l0.35,0.67l-0.25,0.51L294.07,729.59zM533.04,747.24l1.03,1.83l0.1,0.67l-0.8,0.31l-0.65,-0.04l-0.35,-0.19l-0.11,-0.3l0.13,-0.98L531.9,748l-0.51,-0.15l-0.41,0.37l-0.1,-0.95l0.27,-0.71l-0.26,-0.92l-0.06,-0.7l0.09,-0.23l0.44,-0.02l0.97,0.65L533.04,747.24zM297.08,729.94l-0.3,1.13l-0.16,0.15l-0.15,-0.36l-0.54,0.23l-0.2,-0.31l0.2,-0.37l0.04,-0.32l0.35,0.05l0.21,-0.55l0,-0.25l0.29,-0.47l0.27,-0.06L297.08,729.94zM297.76,732.8l-0.28,0.01l-0.19,-0.21l-0.12,-0.88l0.05,-0.35l0.53,0.39l0.09,0.64L297.76,732.8zM264.05,724.25l0.15,2.56l0.22,0.55l0.44,0.39l0.65,0.45l0.33,0.46l0.23,0.63l-0.02,0.25l-2,-1.55l-1.79,0.99l-0.48,0.06l-4.04,-1.05l-0.87,0.03l-0.65,0.3l-1.27,0.99l-0.6,0.35l-0.58,0.15l-1.14,0.02l-1.24,-0.41l-0.61,-0.35l-0.18,-0.7l0.03,-1.26l0.1,-0.33l0.29,-0.52l1.34,-0.45l0.49,-0.3l2.2,-2.25l0.52,-0.25l0.47,0.04l1.17,0.53l1.27,-0.48l2.59,-0.56l0.53,0l1.63,0.42l0.39,0.31l0.25,0.43L264.05,724.25zM273.17,728.72l-0.21,0.02l-0.45,-0.58l-0.12,-0.38l-0.02,-0.54l1.34,-0.43l0.24,0.05l0.11,0.46l-0.05,0.33l-0.56,0.84L273.17,728.72zM269.41,734.49l-0.8,0.12l-0.67,-0.52l-0.49,-0.77l0.12,-0.73l1.32,0.84l0.25,0.3L269.41,734.49zM243.56,731.26l-0.39,0l-0.04,-0.17l0.14,-0.63l0.02,-1.06l0.63,-0.2l0.35,0.01l0.09,0.19l0.16,0.84l0.32,0.31l0.23,0.24l-0.56,0.08L243.56,731.26zM240.98,731.49l-0.39,0.15l-0.27,-0.02l-0.15,-0.2l-0.9,-0.09l-0.14,-0.15l-0.13,-0.95l0.11,-0.44l0.25,-0.29l0.48,-0.19l0.7,-0.09l0.59,0.24l0.82,1.09l0.36,0.6l0.01,0.31l-0.45,0.15L240.98,731.49zM233.88,731.91l0.15,0.77l0.75,-0.23l0.63,-0.44l0.58,-0.63l0.32,-0.22l0.18,0.49l0.7,0.8l-0.98,0.6l-1.78,0.8l-0.73,0.68l-0.14,0.35l1.44,0.15l0.37,0.16l0.16,0.36l-0.48,0.22l-0.83,0.07l-0.83,0.39l-1.81,0.55l-0.83,0.67l-0.77,0.11l-0.93,-0.21l-1.77,0.04l-1.14,0.21l-0.33,0.2l-0.35,0.03l-0.36,-0.13l-0.47,0.1l-0.57,0.33l-0.42,0.1l-0.59,-0.14l-0.36,0.09l-0.34,-0.12l-0.74,-0.86l-0.13,-0.4l1.03,-0.39l0.66,-0.03l0.93,0.19l1.08,-0.32l2.07,-0.22l0.7,-0.26l0.85,-1.41l0.5,-0.13l0.41,-0.54l1,0.33l0.25,0.83l0.13,0.14l0.1,-0.04l0.22,-0.53l0.64,-0.22l-0.21,-0.37l-0.82,-0.65l-0.63,-0.38l-0.45,-0.12l-0.3,-0.31l-0.15,-0.51l0,-0.45l0.15,-0.4l0.37,-0.39l0.59,-0.37l0.58,-0.13l1.13,0.13l1.05,-0.04l0.52,0.1l0.33,0.26L233.88,731.91zM236.46,735.42l-0.13,0l-0.11,-0.41l0.09,-0.32l0.21,-0.19l0.55,-0.42l0.33,-0.11l0.37,0.01l0.05,0.17l-0.49,0.54l-0.5,0.31L236.46,735.42zM220.27,736.07l-3.03,0.64l-1.18,0.81l-0.98,0.83l-0.69,0.4l-0.39,-0.02l-0.5,0.14l-1.08,0.44l-0.38,-0.03l-3.28,0.77l-0.2,-0.04l0.28,-0.4l1.04,-0.34l0.73,-0.39l0.93,-0.74l0.45,-0.23l0.27,-0.44l0.37,-0.94l0.27,-0.31l0.82,-0.53l0.55,-0.25l0.6,0.05l1.08,0.5l0.59,-0.21l0.24,-0.23l-0.2,-0.35l0.08,-0.46l0.33,-0.74l0.55,-0.57l0.77,-0.4l0.93,-0.2l1.1,0l0.73,0.22l1.07,1.12l0.09,0.38l-0.55,0.59l-0.4,0.59L220.27,736.07zM203.62,738.08l-0.33,0.51l-0.19,0.16l-1.18,-0.74l-0.89,-0.2l0.02,-0.36l0.18,-0.26l1.5,0.03l0.55,0.19l0.28,0.36L203.62,738.08zM193.68,738.64l-0.69,0.24l-0.1,-0.22l0.1,-0.57l0.45,-0.31l1.23,-0.58l0.55,0.39l0.11,0.31l-0.14,0.34l-0.39,0.37l-0.37,0.12l-0.36,-0.13L193.68,738.64zM158.15,733.39l-4.65,-1.29l-0.51,-0.66l0.76,0.07l0.84,0.21l1.92,0.06l2.27,0.3l1.86,0l1.56,0.13l0.68,-0.55l-1.07,-0.86l-0.12,-0.38l0.71,-0.1l0.68,-0.29l1.36,-0.11l0.73,1.12l0.03,0.57l-0.32,0.53l-0.44,0.51l-1.02,-0.06l-0.26,0.25l0.13,1.07l-2.15,0.02L158.15,733.39zM177.73,737.48l-0.69,-0.04l-0.59,-0.46l0.59,-0.59l0.47,-0.26l0.78,-0.23l0.64,0.48l0.35,0.81L177.73,737.48zM167.99,735.79l1.41,1.19l2.05,0.73l0.69,0.42l-0.05,0.16l-1.38,-0.28l-0.41,-0.25l-1.25,-0.14l-0.79,-0.25l-1.64,-0.98l-1.43,-0.35l-0.33,-0.22l-0.33,-0.42l-0.32,-0.62l0.08,-0.28l0.49,0.07l1.05,0.84l0.2,-0.14l1.15,0.06L167.99,735.79zM146.91,729.17l-0.36,0.31l-0.62,-0.76l-0.14,-0.46l0.09,-0.37l0.48,-0.47l0.64,0.27l0.28,0.4l0.17,0.59l-0.01,0.32L146.91,729.17zM141.44,728.94l-0.15,0.46l0.97,0.35l0.2,0.36l-0.38,0.87l-0.23,0.19l-0.17,0l-0.26,-0.34l-0.58,0.28l-2.23,0.32l-0.28,-0.85l-1.45,0.5l1.81,-2.15l0.99,-0.01l0.43,-0.15l0.25,-0.76l0.91,-1.04l0.81,0.42l0.17,0.67l-0.16,0.32L141.44,728.94zM136.01,728.92l-0.31,0.07l-0.49,-0.06l-1.18,-0.71l-0.78,-0.29l-0.89,-0.29l-0.74,-0.05l0.02,-0.38l0.14,-0.25l3.05,0.5l0.8,-0.1l0.6,-0.31l0.76,-0.74l0.41,-0.14l0.17,0.09l0.23,0.53l-0.34,0.41l-0.52,0.25l-0.28,0.33L136.01,728.92zM129.62,727.12l-0.38,0.36l-0.19,-0.1l-0.76,-1.22l-0.05,-0.32l0.8,-0.05l0.31,-0.18l0.08,-0.38l-0.26,-0.7l-0.6,-1.02l-0.13,-0.6l0.34,-0.18l0.5,0.02l1.34,0.57l0.37,1.09l0.42,0.51l1.19,0.75l-0.8,0.03l-0.51,0.15l-1.01,1L129.62,727.12zM145.93,731.74l-0.82,-0.01l-0.66,-0.98l0.38,-0.65l0.76,1L145.93,731.74zM143.52,731.03l-0.85,0.55l-0.23,-0.52l0.32,-1.13l0.41,-0.15l0.47,1.12L143.52,731.03z" fill="#000000"/></svg>
