<svg xmlns="http://www.w3.org/2000/svg" viewBox="905.00 368.09 75.69 117.65"><path d="M955.38,371.42l0.81,2.77l0.81,2.77l0.81,2.77l0.81,2.77l0.81,2.77l0.81,2.77l0.82,2.77l0.82,2.77l0.82,2.77l0.82,2.77l0.82,2.77l0.83,2.77l0.83,2.77l0.83,2.77l0.83,2.77l0.83,2.77l0.62,1.23l0.62,2.04l3.4,5.85l1.09,2.5l-0.1,1.1l0.44,0.87l0.98,0.64l-0.05,0.89l-1.07,1.14l-0.64,1.31l-0.31,2.21l0,0.01l-0.68,3.91l0.26,2.31l1.47,3.01l0,0l0.4,1.36l0.02,6.24l0.96,3.9l1.46,2.44l-6.18,0.75l-6.2,0.72l-6.2,0.7l-6.21,0.68l-6.21,0.66l-6.21,0.63l-6.21,0.61l-6.21,0.59l-0.12,1.62l0.27,1.52l0.81,1.39l3.05,2.51l0.32,0.65l-0.29,2.18l0.23,1.51l-0.22,0.82l-0.62,0.75l-0.11,0.78l-0.44,0.26l-1.9,2.51l-7.38,1.43l0.36,-0.56l1.56,-0.25l2.14,-0.93l-0.56,-1.19l-0.97,-1.28l-0.8,-0.08l-0.59,-0.75l-0.2,-2.5l-0.63,-1.42l-1.34,-1.4l-0.38,0.33l-0.66,2.65l-0.44,3.44l-0.27,1.12l-2.2,0.27l-1.97,-0.07l-0.96,0.14l-0.64,-4.58l-0.55,-4.18l-0.55,-4.18l-0.55,-4.17l-0.55,-4.17l-0.55,-4.17l-0.55,-4.17l-0.55,-4.17l0.12,-4.16l0.12,-4.15l0.12,-4.15l0.12,-4.15l0.11,-4.15l0.11,-4.15l0.11,-4.15l0.11,-4.15l0.11,-4.14l0.1,-4.14l0.1,-4.14l0.1,-4.14l0.1,-4.14l0.09,-4.14l0.09,-4.14l0.09,-4.14l0.02,-1.05l-0.01,-0.36l0.02,-0.54l-1.74,-1.32l-0.34,-0.26l-0.25,-0.25l0.23,-0.04l2.93,-0.22l2.93,-0.23l2.93,-0.23l2.93,-0.24l2.93,-0.24l2.93,-0.25l2.93,-0.25l2.93,-0.26l2.93,-0.26l2.93,-0.27l2.93,-0.27l2.93,-0.28l2.92,-0.28l2.92,-0.29l2.92,-0.29L955.38,371.42zM920.01,481.61l-1.67,0.63l-2.54,0.17l-0.53,-0.12l0.99,-0.41l2.96,-0.68L920.01,481.61z" fill="#000000"/></svg>
