<svg xmlns="http://www.w3.org/2000/svg" viewBox="529.98 229.19 138.18 108.94"><path d="M662.79,267.67L662.52,271.83L662.26,275.99L661.99,280.15L661.73,284.31L661.47,288.47L661.21,292.63L660.94,296.79L660.68,300.95L660.42,305.11L660.15,309.27L659.89,313.42L659.63,317.58L659.36,321.74L659.1,325.9L658.84,330.06L658.58,334.22L654.18,333.92L649.79,333.62L645.4,333.29L641,332.96L634.29,332.43L627.58,331.87L620.86,331.28L614.16,330.67L607.45,330.02L600.75,329.35L594.04,328.65L587.35,327.92L580.65,327.17L573.96,326.38L567.27,325.57L560.59,324.73L553.91,323.87L547.23,322.97L540.56,322.05L533.89,321.1L534.68,315.6L535.48,310.1L536.27,304.6L537.07,299.1L537.86,293.6L538.66,288.1L539.45,282.6L540.25,277.11L541.04,271.61L541.84,266.11L542.63,260.61L543.43,255.11L544.22,249.61L545.02,244.11L545.81,238.61L546.61,233.1L551.85,233.85L557.09,234.58L562.33,235.29L567.58,235.99L572.83,236.66L578.08,237.32L583.33,237.96L588.59,238.58L593.85,239.18L599.11,239.77L604.37,240.34L609.63,240.88L614.9,241.41L620.17,241.93L625.43,242.42L630.7,242.9L634.89,243.26L639.09,243.61L643.28,243.96L647.47,244.29L651.66,244.61L655.86,244.92L660.05,245.21L664.25,245.5L664.07,248.27L663.88,251.04L663.7,253.82L663.52,256.59L663.33,259.36L663.15,262.13L662.97,264.9z" fill="#000000"/></svg>
