<svg xmlns="http://www.w3.org/2000/svg" viewBox="922.64 449.70 173.06 149.67"><path d="M1045.28,455.26l1.22,1.86l2.7,7.99l1.4,2.7l2.95,7.43l4.04,7.01l5.48,8.37l8.43,9.85l1.06,1.43l-0.63,1.47l-0.03,1.42l0.28,2.08l0.59,1.98l1.21,2.33l2.16,3.51l-0.97,-0.61l-3.11,-5.04l-0.8,-3.13l-0.46,-4.56l-0.49,0.2l-0.16,1.53l0.07,1.76l-0.44,0.76l-1.2,-2.5l-0.15,-1.19l0.56,-1.52l-0.32,-0.46l-1.41,-0.49l-0.46,-1.07l-0.01,-1.13l-0.84,-0.46l-0.57,0.13l0.84,2.65l0.89,1.56l1.43,3.87l1.64,2.21l1.06,1.91l12.16,20.24l2.49,2.41l1.09,1.86l1.51,4.02l1.12,5.31l0.33,10.02l0.86,6.73l-0.24,-0.17l-0.26,-0.68l-0.34,-0.04l-0.68,3.27l-1.18,3.05l0.2,4.39l-0.42,2.29l-2.01,2.69l-1.5,0.2l-3.37,2.33l-2.65,-0.01l-2.9,1.48l-2.04,0.23l-1.5,-1.84l0.03,-0.94l0.31,-0.99l0.75,-0.34l3.06,1.68l0.36,-0.98l-1,-0.93l-1.66,-0.33l-1.26,-0.46l-3.12,-4.48l-2.95,-2.94l-0.76,-2.16l-4.35,-0.69l-3.32,-1.58l-2.52,-3.35l-2.13,-6.31l-1.42,-0.52l-0.63,-0.42l0.9,-2.6l1.03,-2.22l-0.99,0.67l-0.67,0.87l-0.72,1.94l-0.69,0.39l-0.71,-0.17l-1.3,-3.29l-0.43,-4.23l0.83,-1.73l-1.66,0.21l-1.62,0.86l0.47,1.36l-0.12,0.81l-1.28,-0.01l-1.02,-0.35l-1.51,-1.26l-2.17,-2.51l-4.72,-7.11l-0.86,-0.98l-1.35,-0.95l0.51,-0.43l0.98,-0.36l1.78,-3.78l1.48,-2.35l0.38,-1.52l-0.2,-0.6l-0.93,-0.77l-0.92,0.94l-0.48,-0.16l-1.44,-1.63l-1.19,-0.34l-0.72,0.5l1.04,1.35l0.82,0.44l0.03,2.19l-0.2,0.74l-0.6,0.72l-1.13,-0.17l-0.47,0.61l-0.73,-0.47l-0.78,-0.85l-0.94,-1.45l0.6,-9.01l0.92,-5.81l-0.74,-6.36l-0.01,-0.96l-0.4,-1.66l-2.85,-3.32l-11.46,-7.45l-9.32,-9.47l-7.31,-3.05l-5.03,1.54l-0.79,0.91l-0.25,1.09l0.48,1.14l-0.41,0.55l-1.39,0.12l-1.83,0.51l-4.52,3.39l-1.73,0.11l-1.47,0.91l-1.11,0.68l-3.02,0.66l-2.52,0.93l-1.16,-0.2l-0.92,-1.53l-0.2,-1.67l0.74,1.21l1.03,0.89l0.37,-0.45l0.05,-0.91l-1.11,-1.63l-3.19,-1.89l-3.71,-2.88l1.03,-0.01l0.18,-0.73l-1.14,-0.8l0.31,-1.11l0.6,-1.2l-1.38,0.33l-1.17,0.92l0.07,0.97l-0.16,0.79l-0.69,-0.04l-1.36,-0.8l-6.48,-1.95l-5.56,-0.91l4.07,-1.11l2.3,0.28l-0.36,-0.77l-0.6,-0.45l-1.84,-0.45l-2.23,0.49l-1.46,-0.15l-1.39,0.79l-1.5,1.11l-1.37,0.63l-5.5,1.25l-4.45,1.19l0.65,-0.85l0.72,-0.58l2.59,-1.03l0.24,-1.63l-0.78,-1.46l-0.66,0.44l-0.62,1.27l-0.99,-0.77l-1,0.1l-0.09,1.93l-1.16,1.4l-0.46,1.34l-3.68,1.36l-0.52,-0.29l0.99,-1.32l-0.15,-0.67l-0.76,0.44l0.11,-0.78l0.62,-0.75l0.22,-0.82l-0.23,-1.51l0.29,-2.18l-0.32,-0.65l-3.05,-2.51l-0.81,-1.39l-0.27,-1.52l0.12,-1.62l6.21,-0.59l6.21,-0.61l6.21,-0.63l6.21,-0.66l6.21,-0.68l6.2,-0.7l6.2,-0.72l6.18,-0.75l1,1.66l1.97,3.45l0.16,0.84l1.82,-0.09l3.09,-0.17l3.09,-0.18l3.09,-0.19l3.09,-0.19l3.09,-0.2l3.09,-0.2l3.09,-0.21l3.09,-0.21l3.09,-0.22l3.09,-0.22l3.09,-0.23l3.09,-0.24l3.09,-0.24l3.09,-0.25l3.09,-0.25l3.09,-0.26l0.13,0.73l0.68,1.07l0.33,1.29l0.33,0.59l0.67,0.3l0.98,-0.05l0.86,-0.89l0.36,-1.72l-0.13,-1.84l-0.69,-2.01l-0.21,-1.75l0.32,-1.1l0.53,-0.34l0.41,-0.63l0.39,-0.18l1.1,0.13l4.19,0.84L1045.28,455.26zM982.99,488.77l-1.86,1.04l-2.19,-0.33l1.3,-0.27l0.98,0.12l2.27,-1.44l1.15,-1.02l1.42,-0.51L982.99,488.77zM1083.9,527.61l0.61,1.58l-2.5,-3.49l-3.3,-5.58l-2,-4.4l1.03,1.1l1.25,2.44L1083.9,527.61zM1048.56,550.12l0.17,1.32l-1.36,-2.05l-1.05,-2.33l1.09,0.64L1048.56,550.12zM1049.84,552.19l-0.63,0.7l-1.52,-0.21l-0.91,-0.65l-0.57,-1.45l1.51,1.4l0.51,0.29L1049.84,552.19zM1088.32,576.1l-3.34,4.93l0.27,-1.14l1.2,-2.54l0.33,-1.15l0.95,-0.86l0.79,-1.39l-0.17,-1.43l1.27,-1.25l0.45,-0.23L1088.32,576.1zM1083.99,582.38l-0.53,0.2l0.65,-1.1l0.24,0.03L1083.99,582.38zM1080.44,585.29l-0.39,0.06l0.14,-0.35l0.7,-0.78l0.33,0.2l0.02,0.33L1080.44,585.29zM1076.35,587.99l-0.85,0.69l-1.04,-0.23l0.98,-0.71l3.09,-1.1l-1.08,0.91L1076.35,587.99zM1070.61,590.46l-0.54,0.56l-0.32,-0.09l-0.11,-0.68l-1.12,-1.35l-0.03,-0.4l2.25,1.14l0.12,0.39L1070.61,590.46zM1066.01,592.38l-1.3,0.44l0.94,-1.06l0.13,-1.41l0.8,0.95l0.09,0.64L1066.01,592.38zM1061.73,594.34l-0.52,0.13l-0.1,-0.34l0.84,-0.57l0.6,-0.06l0.05,0.48L1061.73,594.34z" fill="#000000"/></svg>
