<svg xmlns="http://www.w3.org/2000/svg" viewBox="0 0 957.41 1000.00"><g transform="translate(30.00 30.00) scale(0.966554) translate(-7275.28 -4107.13)"><path d="M7275.285,4164.094L7299.69,4161.772L7384.492,4150.987L7498.664,4137.1L7620.91,4121.92L7620.141,4120.891L7708.965,4107.129L7708.914,4120.706L7691.296,4135.913L7677.686,4157.53L7679.205,4164.108L7674.851,4169.59L7678.313,4181.182L7699.125,4193.829L7709.94,4193.682L7726.964,4210.957L7742.671,4218.412L7759.811,4213.03L7765.132,4214.552L7771.793,4225.687L7775.324,4237.256L7783.63,4241.75L7786.806,4250.729L7795.064,4259.371L7796.387,4268.796L7802.556,4280.743L7810.731,4284.114L7817.517,4295.782L7827.592,4303.399L7837.178,4321.07L7842.881,4320.445L7856.771,4332.026L7876.46,4338.991L7897.404,4354.422L7901.574,4365.312L7908.371,4372.047L7910.084,4379.336L7919.34,4385.142L7926.991,4384.394L7938.763,4389.632L7952.71,4405.096L7962.933,4408.476L7966.129,4412.523L7962.872,4421.115L7966.483,4427.928L7964.823,4434.207L7984.87,4446.665L7983.158,4452.577L7992.586,4459.077L7999.442,4457.102L7999.31,4464.85L8005.652,4472.375L8024.376,4479.904L8030.078,4478.847L8041.9,4487.974L8055.221,4494.036L8053.931,4506.866L8063.4,4517.474L8066.067,4526.3L8072.24,4528.175L8074.659,4543.824L8078.127,4549.319L8076.21,4558.097L8080.276,4558.976L8084.203,4567.415L8082.17,4575.457L8091.225,4583.1L8107.985,4585.391L8108.646,4589.623L8125.724,4602.216L8124.14,4608.873L8136.804,4626.671L8139.257,4625.531L8145.316,4638.898L8140.163,4648.002L8149.181,4659.205L8147.361,4664.391L8152.379,4675.28L8166.896,4679.388L8173.485,4675.137L8189.741,4685.922L8195.659,4685.728L8203.747,4686.691L8202.413,4698.966L8194.236,4705.742L8187.343,4704.018L8184.879,4713.454L8191.569,4713.893L8182.995,4726.564L8168.758,4724.493L8168.449,4735.089L8175.88,4735.983L8171.779,4747.744L8162.348,4759.403L8150.969,4758.747L8149.488,4761.991L8158.211,4766.833L8163.246,4765.098L8165.032,4780.63L8162.288,4792.733L8144.875,4800.358L8145.507,4804.399L8156.25,4800.834L8160.836,4804.63L8149.67,4831.031L8148.379,4848.351L8153.307,4850.027L8150.914,4856.044L8150.437,4874.361L8142.594,4879.72L8139.061,4891.362L8133.276,4892.823L8135.294,4905.858L8132.682,4919.232L8128.053,4919.571L8121.455,4928.856L8130.632,4931.952L8137.142,4926.436L8140.097,4941.201L8134.186,4972.364L8139.445,4984.702L8130.383,4982.53L8121.625,4986.692L8109.971,4985.095L8087.801,4984.897L8082.517,4981.002L8069.942,4977.641L8058.715,4978.763L8053.221,4973.39L8043.199,4973.571L8038.911,4985.284L8030.823,4984.982L8034.1,4989.001L8029.287,4992.717L8031.275,5001.618L8030.278,5013.025L8040.638,5028.565L8041.903,5050.702L8039.229,5059.913L8041.266,5073.678L8017.226,5079.656L8007.934,5066.765L8008.005,5053.441L8002.7,5049.34L7999.856,5039.065L8002.77,5036.014L7913.068,5042.509L7776.212,5051.69L7603.022,5063.366L7512.864,5069.538L7502.602,5061.771L7497.032,5048.403L7493.927,5033.249L7485.576,5024.501L7479.939,5010.385L7477.318,4999.282L7471.355,4988.005L7456.304,4972.724L7457.121,4962.53L7452.764,4953.492L7456.899,4949.087L7454.563,4934.577L7458.087,4919.201L7455.863,4911.412L7459.215,4900.357L7454.695,4878.419L7440.464,4863.774L7440.832,4855.495L7434.297,4833.03L7435.291,4824.49L7442.851,4810.136L7445.557,4793.716L7445.014,4777.669L7441.873,4767.542L7449.174,4756.953L7457.781,4752.016L7455.97,4747.73L7463.084,4746.899L7468.423,4736.528L7459.802,4730.041L7447.569,4726.22L7451.505,4703.832L7444.924,4697.85L7441.228,4682.908L7428.798,4671.412L7420.825,4658.834L7414.438,4631.631L7405.133,4624.261L7406.938,4617.303L7400.484,4612.041L7364.385,4482.394L7348.353,4425.835L7334.001,4372.255L7314.794,4303.235L7291.231,4222.642Z" fill="#000000"/></g></svg>
