<svg xmlns="http://www.w3.org/2000/svg" viewBox="952.42 362.59 103.10 105.51"><path d="M1052.54,424.61l-0.65,2.03l-2.1,1.55l-0.71,0.07l-0.52,0.44l0.47,0.78l0.67,0.51l0.07,0.57l-0.48,0.86l-1.17,0.41l-0.53,0.98l0.35,0.79l0.47,0.39l0.05,0.81l-1.24,1.02l-0.19,0.83l0.72,0.12l0.49,-0.32l0.41,0.1l-0.61,1.44l-0.61,0.92l-0.47,1.55l-1.56,0.66l0.14,0.45l0.99,0.26l0.95,0.98l-1.12,2.27l-0.93,-0.02l-0.63,-0.36l-0.09,1.66l0.28,0.84l-0.06,1.81l-0.22,2.2l-0.24,0.93l0.34,1.6l0.49,1.52l-3.27,0.32l-4.19,-0.84l-1.1,-0.13l-0.39,0.18l-0.41,0.63l-0.53,0.34l-0.32,1.1l0.21,1.75l0.69,2.01l0.13,1.84l-0.36,1.72l-0.86,0.89l-0.98,0.05l-0.67,-0.3l-0.33,-0.59l-0.33,-1.29l-0.68,-1.07l-0.13,-0.73l-3.09,0.26l-3.09,0.25l-3.09,0.25l-3.09,0.24l-3.09,0.24l-3.09,0.23l-3.09,0.22l-3.09,0.22l-3.09,0.21l-3.09,0.21l-3.09,0.2l-3.09,0.2l-3.09,0.19l-3.09,0.19l-3.09,0.18l-3.09,0.17l-1.82,0.09l-0.16,-0.84l-1.97,-3.45l-1,-1.66l-1.46,-2.44l-0.96,-3.9l-0.02,-6.24l-0.4,-1.36l0,0l-1.47,-3.01l-0.26,-2.31l0.68,-3.91l0,-0.01l0.31,-2.21l0.64,-1.31l1.07,-1.14l0.05,-0.89l-0.98,-0.64l-0.44,-0.87l0.1,-1.1l-1.09,-2.5l-3.4,-5.85l-0.62,-2.04l-0.62,-1.23l-0.83,-2.77l-0.83,-2.77l-0.83,-2.77l-0.83,-2.77l-0.83,-2.77l-0.82,-2.77l-0.82,-2.77l-0.82,-2.77l-0.82,-2.77l-0.82,-2.77l-0.81,-2.77l-0.81,-2.77l-0.81,-2.77l-0.81,-2.77l-0.81,-2.77l-0.81,-2.77l5.92,-0.62l5.92,-0.64l5.91,-0.66l5.91,-0.68l5.49,-0.79l5.48,-0.81l5.48,-0.83l5.48,-0.85l-0.11,0.04l-0.68,1.62l-2.26,3.18l-0.41,2.25l3.78,1.91l0.01,0.02l2.34,1.64l1.52,0.56l1.47,0.02l0.99,0.51l0.76,1.48l0,0l5.33,7.07l0,0l4.96,3.31l2.05,1.68l1.18,1.75l4.22,2.52l1.54,1.47l0.26,1.25l0.59,0.83l0.91,0.4l0.97,1.01l1.03,1.62l1.74,1.27l2.45,0.92l2.11,2.67l1.78,4.41l1.49,2.49l1.8,0.84l2.86,3.54l1.11,2.21l0.3,2.05l1.39,1.41L1052.54,424.61zM1046.05,449.68l0.02,5.53l-0.68,-1.85l-0.33,-1.85l0.47,-1.2L1046.05,449.68z" fill="#000000"/></svg>
