<svg xmlns="http://www.w3.org/2000/svg" viewBox="578.04 583.13 42.10 79.26"><path d="M590.47,592.69l-1.45,-0.14l-0.31,-0.72l-0.93,-0.95l0.01,-0.8l-0.7,-1.32l0.06,-0.94l1.58,-0.55l2.31,0.37l2.33,2.02l-0.12,1.15l-0.41,0.58l-0.82,0.35l-0.86,0.75L590.47,592.69zM581.2,586.6l-0.63,0.31l-0.29,-0.38l0.28,-0.52l0.75,-0.4l1.04,-0.01l1.33,-0.23l0.44,0.58l-0.73,0.27l-0.51,0.53l-1.03,-0.33L581.2,586.6zM602.65,611.73l0.31,0.36l0.53,0.3l-0.57,1.04l0.14,0.95l-0.04,0.46l-0.85,-0.16l-1.26,-0.8l-0.33,-0.69l-0.1,-1.02l-0.73,-0.33l0.26,-0.54l0,-0.22l-0.51,-0.21l-0.09,0.9l-1.08,-0.81l-0.27,-0.34l0.25,-0.9l-0.04,-2.15l0.41,-0.49l0.12,-0.89l1.73,1.13l1.94,-0.15l0.7,0.39l-0.18,2.64l-0.41,0.45l-0.11,0.67L602.65,611.73zM606.71,619.52l2.02,2.13l0.64,0.29l0.17,0.56l1.76,1.65l0.25,0.35l-0.85,0.29l-1.64,-0.41l-1.36,-1.85l-2.77,-2.48l0.48,-0.36l0.53,-0.1l0.49,-0.53L606.71,619.52zM611.98,628.99l0.12,0.43l1.4,0.6l0.92,0.54l0.81,1.86l0.08,0.9l0.49,1.28l0,0.65l-0.64,0.29l-1.65,0.02l-1.54,-0.9l-1.09,-0.3l-1.02,-0.92l-0.21,-0.4l0.69,-1.11l0.52,-1.36l-0.79,-0.42l-0.49,-0.98l-0.08,-1.55l0.35,-0.62l1.13,-0.52l0.86,0.5l0.2,0.93L611.98,628.99zM606.59,627.73l-0.9,-0.18l-0.58,-0.71l0.46,-0.91l0.12,-1.53l1.34,0.73l0.43,0.81l0.1,0.59l0,0.87L606.59,627.73zM604.57,659.11l-0.93,0.18l-0.58,-0.52l-1.31,-2.94l0.23,-0.86l2.49,-2.88l1.06,-3.08l0.53,-2.57l1.41,-0.44l1.45,-0.05l2.06,-0.64l0.58,-2.4l1.04,-0.92l0.61,0.18l1.3,3.09l3.17,5.57l0.19,2.35l-0.91,1.67l0.71,0.84l-0.37,1.34l0.56,1.84l0.03,0.83l-1.14,0.44l-3.48,-0.13l-3.39,-1.49l-3.88,-0.16L604.57,659.11z" fill="#000000"/></svg>
