<svg xmlns="http://www.w3.org/2000/svg" viewBox="414.63 28.68 116.62 182.45"><path d="M526.08,151.01L525.51,154.45L524.93,157.89L524.36,161.32L523.79,164.76L523.21,168.2L522.64,171.63L522.07,175.07L521.49,178.51L520.92,181.94L520.35,185.37L519.77,188.8L519.2,192.23L518.63,195.67L518.06,199.1L517.49,202.52L516.91,205.96L513.85,205.44L510.79,204.92L507.73,204.39L504.67,203.86L501.61,203.31L498.55,202.77L495.5,202.21L492.44,201.65L489.39,201.09L486.34,200.52L483.29,199.94L480.24,199.35L477.19,198.76L474.14,198.17L471.09,197.56L468.05,196.95L462,195.72L455.95,194.47L449.91,193.19L443.88,191.89L437.85,190.56L431.82,189.21L425.81,187.83L419.79,186.43L420.93,181.59L422.06,176.75L423.19,171.91L424.32,167.07L425.46,162.22L426.59,157.38L427.73,152.53L428.97,147.2L429,147.09L430.75,144.04L431.34,142.5L431.29,141.53L431.67,140.71L432.47,140.01L432.66,139.09L432.26,137.95L431.23,137.01L429.57,136.28L428.95,134.91L429.36,132.88L431.38,130.1L435,126.55L437.14,123.93L437.79,122.26L440.3,118.62L444.65,113.02L446.68,109.25L446.41,107.33L445.34,105.3L443.45,103.17L442.3,100.93L442.1,99.88L441.87,98.59L441.95,97.03L442.54,96.26L442.58,94.69L442.06,92.32L441.97,90.76L442.19,90.28L442.35,90.1L443.16,86.59L443.97,83.09L444.79,79.58L445.6,76.07L446.41,72.56L447.23,69.05L448.04,65.53L448.86,62.01L449.68,58.5L450.49,54.98L451.31,51.46L452.13,47.93L452.94,44.41L453.76,40.88L454.58,37.35L455.38,33.84L460.05,34.93L466.24,36.35L469.75,37.14L468.53,42.58L467.31,48.03L466.08,53.48L464.86,58.92L465.96,61.48L466.83,63.1L467.26,64.73L468.07,66.52L468.18,67.11L468.22,68.85L467.66,69.97L468.01,71.31L467.77,71.89L467.24,72.09L467.12,72.17L467.11,72.29L467.23,72.53L468.6,74.04L469.86,76L471.66,77.56L472.16,78.35L474.16,82.16L475.12,84.51L476.28,86.32L476.65,88.19L477.86,90.01L478.08,90.85L478.16,91.04L478.35,91.1L479.37,90.94L479.6,91.09L479.94,91.78L479.85,92.7L480.12,93.15L480.66,93.49L481.31,93.69L483.49,93.68L483.94,93.77L484.12,94L484.12,94.5L483.93,95.29L483.5,96.36L482.64,97.35L482.53,98.4L481.54,100.71L480.74,102.21L480.38,103.77L479.6,104.55L479.71,105.68L479.15,107.27L479.27,107.73L479.86,108.64L479.75,110.7L479.54,111.04L478.04,111.54L477.47,111.97L477.15,112.66L477.3,114.89L476.49,115.93L476.21,116.92L476.29,117.2L477.42,117.99L478.69,119.49L479.12,119.84L479.46,119.87L480.18,119.6L481.05,118.94L482.66,118.42L484.71,117.02L484.89,116.55L485.08,116.31L485.3,116.37L485.79,116.71L486.66,117.98L487.47,118.75L487.6,118.91L487.63,119.22L487.38,120.26L487.73,121.19L487.62,122.57L487.88,124.03L487.94,125.74L488.93,128.12L489.4,129.77L490.1,130.62L490.45,131.52L490.64,132.55L490.63,133.35L489.87,134.66L489.89,135.27L490.21,136L491.39,137.74L491.65,137.91L493.03,138.01L493.72,138.4L494.31,139.26L494.84,140.51L495.11,141.7L494.99,143.04L495.47,144.64L495.33,145.95L495.69,146.6L496.48,147.55L497.28,148.18L497.63,148.28L497.92,148.13L498.13,147.43L498.6,146.95L499.86,146.4L500.92,146.61L504.82,147.99L505.11,148L505.33,147.82L506.23,146.77L506.86,146.41L507.73,146.42L510.15,147.15L513.05,147.49L514.48,148.09L516.73,148.03L519.18,148.79L519.54,148.65L519.66,148.43L519.51,147.95L519.62,147.07L520.3,146.12L520.63,145.27L521.22,144.86L521.95,144.7L522.49,144.83L522.94,145.39L523.41,146.28L524.12,148.6L524.56,149.46L525.14,150.25z" fill="#000000"/></svg>
