<svg xmlns="http://www.w3.org/2000/svg" viewBox="901.97 217.67 60.81 99.25"><path d="M952.11,221.76L952.94,228.96L953.78,236.15L954.61,243.34L955.44,250.52L956.27,257.71L957.1,264.9L957.93,272.08L958.81,279.4L958.56,279.64L958.28,280.64L958.83,281.55L958.91,282.33L958.51,282.99L958.73,283.42L959.58,283.62L959.97,284.27L959.91,285.37L958.31,286.68L955.13,288.32L954.46,288.77L953.88,288.99L953.59,288.95L953.59,288.95L953.13,288.77L952.46,288.34L951.39,288.24L949.71,288.6L949.15,289.71L949.71,291.58L949.3,293.12L947.9,294.31L946.97,295.79L946.5,297.53L945.58,298.66L944.19,299.18L943.21,300.86L942.63,303.7L941.85,305.51L940.87,306.28L939.42,306.27L937.49,305.48L936.33,304.58L935.93,303.56L935.32,302.87L934.79,302.59L934.46,302.62L934.46,302.78L934.62,303.06L934.48,303.39L933.37,303.62L932.93,304.1L933.16,304.84L932.97,305.4L932.35,305.79L932.08,306.54L932.16,307.68L931.8,308.76L931.01,309.79L929.69,309.6L927.82,308.21L926.06,308.03L924.38,309.05L923.19,310.32L922.46,311.84L921.67,312.28L920.36,311.3L917.36,310.06L915.84,309.87L914.8,310.34L914.03,310.25L913.74,309.85L913.52,309.7L913.33,309.92L913.43,311.25L913.25,312.11L912.79,312.5L912.4,312.26L912.05,311.38L911.41,311.15L910.47,311.55L909.48,311.5L908.57,311.04L908.27,311.13L908.05,311.4L908.21,312.43L908.1,313.27L907.7,313.84L907.07,314.02L906.21,313.82L905.88,314.11L904.78,312.27L904.81,311.8L905.37,311.71L905.58,310.84L905.4,309.15L905.63,308.09L906.13,307.72L906.2,307.38L905.92,307.2L905.88,306.87L906.66,306.11L906.76,305.35L906.18,304.59L906.06,303.83L906.4,303.06L907,302.66L907.84,302.64L908.56,301.68L909.15,299.76L909.89,298.56L910.81,298.07L911.47,296.79L912.1,293.68L912.91,292.2L912.97,290.64L912.55,288.51L911.69,286.4L910.39,284.3L910,282.95L910.51,282.36L910.63,281.43L910.37,280.18L910.81,278.96L911.54,278.21L911.54,278.11L910.98,271.84L910.38,265.2L909.79,258.57L909.19,251.93L908.59,245.29L908,238.65L907.4,232.01L906.87,226.09L906.99,226.24L907.67,226.74L908.2,227.02L908.57,227.03L908.82,227.5L909.79,227.71L911.51,227.67L913.06,227.32L914.44,226.67L917.73,224.3L921.83,223.89L926.85,223.36L931.88,222.82L936.9,222.26L941.92,221.68L946.93,221.09L951.95,220.48z" fill="#000000"/></svg>
