<svg xmlns="http://www.w3.org/2000/svg" viewBox="838.64 205.76 78.04 131.32"><path d="M900.5,209.48L900.8,212.94L901.31,215.79L901.93,217.02L902.58,217.91L903.27,218.45L904.16,220.25L905.26,223.31L906.2,225.3L906.87,226.09L907.4,232.01L908,238.65L908.59,245.29L909.19,251.93L909.79,258.57L910.38,265.2L910.98,271.84L911.54,278.11L911.54,278.21L910.81,278.96L910.37,280.18L910.63,281.43L910.51,282.36L910,282.95L910.39,284.3L911.69,286.4L912.55,288.51L912.97,290.64L912.91,292.2L912.1,293.68L911.47,296.79L910.81,298.07L909.89,298.56L909.15,299.76L908.56,301.68L907.84,302.64L907,302.66L906.4,303.06L906.06,303.83L906.18,304.59L906.76,305.35L906.66,306.11L905.88,306.87L905.92,307.2L906.2,307.38L906.13,307.72L905.63,308.09L905.4,309.15L905.58,310.84L905.37,311.71L904.81,311.8L904.78,312.27L905.88,314.11L905.37,314.56L904.52,316.22L904.47,317.99L905.22,319.85L903.89,321.52L900.48,323L898.7,324.19L898.57,325.11L898.93,326.47L899.78,328.26L900.01,329.52L899.62,330.27L897.06,330L892.33,328.69L889.26,328.99L887.83,330.89L887.39,332.28L887.66,333.37L886.3,332.12L885.42,331.58L885.26,331.64L885.09,331.81L885.05,332.23L885.11,332.53L885.27,332.86L885.21,333.09L885.02,333.12L884.08,332.66L882.87,331.26L881.39,328.91L880.97,326.98L881.59,325.49L881.48,323.97L880.64,322.43L880.17,320.9L880.06,319.38L878.14,317.23L874.42,314.44L871.72,312.74L870.02,312.14L868,310.74L865.65,308.56L864.37,306.85L864.15,305.63L864.95,302.28L867.38,294.94L867.65,294.08L867.72,293.76L867.57,293.46L867.28,293.18L866.01,292.42L863.64,291.85L861.47,291.58L859.81,292.54L858.21,290.9L856.68,286.66L853.28,282.29L848.02,277.77L844.96,274.67L844.07,272.99L843.24,270.45L842.47,267.04L842.36,264.19L843.17,260.73L844.02,260.3L844.14,259.17L843.81,257.2L844.67,255.66L846.71,254.54L848.5,252.21L850.03,248.68L850.67,246.17L850.43,244.69L849.72,243.32L848.55,242.05L848.2,240.41L848.66,238.4L850.42,237.05L853.48,236.34L856.22,235.17L858.63,233.56L860.02,231.88L860.39,230.13L861.02,228.74L861.93,227.72L862.51,226.11L862.77,223.91L862.72,222.3L862.35,221.29L861.19,220.16L859.23,218.93L858.1,217.72L857.78,216.55L856.72,215.33L854.91,214.06L853.82,212.6L861.38,212.2L868.79,211.76L876.19,211.29L883.6,210.78L891,210.23L898.4,209.65z" fill="#000000"/></svg>
