<svg xmlns="http://www.w3.org/2000/svg" viewBox="752.19 187.90 113.80 76.05"><path d="M853.82,212.6L854.91,214.06L856.72,215.33L857.78,216.55L858.1,217.72L859.23,218.93L861.19,220.16L862.35,221.29L862.72,222.3L862.77,223.91L862.51,226.11L861.93,227.72L861.02,228.74L860.39,230.13L860.02,231.88L858.63,233.56L856.22,235.17L853.48,236.34L850.42,237.05L848.66,238.4L848.2,240.41L848.55,242.05L849.72,243.32L850.43,244.69L850.67,246.17L850.03,248.68L848.5,252.21L846.71,254.54L844.67,255.66L843.81,257.2L844.14,259.17L844.02,260.3L843.17,260.73L841.62,259.63L841.32,258.83L840.07,258.05L839.86,257.53L838.91,257.1L838,255.53L833.73,255.75L829.46,255.97L825.19,256.17L820.92,256.36L816.65,256.54L812.38,256.71L808.11,256.87L803.84,257.01L799.56,257.14L795.29,257.26L791.02,257.37L786.74,257.47L782.47,257.55L778.19,257.62L773.92,257.68L769.69,257.72L768.65,256.07L768.09,254.54L768.44,253.82L768.51,251.33L768.29,247.09L767.88,244.7L767.27,244.16L767.2,243.42L767.66,242.48L767.52,241.84L766.78,241.51L766.55,240.7L766.83,239.41L766.65,238.62L766.01,238.34L765.75,237.89L765.86,237.3L765.51,236.91L764.72,236.73L764.41,235.28L764.56,232.54L764.26,230.6L763.52,229.46L763.15,228.39L763.14,227.39L762.36,225.81L760.81,223.66L759.81,220.82L759.37,217.31L758.27,215.34L757.78,215.22L757.37,213.38L756.92,212.56L756.85,211.93L755.49,210.34L755.41,209.73L755.59,208.96L756.48,207.47L757.3,205.01L757.5,203.36L758.15,202.12L758.17,201.43L758.07,200.53L757.71,199.74L756.65,199.15L756.52,198.91L756.42,198L756.87,197.43L757,196.78L756.89,195.99L756.26,194.62L755.98,193.22L758.34,193.15L763.62,193.17L768.9,193.17L774.18,193.14L779.46,193.1L784.74,193.04L790.02,192.96L795.3,192.87L800.58,192.75L805.86,192.61L811.14,192.46L816.42,192.29L821.7,192.09L826.97,191.88L832.25,191.65L837.52,191.41L842.88,191.12L843.06,192.5L843.43,193.49L844.13,194.26L845.16,194.83L845.39,196L844.82,197.78L844.71,199.96L845.07,202.53L845.69,204.83L846.59,206.87L848.47,208.28L851.33,209.09L853.08,210.48L853.7,212.44z" fill="#000000"/></svg>
