<svg xmlns="http://www.w3.org/2000/svg" viewBox="877.24 274.35 139.82 74.38"><path d="M998.81,288.4l0.49,0.55l0.68,3.23l-0.02,0.66l-0.39,1.42l0.14,0.7l0.67,1.03l2.23,2.28l0.33,0.96l0.88,0.86l0.84,1.35l2.45,2.8l3.48,2.09l2.52,0.3l-5.8,6.35l-2.75,2.39l-2.67,1.99l-0.2,0.3l-0.4,1.81l-1.54,1.77l-0.87,1.76l-2.45,1.72l-1.62,2.1l-4.47,2.46l-2.56,0.99l-1.66,1.29l-0.13,0.07l-0.13,0.07l-0.13,0.07l-0.13,0.07l-0.13,0.07l-0.13,0.07l-0.13,0.07l-0.13,0.07l-6.2,0.61l-6.2,0.59l-6.2,0.56l-6.2,0.54l-6.2,0.52l-6.21,0.49l-6.21,0.47l-6.21,0.44l-5.92,0.73l-5.92,0.7l-5.93,0.68l-5.93,0.66l-0.59,-0.64l-1.58,-0.01l-2.42,-0.03l-0.09,0l0.91,2.21l0.19,1.98l-0.05,0.03l-2.8,0.24l-3.09,0.26l-3.09,0.26l-3.09,0.25l-3.09,0.24l-3.09,0.24l-3.09,0.23l-3.55,0.26l0.8,-2.01l0.79,-0.58l0.36,-0.13l0.93,0.29l0.44,0.09l0.9,-0.76l0.68,-2.06l0.32,-2.15l-0.04,-2.24l-0.7,-1.74l-0.27,-1.08l0.44,-1.39l1.43,-1.9l3.07,-0.3l4.72,1.3l2.56,0.27l0.39,-0.75l-0.23,-1.27l-0.85,-1.79l-0.36,-1.35l0.14,-0.92l1.77,-1.19l3.41,-1.48l1.33,-1.67l-0.75,-1.86l0.05,-1.76l0.84,-1.67l0.51,-0.44l0.33,-0.29l0.85,0.2l0.63,-0.19l0.4,-0.57l0.11,-0.84l-0.16,-1.03l0.22,-0.27l0.31,-0.09l0.91,0.46l0.99,0.05l0.94,-0.41l0.64,0.24l0.34,0.88l0.4,0.24l0.46,-0.4l0.18,-0.86l-0.1,-1.32l0.19,-0.22l0.21,0.16l0.3,0.39l0.77,0.09l1.04,-0.47l1.52,0.18l3,1.24l1.31,0.98l0.8,-0.44l0.72,-1.53l1.2,-1.27l1.67,-1.02l1.76,0.19l1.86,1.39l1.33,0.18l0.79,-1.03l0.36,-1.08l-0.08,-1.13l0.27,-0.76l0.62,-0.38l0.19,-0.56l-0.24,-0.74l0.44,-0.48l1.11,-0.23l0.14,-0.33l-0.16,-0.28l0,-0.15l0.33,-0.03l0.53,0.28l0.62,0.69l0.39,1.02l1.16,0.9l1.93,0.79l1.45,0.01l0.98,-0.77l0.78,-1.81l0.58,-2.84l0.98,-1.68l1.39,-0.52l0.92,-1.13l0.46,-1.75l0.93,-1.47l1.4,-1.2l0.42,-1.53l-0.57,-1.87l0.56,-1.11l1.69,-0.36l1.07,0.1l0.67,0.43l0.46,0.18h0l0.29,0.04l0.58,-0.22l0.67,-0.45l3.18,-1.64l1.6,-1.31l0.06,-1.1l-0.39,-0.65l-0.84,-0.19l-0.22,-0.43l0.4,-0.66l-0.08,-0.79l-0.55,-0.91l0.28,-1l0.24,-0.24l0.87,-0.85l1,-0.21l0.89,0.66l1.16,0.05l1.42,-0.56l1.39,0.09l1.35,0.74l1.38,1.51l1.4,2.27l2.16,1.22l2.91,0.16l2.2,0.67l1.49,1.19l1.13,0.29l1.17,-0.91l1.29,-0.56l1.4,0.26l1.95,0.9l2.62,-0.63l3.27,-2.15l2.07,-0.22l0.88,1.73l1.77,1.68l2.66,1.64L998.81,288.4zM882.52,344.65l-1.25,0.13l-0.07,-0.26l0.04,-0.62l0.08,-0.28l0.25,-0.07l0.29,-0.01l0.45,0.55L882.52,344.65z" fill="#000000"/></svg>
