<svg xmlns="http://www.w3.org/2000/svg" viewBox="654.63 263.72 139.67 78.01"><path d="M790.34,337.58L786.22,337.64L782.1,337.68L777.98,337.72L773.86,337.75L769.74,337.76L765.62,337.77L761.5,337.76L757.38,337.75L753.26,337.72L749.14,337.68L745.02,337.63L740.9,337.58L736.78,337.51L732.67,337.43L728.55,337.34L724.43,337.24L720.31,337.13L716.19,337.01L712.07,336.88L707.95,336.74L703.84,336.59L699.72,336.42L695.6,336.25L691.49,336.07L687.37,335.87L683.26,335.67L679.14,335.45L675.03,335.23L670.91,334.99L666.8,334.75L662.69,334.49L658.58,334.22L658.84,330.06L659.1,325.9L659.36,321.74L659.63,317.58L659.89,313.42L660.15,309.27L660.42,305.11L660.68,300.95L660.94,296.79L661.21,292.63L661.47,288.47L661.73,284.31L661.99,280.15L662.26,275.99L662.52,271.83L662.79,267.67L666.36,267.91L669.94,268.13L673.51,268.35L677.09,268.56L680.67,268.76L684.25,268.95L687.83,269.13L691.41,269.31L694.98,269.48L698.56,269.64L702.14,269.79L705.73,269.93L709.31,270.06L712.89,270.19L716.47,270.31L720.05,270.42L723.63,270.52L727.21,270.61L730.79,270.69L734.38,270.77L737.96,270.84L741.54,270.9L745.13,270.95L748.71,270.99L752.29,271.03L755.88,271.06L759.46,271.07L763.04,271.08L766.63,271.09L770.21,271.08L773.79,271.07L776.87,271.04L780.84,273.88L781.88,273.9L783.1,273.44L784.03,274.08L784.68,275.85L784.6,276.75L783.79,276.8L782.79,277.87L781.6,279.98L781.92,281.94L783.76,283.76L784.99,285.59L785.62,287.45L786.84,288.88L789.55,290.39L789.53,291.24L789.58,294.14L789.63,297.04L789.68,299.93L789.73,302.83L789.78,305.72L789.83,308.62L789.88,311.51L789.93,314.41L789.98,317.31L790.04,320.2L790.09,323.1L790.14,325.99L790.19,328.89L790.24,331.79L790.29,334.68z" fill="#000000"/></svg>
