<svg xmlns="http://www.w3.org/2000/svg" viewBox="799.43 420.99 109.88 94.29"><path d="M891.95,485.19l-1.27,0.69l-7.27,-1.81l-1.89,-1.73l-1.59,-0.29l-1.94,-0.1l-1.93,2.41l-1.39,3.17l2.6,1.53l2.19,0.67l3.49,-0.91l1.85,-1.62l1.6,-0.06l0.74,-0.36l0.64,-0.83l1.4,0.52l0.09,0.61l-0.91,0.93l-1.17,0.81l-0.68,0.91l1.51,1.64l2.23,0.43l0.81,-0.31l0.37,-1.99l1.25,-1.35l1.84,0.14l-0.2,0.81l0.31,0.73l0.93,1.21l0.04,1.83l0.2,0.43l-1.91,0.95l-1.45,0.38l-1.1,1.14l0.66,0.57l-1.16,0.62l-0.83,-0.16l-0.39,0.23l-0.08,0.65l-0.58,0.64l1.03,1.75l1.94,1.05l1.41,1.39l5.41,1.56l1.27,-0.15l1.41,1.87l1.06,0.6l1,0.27l-0.01,1.36l-1.66,1.12l-0.38,1.21l-0.39,0.7l-0.85,-0.78l-0.85,-0.55l-1.73,1.99l-0.87,0.46l0.3,-2.03l-0.76,-0.73l-1.21,-1.92l-1.64,-1.13l-1.12,-0.33l-0.9,-0.72l-1.05,-0.24l-0.87,0.14l-1.51,-0.35l-0.17,-1.06l-0.47,-0.77l-1.22,-0.86l-5.65,-1.41l0.01,0.74l0.42,0.53l0.82,0.32l1,0.65l0.13,2.12l-0.35,0.93l-0.09,1.29l-0.28,1.33l-0.61,1.07l-1.47,0.8l-0.71,-0.54l-1.26,-2.74l-1.58,-0.79l-2.43,0.04l-1.61,0.73l-1.64,2.82l-1.42,0.53l-5.05,-1.13l-5.78,-1.84l0.11,-0.72l0.88,-0.28l1.72,0.2l-0.13,-0.73l-1.87,-2.3l-0.38,-1.06l0.16,-1.33l-0.57,0.06l-0.99,1.16l-3.65,-0.76l-1.05,-1.07l-2.26,-3.06l-2.98,0.04l-1.43,-1.85l-2.39,0.91l-1.19,0.94l-1.02,1.42l0.45,0.7l1.13,1.09l-0.47,0.57l-3.44,0.95l-8.1,-0.59l-2.39,-0.76l-3.22,-1.68l-4.42,-1.31l-2.11,-0.17l-2.05,0.35l-6,0.31l-1.38,0.42l-1.17,0.65l-0.79,-0.67l-0.38,-1.21l0.69,-0.21l0.76,-0.74l0.67,-1.44l0.06,-0.86l-0.5,-0.55l1.25,-2.27l0.3,-0.81l-0.3,-3.81l-0.61,-1.37l0.05,-0.8l0.56,-2.1l-0.14,-1.91l1.01,-2.32l0.75,-1.22l0.82,-2.48l0.16,-1.59l0.34,-1.2l-0.29,-1.27l0.59,-0.94l-0.44,-1.29l-0.17,-1.71l-0.77,-0.64l-1.39,-2.49l0.01,-1.11l-1.45,-2.33l-0.05,-0.81l-1.36,-1.2l-0.28,-0.78l-0.19,-3.27l-0.38,-0.95l-1.18,-1.85l-2.7,-2.67l-0.06,-2.83l-0.06,-2.83l-0.06,-2.83l-0.06,-2.83l-0.06,-2.83l-0.06,-2.83l-0.06,-2.83l-0.06,-2.83l3.38,-0.08l3.38,-0.09l3.38,-0.09l3.38,-0.1l3.38,-0.11l3.38,-0.11l3.38,-0.12l3.38,-0.13l3.38,-0.13l3.38,-0.14l3.38,-0.15l3.38,-0.15l3.38,-0.16l3.38,-0.17l3.37,-0.17l3.68,-0.21l0.17,1.09l0.94,0.6l0.11,1.17l-0.71,1.74l0.07,1.18l0.86,0.62l0,0.71l-0.87,0.79l-0.09,0.81l0.68,0.83l0.34,0.99l0,1.14l0.92,1.44l1.36,0.88l0.92,1.08l0.11,0.61l0.09,0.57l-0.15,0.84l-1.01,1.28l-0.78,0.93l-0.48,0.35l-0.24,0.62l0,1.31l-1.13,1.74l-2.37,2.07l-1.51,2.55l-0.66,3.03l-0.75,1.94l-0.85,0.86l-0.37,1.58l0.11,2.32l-0.51,1.31l-1.13,0.3l-0.18,1.34l0.78,2.38l-0.23,1.02l-0.76,0.83l-0.04,0.62l4.61,-0.21l4.63,-0.24l4.63,-0.25l4.63,-0.26l4.63,-0.28l4.63,-0.29l4.63,-0.3l4.63,-0.31l-0.39,2.61l-1.12,3.57l0.01,0.91l0.43,1.11l0.04,0.64l0.57,0.91l1.18,0.87l1.08,1.36l1.05,2.49l0.31,1.16l0.84,1.59l0.4,0.28l0.54,0.15L891.95,485.19zM897.91,487.2l0.15,1.04l-0.99,-0.45l-1.42,0.06l0.6,-0.4l0.41,-0.38l0.19,-0.39l1.69,-1.43l-0.43,0.99L897.91,487.2zM906.12,492.79l-0.49,0.76l0.27,-3.46l-0.98,-2.82l0.9,1.2l0.38,1.48L906.12,492.79zM905.08,495.02l-0.97,1.26l0.01,-0.45l0.69,-1.24l0.52,-0.5L905.08,495.02zM848.42,503.32l-0.71,0.36l-3.34,-1.8l-0.24,-0.83l1.57,-0.83l0.98,0.02l1.59,0.92l0.58,0.25l0.28,0.39l-0.12,0.63L848.42,503.32z" fill="#000000"/></svg>
