<svg xmlns="http://www.w3.org/2000/svg" viewBox="766.13 251.97 125.84 108.63"><path d="M843.17,260.73L842.36,264.19L842.47,267.04L843.24,270.45L844.07,272.99L844.96,274.67L848.02,277.77L853.28,282.29L856.68,286.66L858.21,290.9L859.81,292.54L861.47,291.58L863.64,291.85L866.01,292.42L867.28,293.18L867.57,293.46L867.72,293.76L867.65,294.08L867.38,294.94L864.95,302.28L864.15,305.63L864.37,306.85L865.65,308.56L868,310.74L870.02,312.14L871.72,312.74L874.42,314.44L878.14,317.23L880.06,319.38L880.17,320.9L880.64,322.43L881.48,323.97L881.59,325.49L880.97,326.98L881.39,328.91L882.87,331.26L884.08,332.66L885.02,333.12L885.21,333.09L885.27,332.86L885.11,332.53L885.05,332.23L885.09,331.81L885.26,331.64L885.42,331.58L886.3,332.12L887.66,333.37L888.36,335.11L888.41,337.35L888.09,339.5L887.4,341.56L886.5,342.32L886.07,342.23L885.14,341.94L884.78,342.07L883.99,342.65L883.18,344.67L883.16,344.72L882.82,344.94L882.56,344.75L882.52,344.65L882.31,344.09L881.86,343.54L881.57,343.55L881.32,343.62L881.24,343.9L881.2,344.52L881.27,344.78L881.68,346.41L881.5,347.62L880.66,348.15L880.57,348.82L881.13,349.55L881.16,349.89L880.98,350.19L880.38,350.32L879.93,350.52L879.6,351.15L880.41,352.27L880.37,353.68L879.48,355.4L879.39,356.05L876.09,356.32L873.13,356.57L870.17,356.81L867.21,357.04L868.47,354.59L869.32,353.68L869.92,352.74L871.07,351.83L872.28,349.95L872.38,349.1L872.19,348.28L871.34,347.2L870.43,345.52L865.44,345.83L860.45,346.13L855.46,346.41L850.47,346.68L845.47,346.93L840.48,347.17L835.48,347.39L830.49,347.6L825.49,347.79L820.5,347.96L815.5,348.12L810.5,348.27L805.5,348.4L800.5,348.51L795.5,348.61L790.51,348.69L790.46,345.91L790.42,343.14L790.38,340.36L790.34,337.58L790.29,334.68L790.24,331.79L790.19,328.89L790.14,325.99L790.09,323.1L790.04,320.2L789.98,317.31L789.93,314.41L789.88,311.51L789.83,308.62L789.78,305.72L789.73,302.83L789.68,299.93L789.63,297.04L789.58,294.14L789.53,291.24L789.55,290.39L786.84,288.88L785.62,287.45L784.99,285.59L783.76,283.76L781.92,281.94L781.6,279.98L782.79,277.87L783.79,276.8L784.6,276.75L784.68,275.85L784.03,274.08L783.1,273.44L781.88,273.9L780.84,273.88L776.87,271.04L776.6,270.84L775.36,268.95L774.85,266.68L773.86,265.21L772.39,264.53L771.46,263.04L771.06,260.73L770.12,258.41L769.69,257.72L773.92,257.68L778.19,257.62L782.47,257.55L786.74,257.47L791.02,257.37L795.29,257.26L799.56,257.14L803.84,257.01L808.11,256.87L812.38,256.71L816.65,256.54L820.92,256.36L825.19,256.17L829.46,255.97L833.73,255.75L838,255.53L838.91,257.1L839.86,257.53L840.07,258.05L841.32,258.83L841.62,259.63z" fill="#000000"/></svg>
