<svg xmlns="http://www.w3.org/2000/svg" viewBox="459.42 31.70 192.33 127.83"><path d="M640.59,133.06L640.16,138.25L639.72,143.43L639.29,148.62L638.86,153.8L638.85,153.87L638.84,153.94L638.83,154.01L638.82,154.08L638.7,154.07L638.57,154.05L638.45,154.04L638.32,154.03L634.86,153.72L631.39,153.4L627.93,153.07L624.47,152.73L621.01,152.39L617.55,152.04L614.09,151.67L610.63,151.31L607.17,150.93L603.72,150.54L600.26,150.15L596.8,149.74L593.35,149.33L589.9,148.91L586.44,148.48L582.99,148.05L579.54,147.6L576.1,147.15L572.65,146.69L569.2,146.22L565.76,145.74L562.31,145.25L558.87,144.76L555.43,144.26L551.99,143.74L548.55,143.22L545.11,142.7L541.67,142.16L538.24,141.62L534.8,141.06L531.37,140.5L527.94,139.93L527.48,142.7L527.01,145.47L526.54,148.24L526.08,151.01L525.14,150.25L524.56,149.46L524.12,148.6L523.41,146.28L522.94,145.39L522.49,144.83L521.95,144.7L521.22,144.86L520.63,145.27L520.3,146.12L519.62,147.07L519.51,147.95L519.66,148.43L519.54,148.65L519.18,148.79L516.73,148.03L514.48,148.09L513.05,147.49L510.15,147.15L507.73,146.42L506.86,146.41L506.23,146.77L505.33,147.82L505.11,148L504.82,147.99L500.92,146.61L499.86,146.4L498.6,146.95L498.13,147.43L497.92,148.13L497.63,148.28L497.28,148.18L496.48,147.55L495.69,146.6L495.33,145.95L495.47,144.64L494.99,143.04L495.11,141.7L494.84,140.51L494.31,139.26L493.72,138.4L493.03,138.01L491.65,137.91L491.39,137.74L490.21,136L489.89,135.27L489.87,134.66L490.63,133.35L490.64,132.55L490.45,131.52L490.1,130.62L489.4,129.77L488.93,128.12L487.94,125.74L487.88,124.03L487.62,122.57L487.73,121.19L487.38,120.26L487.63,119.22L487.6,118.91L487.47,118.75L486.66,117.98L485.79,116.71L485.3,116.37L485.08,116.31L484.89,116.55L484.71,117.02L482.66,118.42L481.05,118.94L480.18,119.6L479.46,119.87L479.12,119.84L478.69,119.49L477.42,117.99L476.29,117.2L476.21,116.92L476.49,115.93L477.3,114.89L477.15,112.66L477.47,111.97L478.04,111.54L479.54,111.04L479.75,110.7L479.86,108.64L479.27,107.73L479.15,107.27L479.71,105.68L479.6,104.55L480.38,103.77L480.74,102.21L481.54,100.71L482.53,98.4L482.64,97.35L483.5,96.36L483.93,95.29L484.12,94.5L484.12,94L483.94,93.77L483.49,93.68L481.31,93.69L480.66,93.49L480.12,93.15L479.85,92.7L479.94,91.78L479.6,91.09L479.37,90.94L478.35,91.1L478.16,91.04L478.08,90.85L477.86,90.01L476.65,88.19L476.28,86.32L475.12,84.51L474.16,82.16L472.16,78.35L471.66,77.56L469.86,76L468.6,74.04L467.23,72.53L467.11,72.29L467.12,72.17L467.24,72.09L467.77,71.89L468.01,71.31L467.66,69.97L468.22,68.85L468.18,67.11L468.07,66.52L467.26,64.73L466.83,63.1L465.96,61.48L464.86,58.92L466.08,53.48L467.31,48.03L468.53,42.58L469.75,37.14L472.43,37.74L478.63,39.1L484.83,40.43L491.04,41.74L497.26,43.01L498.66,43.3L503.48,44.26L509.71,45.47L515.94,46.66L522.18,47.82L528.42,48.94L534.67,50.04L540.93,51.11L547.19,52.15L553.45,53.16L558.18,53.91L559.72,54.14L565.99,55.1L572.27,56.02L578.56,56.91L584.84,57.77L591.13,58.61L597.43,59.41L603.73,60.19L610.03,60.93L616.33,61.65L622.64,62.33L628.95,62.99L635.27,63.62L641.58,64.21L646.3,64.64L645.95,68.92L645.59,73.21L645.23,77.5L644.87,81.79L644.51,86.08L644.15,90.36L643.8,94.64L643.44,98.92L643.08,103.19L642.72,107.46L642.37,111.73L642.01,116L641.66,120.27L641.3,124.53L640.95,128.8z" fill="#000000"/></svg>
