<svg xmlns="http://www.w3.org/2000/svg" viewBox="1133.13 148.36 65.30 36.79"><path d="M1173.41,150.21l-0.05,1.21l0.77,0.97l0.62,1.05l1.04,0.91l0.64,-0.07l0.61,-0.39l0.5,-0.09l0.45,0.38l0.02,0.61l-0.73,0.36l-1.15,1.4l-1.15,0.74l-0.29,1.38l-0.55,1.65l-1.23,2.68l0.98,0.44l3.06,-0.06l1.49,0.41l3.07,3.49l-0.32,0.53l0.04,0.79l2.01,0.54l1.38,2.74l1.69,0.58l2.28,0l2.31,-1.62l1.78,-1.83l-0.37,-0.96l-2.01,-1.9l-0.64,-0.98l-1.2,-0.41l-0.2,0.7l-0.87,-0.58l-0.2,-0.41l0.54,-0.38l0.72,-0.12l0.93,0.16l2.82,1.89l1.54,3.11l0.74,2.04l-0.03,0.78l-0.65,0.03l-1.12,0.48l-5.22,2.69l-0.96,1.31l-2.53,1.84l-0.32,-0.46l-0.1,-1.12l-0.8,-2.13l-0.58,0.06l-3.38,4.81l-1.64,0.7l-1.14,1.44l-0.48,-0.49l-1,-2.6l0.26,-2.49l-0.46,0.17l-0.66,1.05l-0.81,-0.8l-0.73,-0.35l-0.72,-0.34l-0.2,-0.81l-0.31,-1.22l-0.73,-0.05l-0.49,-1.47l-0.32,-0.95l-1.2,0.35l-0.98,0.29l-1.58,0.46l-1.64,0.48l-1.2,0.35l-0.08,-0.23l-1.92,0.49l-1.92,0.49l-1.92,0.48l-1.92,0.48l-1.92,0.48l-1.93,0.48l-1.92,0.47l-1.93,0.47l0.04,0.52l-0.67,0.25l-0.17,-0.56l-1.37,0.29l-1.37,0.29l-1.37,0.29l-1.37,0.29l-1.37,0.29l-1.37,0.29l-1.37,0.29l-1.37,0.28l-0.56,-0.42l0.05,-1.94l0.05,-1.94l0.05,-1.94l0.05,-1.94l0.05,-1.94l0.04,-1.94l0.04,-1.94l0.04,-1.94l1.58,-0.34l1.58,-0.34l1.58,-0.34l1.58,-0.35l1.58,-0.35l1.58,-0.35l1.58,-0.35l1.58,-0.35l2.28,-0.52l2.28,-0.53l2.28,-0.53l2.27,-0.54l2.27,-0.54l2.27,-0.54l2.27,-0.55l2.27,-0.55l1.22,-0.97l1.16,-2.14l0.89,-0.64l1.33,-1.45l0.74,-0.44L1173.41,150.21zM1187.32,180.98l-4.14,2.32l-0.9,-0.47l1.02,-0.63l0.94,-2l0.87,-0.45l1.72,0.49L1187.32,180.98zM1196.58,180.85l-1.14,0.71l-3.1,0.05l2.17,-1.36l0.32,-0.35l0.02,-1.07l-0.11,-0.5l1.52,1.85L1196.58,180.85z" fill="#000000"/></svg>
