<svg xmlns="http://www.w3.org/2000/svg" viewBox="846.24 372.86 70.44 115.59"><path d="M908.91,376.13l1.74,1.32l-0.02,0.54l0.01,0.36l-0.02,1.05l-0.09,4.14l-0.09,4.14l-0.09,4.14l-0.1,4.14l-0.1,4.14l-0.1,4.14l-0.1,4.14l-0.11,4.14l-0.11,4.15l-0.11,4.15l-0.11,4.15l-0.11,4.15l-0.12,4.15l-0.12,4.15l-0.12,4.15l-0.12,4.16l0.55,4.17l0.55,4.17l0.55,4.17l0.55,4.17l0.55,4.17l0.55,4.18l0.55,4.18l0.64,4.58l-5.64,0.81l-2.57,-0.95l-1.05,-0.14l-0.62,0.08l-2.8,1.27l-3.23,1.05l-0.79,-0.2l-1.11,0.04l-2.19,2.91l-1.46,0.79l-0.48,-0.15l-0.54,-0.15l-0.4,-0.28l-0.84,-1.59l-0.31,-1.16l-1.05,-2.49l-1.08,-1.36l-1.18,-0.87l-0.57,-0.91l-0.04,-0.64l-0.43,-1.11l-0.01,-0.91l1.12,-3.57l0.39,-2.61l-4.63,0.31l-4.63,0.3l-4.63,0.29l-4.63,0.28l-4.63,0.26l-4.63,0.25l-4.63,0.24l-4.61,0.21l0.04,-0.62l0.76,-0.83l0.23,-1.02l-0.78,-2.38l0.18,-1.34l1.13,-0.3l0.51,-1.31l-0.11,-2.32l0.37,-1.58l0.85,-0.86l0.75,-1.94l0.66,-3.03l1.51,-2.55l2.37,-2.07l1.13,-1.74l0,-1.31l0.24,-0.62l0.48,-0.35l0.78,-0.93l1.01,-1.28l0.15,-0.84l-0.09,-0.57l-0.11,-0.61l-0.92,-1.08l-1.36,-0.88l-0.92,-1.44l0,-1.14l-0.34,-0.99l-0.68,-0.83l0.09,-0.81l0.87,-0.79l0,-0.71l-0.86,-0.62l-0.07,-1.18l0.71,-1.74l-0.11,-1.17l-0.94,-0.6l-0.17,-1.09l-0.08,-0.55l0.65,-4l-0.22,-0.5l-0.93,-1.15l-0.17,-1.44l0.42,-1.79l-0.32,-1.36l-0.75,-0.46l-0.21,-0.53l-0.26,-0.8l0.74,-0.78l0.01,-0.69l-0.72,-0.59l0.39,-0.92l1.5,-1.24l0.4,-0.68l0.42,-0.71l0.18,-1.66l-0.27,-0.96l-0.41,-0.63l0.16,-0.34l0.3,-0.32l1.82,-0.7l0.5,-0.45l0.08,-0.52l-0.65,-1.24l0.49,-1.37l1.63,-1.51l0.84,-1.3l0.04,-1.08l0.77,-0.83l1.49,-0.58l0.83,-2.05l0.16,-3.52l0.36,-1.52l0.76,-0.27l0.38,-0.51l0.07,-1.01l0.88,-1.09l1.69,-1.17l0.63,-1.07l-0.24,-0.54l-0.05,-0.69l4.66,-0.29l4.86,-0.32l4.85,-0.33l4.85,-0.35l4.85,-0.36l4.85,-0.38l4.85,-0.39L908.91,376.13zM910.63,483.23l-0.22,0.27l-1.76,-0.33l-1.08,-0.35l-0.22,-0.42l2.96,0.55L910.63,483.23z" fill="#000000"/></svg>
