<svg xmlns="http://www.w3.org/2000/svg" viewBox="847.98 79.50 143.29 149.01"><path d="M872.31,89.88l-0.05,0.38l0.56,0.07l-0.08,0.19l-0.57,0.38l-1.64,0.82l-1.12,0.31l-0.6,-0.2l-0.09,-0.46l0.41,-0.71l-0.03,-0.34l-0.47,0.04l0.09,-0.27l0.66,-0.58l5.63,-3.85l2.42,-1.44l1.31,-0.5l0.23,0.17l-1.35,1.39l-0.19,0.54l0.08,0.34l-0.42,0.71l-4.13,2.72L872.31,89.88zM884.76,105.02l-0.22,0.75l0.09,0.43l-1.7,2.07l-0.57,1.27l-0.55,0.24l-0.52,-0.79l-0.05,-0.66l0.42,-0.54l0.39,-0.75l-0.03,-0.99l-0.2,-0.34l-0.49,0.93l0.33,0.16l0.11,0.14l-0.08,0.33l-2.17,-0.29l-0.7,-0.64l0.03,-0.97l0.61,-1.29l2.34,-2.83l1.06,-0.82l3.1,-1.43l1.74,-0.42l1.77,-0.16l1.32,0.26l0.87,0.68l-0.71,0.57l-3.46,0.74l-0.08,0.15l0.7,0.35l0.15,0.28l-0.55,0.82L884.76,105.02zM945.65,114.44l0.51,0.23l0.38,0.46l0.98,1.27l0.52,0.88l0.42,1.35l0.23,0.44l0.08,0.81l-0.47,0.62l-0.09,0.45l0.38,0.39l1.84,-0.12l0.89,0.32l0.38,0.44l-0.14,0.56l0.19,0.55l0.53,0.54l1.58,0.71l0.42,0.38l-0.04,0.47l-0.4,0.35l-0.75,0.24l-5.72,-0.12l-1.67,0.07l-0.2,0.34l-0.15,0.07l-0.28,-0.05l-0.48,0.04l-0.27,-0.17l-0.27,-0.54l-0.54,-0.3l-0.79,-0.06l-0.61,0.51l-0.57,1.78l0.16,0.3l0.01,1.1l0.24,0.27l0.02,0.25l-0.19,0.23l-0.46,0.03l-0.73,-0.17l-2.95,-2.23l-2.15,-1.03l-2.58,-0.64l-2.01,-0.23l-1.44,0.19l-1.11,0.79l-0.78,1.39l-1.36,0.9l-1.94,0.4l-1.03,0.46l-0.11,0.53l-0.71,0.09l-1.3,-0.35l-1.31,0l-1.31,0.36l-0.92,0.61l-0.86,1.69l-0.12,0.8l-0.68,0.75l-1.88,1.27l-0.06,0.4l-0.92,1.31l-0.26,0.7l0.07,0.65l-0.36,0l-0.78,-0.66l-0.13,-0.98l0.53,-1.3l0.52,-0.66l0.51,-0.01l0.26,-0.58l0,-1.14l-0.24,-0.55l-0.97,0.33l-0.47,0.51l-0.65,0.16l-0.82,-0.18l-0.64,0.69l-0.46,1.55l-0.63,1.05l-0.8,0.55l-0.62,-0.45l-0.44,-1.45l-0.12,-1.17l0.2,-1.44l-0.2,-0.26l-0.31,0.48l-0.42,1.23l-0.46,2.63l-0.38,0.88l-0.58,0.41l-0.83,1.64l-1.08,2.88l-1.26,2.81l-1.45,2.74l-0.89,1.48l-0.32,0.23l-0.11,0.48l0.04,1.09l-0.78,-0.23l-0.72,-0.82l-0.47,-0.86l-0.12,-0.92l0.71,-2.37l0.05,-0.38l-0.12,-0.2l-0.53,-0.21l-1.1,0.51l-1.14,0.18l-0.38,-0.12l-0.18,-0.38l-0.04,-0.61l0.17,-0.75l0.57,-1.41l-0.11,-1.28l0.25,-0.76l-0.43,-1.33l0.02,-0.65l-0.55,-0.67l-1.38,-0.82l-3.13,-0.98l0.18,-1.42l-0.17,-0.59l-0.82,-0.83l-3.25,-0.78l-2.19,-0.29l-2.13,0.16l-1.55,-0.26l-1.72,0.01l-1.15,-0.54l-1.14,-0.54l-1.14,-0.55l-1.14,-0.55l-1.98,-0.39l-1.98,-0.4l-1.98,-0.4l-1.98,-0.4l-1.98,-0.4l-1.97,-0.41l-1.97,-0.41l-1.97,-0.41l-0.49,-0.91l-0.49,-0.91l-0.49,-0.91l-0.49,-0.91l-0.91,-0.34l-0.48,-0.18l-0.38,-0.47l-0.78,0.26l-0.36,-0.79l0.07,-0.18l1.01,-0.28l2.82,-1.35l2.38,-1.58l1.93,-1.81l2.48,-1.2l3.02,-0.59l2.14,-0.75l1.25,-0.91l1.64,-1.71l0.95,-0.54l1.23,-0.24l0.89,-0.68l0.54,-1.13l1.09,-1.32l1.63,-1.51l0.95,-0.64l0.27,0.24l0.13,0.48l-0.01,0.72l0.48,0.54l0.97,0.36l0.47,0.55l-0.02,0.73l0.3,0.6l0.63,0.46l0.25,1.1l-0.13,1.74l0.06,1.11l0.25,0.49l0.23,0.27l0.31,-0.3l0.37,-0.64l0.12,-0.38l0.07,-0.39l2.41,-1.95l0.49,-0.13l0.88,0.37l3.92,0.28l1.57,0.31l1.7,0.85l0.58,0.33l2.27,3.02l1.01,1.17l0.59,0.29l0.36,0.46l0.37,1.1l0.34,0.31l2.91,-0.04l1.29,-0.33l0.75,-0.54l0.91,0.21l1.08,0.95l0.99,0.2l0.9,-0.56l0.89,-0.07l0.88,0.4l0.42,0.32l0.25,-0.04l1.48,-1.77l1.83,-1.62l2.47,-1.81l1.45,-0.85l0.44,0.12l2.37,-0.78l2.18,-0.29l2.93,-0.02l2.64,-0.67l2.35,-1.31l2.11,-0.83l1.88,-0.35l0.75,0.2l-0.38,0.75l-0.1,1.22l0.17,1.69l-0.03,1.08l-0.23,0.48l0.02,0.43l0.27,0.38l1.88,0.04l1.04,0.43l1.12,-0.11l1.19,-0.65l0.98,0.07l0.78,0.79l0.99,0.03l0.86,-0.75l0.59,-0.67l0.54,-0.33L945.65,114.44zM949.53,117.16l0.07,0.48l-0.49,-0.05l-0.44,-0.27l-0.38,-0.5l-0.57,-1.29l-0.73,-0.88l0.76,-1.2l0.52,-0.2l0.61,0.17l0.16,0.62l-0.29,1.07l0.16,1.04L949.53,117.16zM950.06,119.72l-0.2,0.15l-0.89,-0.77l-0.23,-0.51l0.06,-0.46l0.3,-0.06l0.54,0.34l0.33,0.44l0.13,0.53L950.06,119.72zM960.29,123.6l0.22,0.48l-0.27,0.78l-1.04,0.52l-2.21,0.26l-1.47,-0.09l-0.73,-0.43l-0.18,-0.25l-0.02,-0.59l0.31,-0.08l0.51,0.25l0.68,-0.23l0.85,-0.71l0.43,-0.5l0.01,-0.3l-0.37,-0.52l0.21,-0.27l1.2,0.05l0.49,0.31l0.96,1.15L960.29,123.6zM944.52,130.05l2.03,0.06l0.17,-0.2l0.64,0.52l0.15,0.48l-0.19,0.45l-0.32,0.27l-0.45,0.1l-0.77,-0.33l-1.32,-0.97L944.52,130.05zM941.4,131.08l1.17,0.27l2.16,1.12l2,0.56l1.82,0l1.37,0.31l0.92,0.63l0.7,0.75l0.49,0.87l0.93,0.4l1.37,-0.06l1.11,0.25l0.86,0.56l4.53,1.13l1.92,0.65l1.11,0.74l0.36,0.53l-0.01,0.57l0.18,0.58l0.9,1.06l0.29,0.06l0.25,0.54l0.21,1.01l0.31,0.65l0.42,0.29l-0.2,0.17l-1.41,-0.4l-0.73,0.28l-0.24,0.81l0.05,0.73l0.33,0.64l1.99,1.8l0.71,1.8l0.4,2.24l-0.09,0.91l0.09,1.96l0.28,3.01l0.11,1.03l-0.43,1.08l-1.34,1.65l-0.06,-0.27l-0.38,-0.02l-0.37,0.27l-0.39,1.31l-0.17,2.31l-0.41,1.3l-0.66,0.29l-0.37,0.38l-0.08,0.47l-0.7,0.41l-1.32,0.34l-0.83,0.81l-0.42,2.02l0.15,0.92l-0.16,1.19l0.15,0.98l0.47,0.77l1.2,0.67l1.92,0.57l1.1,-0.02l0.7,-0.44l0.59,-1.45l0.68,-0.63l0.89,-0.35l0.26,-0.66l1.14,-2.88l-0.08,-0.6l-0.58,-0.15l0.06,-0.18l0.69,-0.21l0.57,-0.45l0.44,-0.69l0.85,-0.59l2.13,-1.01l1.08,-0.97l0.74,-0.24l1.16,0.27l1.59,0.77l1.35,1.26l1.12,1.75l1.79,4.69l2.46,7.64l1.54,4.25l0.62,0.86l0.31,0.43l-0.23,6.3l-0.55,2.67l-1.41,1.71l-1.41,1.66l-1.67,2.68l-2.05,1.5l-1.04,0.86l-0.18,0.48l-0.29,-0.1l-0.42,1.38l-0.29,1.87l-0.02,1.42l0.3,0.73l-0.4,0.55l-0.71,1.03l-0.11,0.35l0.13,0.53l-0.14,0.29l-0.41,0.05l-0.27,0.3l-0.62,1.06l-0.96,2.69l-0.15,0.49l-0.15,0.16l-5.47,0.96l-5.48,0.94l-5.48,0.92l-5.48,0.9l-0.17,-1.29l-5.01,0.61l-5.02,0.59l-5.02,0.58l-5.02,0.56l-5.02,0.54l-5.02,0.53l-4.1,0.42l1,-0.73l1.62,-1.62l0.85,-1.38l0.77,-1.79l0.69,-2.19l1.53,-3.33l0.7,-1.99l0.61,-2.49l0.38,-2.58l0.16,-2.68l-0.09,-2.75l-0.33,-2.82l-0.75,-2.8l-1.16,-2.77l-0.62,-1.42l-0.22,-0.37l-1.93,-3.5l-2.26,-4.93l-0.02,-0.44l1.29,-3.22l0,-0.41l-0.43,-2.45l-0.47,-1.2l-0.99,-1.58l-0.02,-0.42l1.44,-2.3l0.83,-1.72l0.7,-2.06l0.34,-2.35l-0.01,-2.65l-0.2,-1.74l-0.38,-0.84l-0.04,-0.68l0.29,-0.51l1.7,-0.8l0.48,-1.1l-0.07,-1.83l0.26,-0.94l0.6,-0.05l0.51,-0.43l0.42,-0.82l0.65,-0.29l0.87,0.23l1.04,-1.25l1.2,-2.75l0.98,-1.57l0.76,-0.4l0.18,0.22l-0.41,0.83l-0.06,0.86l0.3,0.9l-0.06,0.91l-0.23,1.26l0.27,0.35l-0.42,2.03l0.08,0.98l0.48,0.7l0.43,-0.31l0.39,-1.33l0.08,-0.69l-0.23,-0.06l0.02,-0.55l0.26,-1.04l0.28,-0.51l0.3,0.02l0.15,0.53l-0.01,1.04l-0.57,2.52l-0.08,0.76l0.22,0.19l0.85,-1.64l0.58,-2.52l0.44,-1.93l0,-1.02l-0.5,-2.59l-0.08,-1.07l0.16,-0.77l0.78,-0.94l1.41,-1.11l1.44,-0.67l1.47,-0.24l1,-0.38l0.53,-0.51l-0.25,-0.33l-1.03,-0.14l-0.82,-0.49l-0.63,-0.83l-0.3,-1.01l0.03,-1.18l0.49,-1.21l0.96,-1.25l0.24,-0.86l-0.47,-0.48l0.44,-0.24l1.35,-0.01l0.91,-0.26l0.47,-0.51L941.4,131.08zM929.61,136.77l-0.52,0.17l-0.44,-0.21l-0.05,-1.05l0.33,-1.88l0.44,-0.9l0.76,0.25l-0.12,0.24l0.37,1.93l-0.16,0.89L929.61,136.77zM924.21,148.66l-0.15,0.34l-0.44,0.02l-0.38,-0.27l-0.45,-0.94l0.09,-0.23l0.87,0.05l0.34,0.38L924.21,148.66z" fill="#000000"/></svg>
