<svg xmlns="http://www.w3.org/2000/svg" viewBox="1151.31 39.66 71.37 109.18"><path d="M1172.07,47.54l0.21,0.43l0.91,0.6l1.13,0.25l0.79,-0.04l0.86,-0.27l2.01,-1.8l2.53,-1.55l1.31,-1.12l0.08,-0.7l0.62,-0.43l1.16,-0.16l2.51,0.89l3.1,1.55l2.45,1.22l1.07,3.13l1.11,3.32l1.17,3.5l0.83,2.5l1.15,3.43l0.92,2.72l1.2,3.55l0.64,1.9l0.44,0.47l0.08,0.8l0.05,0.4l0.11,0.29l0.23,0.34l0.15,0.53l-0.09,0.55l0.05,0.59l0.25,0.91l0.44,0.47l0.54,0.18l0.37,-0.12l0.58,0.17l0.8,0.38l1.09,0.2l1.02,-0.14l0.63,-0.34l0.91,0.06l0.54,0.71l0.09,0.8l-0.34,0.5l-0.4,0.43l0.1,0.6l0.44,0.52l0.52,0.41l0.69,0.8l0.1,0.85l-0.13,0.79l0.07,0.75l0.49,0.5l1.05,0.54l0.75,0.61l0.92,0.17l0.27,-0.42l0.17,-0.5l0.22,-0.4l0.6,0l0.71,0.02l0.78,0.04l0.13,0.68l0.78,0.95l1.02,1.99l-0.19,1.12l0.52,1.23l1.52,-0.1l0.47,0.27l0.22,0.44l-2.03,4.25l-2.77,0.4l-1.14,1.32l-1.41,0.73l-0.19,1.66l-0.72,0.57l-1.15,0.27l-1.1,-0.1l-0.68,0.44l-0.2,2.94l-0.92,0.04l-0.04,1.05l-0.31,0.55l-0.54,0.56l-0.93,-0.98l-0.71,-0.99l-0.61,-0.07l-0.79,-0.06l-0.72,0.24l-0.43,0.31l-0.38,0.9l-0.68,0.89l-0.82,-0.3l-0.77,-0.66l-0.03,1.46l-0.21,1.59l0.61,1.59l0.03,1.05l-0.69,-0.07l-0.87,-0.66l-1.91,-0.15l-1.34,0.48l0,-0.99l0.88,-1.69l-0.47,-0.13l-0.57,0.38l-0.33,-0.1l0.08,-1.32l-0.36,-1.31l-0.43,0.63l-0.3,1.6l-1.41,1.63l0.64,1.81l-0.5,4.26l0.41,1.62l-0.67,1.6l-1.04,1.51l-1.92,0.24l-1.11,1.38l-0.38,1.31l-0.57,0.35l-0.74,-1.3l-0.36,-0.36l0.1,2.21l-0.49,0.28l-0.63,-1.4l-0.54,-0.89l-0.47,1.04l0.18,2.35l-0.55,-0.04l-0.4,-0.77l-0.43,-0.14l0.15,0.97l0.57,1.27l-0.05,0.78l-0.61,-0.23l-0.69,-0.49l-0.68,0.72l-0.7,0.42l-0.19,-0.65l-0.09,-0.83l-1.38,0.88l-1.38,1.99l-0.82,2.43l0.59,0.19l0.74,0.48l-1.54,3.84l-1.7,3.54l-0.59,5.14l-0.61,0.76l-0.42,1.03l-1.83,-1.65l-0.71,-1.55l-1.96,-1.51l-0.93,-1.16l-0.6,-1.42l-0.37,-1.61l-0.79,-2.35l-0.79,-2.35l-0.79,-2.35l-0.79,-2.35l-0.79,-2.35l-0.79,-2.35l-0.79,-2.35l-0.79,-2.35l-0.79,-2.35l-0.79,-2.35l-0.79,-2.35l-0.79,-2.35l-0.79,-2.35l-0.79,-2.35l-0.79,-2.35l-0.71,-2.1l0.28,-0.43l0.75,-0.87l0.63,-0.08l0.77,0.77l0.6,0.49l0.45,-0.32l0.18,-0.98l-0.35,-1.19l0.35,-1l0.66,-0.33l0.65,-0.16l0.2,-0.5l-0.2,-0.57l-0.5,-0.87l-0.24,-1.15l1.03,-2.45l1.57,-1.92l0.49,-0.87l-0.2,-1.43l0.71,-1.75l0.32,-0.98l-0.07,-0.75l-0.54,-0.79l-0.46,-1.68l-0.2,-2.11l-0.17,-2.31l0.45,-2.26l1.05,-2.63l-0.39,-2.93l-0.42,-3.1l1.16,-3.48l1.3,-3.95l0.74,-2.25l1.31,-4.08l0.92,-2.91l0.5,-1.36l0.47,-1.58l1.53,-0.04l1.52,-0.04l0.38,1.97L1172.07,47.54zM1204.73,106.9l-0.76,0.7l-1.03,0.13l0.37,1.12l0.02,0.44l-1.26,-0.24l-0.51,-0.25l-0.43,-1.5l0.51,-1.71l0.55,-0.78l1.06,0.09l1.22,1.35L1204.73,106.9zM1198.97,111.9l-0.45,0.6l-0.66,0.06l-0.35,-1.05l0.08,-0.41l0.17,-0.23l0.41,0.2L1198.97,111.9z" fill="#000000"/></svg>
