<svg xmlns="http://www.w3.org/2000/svg" viewBox="1045.35 236.42 85.99 43.08"><path d="M1109.83,238.85l0.94,3.4l0.94,3.4l0.94,3.4l0.94,3.4l0.94,3.4l0.94,3.4l0.94,3.4l0.95,3.39l0.04,-0.01l0.04,-0.01l0.04,-0.01l0.04,-0.01l0.04,-0.01l0.04,-0.01l0.04,-0.01l0.04,-0.01l1.72,-0.39l3.77,-0.87l3.77,-0.88l1.82,-0.44l0.13,0.64l0.01,0.99l-0.31,0.47l-0.21,-0.96l-0.36,-0.27l-0.36,0.52l-0.19,0.54l0.31,1.89l-0.1,1.01l-1.05,0.54l-0.56,2.71l-0.74,1.63l-0.18,0.96l-1.55,0.59l-2.5,0.93l-0.45,1.13l-1.4,-0.13l-1.97,0.49l0.07,-1.41l0.31,-1.3l-1.29,-0.93l-0.65,-0.01l-0.74,-0.33l0.52,-1.14l0.13,-1.11l-0.5,-1.2l0.1,-1.01l-0.48,0.26l-0.6,1.18l-0.43,0.51l-0.51,-0.81l-0.31,0.28l-0.1,0.66l-0.45,0.45l-1.3,-0.58l-1.83,-0.59l-1.27,-1.43l-0.79,-1.15l0.02,-2.4l1.03,-0.65l1.54,0.05l1.91,-0.43l-0.38,-0.45l-0.66,0.23l-2.42,-1.41l-0.89,-0.98l-1.18,-0.06l-0.27,1.19l-0.5,0.41l0.18,-2.51l0.88,-0.3l1.19,-0.95l-0.69,-1.28l-0.98,-0.41l-1.36,1.08l-0.19,-0.96l0.02,-1.29l1.15,-0.25l1.09,0.18l0.42,-2.17l-0.16,-0.9l-1.13,1.6l-0.93,-2.71l0.8,-2.99l1.07,-1.46l1.66,-0.34l1.64,-0.57l-1.17,-0.25l-1.14,-0.02l0.58,-1.24l0.65,-0.34l0.47,-1.08l-1.6,0.5l-0.2,-1.79l-0.72,0.53l-0.91,0.38l-0.21,0.82l0.35,1.21l-0.1,0.87l-0.6,0.81l-1.14,0.78l-0.32,-0.85l-0.5,-0.3l0.26,1.91l-0.19,0.71l-1.3,-1.56l-0.2,0.42l0.14,0.49l-0.04,0.92l-0.69,0.62l0.29,1.1l-0.17,0.67l-2.74,-0.41l0.01,0.34l1.88,1.77l1.2,0.48l0.38,1.1l-0.69,1.14l-1.42,-0.54l-0.2,0.1l0.98,1.24l0.69,1.12l-0.21,1.11l0.34,1.24l0.15,1.16l-0.05,1.05l1.6,4.44l1,1.08l0.98,1.03l0.63,1.03l-0.73,0.33l-1.42,-0.65l-1.22,-0.47l-1.76,-1.96l-0.4,-0.84l-0.46,-0.64l0.5,1.58l0.84,1.71l4.87,3.17l1.08,1.39l0.83,1.09l0.11,1.2l-1.22,-0.6l-1.13,-0.86l-2.64,-0.67l-3.17,-0.1l-2.29,-2.41l0.25,1.15l-0.17,1.06l-1.29,-0.97l-0.87,-0.88l-0.46,-1.07l-1.27,0.35l-1.15,1.26l-1.36,0.04l-0.55,-1.86l0.14,-1.08l0.97,-2.68l1.13,-1.5l0.28,-1.69l-0.72,-2.38l0.56,1.76l1.13,-2.1l-1.27,-1.19l-1.18,-1.1l-1.04,1.77l-1.27,-0.31l-2.27,-1.44l-3.32,-0.66l-0.57,-0.56l-0.09,-0.72l0.2,-1.08l-1.14,-0.78l-2.47,-0.49l-1.14,-0.6l-0.24,-0.13l-0.3,-0.98l-0.42,-0.57l-0.55,-0.17l-0.18,-0.41l0.18,-0.65l-0.44,-0.57l-1.06,-0.49l-0.44,-0.53l0.18,-0.58l-0.52,-0.15l-1.21,0.29l-1.3,-0.25l-1.39,-0.78l-1.44,0.11l-2.23,1.5l-1.32,0.52l-0.49,0.69l-0.1,1.05l-0.5,0.61l-1.34,0.27l-0.22,0.01l-1.59,-0.03l-1.2,-0.41l-0.25,-0.22l0.02,-0.55l-0.25,-0.2l-0.34,0.02l-0.25,0.36l-0.14,0.99l-2.17,3.05l-1.37,-0.27l-0.48,0.11l-3.03,4.28l-1.02,0.78l-1.88,2.03l-0.47,-2.8l-0.47,-2.81l-0.47,-2.81l-0.47,-2.81l3.9,-0.72l3.89,-0.73l3.89,-0.74l3.89,-0.75l3.89,-0.76l3.89,-0.77l3.88,-0.78l3.88,-0.79l3.88,-0.8l3.88,-0.81l3.88,-0.82l3.87,-0.83l3.87,-0.84l3.87,-0.85l3.87,-0.86L1109.83,238.85zM1127.65,273.11l-0.44,0.17l0.28,-0.86l0.67,-3.98l0.38,-1.41l-0.06,2.7l-0.6,2.61L1127.65,273.11z" fill="#000000"/></svg>
