<svg xmlns="http://www.w3.org/2000/svg" viewBox="743.53 57.39 123.23 139.76"><path d="M804.97,77.87l1.79,-0.33l1.54,0.03l1.55,0.07l0.84,0.15l2.42,0.91l1.59,0.76l2.3,1.42l1.27,0.62l0.66,1.54l0.78,1.99l1,-0.04l0.7,-1.21l1.9,-0.29l2.54,0.72l2.31,2.25l3.28,1.95l2,0.95l1.98,-0.1l2.46,-1.17l2.56,-2.15l1.9,-0.45l1.15,0.13l0.74,1.53l0.83,0.55l2.06,-0.3l4.34,0.04l3.41,-0.65l0.84,0.85l0.79,1.37l1.43,0.35l1.87,-0.58l3.01,0.1l-0.4,0.26l-0.44,-0.02l-0.55,0.38l-0.67,0.77l-1.58,1.14l-2.5,1.52l-2.91,1.42l-5.93,2.59l-3.65,2.52l-1.6,1.48l-6.18,7.29l-3.79,3.89l-6.21,5.48l-0.58,0.69l-0.02,0.61l-0.28,0l-1.01,1.3l-0.42,0.83l-1.04,0.27l0.13,3.23l0.13,3.23l0.13,3.23l0.13,3.23l-0.5,0.35l-0.62,0.78l-0.89,0.22l-4.11,2.82l-0.66,0.79l-0.7,1.8l-1.31,2.05l-0.31,1.08l0.11,1.43l2.16,1.08l0.83,1.08l0.43,1.34l-0.01,1.18l-0.99,2.34l-0.16,0.93l0.21,2.81l-0.51,0.9l0.52,2.26l0.06,0.79l-0.25,2.51l-0.21,0.74l0.47,1.28l0.05,0.14l2.08,1.73l1.74,0.93l1.54,0.26l1.22,0.72l0.91,1.18l1.2,0.75l1.48,0.32l1.54,0.95l2.4,2.38l1.24,2.06l2.07,1.42l3.32,1.46l2.2,1.31l1.07,1.16l0.83,3.06l0.88,6.55l-5.35,0.28l-5.27,0.25l-5.28,0.23l-5.28,0.21l-5.28,0.19l-5.28,0.17l-5.28,0.15l-5.28,0.14l-5.28,0.12l-5.28,0.1l-5.28,0.08l-5.28,0.06l-5.28,0.04l-5.28,0.02l-5.28,0l-5.28,-0.02l0.02,-5.01l0.02,-5.01l0.03,-5.01l0.02,-5.02l0.02,-5.02l0.03,-5.02l0.03,-5.02l0.02,-5.02l-1.19,-1.67l-2.61,-1.37l-0.65,-0.81l-1.2,-2.02l-0.47,-0.87l-0.08,-0.67l0.59,-0.74l2.39,-2.14l0.76,-0.99l0.38,-0.97l0.56,-2.23l-0.21,-1.72l0.17,-2.67l-0.47,-2.01l-0.1,-1l-0.29,-1.24l-1.74,-3.28l-0.4,-2.64l-0.43,-1.3l-0.11,-3.34l0.06,-0.94l0.37,-1.81l-0.73,-1.23l-0.1,-1.01l-0.27,-7.97l-0.22,-1.14l0.1,-3.7l-1.29,-3.91l-0.62,-1.33l-0.3,-1.61l0.03,-0.77l-1.05,-2.67l-0.68,-2.94l0.1,-2.54l-0.2,-1.92l0.1,-1.49l-0.17,-2.25l0.24,-1.27l0.04,-1.98l-1.37,-7.07l1.82,0.02l6.35,0.06l6.35,0.03l6.34,0l6.35,-0.03l3.51,0l0.01,-4.78l0.01,-3.77l3.2,0.42l0.96,0.68l0.31,0.32l-0.08,1.04l0.3,3.15l0.62,2.62l1.39,3.14l0,0.01l0.13,1.23l0.46,0.77l0.82,0.71l3.1,0.82l5.39,0.91l3.07,1.1l0.75,1.3l1.45,0.49l2.14,-0.31l1.49,-0.59L804.97,77.87zM804.97,77.87l-0.05,0.01l0.07,-0.03L804.97,77.87z" fill="#000000"/></svg>
