<svg xmlns="http://www.w3.org/2000/svg" viewBox="1112.82 197.70 26.75 56.32"><path d="M1134.34,204.02l0.14,1.75l-0.77,3.81l-0.49,0.96l-0.63,0.9l-0.53,0.45l-0.43,0.68l-0.44,1.02l-0.2,1.87l0.76,1.47l3.3,-0.2l0.73,-0.69l0.71,1.01l0.63,1.49l0.18,1.74l-0.11,1.84l0.12,2.22l0.46,3.32l0.2,3.04l-0.29,-0.87l-0.55,-3.62l-0.43,0.5l-0.16,0.91l0.15,4.81l-0.75,2.76l-0.83,1.99l-1.35,0.03l0.61,1.27l-0.18,0.78l0.05,1.53l-0.53,1.15l-0.74,0.08l-0.87,0.91l-0.29,0.61l0.2,0.98l-0.49,1.02l-1.44,5.05l-1.87,1.83l-0.57,-0.07l0.08,-2.24l-0.11,-2.22l-1.54,-0.61l-1.38,-0.19l-1.43,0.4l-1.98,-1.28l-2.34,-0.73l-3.62,-2.6l-0.12,-0.92l-0.42,-1.5l0.32,-2.59l0.45,-1.87l0.95,-1.13l3.12,-1.65l0.52,-1.52l0.23,-1.23l0.67,-0.93l1.58,-1.79l2.51,-2.31l-5.29,-4.49l-1.03,-0.09l-1.67,-2.41l-1.38,-0.45l-0.4,-0.34l-0.53,-2.02l-0.16,-1.19l0.02,-0.73l0.9,-0.82l0.32,-1.31l-0.13,-0.61l-1.23,-1.71l-0.14,-0.59l1.23,-1.49l1.42,-2.7l0.58,-2.73l0.3,-0.82l0.44,-0.65l1.12,-1l1.85,0.6l1.85,0.6l1.85,0.6l1.86,0.6l1.86,0.59l1.86,0.59l1.86,0.59L1134.34,204.02zM1137.64,233.24l-1.16,3.75l-0.2,-0.62l1.45,-4.66L1137.64,233.24z" fill="#000000"/></svg>
