<svg xmlns="http://www.w3.org/2000/svg" viewBox="1028.83 100.43 141.86 119.15"><path d="M1049.12,104.45l-0.02,-0.01L1049.12,104.45L1049.12,104.45zM1135.37,163.36l-0.04,1.94l-0.04,1.94l-0.04,1.94l-0.05,1.94l-0.05,1.94l-0.05,1.94l-0.05,1.94l-0.05,1.94l0.56,0.42l0.39,2.08l0.39,2.08l0.39,2.08l0.39,2.08l0.39,2.08l0.39,2.08l0.39,2.08l0.39,2.08l0.7,0.71l0.7,0.71l-0.51,0.54l-0.8,0.84l-0.85,0.9l-1.11,1.17l0.94,0.91l1.18,1.15l-0.53,0.73l-1.29,2.33l-0.93,1.31l-0.89,0.57l-0.39,0.99l-0.52,0.71l0.17,-2.04l0.29,-1.76l-0.2,-3.22l-0.79,-2.45l-0.96,-0.85l-0.9,-0.5l1.46,2.25l0.88,2.98l0.01,0.09l-1.81,-0.59l-1.86,-0.59l-1.86,-0.59l-1.86,-0.59l-1.86,-0.6l-1.85,-0.6l-1.85,-0.6l-1.85,-0.6l-0.54,-0.73l-0.74,-0.49l-3.17,-0.4l-0.92,-0.55l-0.9,-0.82l-0.75,-1.09l-0.54,-1.21l-0.25,-1.01l-0.05,-1.17l-0.84,-0.59l-0.18,-0.7l-0.54,-0.37l-2.09,-0.4l-0.84,-1.05l-1.51,-0.83l-2.23,0.51l-2.23,0.51l-2.23,0.5l-2.23,0.5l-2.23,0.5l-2.24,0.5l-2.24,0.49l-2.24,0.49l-2.24,0.48l-2.24,0.48l-2.24,0.48l-2.24,0.48l-2.24,0.47l-2.24,0.47l-2.24,0.46l-2.24,0.46l-2.24,0.46l-2.24,0.45l-2.25,0.45l-2.24,0.45l-2.25,0.44l-2.25,0.44l-2.25,0.44l-2.25,0.43l-2.25,0.43l-2.25,0.43l-2.25,0.42l-2.25,0.42l-2.25,0.42l-2.25,0.41l-2.25,0.41l-2.25,0.41l-0.53,-2.95l-0.53,-2.95l-0.02,-0.12l0.86,-0.71l2.75,-2.56l1.29,-1.73l1.42,-1.5l1.54,-1.28l1.13,-1.48l0.73,-1.69l0.9,-1.32l1.08,-0.96l0.5,-0.89l-0.06,-0.82l-0.43,-1.05l-0.8,-1.27l-0.28,-1.07l0.24,-0.86l-0.01,-0.55l-0.27,-0.23l-2.68,-0.3l-0.6,-3.79l-0.05,-0.1l0.12,-0.07l5.5,-2.78l3.59,-1.29l4.48,-1.04l5.54,-0.26l2.24,0.32l1.52,0.69l1.58,-0.06l1.64,-0.8l2.36,-0.65l3.09,-0.49l1.68,-0.12l0.27,0.25l0.19,-0.13l0.11,-0.52l0.71,-0.7l2.12,-1.28l0.34,0.1l0.38,-0.5l0.42,-1.1l0.94,-1.32l1.44,-1.53l1.4,-0.94l1.36,-0.35l0.85,-0.49l0.35,-0.63l0.04,-0.5l-0.27,-0.36l-0.02,-0.46l0.03,-0.24l-0.11,-0.17l-0.25,-0.34l-0.55,-1.88l-0.46,-0.83l-0.51,-0.58l-0.57,-0.32l-0.04,-0.46l0.7,-0.73l0.05,0.53l0.25,0.11l0.33,-0.32l0.62,-1.34l0,-0.45l0.5,-0.58l0.29,-0.78l-0.51,0.01l-1.11,0.46l-0.31,-0.15l0.4,-1.05l-0.23,-0.5l-0.24,-0.18l-0.4,0l-1.13,1.1l-0.38,0.16l-0.15,-0.41l-0.88,-0.8l1.43,-2.08l5.31,-6.09l0.48,-0.86l0.09,-0.69l-0.29,-0.52l-0.21,-0.1l0.06,-0.16l4.71,-7.39l2.8,-3.57l2.47,-2.2l1.98,-1.24l1.48,-0.24l0.8,-0.3l0.71,-0.17l3.59,-0.87l6.41,-1.58l6.41,-1.61l3.78,-0.96l0.48,1.41l0.11,1.78l0.74,1.78l0.62,3.95l1.73,2.74l0.28,2.05l0.6,2.13l-0.04,0.57l-0.45,1.43l-0.14,1.33l0.05,1.29l0.22,0.79l1.55,3.35l0.52,1.52l0.22,0.91l0.15,3.05l0.17,0.84l0.23,0.19l0.21,-0.05l0.43,-1.07l0.26,-0.21l0.44,0.13l1.28,1.13l0.58,2.46l0.42,1.79l0.47,1.99l0.7,2.99l0.51,2.19l0.47,1.99l0.36,1.53l0.07,1.17L1135.37,163.36zM1082.33,141.06l-0.45,0.29l-0.18,-0.23l0.03,-0.26l0.34,-0.39l0.68,-0.15l-0.03,0.26L1082.33,141.06zM1081.36,147.84l-0.22,0.12l-0.08,-0.47l0.17,-0.36l0.43,-0.23l0.04,0.24L1081.36,147.84zM1043.26,177.7l-0.35,0.84l-0.49,0.02l-0.4,-0.18l-0.21,-0.45l-0.03,-0.61l0.37,-0.34l1.19,0.01l0.08,0.23L1043.26,177.7zM1157.24,198.3l-0.79,1.7l1.09,-0.14l0.79,-0.65l0.63,-1.05l1.68,-1.64l1.56,-0.94l0.5,-0.24l1.01,0.57l1.42,-1.06l1.54,-0.8l-6.13,5.48l-1.35,0.79l-1.8,1.62l-1.77,1.27l-1.35,0.65l-6.38,4.49l-0.55,0.2l-0.67,-0.1l-5.49,2.85l-2.36,0.76l-2.07,1.02l1.34,-1.51l-0.07,-0.42l-0.47,-0.23l-0.84,0.31l-0.6,1.36l-1.32,0.73l-0.59,-1.17l0.24,-1.08l0.41,-1.07l1.04,-1.78l1.78,-1.4l0.82,-1.04l0.88,0.51l-0.08,-0.97l0.4,-0.67l0.52,-0.44l1.41,-0.36l0.72,-0.34l0.47,-0.45l0.55,-0.2l1.65,0.03l1.48,-0.51l1.07,-0.89l1.21,-0.52l3.31,-1l3.21,-1.29l1.13,-1.11l2.22,-2.86l1.44,-1.02l-1.84,3.12L1157.24,198.3zM1132.27,215.28l-0.76,0.28l0.28,-2.26l1.21,-1.3l0.57,0.07l0.2,0.72l-0.05,0.68l-0.73,1.2L1132.27,215.28z" fill="#000000"/></svg>
