<svg xmlns="http://www.w3.org/2000/svg" viewBox="0 0 901.69 1000.00"><g transform="translate(30.00 30.00) scale(0.470000) translate(-104.58 0.00)"><path d="M163.01,2.13L386.75,7.82L618.62,11.52L771.87,12.81L773.87,15.55L961.43,15.74L1264.94,14.07L1299.23,14.31L1484.75,11.63L1655.07,6.57L1860.62,0L1865.11,139.81L1865.25,175.77L1854.09,176.12L1857.13,240.41L1864.76,484.72L1867.78,615.83L1881.71,1074.32L1881.71,1144.45L1883.35,1270.46L1884.67,1315.46L1884.81,1392.24L1895.42,1758.27L1699.6,1763.74L1457.7,1768.41L1190.06,1771.04L835.68,1771.35L834.46,1801.85L826.93,1807.25L830.09,1818.74L840.78,1826.34L839.67,1833.28L856.81,1839.4L862.15,1847.88L632.49,1846.1L359.94,1841.76L356.85,2000L104.58,1994.16L128.6,1134.36L130.62,1100.26L130.83,1056.43L137.18,872.82L145.34,593.44L144.57,584.35L147.72,512.8Z" fill="#000000"/></g></svg>
