<svg xmlns="http://www.w3.org/2000/svg" viewBox="349.15 169.08 124.10 183.80"><path d="M446.17,305.87L444.44,314.41L442.52,323.79L442.16,323.87L440.71,325.81L439.37,326.59L438.51,326.38L437.77,325.58L437.13,324.18L435.96,323.21L434.24,322.68L432.65,322.55L431.19,322.83L430.2,323.46L429.42,324.92L429.44,325.6L429.94,327.22L429.53,329.49L429.27,331.34L429.54,332.44L429.39,333.62L428.7,335.41L428.62,336.97L429.09,339.87L427.14,347.54L427.11,347.68L423.21,342.05L419.59,336.77L416,331.49L412.44,326.2L408.91,320.9L405.39,315.6L401.91,310.29L398.46,304.98L395.95,301.25L393.46,297.52L390.98,293.78L388.52,290.04L386.06,286.3L383.63,282.56L381.2,278.81L378.79,275.06L375.66,270.53L372.56,266L369.47,261.46L366.4,256.92L363.36,252.37L360.33,247.82L357.33,243.26L354.35,238.69L355.44,234.67L356.52,230.65L357.61,226.62L358.7,222.6L359.78,218.58L360.87,214.55L361.96,210.53L363.04,206.5L364.13,202.48L365.22,198.45L366.31,194.42L367.4,190.4L368.49,186.37L369.57,182.34L370.66,178.31L371.75,174.28L377.74,175.89L383.73,177.47L389.72,179.02L395.72,180.55L401.73,182.06L407.75,183.54L413.77,185L419.79,186.43L425.81,187.83L431.82,189.21L437.85,190.56L443.88,191.89L449.91,193.19L455.95,194.47L462,195.72L468.05,196.95L467.36,200.36L466.68,203.77L465.99,207.17L465.31,210.58L464.63,213.99L463.94,217.39L463.26,220.8L462.57,224.2L461.89,227.61L461.21,231.01L460.52,234.42L459.84,237.82L459.16,241.22L458.47,244.63L457.79,248.03L457.11,251.43L456.42,254.84L455.74,258.24L455.06,261.64L454.37,265.04L453.69,268.45L453.01,271.85L452.32,275.25L451.64,278.65L450.96,282.05L450.27,285.46L449.59,288.86L448.91,292.26L448.23,295.66L447.54,299.07L446.86,302.47z" fill="#000000"/></svg>
