<svg xmlns="http://www.w3.org/2000/svg" viewBox="626.31 194.13 154.94 81.34"><path d="M757.78,215.22L758.27,215.34L759.37,217.31L759.81,220.82L760.81,223.66L762.36,225.81L763.14,227.39L763.15,228.39L763.52,229.46L764.26,230.6L764.56,232.54L764.41,235.28L764.72,236.73L765.51,236.91L765.86,237.3L765.75,237.89L766.01,238.34L766.65,238.62L766.83,239.41L766.55,240.7L766.78,241.51L767.52,241.84L767.66,242.48L767.2,243.42L767.27,244.16L767.88,244.7L768.29,247.09L768.51,251.33L768.44,253.82L768.09,254.54L768.65,256.07L769.69,257.72L770.12,258.41L771.06,260.73L771.46,263.04L772.39,264.53L773.86,265.21L774.85,266.68L775.36,268.95L776.6,270.84L776.87,271.04L773.79,271.07L770.21,271.08L766.63,271.09L763.04,271.08L759.46,271.07L755.88,271.06L752.29,271.03L748.71,270.99L745.13,270.95L741.54,270.9L737.96,270.84L734.38,270.77L730.79,270.69L727.21,270.61L723.63,270.52L720.05,270.42L716.47,270.31L712.89,270.19L709.31,270.06L705.73,269.93L702.14,269.79L698.56,269.64L694.98,269.48L691.41,269.31L687.83,269.13L684.25,268.95L680.67,268.76L677.09,268.56L673.51,268.35L669.94,268.13L666.36,267.91L662.79,267.67L662.97,264.9L663.15,262.13L663.33,259.36L663.52,256.59L663.7,253.82L663.88,251.04L664.07,248.27L664.25,245.5L660.05,245.21L655.86,244.92L651.66,244.61L647.47,244.29L643.28,243.96L639.09,243.61L634.89,243.26L630.7,242.9L631.18,237.35L631.66,231.81L632.13,226.26L632.61,220.72L633.08,215.17L633.56,209.62L634.04,204.07L634.51,198.52L640.16,199.01L645.8,199.47L651.44,199.92L657.09,200.34L662.74,200.75L668.39,201.13L674.04,201.49L679.69,201.83L685.35,202.15L691,202.44L696.66,202.71L702.32,202.97L707.97,203.2L713.63,203.41L719.29,203.59L725.76,203.79L730.56,207.23L733.46,208.33L734.86,207.38L737.87,206.88L742.49,206.82L745.39,207.32L746.6,208.39L748.96,209.6L752.48,210.94L754.59,212.38L755.28,213.92L756.51,214.91z" fill="#000000"/></svg>
