<svg xmlns="http://www.w3.org/2000/svg" viewBox="974.36 303.17 166.90 77.89"><path d="M1122.2,308.31l-0.08,1.79l0.47,0.91l1.16,0.79l1.59,2.27l1.58,3.18l-1.41,-1.11l-1.34,-0.46l-1.96,-0.14l-1.85,-0.61l0.43,1.37l0.18,1.54l-1.36,-0.18l-0.97,-0.31l1.11,1.44l-1.76,-0.12l-1.08,0.34l-0.41,1.58l-0.77,1.07l-1.36,0.59l-2.4,-0.85l-1.02,-1.43l-0.66,-1.7l0.33,2.11l0.84,2.09l0.22,1.68l2.1,-0.14l1.84,-0.68l2.58,-0.49l1.61,-0.68l0.89,-0.75l2.52,-0.08l0.62,1.95l0.16,2.04l0.33,2.14l0.67,-0.16l0.64,-0.85l-0.45,-3.86l1.89,-1.89l0.76,-0.07l0.98,1.05l0.52,1.18l0.63,1.63l0.07,2.69l-2.73,3.78l-1.82,3.33l-1.13,0.85l-1.88,0.08l-2.2,-0.25l-1.04,0.08l-0.71,0.4l-0.65,-0.76l-0.64,-1.5l-0.91,-0.35l-0.59,0.19l-0.05,1.75l-1.81,0.88l-2.74,-0.13l-3.02,-0.82l1.49,1.25l7.35,1.35l0.87,0.36l0.88,0.61l-0.68,1.41l-0.45,1.51l0.13,1.08l-0.12,0.73l-2.32,2.39l-1.54,0l-4.44,-2.46l2.3,2.46l1.62,0.91l2.89,0.05l4.94,-2.17l1.94,0.78l-0.94,2.34l-1.07,1.73l-1.78,0.55l-1.52,0.73l-0.26,1.08l-1.13,0.31l-1.77,0.44l-2.74,0.68l-1.57,0.09l-1.7,2.46l-0.74,0.44l-1.2,-0.14l-0.8,-1.52l-0.67,-0.69l0.61,3.03l0.37,0.77l0.53,0.53l-2.15,2.16l-1.97,2.54l-0.74,0.73l-0.76,1.23l-1.4,3.37l-0.06,2.26l-0.24,2.56l-0.31,-1.07l-0.24,-1.85l-0.92,-1.99l0.46,3.9l-0.42,1.94l-7.18,1.29l-2.71,1.46l-3.14,-2.14l-2.94,-2.03l-2.93,-2.03l-2.93,-2.04l-2.92,-2.04l-2.91,-2.05l-2.91,-2.05l-2.9,-2.06l-2.57,0.37l-2.57,0.37l-2.57,0.37l-2.57,0.36l-2.57,0.36l-2.57,0.36l-2.57,0.35l-2.57,0.35l-0.39,-1.71l-0.27,-1.21l-1.95,-1.82l-1.14,-1.07l-1.84,1.39l-0.19,-0.5l-0.08,-0.94l-0.23,-0.29l-0.59,-0.13l-2.88,0.35l-2.88,0.34l-2.88,0.33l-2.88,0.33l-2.88,0.32l-2.88,0.32l-2.88,0.32l-2.88,0.31l-0.69,-0.1l-1.18,0.92l-3.23,1.6l-1.53,1.22l-0.62,0.03l-2.75,1.36l-2.76,1.35l-0.33,0.05l-5.48,0.85l-5.48,0.83l-5.48,0.81l-5.49,0.79l0.08,-4.79l0.33,-1.14l0.49,-0.31l1.88,-0.26l1.13,-0.7l0.68,-2.97l2.09,-2.54l1,-0.71l1.55,-0.65l3.74,-1.06l3.78,-2.73l2.65,-2.46l2.25,-0.9l0.62,-0.86l0.38,-1.05l0.14,-1.38l0.21,-0.31l1.35,-0.1l0.85,-1.3l0.9,-0.81l0.93,-0.52l0.6,-0.1l0.28,0.31l0.31,0.96l0.26,0.29l0.42,-0.03l0.54,-0.31l0.67,-0.75l1.67,-2.27l1.19,-0.96l1.94,-0.74l1.62,0.81l0.82,-0.49l1.92,-4.43l0.9,-0.89l0.72,-0.41l1.31,-0.27l-0.16,-1.11l0.19,-1.74l-0.12,-1.15l0.54,-1.81l0.36,0.29l6.41,-0.97l6.41,-1l6.41,-1.02l6.4,-1.05l6.4,-1.07l6.4,-1.1l6.39,-1.13l6.39,-1.15l6.38,-1.18l6.38,-1.2l6.37,-1.23l6.37,-1.25l6.36,-1.28l6.36,-1.3l6.35,-1.33L1122.2,308.31zM1123.55,308.02l0.55,-0.13l3.32,6.58l5.23,6.79l0.73,1.21l-1.08,-0.96l-3.75,-4.43l-2.26,-3.3L1123.55,308.02zM1131.42,322.08l-0.17,0.5l-1.72,-2.13l1.38,0.5l0.36,0.59L1131.42,322.08zM1136.1,335.07l-2.25,1.14l-0.25,-0.14l2.45,-1.86l-0.14,-4.56l-0.34,-2.03l-1.22,-3.45l-0.16,-0.74l0.71,1.04l1.15,3.21l0.43,2.54l0.05,3.83L1136.1,335.07zM1132.11,337.11l-2.89,2.28l-0.39,-0.01l1.88,-1.59L1132.11,337.11zM1121.83,351.88l-0.39,0.35l1.05,-3.07l2.49,-4.16l0.76,-0.72l-2.04,3.54L1121.83,351.88zM1121,351.78l-0.39,0.14l-0.76,-0.09l-1.07,-0.25l-0.29,-0.29l0.96,-0.08L1121,351.78z" fill="#000000"/></svg>
