<svg xmlns="http://www.w3.org/2000/svg" viewBox="637.10 61.15 123.39 80.90"><path d="M757,138.56L753.36,138.53L749.72,138.49L746.08,138.45L742.43,138.39L738.79,138.33L735.15,138.25L731.51,138.17L727.86,138.08L724.22,137.97L720.58,137.86L716.94,137.74L713.3,137.61L709.66,137.47L706.02,137.33L702.38,137.17L698.74,137L695.1,136.82L691.46,136.64L687.83,136.44L684.19,136.24L680.55,136.02L676.92,135.8L673.28,135.57L669.65,135.33L666.01,135.08L662.38,134.81L658.75,134.55L655.11,134.27L651.48,133.98L647.85,133.68L644.22,133.37L640.59,133.06L640.95,128.8L641.3,124.53L641.66,120.27L642.01,116L642.37,111.73L642.72,107.46L643.08,103.19L643.44,98.92L643.8,94.64L644.15,90.36L644.51,86.08L644.87,81.79L645.23,77.5L645.59,73.21L645.95,68.92L646.3,64.64L647.9,64.78L654.23,65.32L660.55,65.83L666.88,66.31L673.21,66.75L679.54,67.17L685.88,67.56L692.21,67.92L698.55,68.25L704.88,68.55L711.22,68.82L717.57,69.06L723.91,69.27L730.25,69.46L736.59,69.61L742.94,69.73L747.46,69.8L748.83,76.87L748.79,78.85L748.55,80.13L748.72,82.37L748.61,83.87L748.82,85.79L748.72,88.33L749.4,91.27L750.45,93.94L750.41,94.7L750.71,96.31L751.33,97.64L752.63,101.56L752.53,105.26L752.75,106.4L753.02,114.37L753.12,115.38L753.85,116.61L753.48,118.42L753.43,119.36L753.54,122.7L753.97,124.01L754.37,126.65L756.11,129.93L756.39,131.17L756.49,132.17L756.96,134.17L756.79,136.84z" fill="#000000"/></svg>
