<svg xmlns="http://www.w3.org/2000/svg" viewBox="1142.89 97.66 32.41 64.76"><path d="M1173.38,145.74L1173.46,148.72L1173.41,150.21L1171.53,150.64L1170.79,151.07L1169.46,152.53L1168.56,153.17L1167.41,155.31L1166.19,156.28L1163.92,156.83L1161.64,157.38L1159.37,157.92L1157.09,158.46L1154.82,158.99L1152.54,159.53L1150.27,160.05L1147.99,160.58L1147.52,159.88L1146.27,158.74L1145.91,158.22L1145.79,157.56L1145.81,155.71L1146.03,155.07L1146.13,153.97L1145.62,149.81L1145.5,147.36L1144.72,143.02L1144.74,141.69L1144.92,140.82L1145.03,138.65L1145.76,136.7L1145.97,134.49L1146.42,132.49L1146.28,131.42L1146.36,129.01L1145.77,124.91L1146.06,124.16L1147.99,123.05L1148.53,122.46L1150.28,120.22L1150.79,119.35L1151.04,118.53L1151.07,117.34L1151.23,116.97L1151.11,116.34L1149.63,113.96L1149.34,113.02L1150.22,109.62L1149.39,108L1149.52,107.51L1149.87,102.93L1150.73,100.61L1152.82,100.72L1153.83,100.38L1154.4,99.49L1155.11,101.6L1155.9,103.95L1156.69,106.31L1157.48,108.66L1158.27,111.01L1159.05,113.36L1159.84,115.71L1160.63,118.06L1161.43,120.42L1162.21,122.77L1163.01,125.11L1163.8,127.46L1164.59,129.81L1165.38,132.16L1166.17,134.5L1166.96,136.85L1167.33,138.46L1167.94,139.88L1168.87,141.04L1170.84,142.55L1171.55,144.09z" fill="#000000"/></svg>
