<svg xmlns="http://www.w3.org/2000/svg" viewBox="635.54 328.34 163.23 88.43"><path d="M790.51,348.69L790.96,351.78L791.41,354.87L791.86,357.96L792.32,361.05L792.77,364.14L793.23,367.23L793.69,370.32L794.15,373.41L794.14,375.83L794.13,378.25L794.12,380.67L794.11,383.09L794.1,385.51L794.09,387.93L794.08,390.35L794.07,392.77L794.06,395.19L794.04,397.62L794.03,400.04L794.02,402.46L794.01,404.88L794,407.31L793.99,409.73L793.98,412.15L789.76,411.08L788.7,410.38L786.76,409.59L785.01,407.93L781.57,405.89L780.27,405.4L779.86,405.46L779.16,406.49L777.35,407.31L776.36,407.35L774.56,407.06L774.22,406.8L773.96,406.18L773.24,405.76L772.71,406.09L770.11,406.96L769.72,407.57L768.25,407.6L766.79,407.16L763.11,408.52L761.84,409.58L760.52,409.95L759.83,410.98L759.43,410.83L758.05,409.55L756.63,409.16L754.7,407.88L754.64,406.76L754.43,406.62L754.08,406.49L753.65,406.59L752.8,407.54L752.31,407.78L751.82,407.74L749.95,407.08L749.17,405.93L748.78,405.57L748.35,405.5L747.54,405.83L747.07,407.09L746.71,407.42L745.92,407.63L745.96,408.26L745.24,409.99L744.86,410.33L744.37,410.26L743.87,409.83L743.5,409.21L743.35,408.68L743.65,407.3L743.49,406.84L743.12,406.69L742.19,407.33L741.38,407.29L740.34,407.92L739.69,408.11L739.1,407.94L738.16,406.87L736.5,406.17L735.88,404.92L735.59,404.56L735.24,404.46L734.88,404.49L734.28,404.88L732.33,406.47L731.45,406.97L730.69,407.06L729.98,406.88L729.53,406.46L729.47,404.8L729.06,404.29L727.31,403.22L726.96,402.23L726.82,400.87L724.68,401.03L722.05,400.83L720.83,401.99L720.21,402.2L719.47,401.94L717.39,400.26L715.13,400.52L713.86,400.3L710.75,399L708.29,398.81L707.27,398.56L706.74,398.27L706.56,396.42L705.64,394.83L705.33,394.39L703.71,393.24L703.44,393.19L703.25,393.43L702.83,394.64L702.33,394.68L700.42,394.26L698.64,394.55L697.68,393.91L694.45,390.93L693.13,390.14L692.06,389.86L692.17,387.2L692.29,384.53L692.4,381.87L692.51,379.21L692.63,376.55L692.74,373.89L692.85,371.23L692.97,368.57L693.08,365.91L693.19,363.25L693.31,360.59L693.42,357.93L693.54,355.27L693.65,352.62L693.76,349.96L693.88,347.3L690.52,347.15L687.16,346.99L683.8,346.82L680.44,346.65L677.08,346.47L673.72,346.28L670.36,346.09L667,345.89L663.65,345.68L660.29,345.47L656.93,345.25L653.58,345.02L650.22,344.78L646.87,344.54L643.51,344.29L640.16,344.04L640.37,341.27L640.58,338.5L640.79,335.73L641,332.96L645.4,333.29L649.79,333.62L654.18,333.92L658.58,334.22L662.69,334.49L666.8,334.75L670.91,334.99L675.03,335.23L679.14,335.45L683.26,335.67L687.37,335.87L691.49,336.07L695.6,336.25L699.72,336.42L703.84,336.59L707.95,336.74L712.07,336.88L716.19,337.01L720.31,337.13L724.43,337.24L728.55,337.34L732.67,337.43L736.78,337.51L740.9,337.58L745.02,337.63L749.14,337.68L753.26,337.72L757.38,337.75L761.5,337.76L765.62,337.77L769.74,337.76L773.86,337.75L777.98,337.72L782.1,337.68L786.22,337.64L790.34,337.58L790.38,340.36L790.42,343.14L790.46,345.91z" fill="#000000"/></svg>
