<svg xmlns="http://www.w3.org/2000/svg" viewBox="298.96 61.49 152.03 129.25"><path d="M347.77,70.79L349.42,70.71L350.46,71.47L351.66,72.89L352.24,76.28L352.21,81.61L352.02,83.34L352.86,84.68L354.19,85.13L359.37,87.47L360.18,87.65L360.18,87.65L361.21,87.75L364.82,86.78L368.31,87.13L372.2,88.4L374.45,89.62L375.07,90.8L377.14,91.5L382.43,91.81L388.15,92.57L391.33,92.58L395.13,91.85L403.32,91.8L407.19,92.56L409.33,92.27L409.89,91.98L410.15,92.04L414.17,93.07L418.19,94.09L422.21,95.09L426.24,96.08L430.27,97.06L434.3,98.03L438.34,98.99L442.1,99.88L442.3,100.93L443.45,103.17L445.34,105.3L446.41,107.33L446.68,109.25L444.65,113.02L440.3,118.62L437.79,122.26L437.14,123.93L435,126.55L431.38,130.1L429.36,132.88L428.95,134.91L429.57,136.28L431.23,137.01L432.26,137.95L432.66,139.09L432.47,140.01L431.67,140.71L431.29,141.53L431.34,142.5L430.75,144.04L429,147.09L428.97,147.2L427.73,152.53L426.59,157.38L425.46,162.22L424.32,167.07L423.19,171.91L422.06,176.75L420.93,181.59L419.79,186.43L413.77,185L407.75,183.54L401.73,182.06L395.72,180.55L389.72,179.02L383.73,177.47L377.74,175.89L371.75,174.28L367.53,173.13L363.31,171.97L359.09,170.8L354.87,169.61L350.66,168.42L346.45,167.21L342.25,165.98L338.05,164.75L333.85,163.5L329.66,162.24L325.47,160.97L321.28,159.69L317.1,158.39L312.92,157.08L308.75,155.76L304.43,154.38L303.26,151.15L303.64,147.03L304,145.35L305.62,141.12L305.62,139.1L305.1,135.59L306.6,133.17L307.8,131.79L311.73,125.35L312.32,124.91L313.01,125.15L314.61,124.35L314.14,123.9L313.11,124.19L314.75,121.67L316.36,119.57L317.18,118.89L319.94,111.24L322.31,105.48L323.72,103.78L324.09,101.68L325.28,99.05L325.93,96.22L331.83,83.47L332.12,81.8L333.31,79.81L334.64,73.97L336.87,67.68L336.71,66.74L336.78,65.8L337.21,65.79L337.68,66.96L341.22,68.07L343.75,67.92L344.48,68.46L345.07,69.92L346.2,70.53z" fill="#000000"/></svg>
