<svg xmlns="http://www.w3.org/2000/svg" viewBox="949.60 202.50 79.57 88.85"><path d="M1026.65,234.45L1024.84,235.74L1024.63,236.69L1025.42,237.71L1025.99,239.11L1026.33,240.89L1025.88,244.99L1024.63,251.43L1024.11,255.43L1024.34,257L1023.17,259.29L1020.61,262.32L1018.76,264.18L1017.64,264.9L1016.62,265.02L1015.72,264.54L1014.89,265.1L1014.11,266.7L1013.3,267.6L1012.44,267.78L1011.85,268.83L1011.52,270.75L1011.1,271.89L1010.6,272.26L1010.71,273.18L1011.42,274.68L1011.47,275.25L1011.21,275.31L1010.96,275.26L1010.42,275.7L1009.89,276.68L1009.65,276.74L1009.45,276.62L1009.08,275.5L1008.41,274.77L1007.46,274.43L1006.4,275.68L1005.24,278.51L1004.81,280.3L1005.26,281.43L1005.65,283.11L1005.37,283.87L1004.55,284.26L1004.03,285.28L1003.8,286.94L1002.76,288.13L1000.91,288.83L998.81,288.4L998.66,288.37L996,286.73L994.23,285.04L993.34,283.32L991.27,283.53L988,285.68L985.39,286.31L983.44,285.41L982.03,285.15L980.74,285.71L979.57,286.62L978.44,286.33L976.94,285.14L974.74,284.47L971.83,284.32L969.67,283.1L968.27,280.83L966.89,279.32L965.54,278.58L964.15,278.49L962.73,279.05L961.57,279L960.68,278.34L959.67,278.56L958.81,279.4L957.93,272.08L957.1,264.9L956.27,257.71L955.44,250.52L954.61,243.34L953.78,236.15L952.94,228.96L952.11,221.76L957.59,220.86L963.07,219.94L968.55,219L974.02,218.03L974.17,217.88L974.14,217.95L974.42,218.31L975.95,218.34L977.03,218.65L977.92,219.23L980.98,220.17L981.98,220.88L982.92,221.21L983.8,221.17L984.35,220.82L984.58,220.16L984.99,220.06L985.56,220.52L987.26,220.86L987.34,221.03L983,222.69L982.13,223.29L983.3,223.45L984.42,223.21L985.5,222.56L986.81,222.4L988,222.45L988.33,222.21L988.47,222.09L990.62,223.12L991.38,223.2L992.12,222.94L992.83,222.32L994.46,221.41L997,220.21L999.52,219.49L1002,219.26L1003.52,218.79L1004.81,217.74L1007.51,214.53L1010.76,211.77L1016.21,208.09L1021.57,205.01L1021.88,206.85L1022.28,209.15L1022.68,211.45L1023.07,213.75L1023.47,216.04L1023.86,218.34L1024.26,220.64L1024.65,222.94L1025.05,225.24L1025.44,227.54L1025.84,229.84L1026.23,232.13z" fill="#000000"/></svg>
