<svg xmlns="http://www.w3.org/2000/svg" viewBox="1018.46 184.76 109.79 73.04"><path d="M1119.53,199.27L1118.42,200.27L1117.97,200.92L1117.67,201.74L1117.09,204.47L1115.67,207.17L1114.43,208.66L1114.57,209.25L1115.8,210.96L1115.93,211.57L1115.61,212.88L1114.71,213.7L1114.69,214.43L1114.86,215.63L1115.38,217.65L1115.79,217.99L1117.16,218.44L1118.83,220.85L1119.86,220.94L1125.15,225.43L1122.64,227.74L1121.06,229.53L1120.39,230.46L1119.19,232.77L1116.87,233.99L1115.71,235.02L1115.45,235.44L1113.82,235.18L1111.76,235.74L1111.12,236.17L1110.7,236.82L1109.83,238.85L1105.96,239.72L1102.09,240.58L1098.23,241.42L1094.35,242.26L1090.48,243.09L1086.61,243.91L1082.73,244.72L1078.85,245.52L1074.96,246.31L1071.08,247.09L1067.19,247.86L1063.31,248.62L1059.42,249.37L1055.53,250.11L1051.63,250.84L1047.74,251.56L1045.54,251.97L1043.34,252.37L1041.14,252.76L1038.94,253.16L1036.74,253.55L1034.54,253.94L1032.33,254.32L1030.13,254.7L1029.69,252.17L1029.25,249.63L1028.82,247.1L1028.38,244.57L1027.94,242.04L1027.51,239.5L1027.07,236.97L1026.65,234.45L1026.23,232.13L1025.84,229.84L1025.44,227.54L1025.05,225.24L1024.65,222.94L1024.26,220.64L1023.86,218.34L1023.47,216.04L1023.07,213.75L1022.68,211.45L1022.28,209.15L1021.88,206.85L1021.57,205.01L1024.41,203.36L1025.63,202.37L1026.87,201.39L1027.5,200.84L1028.23,200.31L1032.82,196.56L1032.85,196.68L1033.38,199.63L1033.91,202.58L1036.16,202.17L1038.42,201.76L1040.67,201.35L1042.92,200.93L1045.17,200.51L1047.42,200.09L1049.67,199.66L1051.92,199.23L1054.17,198.79L1056.41,198.35L1058.66,197.91L1060.91,197.47L1063.15,197.02L1065.39,196.57L1067.64,196.12L1069.88,195.66L1072.12,195.2L1074.37,194.73L1076.61,194.26L1078.85,193.79L1081.09,193.32L1083.33,192.84L1085.56,192.36L1087.8,191.87L1090.04,191.38L1092.27,190.89L1094.51,190.4L1096.74,189.9L1098.98,189.39L1101.21,188.89L1103.44,188.38L1105.67,187.87L1107.19,188.7L1108.03,189.75L1110.12,190.15L1110.66,190.52L1110.83,191.21L1111.67,191.8L1111.72,192.98L1111.97,193.98L1112.51,195.19L1113.26,196.28L1114.16,197.1L1115.08,197.65L1118.25,198.05L1118.99,198.54z" fill="#000000"/></svg>
