<svg xmlns="http://www.w3.org/2000/svg" viewBox="1162.29 170.74 13.05 17.64"><path d="M1173.67,177.22l-0.45,0.71l-0.87,-0.65l-0.57,-0.82l-0.6,-0.39l-0.55,-0.06l0.98,1.87l-0.6,1.77l0.79,3.93l-0.83,1.96l-3.7,2.12l-1.21,0.22l-0.13,-1.28l0.27,-0.63l-0.28,-1.36l-0.18,-0.89l-0.42,-1.48l-0.47,-1.69l-0.51,-1.83l-0.45,-1.62l-0.33,-1.17l-0.45,-1.61l-0.32,-1.15l1.2,-0.35l1.64,-0.48l1.58,-0.46l0.98,-0.29l1.2,-0.35l0.32,0.95l0.49,1.47l0.73,0.05l0.31,1.22l0.2,0.81l0.72,0.34l0.73,0.35L1173.67,177.22zM1174.84,181.85l-0.63,0.81l-0.92,0.15l0.23,-0.92l-0.15,-1.21l0.08,-1.4l0.14,-0.46l0.42,-0.49L1174.84,181.85zM1172.88,182.55l-0.34,0.52l-0.45,-0.99l-0.02,-1.28l0.31,-0.11l0.33,0.59L1172.88,182.55z" fill="#000000"/></svg>
