<svg xmlns="http://www.w3.org/2000/svg" viewBox="630.79 129.34 131.47 89.60"><path d="M757,138.56L756.45,140.78L756.07,141.75L755.31,142.74L752.92,144.88L752.33,145.62L752.41,146.29L752.88,147.16L754.08,149.17L754.73,149.99L757.35,151.35L758.54,153.02L758.51,158.05L758.49,163.07L758.46,168.09L758.44,173.1L758.41,178.12L758.39,183.13L758.36,188.14L758.34,193.15L755.98,193.22L756.26,194.62L756.89,195.99L757,196.78L756.87,197.43L756.42,198L756.52,198.91L756.65,199.15L757.71,199.74L758.07,200.53L758.17,201.43L758.15,202.12L757.5,203.36L757.3,205.01L756.48,207.47L755.59,208.96L755.41,209.73L755.49,210.34L756.85,211.93L756.92,212.56L757.37,213.38L757.78,215.22L756.51,214.91L755.28,213.92L754.59,212.38L752.48,210.94L748.96,209.6L746.6,208.39L745.39,207.32L742.49,206.82L737.87,206.88L734.86,207.38L733.46,208.33L730.56,207.23L725.76,203.79L719.29,203.59L713.63,203.41L707.97,203.2L702.32,202.97L696.66,202.71L691,202.44L685.35,202.15L679.69,201.83L674.04,201.49L668.39,201.13L662.74,200.75L657.09,200.34L651.44,199.92L645.8,199.47L640.16,199.01L634.51,198.52L634.99,192.96L635.46,187.41L635.94,181.85L636.41,176.29L636.89,170.73L637.37,165.17L637.85,159.6L638.32,154.03L638.45,154.04L638.57,154.05L638.7,154.07L638.82,154.08L638.83,154.01L638.84,153.94L638.85,153.87L638.86,153.8L639.29,148.62L639.72,143.43L640.16,138.25L640.59,133.06L644.22,133.37L647.85,133.68L651.48,133.98L655.11,134.27L658.75,134.55L662.38,134.81L666.01,135.08L669.65,135.33L673.28,135.57L676.92,135.8L680.55,136.02L684.19,136.24L687.83,136.44L691.46,136.64L695.1,136.82L698.74,137L702.38,137.17L706.02,137.33L709.66,137.47L713.3,137.61L716.94,137.74L720.58,137.86L724.22,137.97L727.86,138.08L731.51,138.17L735.15,138.25L738.79,138.33L742.43,138.39L746.08,138.45L749.72,138.49L753.36,138.53z" fill="#000000"/></svg>
