<svg xmlns="http://www.w3.org/2000/svg" viewBox="994.79 353.78 95.86 73.55"><path d="M1087.93,376.29L1087.7,376.42L1083.51,380.61L1082.34,382.32L1079.39,388.61L1079.03,392.35L1077.93,391.01L1077.92,389.86L1077.77,388.94L1077.13,391.09L1078.62,393.77L1077.96,395.02L1075.68,397.55L1074.28,398.15L1072.75,399.03L1072.6,401.14L1070.71,403.4L1069.57,404.46L1067.1,404.38L1068.15,406.04L1067.52,407.55L1066.2,408.86L1064.44,409.87L1063.35,409.97L1062.49,410.5L1061.92,411.48L1060.3,412.6L1058.39,412.46L1056.27,412.55L1055.2,413.23L1057.28,413.69L1058.52,414.67L1058.57,416.27L1058.16,416.97L1057.07,417.99L1056.5,417.97L1056.05,417.29L1055.39,415.82L1054.87,416.24L1054.89,416.97L1054.45,417.31L1052.29,415.16L1052.69,417.01L1053.54,418.34L1054.26,418.97L1054.92,419.3L1055.19,419.94L1054.26,421.76L1053.71,422.23L1052.66,422.67L1052.21,423.78L1052.54,424.61L1048.44,423.47L1047.05,422.07L1046.75,420.02L1045.64,417.81L1042.78,414.27L1040.98,413.42L1039.49,410.94L1037.71,406.53L1035.6,403.86L1033.15,402.94L1031.41,401.67L1030.38,400.05L1029.41,399.04L1028.5,398.65L1027.91,397.82L1027.65,396.57L1026.11,395.1L1021.89,392.57L1020.71,390.82L1018.67,389.14L1013.71,385.83L1013.71,385.83L1008.38,378.76L1008.38,378.76L1007.62,377.28L1006.63,376.77L1005.15,376.75L1003.64,376.19L1001.3,374.55L1001.28,374.53L997.5,372.62L997.9,370.37L1000.17,367.19L1000.84,365.57L1000.96,365.54L1001.29,365.48L1004.05,364.13L1006.8,362.78L1007.42,362.74L1008.95,361.53L1012.17,359.92L1013.35,359L1014.04,359.11L1016.93,358.8L1019.81,358.48L1022.69,358.16L1025.58,357.84L1028.46,357.51L1031.34,357.17L1034.23,356.83L1037.11,356.49L1037.7,356.62L1037.93,356.91L1038,357.85L1038.19,358.34L1040.03,356.95L1041.17,358.02L1043.13,359.84L1043.4,361.05L1043.79,362.76L1046.36,362.41L1048.93,362.06L1051.5,361.7L1054.08,361.34L1056.65,360.98L1059.22,360.61L1061.79,360.24L1064.36,359.87L1067.26,361.92L1070.16,363.97L1073.08,366.02L1076,368.06L1078.92,370.09L1081.85,372.12L1084.79,374.15z" fill="#000000"/></svg>
