<svg xmlns="http://www.w3.org/2000/svg" viewBox="865.61 321.65 160.64 61.86"><path d="M986.1,331.59L990.13,331.05L998.75,329.88L1004.86,329.01L1009.87,328.29L1012.83,327.85L1016.55,327.3L1017.31,326.71L1019.18,326.5L1021.71,326.2L1021.17,328.01L1021.29,329.16L1021.1,330.91L1021.26,332.02L1019.95,332.28L1019.24,332.69L1018.33,333.58L1016.41,338.01L1015.59,338.5L1013.97,337.69L1012.03,338.43L1010.84,339.39L1009.17,341.65L1008.5,342.4L1007.96,342.71L1007.53,342.75L1007.27,342.46L1006.96,341.5L1006.67,341.19L1006.07,341.29L1005.14,341.81L1004.25,342.61L1003.39,343.92L1002.04,344.02L1001.82,344.33L1001.69,345.7L1001.3,346.76L1000.68,347.61L998.43,348.52L995.77,350.97L991.99,353.7L988.26,354.76L986.71,355.41L985.71,356.11L983.62,358.65L982.93,361.62L981.81,362.32L979.93,362.58L979.44,362.89L979.11,364.03L979.04,368.82L973.13,369.5L967.21,370.16L961.3,370.8L955.38,371.42L952.46,371.71L949.53,372.01L946.61,372.3L943.68,372.58L940.76,372.86L937.83,373.13L934.9,373.4L931.98,373.66L929.05,373.92L926.12,374.17L923.19,374.42L920.27,374.66L917.34,374.9L914.41,375.13L911.48,375.36L908.55,375.58L908.32,375.61L908.57,375.87L908.91,376.13L903.96,376.54L899.1,376.93L894.25,377.31L889.4,377.67L884.54,378.02L879.69,378.36L874.83,378.68L870.17,378.97L870.16,378.9L870.8,377.92L872.78,376.28L873.55,374.24L873.12,371.8L873.73,369.53L875.4,367.43L876,365.42L875.57,363.5L876.35,361.85L878.34,360.49L878.6,359.97L878.49,359.6L878.43,359.18L878.44,359L878.51,358.62L878.95,358.37L879.56,358.15L879.81,357.82L879.77,357.32L879.34,356.46L879.39,356.05L879.48,355.4L880.37,353.68L880.41,352.27L879.6,351.15L879.93,350.52L880.38,350.32L880.98,350.19L881.16,349.89L881.13,349.55L880.57,348.82L880.66,348.15L881.5,347.62L881.68,346.41L881.27,344.78L882.52,344.65L882.56,344.75L882.82,344.94L883.16,344.72L883.18,344.67L886.74,344.41L889.83,344.17L892.92,343.94L896.01,343.69L899.1,343.44L902.19,343.19L905.28,342.93L908.08,342.69L908.13,342.65L907.95,340.67L907.04,338.46L907.13,338.46L909.56,338.49L911.14,338.5L911.73,339.14L917.65,338.48L923.58,337.8L929.5,337.09L935.42,336.36L941.63,335.92L947.83,335.45L954.04,334.96L960.24,334.44L966.44,333.9L972.65,333.34L978.84,332.75L985.04,332.14L985.18,332.07L985.31,332L985.44,331.94L985.58,331.87L985.71,331.8L985.84,331.73L985.97,331.66z" fill="#000000"/></svg>
