<svg xmlns="http://www.w3.org/2000/svg" viewBox="442.45 193.23 107.89 131.60"><path d="M516.91,205.96L516.46,208.7L516,211.44L515.54,214.19L515.08,216.93L514.63,219.67L514.17,222.42L513.71,225.16L513.25,227.9L517.41,228.59L521.58,229.27L525.75,229.94L529.92,230.6L534.09,231.24L538.26,231.87L542.43,232.49L546.61,233.1L545.81,238.61L545.02,244.11L544.22,249.61L543.43,255.11L542.63,260.61L541.84,266.11L541.04,271.61L540.25,277.11L539.45,282.6L538.66,288.1L537.86,293.6L537.07,299.1L536.27,304.6L535.48,310.1L534.68,315.6L533.89,321.1L528.38,320.29L522.88,319.46L517.38,318.61L511.88,317.74L506.39,316.86L500.9,315.95L495.41,315.03L489.92,314.09L484.44,313.13L478.97,312.15L473.49,311.15L468.02,310.13L462.55,309.09L457.09,308.04L451.63,306.97L446.17,305.87L446.86,302.47L447.54,299.07L448.23,295.66L448.91,292.26L449.59,288.86L450.27,285.46L450.96,282.05L451.64,278.65L452.32,275.25L453.01,271.85L453.69,268.45L454.37,265.04L455.06,261.64L455.74,258.24L456.42,254.84L457.11,251.43L457.79,248.03L458.47,244.63L459.16,241.22L459.84,237.82L460.52,234.42L461.21,231.01L461.89,227.61L462.57,224.2L463.26,220.8L463.94,217.39L464.63,213.99L465.31,210.58L465.99,207.17L466.68,203.77L467.36,200.36L468.05,196.95L471.09,197.56L474.14,198.17L477.19,198.76L480.24,199.35L483.29,199.94L486.34,200.52L489.39,201.09L492.44,201.65L495.5,202.21L498.55,202.77L501.61,203.31L504.67,203.86L507.73,204.39L510.79,204.92L513.85,205.44z" fill="#000000"/></svg>
