<svg xmlns="http://www.w3.org/2000/svg" viewBox="981.82 249.51 150.07 86.32"><path d="M1078.91,254.04l1.14,0.6l2.47,0.49l1.14,0.78l-0.2,1.08l0.09,0.72l0.57,0.56l3.32,0.66l2.27,1.44l1.27,0.31l0.38,0.09l0.92,0.27l0.5,0.49l0.26,2.52l-0.53,1.39l-1.04,1.2l-1.28,2.01l-0.08,1.62l0.09,2.99l0.9,0.83l0.76,0.11l1.95,-1.09l1.14,0.06l3.14,2.96l4.78,0.41l1.82,0.5l1.73,1.52l2.24,0.6l1.89,1.17l0.26,0.98l-0.28,1.29l0.13,1.63l-0.45,1.14l-1.57,0.46l-1.02,-0.05l-6.38,-4.44l-0.73,-0.38l-2.54,-2.5l-2.57,-1.08l-0.69,0.18l3.81,2.21l1.74,1.74l2.91,2.33l1.91,0.84l1.62,1.6l1.32,0.63l3.36,0.57l-0.88,1.13l1.88,0.38l0.55,1.35l0.2,1.63l-2.52,-0.11l0.18,1.19l0.36,0.65l-0.93,0.8l-1.63,-0.46l-4.72,-3.44l0.15,0.56l0.45,0.59l2.8,2.27l2.33,1.22l1.83,0.38l1.59,1.09l0.64,0.73l0.58,1.2l-0.77,1.07l-0.99,0.71l-1.25,-0.62l-0.98,-0.73l-1.99,-1.17l-0.87,-1.61l-1.24,0.36l-5.74,-1.05l-4.29,0.64l0.5,0.35l0.6,0.18l3.49,-0.18l1.55,0.72l2.97,0.29l1.68,-0.11l1.25,2.58l2.66,1.39l0.59,1.33l1.57,-0.18l2.41,-1.96l1.85,0.09l2.61,-0.17l0.82,0.97l0.9,1.99l1.42,2.15l1.1,2.18l-0.55,0.13l-1.36,0.29l-4.36,0.94l-6.35,1.33l-6.36,1.3l-6.36,1.28l-6.37,1.25l-6.37,1.23l-6.38,1.2l-6.38,1.18l-6.39,1.15l-6.39,1.13l-6.4,1.1l-6.4,1.07l-6.4,1.05l-6.41,1.02l-6.41,1l-6.41,0.97l-0.36,-0.29l-2.53,0.3l-1.87,0.22l-0.76,0.58l-3.72,0.56l-2.97,0.44l-5.01,0.73l-6.11,0.86l-8.61,1.18l-4.03,0.53l1.66,-1.29l2.56,-0.99l4.47,-2.46l1.62,-2.1l2.45,-1.72l0.87,-1.76l1.54,-1.77l0.4,-1.81l0.2,-0.3l2.67,-1.99l2.75,-2.39l5.8,-6.35l0.24,0.68l-0.12,0.8l0.7,0.8l0.68,1.33l0.79,0.76l0.92,0.55l1.45,0.4l1.78,0.82l1.31,0.1l0.42,-0.1l1.23,-1.26l1.07,-0.74l1.03,-1.32l2.41,1.19l0.86,-0.14l2.01,-1.02l1.96,-0.51l0.46,-0.29l0.63,-0.76l-0.2,-1.29l0.11,-0.36l0.3,-0.21l0.39,-0.1l0.97,0.32l0.88,-0.14l3.46,-2.12l0.3,0.06l0.59,0.6l1.48,-1.16l0.82,-0.98l0.21,-1.3l0.59,-1.34l-0.26,-0.51l-0.64,-0.6l0.4,-1.74l0.72,-1.78l2.89,-5.52l0.67,-3.16l1.21,-2.17l0.24,-1.6l0.91,-1.7l0.25,-3.21l0.39,-0.71l0.7,-0.23l0.8,0.25l0.63,0.47l0.51,0.86l2.02,0.46l1.59,-0.19l0.99,-0.79l0.44,-1.2l0.48,-2.18l0.6,-1.35l0.25,-1.61l0.35,-1.15l0.72,-0.82l2.11,-0.36l0.9,-1.13l0.63,-1.21l0.44,-0.44l0.6,-0.06l1.57,-2.05l1.8,-4.01l0.1,-2.33l0.33,-1.72l-0.07,-1.69l0.31,-0.99l2.54,1.34l1.47,0.78l3.34,1.75l2.22,1.16l0.39,-1.93L1078.91,254.04zM1127.21,273.28l0.44,-0.17l0,0l-1.07,3.72l-0.7,0.53L1127.21,273.28zM1120.65,276.69l0.45,-1.13l2.5,-0.93l1.55,-0.59l-1.83,9.4l0.52,1.53l-0.65,0.68l-1.07,0.68l-0.96,1.21l-0.55,1.21l-0.1,2.95l-0.69,3.45l-1.16,-1.11l-0.47,-1.07l-0.27,-3.01l0.43,-5.12l0.98,-3.35l0.94,-1.69L1120.65,276.69z" fill="#000000"/></svg>
