<svg xmlns="http://www.w3.org/2000/svg" viewBox="509.50 136.18 132.57 110.47"><path d="M634.51,198.52L634.04,204.07L633.56,209.62L633.08,215.17L632.61,220.72L632.13,226.26L631.66,231.81L631.18,237.35L630.7,242.9L625.43,242.42L620.17,241.93L614.9,241.41L609.63,240.88L604.37,240.34L599.11,239.77L593.85,239.18L588.59,238.58L583.33,237.96L578.08,237.32L572.83,236.66L567.58,235.99L562.33,235.29L557.09,234.58L551.85,233.85L546.61,233.1L542.43,232.49L538.26,231.87L534.09,231.24L529.92,230.6L525.75,229.94L521.58,229.27L517.41,228.59L513.25,227.9L513.71,225.16L514.17,222.42L514.63,219.67L515.08,216.93L515.54,214.19L516,211.44L516.46,208.7L516.91,205.96L517.49,202.52L518.06,199.1L518.63,195.67L519.2,192.23L519.77,188.8L520.35,185.37L520.92,181.94L521.49,178.51L522.07,175.07L522.64,171.63L523.21,168.2L523.79,164.76L524.36,161.32L524.93,157.89L525.51,154.45L526.08,151.01L526.54,148.24L527.01,145.47L527.48,142.7L527.94,139.93L531.37,140.5L534.8,141.06L538.24,141.62L541.67,142.16L545.11,142.7L548.55,143.22L551.99,143.74L555.43,144.26L558.87,144.76L562.31,145.25L565.76,145.74L569.2,146.22L572.65,146.69L576.1,147.15L579.54,147.6L582.99,148.05L586.44,148.48L589.9,148.91L593.35,149.33L596.8,149.74L600.26,150.15L603.72,150.54L607.17,150.93L610.63,151.31L614.09,151.67L617.55,152.04L621.01,152.39L624.47,152.73L627.93,153.07L631.39,153.4L634.86,153.72L638.32,154.03L637.85,159.6L637.37,165.17L636.89,170.73L636.41,176.29L635.94,181.85L635.46,187.41L634.99,192.96z" fill="#000000"/></svg>
