<svg xmlns="http://www.w3.org/2000/svg" viewBox="811.33 107.55 101.42 108.13"><path d="M851.32,111.65l-0.48,0.38l-0.2,-0.16l0.08,-0.7l0.23,-0.42l0.38,-0.14l0.2,0.15l0.02,0.45L851.32,111.65zM847.13,114.11l-0.22,0.17l-0.61,-0.34l-0.1,-0.31l0.14,-0.32l0.27,0.06l0.41,0.44L847.13,114.11zM852.21,121.33l-0.07,0.18l0.36,0.79l0.78,-0.26l0.38,0.47l0.48,0.18l0.91,0.34l0.49,0.91l0.49,0.91l0.49,0.91l0.49,0.91l1.97,0.41l1.97,0.41l1.97,0.41l1.98,0.4l1.98,0.4l1.98,0.4l1.98,0.4l1.98,0.39l1.14,0.55l1.14,0.55l1.14,0.54l1.15,0.54l1.72,-0.01l1.55,0.26l2.13,-0.16l2.19,0.29l3.25,0.78l0.82,0.83l0.17,0.59l-0.18,1.42l3.13,0.98l1.38,0.82l0.55,0.67l-0.02,0.65l0.43,1.33l-0.25,0.76l0.11,1.28l-0.57,1.41l-0.17,0.75l0.04,0.61l0.18,0.38l0.38,0.12l1.14,-0.18l1.1,-0.51l0.53,0.21l0.12,0.2l-0.05,0.38l-0.71,2.37l0.12,0.92l0.47,0.86l0.72,0.82l0.78,0.23l0.02,0.58l-0.2,1.15l-0.81,0.97l-2.23,1.33l-0.3,0.79l0.01,0.63l-1.27,2.73l-0.59,1.65l-0.34,1.7l0.24,1.03l0.83,0.36l0.63,-0.22l0.42,-0.8l0.69,-0.75l0.96,-0.7l0.66,-0.97l0.82,-2.28l1.03,-1.36l0.6,-0.13l0.17,0.02l1.14,-0.68l0.98,0.1l0.66,0.8l0.65,0.53l0.18,0.54l-0.18,1.26l-0.42,1.35l-0.67,1.44l-0.53,2.12l-0.4,2.79l0.05,2.08l0.51,1.36l-0.24,1.28l-1,1.2l-0.75,1.55l-0.5,1.89l-0.24,1.57l0.02,1.26l0.18,0.93l0.53,1.22l0.03,0.64l-0.95,2.88l-0.31,1.39l0.02,1.07l-0.2,1.07l-0.73,2.22l-0.18,1.21l0.04,1.09l0.37,1.77l-0.06,0.61l0.09,0.45l0.26,0.29l0.05,0.56l-0.16,0.84l0.15,0.63l0.46,0.42l0.35,0.84l0.24,1.26l0.41,1.04l0.59,0.81l0.2,1.23l-0.18,1.65l0.11,3.06l0.09,1.02l-2.1,0.17l-7.4,0.58l-7.4,0.55l-7.41,0.51l-7.41,0.47l-7.41,0.44l-7.56,0.4l-0.12,-0.16l-0.62,-1.97l-1.74,-1.38l-2.86,-0.81l-1.88,-1.42l-0.9,-2.03l-0.63,-2.3l-0.35,-2.57l0.11,-2.18l0.57,-1.78l-0.23,-1.17l-1.03,-0.57l-0.7,-0.77l-0.37,-0.99l-0.19,-1.38l-0.88,-6.55l-0.83,-3.06l-1.07,-1.16l-2.2,-1.31l-3.32,-1.46l-2.07,-1.42l-1.24,-2.06l-2.4,-2.38l-1.54,-0.95l-1.48,-0.32l-1.2,-0.75l-0.91,-1.18l-1.22,-0.72l-1.54,-0.26l-1.74,-0.93l-2.08,-1.73l-0.05,-0.14l-0.47,-1.28l0.21,-0.74l0.25,-2.51l-0.06,-0.79l-0.52,-2.26l0.51,-0.9l-0.21,-2.81l0.16,-0.93l0.99,-2.34l0.01,-1.18l-0.43,-1.34l-0.83,-1.08l-2.16,-1.08l-0.11,-1.43l0.31,-1.08l1.31,-2.05l0.7,-1.8l0.66,-0.79l4.11,-2.82l0.89,-0.22l0.62,-0.78l0.5,-0.35l-0.13,-3.23l-0.13,-3.23l-0.13,-3.23l-0.13,-3.23l1.04,-0.27l0.42,-0.83l1.01,-1.3l0.28,0v0.01l0.55,0.55l1.36,0.78l1.03,0.06l1.31,-0.23l5.12,-1.68l2.14,-1.11l2.06,-1.79l0.22,-0.06l0.91,0.26l0.29,0.13l2.68,-2.08l0.9,-0.3l0.72,0.01l0.93,0.71l0.23,0.45l-0.25,0.91l-0.73,1.36l-0.33,1.13l0.07,0.89l-0.29,0.99l-0.81,1.36l0.34,0.34l2.31,-1.08l0.32,-0.39l0.03,-0.22l-0.16,-0.26l0.26,-0.13l1.93,1.18l1.28,0.64l1.06,0.28L852.21,121.33zM849.62,114.15l-0.5,0.16l-1.12,-0.13l0,-0.33l1.12,-0.52l0.5,-0.16l0.13,0.18L849.62,114.15zM847.28,117.35l-0.86,0.36l-0.37,-0.04l0.12,-0.43l0.43,-0.53l1.97,-1.38l0.36,0l0.13,0.29l-0.96,0.68l-0.35,0.35l-0.03,0.34L847.28,117.35zM909.69,144.56l-0.45,0.27l-0.87,0.01l-0.36,-0.47l0.32,-1.32l0.21,0.22l0.75,-0.06l0.27,0.1l0.11,0.31L909.69,144.56zM907.9,147.25l-0.26,0.31l-0.51,-0.14l-0.15,0.44l0.21,1.02l-0.11,0.49l-0.44,-0.03l0,0.19l0.42,0.42l0.09,0.49l-0.25,0.57l-0.26,0.28l-0.28,-0.01l-0.37,0.66l-0.46,1.33l-0.13,0.76l0.21,0.19l-0.09,0.44l-1.27,2.08l-0.54,0.24l-0.64,-0.21l-0.49,-0.53l-0.34,-0.84l-0.14,-0.66l0.06,-0.48l1.12,-1.84l0.46,-1.18l0.2,-1.29l0.51,-0.86l0.83,-0.43l0.62,-0.85l0.41,-1.27l0.56,-0.59l0.71,0.09l0.35,0.43L907.9,147.25z" fill="#000000"/></svg>
