<svg xmlns="http://www.w3.org/2000/svg" viewBox="332.37 6.71 126.60 96.76"><path d="M442.1,99.88l-3.77,-0.89l-4.04,-0.96l-4.03,-0.97l-4.03,-0.98l-4.03,-0.99l-4.02,-1l-4.02,-1.02l-4.02,-1.03l-0.26,-0.06l-0.56,0.29l-2.13,0.29l-3.87,-0.76l-8.2,0.05l-3.8,0.73l-3.18,-0.01l-5.72,-0.76l-5.29,-0.3l-2.07,-0.7l-0.62,-1.18l-2.25,-1.22l-3.89,-1.27l-3.49,-0.35l-3.61,0.97l-1.03,-0.1l0,0l-0.81,-0.18l-5.18,-2.34l-1.32,-0.45l-0.84,-1.34l0.19,-1.72l0.03,-5.34l-0.58,-3.38l-1.2,-1.43l-1.05,-0.76l-1.65,0.08l-0.37,-0.43l-0.68,-0.29l-1.24,-1.56l-0.56,-1.35l-2.78,-0.79l-0.35,-0.87l-3.29,-0.28l-0.72,-1.01l-1.82,-0.08l1.05,-1.87l0.73,-2.54l0.87,-2.42l-0.16,1.92l0.44,2.23l1.18,-2l1.2,-2.6l-0.68,-1.36l-1.43,-1.31l0.21,-2.71l4.64,-0.89l-1.95,-1.12l-0.52,-1.23l-0.98,-0.44l-0.31,0.72l-0.64,0.87l0.06,-1.41l0.39,-1.56l0.42,-2.74l-0.26,-4.72l0.79,-5.76l-0.34,-3.08l-1.49,-3.33l-0.12,-1.7l0.69,-3.98l1.25,-2.78l0.23,-2.17l1.07,0.48l2.4,2.54l3.23,2.42l0.81,1.27l1.55,1.24l9.48,4.13l0.67,0.1l1.47,-0.26l0.52,0.25l0.99,1.94l0.67,0.4l0.96,0.21l0.78,-0.07l1.5,-0.66l0.04,0.43l-0.31,0.94l0.01,1.48l0.34,2.02l0,1.19l-2.7,2.54l-0.36,-0.04l0.26,-1.06l-0.17,-0.27l-4.92,4.18l-1.93,2.1l-0.46,1.08l-0.16,0.66l0.42,0.3l1.15,0.08l1.9,-0.54l0.14,-0.2l-1.59,-0.09l-0.72,-0.19l0.45,-1.13l0.34,-0.5l1.49,-1.43l1.33,-0.72l1.77,-0.66l1.1,-0.65l0.97,-1.15l2.07,-1.1l0.43,-0.35l0.32,-1.33l0.18,-0.22l0.71,0.41l-0.36,2.34l-0.49,0.94l-1.74,0.8l-0.3,0.38l-0.26,1.74l-0.26,0.1l-0.47,-0.36l-0.19,0.06l0.76,2.2l-0.01,1.53l-0.32,1.27l-1.08,2.3l-0.5,0.28l-0.61,-0.34l-0.64,-1.01l-0.27,0.18l-1.25,1.66l-0.18,-0.23l0.24,-2.35l-0.18,-0.24l-1.64,0.6l-0.83,0.81l-0.93,1.41l-0.81,0.54l1.62,0.67l1.59,0.14l0.98,1.1l0.4,0.15l1.32,-0.39l0.48,-0.39l1.61,-2.06l0.58,-0.28l0.68,0.19l0.76,-0.15l1.35,-0.99l0.19,-0.5l0.5,-2.98l0.59,-1.6l-0.03,-0.57l-0.27,-0.66l0.21,-0.51l0.59,-0.76l0.25,-0.77l-0.08,-0.78l0.36,-0.74l1.41,-1.41l0.39,-0.69l1.61,-1.35l-0.08,-0.76l-0.57,-1.07l-0.3,-0.88l-0.18,-1.29l-0.28,-0.5l-0.18,0.14l0,2.02l-0.16,0.09l-1.14,-1.43l-0.14,-0.73l0.08,-0.91l0.32,-0.6l0.96,-0.4l0.99,0.04l0.08,-0.56l-0.63,-2.08l-0.53,-1.02l-0.47,-0.56l-0.76,-0.34L371,23.95l0.03,-0.44l0.33,-0.49l0.47,-0.04l1.16,0.58l0.77,-0.18l0.15,-0.71l-0.08,-0.44l0.77,-2.46l0.14,-2.15l-0.14,-0.41l-0.25,-0.11L374,17.29l-0.79,-0.16l-0.27,-0.8l-0.14,-1.43l-0.03,-3.32l1.46,0.44l6.08,1.82l6.09,1.8l6.1,1.76l6.1,1.74l6.11,1.71l6.12,1.68l6.13,1.65l6.14,1.62l6.14,1.59l6.15,1.56l6.16,1.54L447.7,32l6.17,1.48l1.51,0.36l-0.8,3.52l-0.82,3.53l-0.82,3.53l-0.82,3.52l-0.82,3.52l-0.82,3.52l-0.82,3.52l-0.82,3.52l-0.82,3.52l-0.81,3.52l-0.81,3.51l-0.82,3.51l-0.81,3.51l-0.81,3.51l-0.81,3.51l-0.81,3.5l-0.16,0.18l-0.22,0.48l0.09,1.56l0.52,2.37l-0.04,1.57l-0.59,0.77l-0.08,1.56L442.1,99.88zM368.54,10.29l0.53,0.16l-0.3,0.27l-0.18,-0.12L368.54,10.29zM370.77,18.54l0.05,0.53l-0.71,0.28l-0.43,-0.05l-0.43,-0.93l-0.26,-0.17l-0.12,1.2l-0.2,0.36l-1.12,-1.1l-0.08,-0.63l0.55,-0.47l1.02,-0.34l0.31,0.02L370.77,18.54zM366.33,21.25l0.16,0.82l-1.41,-0.93l-0.53,-0.61l-0.07,-0.46l0.17,-1.37l0.24,-0.39l0.73,0.06l0.79,2.01L366.33,21.25zM368.63,23.59l-0.29,0.14l-0.68,-0.52l-0.31,-0.62l0.03,-0.65l0.64,-1.06l0.47,-0.18l0.22,0.14l-0.21,1.04l0.35,1.28L368.63,23.59zM370.41,30.6l-0.14,3.05l0.66,-1.09l1.36,2.63l-0.3,1.01l-0.34,0.27l-0.44,0l-0.29,-0.41l-0.14,-0.81l-0.33,-0.51l-0.87,-0.52l-0.25,-0.95l-0.01,-0.6l0.43,-1.6l-0.09,-0.56l-0.47,-0.26l-0.37,-0.52l-0.4,-1.33l-0.01,-0.33l0.62,-0.8l1.26,-1.27l0.8,-0.54l0.34,0.19l0.31,0.59l0.28,0.99l-0.28,0.56l-2.5,0.49l-0.15,0.25l0.95,0.64l0.3,0.4L370.41,30.6zM367.86,43.06l-0.2,0.39L367,42.71l-0.13,-0.54l0.34,-1.01l0.4,-0.61l0.19,-0.09l0.39,0.43l0.08,0.21L367.86,43.06zM368.08,47.81l-0.21,0.47l-0.68,0.21l-0.26,-0.18l0.15,-0.58l-0.13,-0.13l-0.81,0.51l0.46,-1.36l0.73,-1.36l0.27,0.05l0.11,1.06L368.08,47.81zM360.12,49.89l-0.27,0.38l-0.2,-0.08l-0.2,-1l0.13,-0.62l0.53,-0.32l0.14,1.42L360.12,49.89z" fill="#000000"/></svg>
