<svg xmlns="http://www.w3.org/2000/svg" viewBox="996.41 232.05 84.91 83.25"><path d="M1047.74,251.56L1048.21,254.37L1048.68,257.17L1049.15,259.98L1049.62,262.79L1051.49,260.76L1052.51,259.97L1055.54,255.69L1056.02,255.58L1057.39,255.85L1059.55,252.8L1059.69,251.81L1059.94,251.45L1060.28,251.42L1060.53,251.63L1060.51,252.18L1060.76,252.39L1061.96,252.8L1063.55,252.84L1063.76,252.83L1065.1,252.56L1065.6,251.95L1065.71,250.9L1066.2,250.21L1067.52,249.69L1069.75,248.19L1071.19,248.08L1072.58,248.86L1073.88,249.11L1075.1,248.82L1075.62,248.97L1075.44,249.55L1075.88,250.08L1076.95,250.57L1077.39,251.13L1077.2,251.78L1077.39,252.19L1077.94,252.36L1078.36,252.94L1078.67,253.91L1078.91,254.04L1078.34,256.88L1077.95,258.8L1075.73,257.64L1072.38,255.88L1070.92,255.11L1068.38,253.76L1068.07,254.75L1068.14,256.44L1067.81,258.16L1067.71,260.49L1065.91,264.5L1064.34,266.55L1063.75,266.62L1063.31,267.06L1062.68,268.27L1061.78,269.39L1059.66,269.75L1058.95,270.57L1058.59,271.72L1058.35,273.32L1057.75,274.67L1057.26,276.85L1056.82,278.05L1055.83,278.83L1054.24,279.03L1052.22,278.57L1051.71,277.71L1051.08,277.24L1050.28,276.98L1049.58,277.22L1049.19,277.92L1048.95,281.13L1048.04,282.83L1047.81,284.43L1046.59,286.6L1045.93,289.76L1043.04,295.28L1042.31,297.06L1041.91,298.8L1042.55,299.4L1042.82,299.91L1042.22,301.25L1042.02,302.55L1041.19,303.53L1039.72,304.69L1039.13,304.09L1038.83,304.02L1035.38,306.15L1034.5,306.28L1033.52,305.96L1033.14,306.06L1032.83,306.27L1032.72,306.63L1032.92,307.92L1032.28,308.69L1031.82,308.98L1029.86,309.49L1027.86,310.51L1027,310.65L1024.59,309.46L1023.56,310.78L1022.49,311.52L1021.26,312.78L1020.84,312.89L1019.54,312.79L1017.76,311.97L1016.31,311.57L1015.39,311.02L1014.6,310.25L1013.92,308.93L1013.22,308.13L1013.35,307.33L1013.1,306.65L1010.58,306.34L1007.1,304.26L1004.65,301.45L1003.8,300.1L1002.93,299.24L1002.6,298.27L1000.36,296L999.7,294.97L999.56,294.27L999.96,292.85L999.98,292.18L999.3,288.95L998.81,288.4L1000.91,288.83L1002.76,288.13L1003.8,286.94L1004.03,285.28L1004.55,284.26L1005.37,283.87L1005.65,283.11L1005.26,281.43L1004.81,280.3L1005.24,278.51L1006.4,275.68L1007.46,274.43L1008.41,274.77L1009.08,275.5L1009.45,276.62L1009.65,276.74L1009.89,276.68L1010.42,275.7L1010.96,275.26L1011.21,275.31L1011.47,275.25L1011.42,274.68L1010.71,273.18L1010.6,272.26L1011.1,271.89L1011.52,270.75L1011.85,268.83L1012.44,267.78L1013.3,267.6L1014.11,266.7L1014.89,265.1L1015.72,264.54L1016.62,265.02L1017.64,264.9L1018.76,264.18L1020.61,262.32L1023.17,259.29L1024.34,257L1024.11,255.43L1024.63,251.43L1025.88,244.99L1026.33,240.89L1025.99,239.11L1025.42,237.71L1024.63,236.69L1024.84,235.74L1026.65,234.45L1027.07,236.97L1027.51,239.5L1027.94,242.04L1028.38,244.57L1028.82,247.1L1029.25,249.63L1029.69,252.17L1030.13,254.7L1032.33,254.32L1034.54,253.94L1036.74,253.55L1038.94,253.16L1041.14,252.76L1043.34,252.37L1045.54,251.97z" fill="#000000"/></svg>
